<?xml version="1.0" encoding="UTF-8" standalone="no"?>
<svg width="29px" height="29px" viewBox="0 0 29 29" version="1.1" xmlns="http://www.w3.org/2000/svg" xmlns:xlink="http://www.w3.org/1999/xlink">
    <!-- Generator: Sketch 45.2 (43514) - http://www.bohemiancoding.com/sketch -->
    <title>Page 1</title>
    <desc>Created with Sketch.</desc>
    <defs></defs>
    <g id="Mobile" stroke="none" stroke-width="1" fill="none" fill-rule="evenodd">
        <g id="page_catalog_320" transform="translate(-101.000000, -740.000000)" stroke-width="2" stroke="#FFFFFF">
            <g id="Group-6" transform="translate(0.000000, 729.000000)">
                <g id="Group-3" transform="translate(102.000000, 12.000000)">
                    <g id="Page-1">
                        <path d="M23.802329,10.5160645 C23.7330871,10.5160645 23.6642806,10.5195484 23.5959097,10.5243387 C23.3842645,9.80622581 23.0990226,9.11990323 22.7471516,8.47495161 C22.7985387,8.43009677 22.8494903,8.38393548 22.8987,8.33472581 C24.0653613,7.16806452 24.0653613,5.2758871 22.8987,4.10922581 C21.7320387,2.94212903 19.8398613,2.94212903 18.6732,4.10922581 C18.6239903,4.158 18.577829,4.2093871 18.5329742,4.26077419 C17.8875871,3.90890323 17.2017,3.62366129 16.4835871,3.41201613 C16.4883774,3.34364516 16.4918613,3.27483871 16.4918613,3.20559677 C16.4918613,1.55554839 15.1540548,0.217741935 13.5040065,0.217741935 C11.8535226,0.217741935 10.5161516,1.55554839 10.5161516,3.20559677 C10.5161516,3.27483871 10.5192,3.34364516 10.5239903,3.41201613 C9.80587742,3.62366129 9.11999032,3.90890323 8.47503871,4.26077419 C8.42974839,4.2093871 8.3835871,4.158 8.33437742,4.10922581 C7.16771613,2.94212903 5.27597419,2.94212903 4.1093129,4.10922581 C2.94221613,5.2758871 2.94221613,7.16806452 4.1093129,8.33472581 C4.15852258,8.38393548 4.20903871,8.43009677 4.26086129,8.47495161 C3.90899032,9.11990323 3.6233129,9.80622581 3.41166774,10.5243387 C3.34373226,10.5195484 3.27492581,10.5160645 3.20568387,10.5160645 C1.55563548,10.5160645 0.217829032,11.853871 0.217829032,13.5039194 C0.217829032,15.1539677 1.55563548,16.4917742 3.20568387,16.4917742 C3.27492581,16.4917742 3.34373226,16.4882903 3.41166774,16.4839355 C3.6233129,17.2016129 3.90899032,17.8879355 4.26086129,18.5328871 C4.20903871,18.5777419 4.15852258,18.6243387 4.1093129,18.6731129 C2.94221613,19.8402097 2.94221613,21.7319516 4.1093129,22.8986129 C5.27597419,24.0652742 7.16771613,24.0652742 8.33437742,22.8986129 C8.3835871,22.8494032 8.42974839,22.7988871 8.47503871,22.7470645 C9.11999032,23.0989355 9.80587742,23.3846129 10.5239903,23.5962581 C10.5192,23.6641935 10.5161516,23.733 10.5161516,23.8022419 C10.5161516,25.4522903 11.8535226,26.7900968 13.5040065,26.7900968 C15.1540548,26.7900968 16.4918613,25.4522903 16.4918613,23.8022419 C16.4918613,23.733 16.4883774,23.6641935 16.4835871,23.5962581 C17.2017,23.3846129 17.8875871,23.0989355 18.5329742,22.7470645 C18.577829,22.7988871 18.6239903,22.8494032 18.6732,22.8986129 C19.8398613,24.0652742 21.7320387,24.0652742 22.8987,22.8986129 C24.0653613,21.7319516 24.0653613,19.8402097 22.8987,18.6731129 C22.8494903,18.6243387 22.7985387,18.5777419 22.7471516,18.5328871 C23.0990226,17.8879355 23.3842645,17.2016129 23.5959097,16.4839355 C23.6642806,16.4882903 23.7330871,16.4917742 23.802329,16.4917742 C25.4523774,16.4917742 26.7901839,15.1539677 26.7901839,13.5039194 C26.7901839,11.853871 25.4523774,10.5160645 23.802329,10.5160645 L23.802329,10.5160645 Z" id="Stroke-1" stroke-linecap="round" stroke-linejoin="round"></path>
                        <path d="M17.7632129,13.50405 C17.7632129,15.8560984 15.856229,17.7630823 13.5037452,17.7630823 C11.1516968,17.7630823 9.2447129,15.8560984 9.2447129,13.50405 C9.2447129,11.1515661 11.1516968,9.24458226 13.5037452,9.24458226 C15.856229,9.24458226 17.7632129,11.1515661 17.7632129,13.50405 L17.7632129,13.50405 Z" id="Stroke-3"></path>
                    </g>
                </g>
            </g>
        </g>
    </g>
</svg>