<svg width="151" height="45" viewBox="0 0 151 45" version="1.1" xmlns="http://www.w3.org/2000/svg" xmlns:xlink="http://www.w3.org/1999/xlink">
<title>Group 3</title>
<desc>Created using Figma</desc>
<g id="Canvas" transform="translate(-7276 -2319)">
<g id="Group 3">
<g id="A">
<g id="Vector">
<use xlink:href="#path0_fill" transform="translate(7276.19 2319)" fill="#4A3A4F"/>
</g>
<g id="Vector">
<use xlink:href="#path1_fill" transform="translate(7287.69 2332.45)" fill="#FFFFFF"/>
</g>
<g id="Vector">
<use xlink:href="#path2_fill" transform="translate(7299.49 2325.47)" fill="#FFFFFF"/>
</g>
<g id="Vector">
<use xlink:href="#path3_fill" transform="translate(7321.85 2338.93)" fill="#FFFFFF"/>
</g>
<g id="Vector">
<use xlink:href="#path4_fill" transform="translate(7334.98 2342.11)" fill="#FFFFFF"/>
</g>
<g id="Vector">
<use xlink:href="#path5_fill" transform="translate(7345.8 2342.11)" fill="#FFFFFF"/>
</g>
<g id="Vector">
<use xlink:href="#path6_fill" transform="translate(7359.94 2338.81)" fill="#FFFFFF"/>
</g>
<g id="Vector">
<use xlink:href="#path7_fill" transform="translate(7368.82 2340.01)" fill="#FFFFFF"/>
</g>
<g id="Vector">
<use xlink:href="#path8_fill" transform="translate(7375.85 2342.14)" fill="#FFFFFF"/>
</g>
<g id="Vector">
<use xlink:href="#path9_fill" transform="translate(7387.09 2342.14)" fill="#FFFFFF"/>
</g>
<g id="Vector">
<use xlink:href="#path10_fill" transform="translate(7393.67 2342.13)" fill="#FFFFFF"/>
</g>
</g>
<g id="&#208;&#161;&#208;&#154;&#208;&#144;&#208;&#167;&#208;&#144;&#208;&#162;&#208;&#172; &#208;&#146;">
<use xlink:href="#path11_fill" transform="translate(7323 2325)" fill="#FFFFFF"/>
<use xlink:href="#path12_fill" transform="translate(7323 2325)" fill="#FFFFFF"/>
<use xlink:href="#path13_fill" transform="translate(7323 2325)" fill="#FFFFFF"/>
<use xlink:href="#path14_fill" transform="translate(7323 2325)" fill="#FFFFFF"/>
<use xlink:href="#path15_fill" transform="translate(7323 2325)" fill="#FFFFFF"/>
<use xlink:href="#path16_fill" transform="translate(7323 2325)" fill="#FFFFFF"/>
<use xlink:href="#path17_fill" transform="translate(7323 2325)" fill="#FFFFFF"/>
<use xlink:href="#path18_fill" transform="translate(7323 2325)" fill="#FFFFFF"/>
</g>
</g>
</g>
<defs>
<path id="path0_fill" d="M 145.275 0L 5.53663 0C 2.47883 0 0 2.52506 0 5.63988L 0 39.3601C 0 42.4749 2.47883 45 5.53663 45L 145.275 45C 148.333 45 150.812 42.4749 150.812 39.3601L 150.812 5.63988C 150.812 2.52506 148.333 0 145.275 0Z"/>
<path id="path1_fill" d="M 22.3978 2.86055L 21.5304 3.85693C 18.6637 7.03407 18.8482 11.101 22.1456 13.7455C 23.1791 14.5727 23.3206 15.2871 22.7608 16.3211C 22.201 17.3551 21.5858 18.4768 20.9152 19.4919C 18.7867 22.6753 16.9473 23.0576 14.2836 21.7228C 12.8071 20.9834 11.2938 21.2591 9.7743 21.8356C 6.99368 22.9072 5.84329 22.5876 4.02236 20.1687C 0.946457 16.0955 -0.696075 11.5334 0.282063 6.38235C 1.22329 1.36912 5.36961 -0.974564 9.97731 0.855265C 11.706 1.53832 13.0963 1.03073 14.6281 0.510603C 17.8147 -0.629906 20.38 0.134611 22.3978 2.86055Z"/>
<path id="path2_fill" d="M 5.41002 -1.9124e-06C 5.64379 3.60326 3.4476 6.26654 0.156383 6.47333C -0.667959 3.55939 1.86658 0.369724 5.41002 -1.9124e-06Z"/>
<path id="path3_fill" d="M 10.1505 13.7864L 8.82169 9.97006L 3.66033 9.97006L 2.34384 13.7864L 2.25286e-06 13.7864L 5.04448 1.52992e-06L 7.44369 1.52992e-06L 12.4882 13.7864L 10.1505 13.7864ZM 8.20651 8.02743L 6.97615 4.26751C 6.88182 4.01685 6.75264 3.62206 6.58859 3.08314C 6.42454 2.54421 6.31381 2.14942 6.25639 1.89876C 6.06351 2.74892 5.81902 3.58607 5.52432 4.40538L 4.29396 7.98984L 8.20651 8.02743Z"/>
<path id="path4_fill" d="M 5.14291 10.7983C 4.56597 10.8264 3.99092 10.7117 3.46701 10.464C 2.94311 10.2162 2.48595 9.84286 2.13468 9.37579L 2.00549 9.37579C 2.09162 10.2531 2.13468 10.7858 2.13468 10.9738L 2.13468 15.235L 0 15.235L 0 0.195319L 1.75326 0.195319C 1.80248 0.389581 1.90091 0.853296 2.0547 1.58648L 2.16543 1.58648C 2.49331 1.06776 2.9514 0.647815 3.49224 0.37015C 4.03308 0.0924844 4.63697 -0.0327855 5.24134 0.00732065C 5.81241 -0.0192677 6.38135 0.0950428 6.89975 0.340527C 7.41814 0.586011 7.87066 0.955405 8.21881 1.41729C 8.9216 2.6166 9.29267 3.98729 9.29267 5.38401C 9.29267 6.78073 8.9216 8.15141 8.21881 9.35072C 7.86331 9.83195 7.39634 10.216 6.85961 10.4686C 6.32288 10.7212 5.73309 10.8345 5.14291 10.7983ZM 4.62001 1.83088C 4.26791 1.79933 3.91347 1.85268 3.58536 1.98658C 3.25726 2.12049 2.96472 2.3312 2.7314 2.60167C 2.26719 3.33184 2.05107 4.19703 2.11622 5.06441L 2.11622 5.39027C 2.05062 6.349 2.26464 7.30609 2.7314 8.14128C 2.95757 8.43674 3.25296 8.66961 3.59047 8.81852C 3.92797 8.96743 4.29679 9.02761 4.66307 8.99353C 5.00793 9.00665 5.35006 8.9266 5.65474 8.76151C 5.95942 8.59643 6.2158 8.35218 6.39788 8.05355C 6.8524 7.2386 7.06603 6.30721 7.01306 5.37147C 7.07073 4.44728 6.85655 3.52655 6.39788 2.727C 6.20281 2.43387 5.93649 2.19725 5.62491 2.0402C 5.31332 1.88315 4.9671 1.81102 4.62001 1.83088Z"/>
<path id="path5_fill" d="M 5.17367 10.7983C 4.59673 10.8264 4.02168 10.7117 3.49778 10.464C 2.97387 10.2162 2.51671 9.84286 2.16544 9.37579L 2.03624 9.37579C 2.12237 10.2531 2.16544 10.7858 2.16544 10.9738L 2.16544 15.235L -2.25286e-06 15.235L -2.25286e-06 0.195319L 1.75327 0.195319C 1.80248 0.389581 1.9009 0.853296 2.0547 1.58648L 2.16544 1.58648C 2.49331 1.06776 2.9514 0.647815 3.49224 0.37015C 4.03308 0.0924844 4.63698 -0.0327855 5.24134 0.00732065C 5.81242 -0.0192677 6.38135 0.0950428 6.89974 0.340527C 7.41814 0.586011 7.87066 0.955405 8.21881 1.41729C 8.9216 2.6166 9.29266 3.98729 9.29266 5.38401C 9.29266 6.78073 8.9216 8.15141 8.21881 9.35072C 7.86625 9.82739 7.40425 10.2087 6.87332 10.461C 6.34239 10.7134 5.75877 10.8292 5.17367 10.7983ZM 4.65076 1.83088C 4.29866 1.79933 3.94423 1.85268 3.61613 1.98658C 3.28802 2.12049 2.99548 2.3312 2.76216 2.60167C 2.30087 3.33314 2.085 4.19731 2.14698 5.06441L 2.14698 5.39027C 2.08138 6.349 2.2954 7.30609 2.76216 8.14128C 2.98833 8.43674 3.28372 8.66961 3.62122 8.81852C 3.95873 8.96743 4.32755 9.02761 4.69383 8.99353C 5.03869 9.00665 5.38082 8.9266 5.6855 8.76151C 5.99018 8.59643 6.24656 8.35218 6.42863 8.05355C 6.88316 7.2386 7.09679 6.30721 7.04381 5.37147C 7.10149 4.44728 6.8873 3.52655 6.42863 2.727C 6.2314 2.43006 5.96115 2.19104 5.64485 2.03379C 5.32856 1.87654 4.9773 1.80657 4.62616 1.83088L 4.65076 1.83088Z"/>
<path id="path6_fill" d="M 8.63714 10.179C 8.66041 10.7296 8.55419 11.2779 8.32733 11.7782C 8.10048 12.2786 7.75956 12.7164 7.33296 13.0554C 6.28857 13.8085 5.02387 14.1775 3.74645 14.1019C 2.45987 14.1495 1.1793 13.9011 4.50572e-06 13.375L 4.50572e-06 11.2506C 0.629001 11.5504 1.2866 11.7835 1.96242 11.9462C 2.59417 12.1089 3.24253 12.1951 3.89409 12.2031C 4.57546 12.2572 5.25511 12.0786 5.82576 11.6955C 6.0269 11.5335 6.18751 11.3252 6.29444 11.0878C 6.40136 10.8503 6.45156 10.5904 6.44094 10.3294C 6.44255 10.0831 6.39233 9.83936 6.29364 9.61451C 6.19495 9.38967 6.05009 9.18899 5.86882 9.02599C 5.14996 8.48597 4.353 8.06315 3.50653 7.77269C 2.50939 7.4267 1.61426 6.82959 0.904311 6.03685C 0.393397 5.36597 0.126057 4.5357 0.147642 3.6869C 0.125197 3.17145 0.222082 2.65785 0.43047 2.18758C 0.638857 1.71732 0.952901 1.30357 1.34724 0.979762C 2.27818 0.283989 3.41809 -0.0594872 4.57079 0.00844679C 5.90192 0.0170991 7.21629 0.311782 8.42798 0.873232L 7.72667 2.70306C 6.71656 2.23314 5.62524 1.9712 4.51543 1.93228C 3.93585 1.89074 3.36054 2.05945 2.89135 2.40853C 2.71091 2.56021 2.56712 2.75213 2.47112 2.96946C 2.37511 3.18678 2.32946 3.42367 2.33768 3.66184C 2.32823 3.98168 2.40481 4.29805 2.55915 4.57675C 2.74579 4.87089 2.99625 5.11745 3.29122 5.29741C 3.88169 5.64452 4.4989 5.94212 5.13676 6.18725C 5.90828 6.48541 6.63994 6.88123 7.3145 7.36536C 7.74607 7.69476 8.09408 8.12447 8.32955 8.61867C 8.54187 9.10994 8.64682 9.64235 8.63714 10.179Z"/>
<path id="path7_fill" d="M 4.99526 11.1106C 5.53409 11.108 6.06935 11.0213 6.58243 10.8536L 6.58243 12.5205C 6.28377 12.6444 5.97206 12.7327 5.65351 12.7837C 5.26636 12.86 4.87284 12.8978 4.47851 12.8965C 2.42791 12.8965 1.40261 11.7936 1.40261 9.58781L 1.40261 3.98552L 0 3.98552L 0 3.00794L 1.49488 2.19955L 2.23311 2.29487e-06L 3.56805 2.29487e-06L 3.56805 2.31236L 6.47785 2.31236L 6.47785 3.98552L 3.56805 3.98552L 3.56805 9.5502C 3.54969 9.76366 3.57522 9.97868 3.64301 10.1815C 3.7108 10.3844 3.81936 10.5706 3.96177 10.7283C 4.10086 10.8582 4.26374 10.9588 4.4411 11.0244C 4.61845 11.09 4.80678 11.1193 4.99526 11.1106Z"/>
<path id="path8_fill" d="M 9.69286 5.36029C 9.77901 6.80425 9.32139 8.22733 8.41329 9.33954C 7.95366 9.82581 7.39634 10.2052 6.77946 10.4518C 6.16259 10.6984 5.50071 10.8064 4.83909 10.7683C 3.95352 10.7847 3.08001 10.5574 2.31069 10.1103C 1.57706 9.66929 0.989956 9.01449 0.625095 8.23036C 0.207411 7.33858 -0.00308686 6.36081 0.0099148 5.37282C -0.0743702 3.93972 0.381053 2.52781 1.28334 1.4249C 1.7457 0.939575 2.30555 0.56176 2.92457 0.317321C 3.54359 0.0728817 4.20717 -0.0324045 4.86985 0.00866985C 5.52304 -0.0240977 6.17537 0.0890514 6.7811 0.340193C 7.38683 0.591335 7.93131 0.974387 8.37638 1.4625C 9.28664 2.54348 9.75751 3.93763 9.69286 5.36029ZM 2.26763 5.36029C 2.26763 7.75828 3.13709 8.95937 4.876 8.96355C 6.61491 8.96772 7.47616 7.76664 7.45975 5.36029C 7.45975 2.98318 6.59235 1.79671 4.85754 1.80089C 4.47837 1.76812 4.09731 1.83572 3.75132 1.99712C 3.40534 2.15852 3.10616 2.40823 2.88281 2.72207C 2.42498 3.51968 2.21081 4.43816 2.26763 5.36029Z"/>
<path id="path9_fill" d="M 5.17982 0.000941476C 5.54091 -0.00599673 5.90172 0.0255031 6.25638 0.0949357L 6.04722 2.15036C 5.73282 2.07434 5.41069 2.03648 5.08754 2.03757C 4.69591 2.02247 4.30555 2.09168 3.94196 2.24069C 3.57836 2.3897 3.24971 2.61516 2.97747 2.90234C 2.42701 3.51396 2.13719 4.32302 2.17158 5.15204L 2.17158 10.5851L -1.87738e-06 10.5851L -1.87738e-06 0.18894L 1.6979 0.18894L 1.98703 2.01877L 2.09777 2.01877C 2.41401 1.42526 2.86811 0.919653 3.4204 0.546127C 3.9409 0.190849 4.55327 0.0010956 5.17982 0.000941476Z"/>
<path id="path10_fill" d="M 5.07381 10.7779C 4.3911 10.816 3.70805 10.7098 3.06755 10.4661C 2.42706 10.2224 1.84296 9.84636 1.35197 9.36166C 0.887812 8.8337 0.530436 8.21767 0.300311 7.54883C 0.0701872 6.87999 -0.0281699 6.17148 0.0108754 5.46387C -0.0762006 4.02234 0.361893 2.59876 1.24124 1.46583C 1.66988 0.976553 2.20077 0.591401 2.79484 0.338717C 3.3889 0.0860332 4.03101 -0.0277544 4.67395 0.00572142C 5.26266 -0.0252148 5.85118 0.0703813 6.40125 0.286308C 6.95132 0.502235 7.45064 0.833659 7.86673 1.25903C 8.68705 2.20358 9.10723 3.44034 9.03557 4.69935L 9.03557 5.89626L 2.26859 5.89626C 2.24246 6.7466 2.52998 7.57606 3.07447 8.22115C 3.35356 8.50108 3.68722 8.71824 4.05387 8.85856C 4.42052 8.99889 4.812 9.05927 5.203 9.0358C 5.76934 9.03749 6.3343 8.97867 6.8886 8.86033C 7.4634 8.7239 8.0238 8.53081 8.56189 8.28381L 8.56189 10.076C 8.05164 10.3266 7.51207 10.5098 6.95627 10.6212C 6.33517 10.7348 5.70477 10.7873 5.07381 10.7779ZM 4.67395 1.69768C 4.36771 1.68314 4.06192 1.73482 3.7767 1.84931C 3.49148 1.9638 3.23329 2.1385 3.01911 2.36194C 2.56178 2.90713 2.29938 3.59415 2.27474 4.31083L 6.90705 4.31083C 6.94414 3.60625 6.72514 2.91245 6.29187 2.36194C 6.08577 2.13812 5.83425 1.96275 5.55483 1.84804C 5.27541 1.73332 4.97481 1.68201 4.67395 1.69768Z"/>
<path id="path11_fill" d="M 0 3.95616C 0 6.22466 1.61786 8 4.09555 8C 5.50976 8 6.50536 7.43014 7.18418 6.7726L 6.58456 5.99452C 5.93968 6.61918 5.02327 7.00274 4.12949 7.00274C 2.27405 7.00274 1.15399 5.58904 1.15399 3.9452C 1.15399 2.31233 2.25142 0.986301 4.10686 0.986301C 4.93276 0.986301 5.82654 1.32603 6.41485 1.83014L 6.98054 1.01918C 6.21121 0.306849 5.09115 0 4.06161 0C 1.68574 0 0 1.70959 0 3.95616Z"/>
<path id="path12_fill" d="M 8.5961 7.86849L 9.71615 7.86849L 9.71615 4.32877L 10.9041 4.32877L 13.0311 7.86849L 14.3095 7.86849L 11.8318 3.82466L 11.8318 3.80274L 14.1624 0.131507L 12.9292 0.131507L 10.9041 3.3863L 9.71615 3.3863L 9.71615 0.131507L 8.5961 0.131507L 8.5961 7.86849Z"/>
<path id="path13_fill" d="M 14.6631 7.86849L 15.8058 7.86849L 16.6091 5.64384L 19.6185 5.64384L 20.4218 7.86849L 21.5758 7.86849L 18.7134 0.131507L 17.5255 0.131507L 14.6631 7.86849ZM 16.9032 4.74521L 17.797 2.30137C 17.9328 1.89589 18.1025 1.19452 18.1025 1.19452L 18.1251 1.19452C 18.1251 1.19452 18.3061 1.89589 18.4419 2.30137L 19.3244 4.74521L 16.9032 4.74521Z"/>
<path id="path14_fill" d="M 24.2419 4.89863C 25.0678 4.89863 25.8824 4.58082 26.2897 4.3726L 26.3123 4.3726C 26.3123 4.3726 26.2897 4.58082 26.2897 4.73425L 26.2897 7.86849L 27.4211 7.86849L 27.4211 0.131507L 26.2897 0.131507L 26.2897 3.3863C 25.9503 3.60548 25.2375 3.91233 24.4795 3.91233C 23.4047 3.91233 22.9635 3.3863 22.9635 2.41096L 22.9635 0.131507L 21.8321 0.131507L 21.8321 2.6411C 21.8321 4.06575 22.5901 4.89863 24.2419 4.89863Z"/>
<path id="path15_fill" d="M 28.6506 7.86849L 29.7932 7.86849L 30.5965 5.64384L 33.6059 5.64384L 34.4092 7.86849L 35.5632 7.86849L 32.7009 0.131507L 31.5129 0.131507L 28.6506 7.86849ZM 30.8907 4.74521L 31.7844 2.30137C 31.9202 1.89589 32.0899 1.19452 32.0899 1.19452L 32.1125 1.19452C 32.1125 1.19452 32.2936 1.89589 32.4293 2.30137L 33.3118 4.74521L 30.8907 4.74521Z"/>
<path id="path16_fill" d="M 37.9736 7.86849L 39.0824 7.86849L 39.0824 1.07397L 41.8316 1.07397L 41.8316 0.131507L 35.2244 0.131507L 35.2244 1.07397L 37.9736 1.07397L 37.9736 7.86849Z"/>
<path id="path17_fill" d="M 43.0675 7.86849L 45.9298 7.86849C 47.3214 7.86849 48.317 6.91507 48.317 5.47945C 48.317 3.93425 47.2761 3.04658 45.8846 3.04658L 44.1875 3.04658L 44.1875 0.131507L 43.0675 0.131507L 43.0675 7.86849ZM 44.1875 6.92603L 44.1875 3.98904L 45.7262 3.98904C 46.6086 3.98904 47.1743 4.56986 47.1743 5.47945C 47.1743 6.37808 46.6426 6.92603 45.7375 6.92603L 44.1875 6.92603Z"/>
<path id="path18_fill" d="M 52.5581 7.86849L 55.4205 7.86849C 56.8234 7.86849 58 7.12329 58 5.66575C 58 4.8 57.5248 4.03288 56.6763 3.79178L 56.6763 3.76986C 57.2872 3.46301 57.6719 2.86027 57.6719 2.10411C 57.6719 0.854795 56.7102 0.131507 55.3526 0.131507L 52.5581 0.131507L 52.5581 7.86849ZM 53.6782 3.3863L 53.6782 1.07397L 55.3413 1.07397C 56.0993 1.07397 56.5292 1.53425 56.5292 2.2137C 56.5292 2.89315 56.0767 3.3863 55.3526 3.3863L 53.6782 3.3863ZM 53.6782 6.92603L 53.6782 4.28493L 55.4771 4.28493C 56.3143 4.28493 56.846 4.82192 56.846 5.6C 56.846 6.4 56.3369 6.92603 55.4771 6.92603L 53.6782 6.92603Z"/>
</defs>
</svg>
