<svg width="62" height="53" viewBox="0 0 62 53" version="1.1" xmlns="http://www.w3.org/2000/svg" xmlns:xlink="http://www.w3.org/1999/xlink">
<title>Group 2</title>
<desc>Created using Figma</desc>
<g id="Canvas" transform="translate(4301 -789)">
<g id="Group 2">
<g id="Callout Background">
<use xlink:href="#path0_stroke" transform="translate(-4300 790.212)" fill="#FFFFFF"/>
</g>
<g id="Page 1">
<g id="Combined Shape">
<use xlink:href="#path1_fill" transform="matrix(6.12323e-17 -1 1 6.12323e-17 -4266.46 822.212)" fill="#FFFFFF"/>
</g>
<g id="Combined Shape Copy 3">
<use xlink:href="#path2_fill" transform="matrix(6.12323e-17 -1 1 6.12323e-17 -4279 816.427)" fill="#FFFFFF"/>
</g>
</g>
</g>
</g>
<defs>
<path id="path0_stroke" d="M 16.8497 42.6777L 16.1426 43.3848L 16.8497 42.6777ZM 0.58877 26.4168L 1.29588 25.7096L 0.58877 26.4168ZM 0.58877 23.5832L 1.29588 24.2904L 0.58877 23.5832ZM 16.8497 7.32233L 16.1426 6.61522L 16.8497 7.32233ZM 51.4979 41.9706C 42.1253 51.3431 26.9294 51.3431 17.5568 41.9706L 16.1426 43.3848C 26.2962 53.5384 42.7585 53.5384 52.9121 43.3848L 51.4979 41.9706ZM 17.5568 41.9706L 1.29588 25.7096L -0.118336 27.1239L 16.1426 43.3848L 17.5568 41.9706ZM 1.29588 25.7096C 0.902273 25.316 0.900477 24.6858 1.29588 24.2904L -0.118336 22.8761C -1.29813 24.0559 -1.28964 25.9526 -0.118336 27.1239L 1.29588 25.7096ZM 1.29588 24.2904L 17.5568 8.02944L 16.1426 6.61522L -0.118336 22.8761L 1.29588 24.2904ZM 17.5568 8.02944C 26.9294 -1.34315 42.1253 -1.34315 51.4979 8.02944L 52.9121 6.61522C 42.7585 -3.53841 26.2962 -3.53841 16.1426 6.61522L 17.5568 8.02944ZM 51.4979 8.02944C 60.8705 17.402 60.8705 32.598 51.4979 41.9706L 52.9121 43.3848C 63.0658 33.2311 63.0658 16.7689 52.9121 6.61522L 51.4979 8.02944Z"/>
<path id="path1_fill" fill-rule="evenodd" d="M 13.5356 0.257812C 13.0625 -0.137695 12.3621 -0.0703125 11.9687 0.404785L 6.96875 5.11035L 1.9693 0.405273C 1.57599 -0.0698242 0.875549 -0.137207 0.402405 0.257812C -0.0717773 0.650391 -0.135254 1.34619 0.256531 1.8208L 5.12488 6.39746L 6.0249 7.24365C 6.2652 7.53467 6.62146 7.67188 6.97089 7.64404C 7.31921 7.67041 7.67358 7.5332 7.91309 7.24316L 8.81311 6.39697L 13.6815 1.82031C 14.0733 1.3457 14.0098 0.649902 13.5356 0.257812Z"/>
<path id="path2_fill" fill-rule="evenodd" d="M 1.28389 0.00946742C 0.673751 -0.0698918 0.121443 0.358333 0.0415693 0.9685C 0.0415693 0.9685 0.0235662 13.1373 0.0145647 15.3646C 0.0129006 15.7764 0.0095723 16.5999 0.0095723 16.5999C -0.0703016 17.2101 0.358397 17.7663 0.970249 17.8483C 1.57953 17.9263 2.13533 17.4977 2.20867 16.8862L 2.24502 1.25568C 2.32404 0.644195 1.8958 0.0857921 1.28389 0.00946742Z"/>
</defs>
</svg>
