<svg width="11" height="22" viewBox="0 0 11 22" version="1.1" xmlns="http://www.w3.org/2000/svg" xmlns:xlink="http://www.w3.org/1999/xlink">
<title>Fill 9</title>
<desc>Created using Figma</desc>
<g id="Canvas" transform="translate(4051 -3521)">
<g id="Fill 9">
<use xlink:href="#path0_fill" transform="translate(-4050.23 3521.99)" fill="#B7B7B7"/>
</g>
</g>
<defs>
<path id="path0_fill" fill-rule="evenodd" d="M 2.10729 10.3175C 2.16011 10.3841 2.13015 10.843 2.13015 10.9284L 2.13251 20.6108L 6.3526 20.6108C 6.37704 18.0626 6.35339 15.4469 6.35339 12.8861C 6.35339 12.85 6.34472 10.4061 6.35654 10.3551C 6.36443 10.3222 6.36522 10.3261 6.37389 10.312C 6.3802 10.3128 9.05825 10.3339 9.15207 10.3112L 9.19858 10.2979L 9.56911 6.76374L 6.36601 6.76374C 6.35418 6.24138 6.36916 5.70491 6.36916 5.18178C 6.36995 4.70413 6.35891 4.11354 6.64508 3.85158L 9.55256 3.5606L 9.54783 0.0155006C 8.99755 -0.0174406 8.34479 0.0123634 7.78269 0.0123634C 7.1993 0.0123634 6.60724 0.000598658 6.03253 0.03903C 4.9375 0.110403 4.05375 0.435108 3.41281 0.977854C 2.48649 2.45628 2.12778 1.1857 2.12148 6.7653L 0 6.76609L 0.00473016 10.3159L 2.10729 10.3175Z"/>
</defs>
</svg>
