<svg width="15" height="20" viewBox="0 0 15 20" version="1.1" xmlns="http://www.w3.org/2000/svg" xmlns:xlink="http://www.w3.org/1999/xlink">
<title>Path 980</title>
<desc>Created using Figma</desc>
<g id="Canvas" transform="translate(3819 -1189)">
<g id="Path 980">
<use xlink:href="#path0_stroke" transform="matrix(-1.83697e-16 1 -1 -1.83697e-16 -3805.42 1190.21)" fill="#F9A61A"/>
</g>
</g>
<defs>
<path id="path0_stroke" d="M 0 0L 0 -1C -0.552285 -1 -1 -0.552285 -1 2.22045e-16L 0 0ZM 16.8154 0L 17.6112 0.605596C 17.8414 0.303175 17.8802 -0.103566 17.7114 -0.444074C 17.5427 -0.784582 17.1955 -1 16.8154 -1L 16.8154 0ZM 12.0275 6.29146L 11.2317 5.68587C 10.9594 6.04368 10.9594 6.53924 11.2317 6.89706L 12.0275 6.29146ZM 16.8154 12.5829L 16.8154 13.5829C 17.1955 13.5829 17.5427 13.3675 17.7114 13.027C 17.8802 12.6865 17.8414 12.2798 17.6112 11.9773L 16.8154 12.5829ZM 0 12.5829L -1 12.5829C -1 13.1352 -0.552285 13.5829 2.22045e-16 13.5829L 0 12.5829ZM 0 1L 16.8154 1L 16.8154 -1L 0 -1L 0 1ZM 16.0197 -0.605596L 11.2317 5.68587L 12.8233 6.89706L 17.6112 0.605596L 16.0197 -0.605596ZM 11.2317 6.89706L 16.0197 13.1885L 17.6112 11.9773L 12.8233 5.68587L 11.2317 6.89706ZM 16.8154 11.5829L 0 11.5829L 0 13.5829L 16.8154 13.5829L 16.8154 11.5829ZM 1 12.5829L 1 0L -1 0L -1 12.5829L 1 12.5829Z"/>
</defs>
</svg>
