<svg width="151" height="45" viewBox="0 0 151 45" version="1.1" xmlns="http://www.w3.org/2000/svg" xmlns:xlink="http://www.w3.org/1999/xlink">
<title>Group 2</title>
<desc>Created using Figma</desc>
<g id="Canvas" transform="translate(-7115 -2319)">
<g id="Group 2">
<g id="Group">
<g id="G">
<g id="Vector">
<use xlink:href="#path0_fill" transform="translate(7115 2319)" fill="#4A3A4F"/>
</g>
<g id="Vector">
<use xlink:href="#path1_fill" transform="translate(7161.42 2338.49)" fill="#FFFFFF"/>
</g>
<g id="Vector">
<use xlink:href="#path2_fill" transform="translate(7173.97 2341.9)" fill="#FFFFFF"/>
</g>
<g id="Vector">
<use xlink:href="#path3_fill" transform="translate(7184.57 2341.9)" fill="#FFFFFF"/>
</g>
<g id="Vector">
<use xlink:href="#path4_fill" transform="translate(7194.47 2341.81)" fill="#FFFFFF"/>
</g>
<g id="Vector">
<use xlink:href="#path5_fill" transform="translate(7205.38 2337.82)" fill="#FFFFFF"/>
</g>
<g id="Vector">
<use xlink:href="#path6_fill" transform="translate(7209.08 2341.85)" fill="#FFFFFF"/>
</g>
<g id="Vector">
<use xlink:href="#path7_fill" transform="translate(7223.84 2338.7)" fill="#FFFFFF"/>
</g>
<g id="Vector">
<use xlink:href="#path8_fill" transform="translate(7234.28 2337.82)" fill="#FFFFFF"/>
</g>
<g id="Vector">
<use xlink:href="#path9_fill" transform="translate(7237.88 2341.85)" fill="#FFFFFF"/>
</g>
<g id="Vector">
<use xlink:href="#path10_fill" transform="translate(7247.07 2342.05)" fill="#FFFFFF"/>
</g>
</g>
<g id="g">
<g id="Vector">
<use xlink:href="#path11_fill" transform="translate(7125.87 2325.32)" fill="#00CFFE"/>
</g>
<g id="Vector">
<use xlink:href="#path12_fill" transform="translate(7126.46 2339.4)" fill="#F13548"/>
</g>
<g id="Vector">
<use xlink:href="#path13_fill" transform="translate(7126.3 2324.63)" fill="#03ED77"/>
</g>
<g id="Vector">
<use xlink:href="#path14_fill" transform="translate(7140.57 2334.58)" fill="#FCC701"/>
</g>
</g>
</g>
<g id="&#208;&#161;&#208;&#154;&#208;&#144;&#208;&#167;&#208;&#144;&#208;&#162;&#208;&#172; &#208;&#146;">
<use xlink:href="#path15_fill" transform="translate(7162 2325)" fill="#FFFFFF"/>
<use xlink:href="#path16_fill" transform="translate(7162 2325)" fill="#FFFFFF"/>
<use xlink:href="#path17_fill" transform="translate(7162 2325)" fill="#FFFFFF"/>
<use xlink:href="#path18_fill" transform="translate(7162 2325)" fill="#FFFFFF"/>
<use xlink:href="#path19_fill" transform="translate(7162 2325)" fill="#FFFFFF"/>
<use xlink:href="#path20_fill" transform="translate(7162 2325)" fill="#FFFFFF"/>
<use xlink:href="#path21_fill" transform="translate(7162 2325)" fill="#FFFFFF"/>
<use xlink:href="#path22_fill" transform="translate(7162 2325)" fill="#FFFFFF"/>
</g>
</g>
</g>
<defs>
<path id="path0_fill" d="M 145.275 0L 5.53663 0C 2.47883 0 0 2.52506 0 5.63988L 0 39.3601C 0 42.4749 2.47883 45 5.53663 45L 145.275 45C 148.333 45 150.812 42.4749 150.812 39.3601L 150.812 5.63988C 150.812 2.52506 148.333 0 145.275 0Z"/>
<path id="path1_fill" d="M 6.17641 6.49234L 11.1471 6.49234L 11.1471 13.3855C 10.3849 13.6435 9.60299 13.8364 8.80938 13.962C 8.00659 14.0786 7.19648 14.1352 6.38558 14.1312C 4.34318 14.1312 2.76831 13.5046 1.66099 12.2826C 0.553664 11.0606 -1.68964e-06 9.31228 -1.68964e-06 7.06886C -1.68964e-06 4.82544 0.615179 3.12721 1.84554 1.88016C 3.0759 0.633123 4.81071 0.000203163 7.00076 0.000203163C 8.37682 -0.00862779 9.73997 0.270793 11.0056 0.821118L 10.2305 2.70108C 9.21173 2.20451 8.09924 1.93937 6.97 1.92403C 6.33716 1.8913 5.70481 1.99745 5.11576 2.23531C 4.5267 2.47316 3.99469 2.83716 3.55575 3.30267C 2.6878 4.34907 2.24738 5.69499 2.32538 7.06259C 2.32538 8.73367 2.70269 10.01 3.45731 10.8914C 3.87035 11.3424 4.37651 11.6944 4.93927 11.922C 5.50204 12.1496 6.10738 12.2471 6.71162 12.2074C 7.48196 12.1997 8.24923 12.1072 9.00009 11.9317L 9.00009 8.42243L 6.20102 8.42243L 6.17641 6.49234Z"/>
<path id="path2_fill" d="M 9.69286 5.32899C 9.77901 6.77295 9.32139 8.19603 8.41329 9.30824C 7.95484 9.79435 7.39861 10.1737 6.78274 10.4203C 6.16687 10.667 5.50593 10.775 4.84524 10.737C 3.96251 10.763 3.08918 10.5465 2.31684 10.1104C 1.5826 9.6682 0.993791 9.01389 0.625096 8.23039C 0.207411 7.33861 -0.00308648 6.36084 0.00991518 5.37285C -0.0743698 3.93975 0.381049 2.52784 1.28334 1.42493C 1.74688 0.939453 2.30782 0.561602 2.92785 0.317184C 3.54788 0.0727668 4.21239 -0.0324564 4.876 0.00870075C 5.52919 -0.0240668 6.18151 0.0890823 6.78725 0.340224C 7.39298 0.591366 7.93746 0.974422 8.38252 1.46254C 9.27888 2.53892 9.74644 3.91855 9.69286 5.32899ZM 2.26763 5.32899C 2.26763 7.72698 3.13914 8.92807 4.88215 8.93225C 6.62516 8.93643 7.48641 7.73534 7.4659 5.32899C 7.4659 2.95188 6.5985 1.76542 4.86369 1.7696C 4.48565 1.73916 4.10626 1.80784 3.76166 1.96909C 3.41706 2.13034 3.11874 2.3788 2.89511 2.69078C 2.43729 3.48839 2.22312 4.40686 2.27993 5.32899L 2.26763 5.32899Z"/>
<path id="path3_fill" d="M 9.69286 5.32896C 9.779 6.77291 9.32139 8.196 8.41328 9.30821C 7.95365 9.79448 7.39634 10.1739 6.77946 10.4205C 6.16259 10.6671 5.50071 10.775 4.83908 10.737C 3.95636 10.7629 3.08303 10.5465 2.31069 10.1103C 1.57706 9.66929 0.989954 9.01449 0.625093 8.23036C 0.207409 7.33858 -0.00308911 6.36081 0.00991255 5.37282C -0.0743725 3.93971 0.381051 2.5278 1.28334 1.4249C 1.7457 0.939573 2.30555 0.561757 2.92458 0.317318C 3.5436 0.0728788 4.20717 -0.0324074 4.86985 0.00866698C 5.52304 -0.0241005 6.17536 0.0890485 6.7811 0.34019C 7.38683 0.591332 7.93131 0.974389 8.37637 1.4625C 9.27923 2.53547 9.74961 3.91696 9.69286 5.32896ZM 2.26763 5.32896C 2.26763 7.72695 3.13708 8.92804 4.87599 8.93221C 6.6149 8.93639 7.47616 7.73531 7.45975 5.32896C 7.45975 2.95185 6.59235 1.76538 4.85754 1.76956C 4.47836 1.7368 4.09731 1.80439 3.75133 1.96578C 3.40534 2.12718 3.10617 2.37691 2.88281 2.69074C 2.42499 3.48836 2.21082 4.40682 2.26763 5.32896Z"/>
<path id="path4_fill" d="M 9.95544 0.235591L 9.95544 1.44503L 8.21447 1.77716C 8.38683 2.02373 8.51972 2.29658 8.60819 2.58554C 8.71505 2.9129 8.76906 3.25575 8.76813 3.60072C 8.78497 4.07527 8.6957 4.54751 8.50706 4.98175C 8.31843 5.416 8.03537 5.80089 7.67927 6.10734C 6.81674 6.76583 5.75326 7.09216 4.67719 7.02852C 4.38026 7.03107 4.08374 7.0059 3.79133 6.95332C 3.59541 7.04752 3.42739 7.19274 3.30425 7.3743C 3.1811 7.55585 3.1072 7.76732 3.09002 7.9873C 3.08736 8.10042 3.11744 8.21185 3.17651 8.30768C 3.23558 8.40351 3.32103 8.47952 3.42221 8.52622C 3.8048 8.67285 4.21419 8.73273 4.62182 8.70168L 6.38739 8.70168C 7.29994 8.63707 8.20633 8.89612 8.95269 9.43487C 9.24892 9.69528 9.48194 10.022 9.63349 10.3895C 9.78505 10.757 9.85102 11.1552 9.82625 11.553C 9.84686 12.0924 9.72749 12.6279 9.48016 13.1054C 9.23283 13.5829 8.86629 13.9855 8.41749 14.2726C 7.15808 14.989 5.72318 15.3218 4.28347 15.2314C 3.17202 15.3024 2.06443 15.041 1.09683 14.4794C 0.74727 14.2514 0.462321 13.9342 0.270238 13.5594C 0.0781551 13.1845 -0.0143857 12.7651 0.00181014 12.3425C -0.0107204 11.742 0.210425 11.1608 0.616991 10.7258C 1.06858 10.2611 1.64762 9.94657 2.27799 9.82339C 1.98591 9.68875 1.73815 9.47117 1.56437 9.19674C 1.38531 8.94009 1.28666 8.63425 1.28139 8.31942C 1.2721 7.96056 1.38757 7.60988 1.60743 7.32931C 1.88149 7.01133 2.20586 6.74233 2.56711 6.53346C 2.03492 6.29794 1.58625 5.90213 1.28139 5.39922C 0.876168 4.69788 0.710701 3.87947 0.810887 3.0721C 0.911073 2.26474 1.27126 1.51401 1.83506 0.937445C 2.6847 0.266846 3.74623 -0.0631315 4.81868 0.00999521C 5.12116 0.00986991 5.42331 0.0308062 5.72299 0.0726596C 5.96548 0.0973813 6.20598 0.139262 6.44275 0.197993L 9.95544 0.235591ZM 1.95809 12.2423C 1.95102 12.466 2.00472 12.6873 2.11326 12.8819C 2.22181 13.0766 2.381 13.2368 2.57327 13.3452C 3.11991 13.631 3.73153 13.763 4.34498 13.7274C 5.25322 13.7867 6.16136 13.6099 6.98411 13.2136C 7.23985 13.0899 7.45656 12.8958 7.60983 12.6533C 7.76309 12.4109 7.8468 12.1296 7.85152 11.8412C 7.86674 11.6516 7.83062 11.4614 7.7471 11.2912C 7.66358 11.1211 7.53586 10.9775 7.37783 10.8762C 6.81891 10.6433 6.21432 10.5468 5.61226 10.5942L 3.96973 10.5942C 3.43996 10.5639 2.91619 10.7211 2.48715 11.0391C 2.30951 11.1817 2.16736 11.365 2.07223 11.574C 1.97711 11.7831 1.93168 12.012 1.93963 12.2423L 1.95809 12.2423ZM 2.86855 3.61952C 2.83301 4.16823 3.01216 4.70895 3.36685 5.12349C 3.55309 5.30765 3.77538 5.44972 4.01919 5.54043C 4.263 5.63113 4.52285 5.66843 4.78177 5.64988C 6.03673 5.64988 6.66422 4.96683 6.66422 3.60072C 6.69779 3.0383 6.53187 2.48232 6.19668 2.03409C 6.01501 1.84204 5.79407 1.69308 5.54954 1.59778C 5.30501 1.50247 5.04288 1.46316 4.78177 1.48263C 4.51948 1.46472 4.25646 1.5041 4.01032 1.59812C 3.76418 1.69214 3.54061 1.83865 3.35455 2.02782C 3.00446 2.47867 2.83125 3.04593 2.86855 3.61952Z"/>
<path id="path5_fill" d="M 2.16544 14.6261L -2.25286e-06 14.6261L -2.25286e-06 -9.56198e-07L 2.16544 -9.56198e-07L 2.16544 14.6261Z"/>
<path id="path6_fill" d="M 5.07364 10.7798C 4.39071 10.8202 3.70701 10.7151 3.06618 10.4713C 2.42535 10.2274 1.84147 9.85016 1.35179 9.36357C 0.885732 8.83562 0.527204 8.21867 0.296992 7.5485C 0.0667808 6.87833 -0.0305291 6.16828 0.0107009 5.45951C -0.0755798 4.01615 0.362345 2.59089 1.24106 1.45519C 1.67353 0.964787 2.20893 0.579972 2.80748 0.329358C 3.40604 0.0787438 4.05235 -0.0312223 4.69837 0.00762607C 5.28616 -0.0232082 5.87373 0.0724628 6.42279 0.288409C 6.97185 0.504355 7.47007 0.835729 7.88501 1.26093C 8.70695 2.20486 9.1293 3.44148 9.06 4.70126L 9.06 5.89817L 2.23765 5.89817C 2.21101 6.74749 2.49616 7.57643 3.03739 8.22306C 3.31786 8.50284 3.65263 8.71982 4.02024 8.86011C 4.38784 9.0004 4.78017 9.06089 5.17207 9.0377C 5.73637 9.03937 6.29928 8.98056 6.85151 8.86224C 7.42657 8.72674 7.98706 8.53362 8.5248 8.28572L 8.5248 10.078C 8.01629 10.3275 7.47888 10.5107 6.92532 10.6231C 6.31432 10.7347 5.69433 10.7872 5.07364 10.7798ZM 4.69837 1.69959C 4.39125 1.68535 4.08463 1.73714 3.79845 1.85158C 3.51228 1.96603 3.25297 2.14056 3.03739 2.36384C 2.58479 2.9114 2.32494 3.59741 2.29917 4.31273L 6.92532 4.31273C 6.96536 3.60777 6.74602 2.91292 6.31014 2.36384C 6.10498 2.14051 5.85451 1.96541 5.57616 1.85069C 5.29782 1.73598 4.99827 1.68441 4.69837 1.69959Z"/>
<path id="path7_fill" d="M 8.92627 4.15471C 8.96335 4.77597 8.85753 5.39747 8.61723 5.96972C 8.37692 6.54196 8.00878 7.04916 7.54211 7.45091C 6.39901 8.28462 5.00795 8.6898 3.60496 8.59769L 2.20234 8.59769L 2.20234 13.7425L 3.75476e-06 13.7425L 3.75476e-06 1.33868e-06L 3.88179 1.33868e-06C 5.56739 1.33868e-06 6.83056 0.350928 7.67131 1.05278C 8.10197 1.43555 8.43949 1.91496 8.65727 2.45325C 8.87505 2.99154 8.96713 3.57399 8.92627 4.15471ZM 2.20234 6.73026L 3.37119 6.73026C 4.23522 6.78458 5.09463 6.56572 5.83191 6.10361C 6.10466 5.87992 6.31956 5.59168 6.45788 5.26401C 6.5962 4.93633 6.65374 4.57917 6.62549 4.22365C 6.65185 3.89588 6.60337 3.56634 6.48383 3.26085C 6.3643 2.95535 6.17696 2.68219 5.93649 2.46275C 5.28298 2.02179 4.50325 1.8166 3.72184 1.87996L 2.19005 1.87996L 2.20234 6.73026Z"/>
<path id="path8_fill" d="M 2.17159 14.6261L 1.12643e-06 14.6261L 1.12643e-06 -9.56198e-07L 2.17159 -9.56198e-07L 2.17159 14.6261Z"/>
<path id="path9_fill" d="M 7.11061 10.5961L 6.67383 9.14855L 6.60001 9.14855C 6.21205 9.69136 5.70417 10.1336 5.11742 10.4395C 4.5079 10.6883 3.85436 10.8056 3.19806 10.7841C 2.33813 10.8361 1.49304 10.5386 0.848064 9.95694C 0.557437 9.64595 0.332657 9.27744 0.187676 8.87427C 0.0426955 8.4711 -0.019389 8.04188 0.00526979 7.61325C -0.0217499 7.14066 0.0716779 6.66898 0.276486 6.24404C 0.481294 5.8191 0.790515 5.45534 1.17411 5.1881C 2.26196 4.56091 3.49909 4.2529 4.74831 4.29825L 6.50772 4.24186L 6.50772 3.68414C 6.54832 3.14796 6.38538 2.61635 6.0525 2.19897C 5.86365 2.02041 5.64018 1.88411 5.39649 1.79884C 5.1528 1.71358 4.89428 1.68124 4.63758 1.70391C 4.12641 1.70099 3.61792 1.77922 3.13039 1.93577C 2.65753 2.09066 2.19515 2.27697 1.74623 2.49349L 1.04493 0.914324C 1.62839 0.608888 2.24895 0.383426 2.89047 0.243804C 3.49502 0.0954331 4.11419 0.0176481 4.73601 0.0119453C 5.78416 -0.0661493 6.82511 0.240623 7.67042 0.876726C 8.02212 1.225 8.29343 1.64856 8.46473 2.11675C 8.63602 2.58494 8.70301 3.08607 8.66086 3.58387L 8.66086 10.5899L 7.11061 10.5961ZM 3.88091 9.09216C 4.57479 9.12562 5.25425 8.88293 5.77567 8.41537C 6.01966 8.17221 6.20961 7.87857 6.33272 7.55426C 6.45582 7.22995 6.5092 6.88252 6.48927 6.53541L 6.48927 5.63303L 5.17894 5.68943C 4.40477 5.66173 3.63698 5.84106 2.95198 6.20955C 2.72257 6.36245 2.53727 6.57481 2.4151 6.82481C 2.29293 7.07481 2.2383 7.35343 2.25683 7.63205C 2.24522 7.83081 2.27544 8.02979 2.34546 8.21568C 2.41549 8.40157 2.5237 8.57007 2.66285 8.7099C 3.0077 8.98791 3.44226 9.12429 3.88091 9.09216Z"/>
<path id="path10_fill" d="M -3.00381e-06 -9.56198e-07L 2.3869 -9.56198e-07L 4.46006 5.89054C 4.74965 6.6548 4.95595 7.44915 5.07524 8.25929L 5.14907 8.25929C 5.22446 7.8351 5.32721 7.41642 5.45666 7.00599C 5.6043 6.50884 6.38558 4.17351 7.80049 -9.56198e-07L 10.1443 -9.56198e-07L 5.77654 11.7748C 4.98091 13.9347 3.65827 15.0146 1.80863 15.0146C 1.33678 15.0166 0.866243 14.964 0.406018 14.858L 0.406018 13.1096C 0.774017 13.189 1.1495 13.2269 1.52565 13.2224C 2.57146 13.2224 3.30352 12.5957 3.72799 11.3424L 4.10941 10.3649L -3.00381e-06 -9.56198e-07Z"/>
<path id="path11_fill" d="M 0.587498 28.1994C 0.313121 27.6541 0.12423 27.0684 0.0276841 26.4636C -0.00922677 18.1625 -0.00922677 9.85726 0.0276841 1.54783C 0.0941869 1.01634 0.228614 0.495992 0.42755 1.72116e-06C 0.772051 0.281996 1.14116 0.532656 1.4549 0.845983C 2.75088 2.15778 4.04276 3.47375 5.33054 4.7939L 14.3675 14.0809C 12.885 15.5911 11.4024 17.0951 9.92594 18.6116C 6.80903 21.8201 3.69621 25.016 0.587498 28.1994Z"/>
<path id="path12_fill" d="M 8.44822e-07 14.1185C 3.11281 10.9226 6.22563 7.72664 9.33844 4.53071C 10.8149 3.0142 12.2975 1.51023 13.78 -2.29487e-06L 14.1369 -2.29487e-06L 18.7569 4.75003C 14.4814 7.18145 10.1997 9.6066 5.93034 12.0631C 4.69998 12.7524 3.59881 13.5671 2.39305 14.2438C 1.61793 14.6637 0.756673 15.0898 8.44822e-07 14.1185Z"/>
<path id="path13_fill" d="M 14.2722 14.7486L 13.9154 14.7486L 4.90299 5.48044C 3.61521 4.15611 2.32333 2.84014 1.02735 1.53252C 0.71361 1.2192 0.344501 0.968535 -4.69346e-07 0.686541C 0.928922 -0.472768 1.8886 0.0598856 2.95287 0.655207C 4.01713 1.25053 5.16752 1.90851 6.26869 2.57277C 8.11423 3.66314 9.99669 4.75979 11.8607 5.83763C 13.2879 6.66481 14.7274 7.4732 16.167 8.30038C 17.102 8.8393 18.0125 9.39703 18.9599 9.94848L 14.2722 14.7486Z"/>
<path id="path14_fill" d="M 0 4.80017L 4.67537 9.56198e-07C 6.52091 1.07785 8.42182 2.13062 10.2797 3.23353C 11.51 3.96045 11.59 5.20123 10.5196 6.15374C 10.4211 6.24754 10.314 6.33148 10.1997 6.4044L 4.66307 9.53767L 0 4.80017Z"/>
<path id="path15_fill" d="M 0 3.95616C 0 6.22466 1.61786 8 4.09555 8C 5.50976 8 6.50536 7.43014 7.18418 6.7726L 6.58456 5.99452C 5.93968 6.61918 5.02327 7.00274 4.12949 7.00274C 2.27405 7.00274 1.15399 5.58904 1.15399 3.9452C 1.15399 2.31233 2.25142 0.986301 4.10686 0.986301C 4.93276 0.986301 5.82654 1.32603 6.41485 1.83014L 6.98054 1.01918C 6.21121 0.306849 5.09115 0 4.06161 0C 1.68574 0 0 1.70959 0 3.95616Z"/>
<path id="path16_fill" d="M 8.5961 7.86849L 9.71615 7.86849L 9.71615 4.32877L 10.9041 4.32877L 13.0311 7.86849L 14.3095 7.86849L 11.8318 3.82466L 11.8318 3.80274L 14.1624 0.131507L 12.9292 0.131507L 10.9041 3.3863L 9.71615 3.3863L 9.71615 0.131507L 8.5961 0.131507L 8.5961 7.86849Z"/>
<path id="path17_fill" d="M 14.6631 7.86849L 15.8058 7.86849L 16.6091 5.64384L 19.6185 5.64384L 20.4218 7.86849L 21.5758 7.86849L 18.7134 0.131507L 17.5255 0.131507L 14.6631 7.86849ZM 16.9032 4.74521L 17.797 2.30137C 17.9328 1.89589 18.1025 1.19452 18.1025 1.19452L 18.1251 1.19452C 18.1251 1.19452 18.3061 1.89589 18.4419 2.30137L 19.3244 4.74521L 16.9032 4.74521Z"/>
<path id="path18_fill" d="M 24.2419 4.89863C 25.0678 4.89863 25.8824 4.58082 26.2897 4.3726L 26.3123 4.3726C 26.3123 4.3726 26.2897 4.58082 26.2897 4.73425L 26.2897 7.86849L 27.4211 7.86849L 27.4211 0.131507L 26.2897 0.131507L 26.2897 3.3863C 25.9503 3.60548 25.2375 3.91233 24.4795 3.91233C 23.4047 3.91233 22.9635 3.3863 22.9635 2.41096L 22.9635 0.131507L 21.8321 0.131507L 21.8321 2.6411C 21.8321 4.06575 22.5901 4.89863 24.2419 4.89863Z"/>
<path id="path19_fill" d="M 28.6506 7.86849L 29.7932 7.86849L 30.5965 5.64384L 33.6059 5.64384L 34.4092 7.86849L 35.5632 7.86849L 32.7009 0.131507L 31.5129 0.131507L 28.6506 7.86849ZM 30.8907 4.74521L 31.7844 2.30137C 31.9202 1.89589 32.0899 1.19452 32.0899 1.19452L 32.1125 1.19452C 32.1125 1.19452 32.2936 1.89589 32.4293 2.30137L 33.3118 4.74521L 30.8907 4.74521Z"/>
<path id="path20_fill" d="M 37.9736 7.86849L 39.0824 7.86849L 39.0824 1.07397L 41.8316 1.07397L 41.8316 0.131507L 35.2244 0.131507L 35.2244 1.07397L 37.9736 1.07397L 37.9736 7.86849Z"/>
<path id="path21_fill" d="M 43.0675 7.86849L 45.9298 7.86849C 47.3214 7.86849 48.317 6.91507 48.317 5.47945C 48.317 3.93425 47.2761 3.04658 45.8846 3.04658L 44.1875 3.04658L 44.1875 0.131507L 43.0675 0.131507L 43.0675 7.86849ZM 44.1875 6.92603L 44.1875 3.98904L 45.7262 3.98904C 46.6086 3.98904 47.1743 4.56986 47.1743 5.47945C 47.1743 6.37808 46.6426 6.92603 45.7375 6.92603L 44.1875 6.92603Z"/>
<path id="path22_fill" d="M 52.5581 7.86849L 55.4205 7.86849C 56.8234 7.86849 58 7.12329 58 5.66575C 58 4.8 57.5248 4.03288 56.6763 3.79178L 56.6763 3.76986C 57.2872 3.46301 57.6719 2.86027 57.6719 2.10411C 57.6719 0.854795 56.7102 0.131507 55.3526 0.131507L 52.5581 0.131507L 52.5581 7.86849ZM 53.6782 3.3863L 53.6782 1.07397L 55.3413 1.07397C 56.0993 1.07397 56.5292 1.53425 56.5292 2.2137C 56.5292 2.89315 56.0767 3.3863 55.3526 3.3863L 53.6782 3.3863ZM 53.6782 6.92603L 53.6782 4.28493L 55.4771 4.28493C 56.3143 4.28493 56.846 4.82192 56.846 5.6C 56.846 6.4 56.3369 6.92603 55.4771 6.92603L 53.6782 6.92603Z"/>
</defs>
</svg>
