<svg width="305" height="475" viewBox="0 0 305 475" version="1.1" xmlns="http://www.w3.org/2000/svg" xmlns:xlink="http://www.w3.org/1999/xlink">
<title>Group</title>
<desc>Created using Figma</desc>
<g id="Canvas" transform="translate(-6725 -2037)">
<g id="Group">
<g id="Hand2">
<g id="Vector">
<use xlink:href="#path0_fill" transform="translate(6727 2039)" fill="#F5F6F3"/>
</g>
<g id="Group">
<g id="Vector">
<use xlink:href="#path1_fill" transform="translate(7001.31 2292.68)" fill="#4A3A4F"/>
</g>
</g>
<g id="Group">
<g id="Vector">
<use xlink:href="#path2_fill" transform="translate(6995.2 2263.65)" fill="#4A3A4F"/>
</g>
</g>
<g id="Group">
<g id="Group">
<g id="Group">
<g id="Group">
<g id="Group">
<g id="Group">
<g id="Vector">
<use xlink:href="#path3_fill" transform="translate(6732.17 2134.84)" fill="#4A3A4F"/>
</g>
</g>
<g id="Group">
<g id="Vector">
<use xlink:href="#path4_fill" transform="translate(6876.98 2058.21)" fill="#4A3A4F"/>
</g>
</g>
</g>
<g id="Group">
<g id="Group">
<g id="Vector">
<use xlink:href="#path5_fill" transform="translate(6725 2063.58)" fill="#4A3A4F"/>
</g>
</g>
<g id="Group">
<g id="Vector">
<use xlink:href="#path6_fill" transform="translate(6780.75 2037)" fill="#4A3A4F"/>
</g>
</g>
</g>
</g>
<g id="Group">
<g id="Vector">
<use xlink:href="#path7_fill" transform="translate(6744.1 2070.35)" fill="#4A3A4F"/>
</g>
</g>
</g>
<g id="Group">
<g id="Vector">
<use xlink:href="#path8_fill" transform="translate(6934.55 2348.86)" fill="#4A3A4F"/>
</g>
</g>
<g id="Group">
<g id="Vector">
<use xlink:href="#path9_fill" transform="translate(6781.65 2080.33)" fill="#4A3A4F"/>
</g>
</g>
<g id="Group">
<g id="Vector">
<use xlink:href="#path10_fill" transform="translate(6794.15 2077.64)" fill="#4A3A4F"/>
</g>
</g>
</g>
<g id="Group">
<g id="Vector">
<use xlink:href="#path11_fill" transform="translate(6733.35 2170.16)" fill="#4A3A4F"/>
</g>
</g>
<g id="Group">
<g id="Vector">
<use xlink:href="#path12_fill" transform="translate(6789 2241.28)" fill="#4A3A4F"/>
</g>
</g>
<g id="Group">
<g id="Vector">
<use xlink:href="#path13_fill" transform="translate(6906.42 2104.47)" fill="#4A3A4F"/>
</g>
</g>
<g id="Group">
<g id="Vector">
<use xlink:href="#path14_fill" transform="translate(6933.21 2160.94)" fill="#4A3A4F"/>
</g>
</g>
<g id="Group">
<g id="Vector">
<use xlink:href="#path15_fill" transform="translate(6958.14 2203.28)" fill="#4A3A4F"/>
</g>
</g>
<g id="Group">
<g id="Vector">
<use xlink:href="#path16_fill" transform="translate(6987.39 2253.36)" fill="#4A3A4F"/>
</g>
</g>
<g id="Group">
<g id="Vector">
<use xlink:href="#path17_fill" transform="translate(6889.54 2365.6)" fill="#4A3A4F"/>
</g>
</g>
<g id="Group">
<g id="Vector">
<use xlink:href="#path18_fill" transform="translate(6735.52 2186.72)" fill="#4A3A4F"/>
</g>
</g>
<g id="Group">
<g id="Vector">
<use xlink:href="#path19_fill" transform="translate(6971.57 2215.96)" fill="#4A3A4F"/>
</g>
</g>
<g id="Group">
<g id="Vector">
<use xlink:href="#path20_fill" transform="translate(6858.59 2391)" fill="#4A3A4F"/>
</g>
</g>
<g id="Group">
<g id="Vector">
<use xlink:href="#path21_fill" transform="translate(6742.4 2242.37)" fill="#4A3A4F"/>
</g>
</g>
<g id="Group">
<g id="Vector">
<use xlink:href="#path22_fill" transform="translate(6741.94 2233.86)" fill="#4A3A4F"/>
</g>
</g>
</g>
</g>
<g id="Canvas">
<g id="Signin2">
<g id="Vector">
<use xlink:href="#path23_fill" transform="matrix(0.883762 -0.467938 0.467938 0.883762 6747.55 2141.79)" fill="#FFFFFF"/>
</g>
<g id="Rectangle">
<g id="Vector">
<use xlink:href="#path24_fill" transform="matrix(0.883762 -0.467938 -0.467938 -0.883762 6870.07 2379.3)" fill="#02BE75"/>
</g>
<g id="Vector">
<use xlink:href="#path24_fill" transform="matrix(0.883762 -0.467938 -0.467938 -0.883762 6870.07 2379.3)" fill="url(#paint25_linear)"/>
</g>
</g>
<g id="&#195;&#144;&#194;&#152;&#195;&#144;&#194;&#186;&#195;&#144;&#194;&#190;&#195;&#144;&#194;&#189;&#195;&#144;&#194;&#186;&#195;&#144;&#194;&#176;">
<g id="Ellipse" opacity="0.1">
<g id="Vector" opacity="0.1">
<use xlink:href="#path25_fill" transform="matrix(0.883762 -0.467938 0.467938 0.883762 6787.92 2150.33)" fill="#FFFFFF"/>
</g>
</g>
<g id="Ellipse" opacity="0.1">
<g id="Vector" opacity="0.1">
<use xlink:href="#path26_fill" transform="matrix(0.883762 -0.467938 0.467938 0.883762 6769.9 2145.01)" fill="#75E5A1"/>
</g>
</g>
<g id="Ellipse">
<g id="Vector">
<use xlink:href="#path27_fill" transform="matrix(0.883762 -0.467938 0.467938 0.883762 6805.26 2155.99)" fill="#FFFFFF"/>
</g>
</g>
<g id="&#195;&#144;&#194;&#152;&#195;&#144;&#194;&#186;&#195;&#144;&#194;&#190;&#195;&#144;&#194;&#189;&#195;&#144;&#194;&#186;&#195;&#144;&#194;&#176;">
<g id="Rectangle 3 (Stroke)">
<g id="Vector">
<use xlink:href="#path28_fill" transform="matrix(0.883762 -0.467938 0.467938 0.883762 6826.63 2155.67)" fill="#03BE75"/>
</g>
</g>
<g id="Rectangle 5">
<g id="Vector">
<use xlink:href="#path29_fill" transform="matrix(0.883762 -0.467938 0.467938 0.883762 6830.39 2166.99)" fill="#FFFFFF"/>
</g>
</g>
<g id="Rectangle 5.1">
<g id="Vector">
<use xlink:href="#path29_fill" transform="matrix(0.883762 -0.467938 0.467938 0.883762 6842.51 2160.57)" fill="#FFFFFF"/>
</g>
</g>
<g id="Union">
<g id="Vector">
<use xlink:href="#path30_fill" transform="matrix(0.883762 -0.467938 0.467938 0.883762 6828.75 2166.24)" fill="#FFA803"/>
</g>
</g>
<g id="Line (Stroke)">
<g id="Vector">
<use xlink:href="#path31_fill" transform="matrix(0.883762 -0.467938 0.467938 0.883762 6828.08 2156.52)" fill="#03BE75"/>
</g>
</g>
<g id="Rectangle 4">
<g id="Vector">
<use xlink:href="#path32_fill" transform="matrix(0.883762 -0.467938 0.467938 0.883762 6834.16 2154.17)" fill="#FFFFFF"/>
</g>
</g>
<g id="Vector">
<g id="Vector">
<use xlink:href="#path33_fill" transform="matrix(0.883762 -0.467938 0.467938 0.883762 6833.93 2176.49)" fill="#2DC968"/>
</g>
</g>
<g id="Vector">
<g id="Vector">
<use xlink:href="#path33_fill" transform="matrix(-0.883762 0.467938 0.467938 0.883762 6857.65 2163.93)" fill="#2DC968"/>
</g>
</g>
</g>
<g id="Rectangle 2">
<g id="Vector">
<use xlink:href="#path34_fill" transform="matrix(0.883762 -0.467938 0.467938 0.883762 6842.67 2183.81)" fill="#03BE75"/>
</g>
</g>
</g>
<g id="Rectangle 3">
<mask id="mask0_alpha" mask-type="alpha">
<g id="mask0_outline_ins">
<g id="Vector">
<use xlink:href="#path35_fill" transform="matrix(0.883762 -0.467938 0.467938 0.883762 6840.43 2291.21)" fill="#FFFFFF"/>
</g>
</g>
</mask>
<g id="Group" mask="url(#mask0_alpha)">
<g id="Vector">
<use xlink:href="#path36_fill" transform="matrix(0.883762 -0.467938 0.467938 0.883762 6839.46 2290.91)" fill="#FFFFFF"/>
</g>
</g>
</g>
<g id="Rectangle 3.1">
<mask id="mask1_alpha" mask-type="alpha">
<g id="mask1_outline_ins">
<g id="Vector">
<use xlink:href="#path37_fill" transform="matrix(0.883762 -0.467938 0.467938 0.883762 6830.67 2272.78)" fill="#FFFFFF"/>
</g>
</g>
</mask>
<g id="Group" mask="url(#mask1_alpha)">
<g id="Vector">
<use xlink:href="#path38_fill" transform="matrix(0.883762 -0.467938 0.467938 0.883762 6829.7 2272.48)" fill="#FFFFFF"/>
</g>
</g>
</g>
<g id="Rectangle 2.4" filter="url(#filter0_i)">
<g id="Vector">
<use xlink:href="#path39_fill" transform="matrix(0.883762 -0.467938 0.467938 0.883762 6857.6 2323.63)" fill="#FFC875"/>
</g>
</g>
<g id="Group">
<g id="Vector">
<g id="Vector">
<use xlink:href="#path40_fill" transform="matrix(0.883762 -0.467938 0.467938 0.883762 6825.01 2229.98)" fill="#FFFFFF"/>
</g>
</g>
<g id="Vector">
<g id="Vector">
<use xlink:href="#path41_fill" transform="matrix(0.883762 -0.467938 0.467938 0.883762 6834.28 2227.46)" fill="#FFFFFF"/>
</g>
</g>
<g id="Vector">
<g id="Vector">
<use xlink:href="#path42_fill" transform="matrix(0.883762 -0.467938 0.467938 0.883762 6838.39 2222.7)" fill="#FFFFFF"/>
</g>
</g>
<g id="Vector">
<g id="Vector">
<use xlink:href="#path43_fill" transform="matrix(0.883762 -0.467938 0.467938 0.883762 6844.98 2221.93)" fill="#FFFFFF"/>
</g>
</g>
<g id="Vector">
<g id="Vector">
<use xlink:href="#path44_fill" transform="matrix(0.883762 -0.467938 0.467938 0.883762 6849.66 2219.46)" fill="#FFFFFF"/>
</g>
</g>
<g id="Vector">
<g id="Vector">
<use xlink:href="#path45_fill" transform="matrix(0.883762 -0.467938 0.467938 0.883762 6855.75 2216.23)" fill="#FFFFFF"/>
</g>
</g>
<g id="Vector">
<g id="Vector">
<use xlink:href="#path46_fill" transform="matrix(0.883762 -0.467938 0.467938 0.883762 6860.73 2213.6)" fill="#FFFFFF"/>
</g>
</g>
<g id="Vector">
<g id="Vector">
<use xlink:href="#path47_fill" transform="matrix(0.883762 -0.467938 0.467938 0.883762 6866.1 2210.75)" fill="#FFFFFF"/>
</g>
</g>
<g id="Vector">
<g id="Vector">
<use xlink:href="#path48_fill" transform="matrix(0.883762 -0.467938 0.467938 0.883762 6872.02 2205.09)" fill="#FFFFFF"/>
</g>
</g>
<g id="Vector">
<g id="Vector">
<use xlink:href="#path49_fill" transform="matrix(0.883762 -0.467938 0.467938 0.883762 6880.47 2203.07)" fill="#FFFFFF"/>
</g>
</g>
<g id="Vector">
<g id="Vector">
<use xlink:href="#path50_fill" transform="matrix(0.883762 -0.467938 0.467938 0.883762 6885.01 2200.6)" fill="#FFFFFF"/>
</g>
</g>
<g id="Vector">
<g id="Vector">
<use xlink:href="#path51_fill" transform="matrix(0.883762 -0.467938 0.467938 0.883762 6889.88 2198.02)" fill="#FFFFFF"/>
</g>
</g>
<g id="Vector">
<g id="Vector">
<use xlink:href="#path52_fill" transform="matrix(0.883762 -0.467938 0.467938 0.883762 6894.23 2195.72)" fill="#FFFFFF"/>
</g>
</g>
<g id="Vector">
<g id="Vector">
<use xlink:href="#path53_fill" transform="matrix(0.883762 -0.467938 0.467938 0.883762 6898.55 2193.57)" fill="#FFFFFF"/>
</g>
</g>
<g id="Vector">
<g id="Vector">
<use xlink:href="#path54_fill" transform="matrix(0.883762 -0.467938 0.467938 0.883762 6903.69 2190.7)" fill="#FFFFFF"/>
</g>
</g>
</g>
<g id="&#195;&#144;&#194;&#155;&#195;&#144;&#194;&#190;&#195;&#144;&#194;&#179;&#195;&#144;&#194;&#184;&#195;&#144;&#194;&#189;">
<g id="Vector">
<use xlink:href="#path55_fill" transform="matrix(0.883762 -0.467938 0.467938 0.883762 6843.79 2275.39)" fill="#FFFFFF"/>
</g>
</g>
<g id="&#195;&#144;&#194;&#159;&#195;&#144;&#194;&#176;&#195;&#145;&#194;&#128;&#195;&#144;&#194;&#190;&#195;&#144;&#194;&#187;&#195;&#145;&#194;&#140;">
<g id="Vector">
<use xlink:href="#path56_fill" transform="matrix(0.883762 -0.467938 0.467938 0.883762 6853.81 2293.28)" fill="#FFFFFF"/>
</g>
</g>
<g id="&#195;&#144;&#194;&#146;&#195;&#144;&#194;&#190;&#195;&#144;&#194;&#185;&#195;&#145;&#194;&#130;&#195;&#144;&#194;&#184;">
<g id="Vector">
<g id="Vector">
<use xlink:href="#path57_fill" transform="matrix(0.883762 -0.467938 0.467938 0.883762 6905.69 2308.86)" fill="#FFFFFF"/>
</g>
</g>
<g id="Vector">
<g id="Vector">
<use xlink:href="#path58_fill" transform="matrix(0.883762 -0.467938 0.467938 0.883762 6909.85 2306.55)" fill="#FFFFFF"/>
</g>
</g>
<g id="Vector">
<g id="Vector">
<use xlink:href="#path59_fill" transform="matrix(0.883762 -0.467938 0.467938 0.883762 6914.39 2302.58)" fill="#FFFFFF"/>
</g>
</g>
<g id="Vector">
<g id="Vector">
<use xlink:href="#path60_fill" transform="matrix(0.883762 -0.467938 0.467938 0.883762 6919.55 2301.51)" fill="#FFFFFF"/>
</g>
</g>
<g id="Vector">
<g id="Vector">
<use xlink:href="#path61_fill" transform="matrix(0.883762 -0.467938 0.467938 0.883762 6923.88 2299.23)" fill="#FFFFFF"/>
</g>
</g>
</g>
<g id="&#195;&#144;&#194;&#151;&#195;&#144;&#194;&#176;&#195;&#144;&#194;&#177;&#195;&#145;&#194;&#139;&#195;&#144;&#194;&#187;&#195;&#144;&#194;&#184;">
<g id="Vector">
<g id="Vector">
<use xlink:href="#path62_fill" transform="matrix(0.883762 -0.467938 0.467938 0.883762 6912.77 2262.7)" fill="#A0E8BE"/>
</g>
</g>
<g id="Vector">
<g id="Vector">
<use xlink:href="#path63_fill" transform="matrix(0.883762 -0.467938 0.467938 0.883762 6915.81 2262.26)" fill="#A0E8BE"/>
</g>
</g>
<g id="Vector">
<g id="Vector">
<use xlink:href="#path64_fill" transform="matrix(0.883762 -0.467938 0.467938 0.883762 6917.63 2260.11)" fill="#A0E8BE"/>
</g>
</g>
<g id="Vector">
<g id="Vector">
<use xlink:href="#path65_fill" transform="matrix(0.883762 -0.467938 0.467938 0.883762 6920.74 2259.72)" fill="#A0E8BE"/>
</g>
</g>
<g id="Vector">
<g id="Vector">
<use xlink:href="#path66_fill" transform="matrix(0.883762 -0.467938 0.467938 0.883762 6923.8 2258.1)" fill="#A0E8BE"/>
</g>
</g>
<g id="Vector">
<g id="Vector">
<use xlink:href="#path67_fill" transform="matrix(0.883762 -0.467938 0.467938 0.883762 6926.69 2256.57)" fill="#A0E8BE"/>
</g>
</g>
<g id="Vector">
<g id="Vector">
<use xlink:href="#path68_fill" transform="matrix(0.883762 -0.467938 0.467938 0.883762 6930.22 2254.7)" fill="#A0E8BE"/>
</g>
</g>
<g id="Vector">
<g id="Vector">
<use xlink:href="#path69_fill" transform="matrix(0.883762 -0.467938 0.467938 0.883762 6932.54 2253.41)" fill="#A0E8BE"/>
</g>
</g>
<g id="Vector">
<g id="Vector">
<use xlink:href="#path70_fill" transform="matrix(0.883762 -0.467938 0.467938 0.883762 6934.99 2252.11)" fill="#A0E8BE"/>
</g>
</g>
<g id="Vector">
<g id="Vector">
<use xlink:href="#path71_fill" transform="matrix(0.883762 -0.467938 0.467938 0.883762 6937.4 2250.83)" fill="#A0E8BE"/>
</g>
</g>
<g id="Vector">
<g id="Vector">
<use xlink:href="#path72_fill" transform="matrix(0.883762 -0.467938 0.467938 0.883762 6939.61 2249.73)" fill="#A0E8BE"/>
</g>
</g>
<g id="Vector">
<g id="Vector">
<use xlink:href="#path73_fill" transform="matrix(0.883762 -0.467938 0.467938 0.883762 6942.51 2248.2)" fill="#A0E8BE"/>
</g>
</g>
<g id="Vector">
<g id="Vector">
<use xlink:href="#path74_fill" transform="matrix(0.883762 -0.467938 0.467938 0.883762 6944.2 2246.06)" fill="#A0E8BE"/>
</g>
</g>
</g>
<g id="&#195;&#144;&#194;&#190;&#195;&#145;&#194;&#130;">
<g id="Vector">
<use xlink:href="#path75_fill" transform="matrix(0.883762 -0.467938 0.467938 0.883762 6833.21 2244.76)" fill="#FFFFFF"/>
</g>
</g>
<g id="Vector">
<g id="Vector">
<use xlink:href="#path76_fill" transform="matrix(0.883762 -0.467938 0.467938 0.883762 6843.8 2234.89)" fill="#FFFFFF"/>
</g>
</g>
<g id="Vector">
<g id="Vector">
<use xlink:href="#path77_fill" transform="matrix(0.883762 -0.467938 0.467938 0.883762 6865.96 2223.16)" fill="#FFFFFF"/>
</g>
</g>
<g id="Vector">
<g id="Vector">
<use xlink:href="#path78_fill" transform="matrix(0.883762 -0.467938 0.467938 0.883762 6902.63 2207.11)" fill="#FFFFFF"/>
</g>
</g>
<g id="Vector">
<g id="Vector">
<use xlink:href="#path79_fill" transform="matrix(0.883762 -0.467938 0.467938 0.883762 6888.71 2214.65)" fill="#FFFFFF"/>
</g>
</g>
</g>
</g>
</g>
</g>
<defs>
<filter id="filter0_i" filterUnits="userSpaceOnUse" x="6858" y="2267" width="119" height="78" color-interpolation-filters="sRGB">
<feFlood flood-opacity="0" result="BackgroundImageFix"/>
<feBlend mode="normal" in="SourceGraphic" in2="BackgroundImageFix" result="shape"/>
<feColorMatrix in="SourceAlpha" type="matrix" values="0 0 0 0 0 0 0 0 0 0 0 0 0 0 0 0 0 0 255 0" result="hardAlpha"/>
<feOffset dx="0" dy="-2"/>
<feComposite in2="hardAlpha" operator="arithmetic" k2="-1" k3="1"/>
<feColorMatrix type="matrix" values="0 0 0 0 1 0 0 0 0 0.666667 0 0 0 0 0.0313726 0 0 0 1 0"/>
<feBlend mode="normal" in2="shape" result="effect1_innerShadow"/>
</filter>
<linearGradient id="paint25_linear" x1="0" y1="0" x2="1" y2="0" gradientUnits="userSpaceOnUse" gradientTransform="matrix(9.33233e-15 271.544 -152.408 1.66273e-14 228.612 0)">
<stop offset="0" stop-color="#2DC968"/>
<stop offset="1" stop-color="#76E5A2" stop-opacity="0"/>
</linearGradient>
<path id="path0_fill" d="M 16.5 213L 25.5 248.5L 28 269L 31.5 277.5L 68 285L 110.5 285L 172.5 245L 243.5 207.5L 230 166.5L 239 160.5L 246 152.5L 249.5 144L 243.5 134.5L 234 126L 220 124.5L 206 126L 203.5 117L 211.5 96L 214 86L 211.5 77L 203.5 69L 190 69L 180 75.5L 155 24L 141 5.5L 128 0L 9.5 62L 0 73.5L 4 92L 25.5 133L 9.5 137.5L 9.5 151L 16.5 189L 14 198.5L 16.5 213Z"/>
<path id="path1_fill" d="M 7.24332 5.79927C 5.09232 5.79927 2.81833 5.34129 0.895328 3.93929C -0.0766719 3.22929 -0.290662 1.86731 0.418338 0.894306C 1.12734 -0.076694 2.49134 -0.289684 3.46134 0.417316C 6.28234 2.47232 11.4173 0.945284 13.1583 0.184284C 14.2553 -0.298716 15.5433 0.200312 16.0283 1.30031C 16.5123 2.40031 16.0173 3.68331 14.9193 4.17031C 14.6943 4.26931 11.1733 5.79927 7.24332 5.79927Z"/>
<path id="path2_fill" d="M 14.2217 21.223C 14.1597 21.223 14.0987 21.212 14.0387 21.191C 13.8737 21.132 13.7477 20.997 13.6987 20.829C 13.6677 20.723 10.4847 10.105 0.3077 5.19299C 0.1417 5.11299 0.0286912 4.95598 0.00469116 4.77398C -0.0193088 4.59198 0.0496816 4.40997 0.188682 4.28997C 0.528682 3.99597 8.59669 -2.86205 13.6087 1.38195C 16.6767 3.98095 19.8727 8.40294 19.6437 13.0179C 19.4867 16.1689 17.7667 18.8969 14.5307 21.1269C 14.4387 21.1899 14.3317 21.223 14.2217 21.223ZM 1.5497 4.59997C 10.1547 9.12197 13.6217 17.308 14.5067 19.801C 17.0647 17.862 18.4257 15.565 18.5557 12.964C 18.7657 8.73998 15.6427 4.53298 12.9047 2.21398C 9.33968 -0.808019 3.4917 3.12597 1.5497 4.59997Z"/>
<path id="path3_fill" d="M 158.875 276.339C 157.103 276.339 155.131 276.106 153.033 275.478C 145.896 273.342 139.735 267.455 134.722 257.981L 0.317017 3.99707C -0.386983 2.66807 0.121012 1.0211 1.45001 0.316103C 2.78101 -0.385897 4.42801 0.120076 5.13101 1.45008L 139.536 255.435C 143.841 263.571 148.908 268.559 154.595 270.261C 160.299 271.968 164.74 269.664 164.783 269.64L 229.809 235.229C 231.14 234.526 232.787 235.034 233.49 236.363C 234.194 237.692 233.686 239.339 232.357 240.044L 167.369 274.434C 167.206 274.523 163.824 276.339 158.875 276.339Z"/>
<path id="path4_fill" d="M 68.515 326.388C 67.538 326.388 66.594 325.86 66.106 324.937C 65.402 323.608 65.91 321.961 67.239 321.256L 132.227 286.866C 132.432 286.759 136.769 284.414 138.543 278.662C 140.283 273.021 138.997 266.063 134.721 257.981L 0.317028 3.99709C -0.386972 2.66809 0.121024 1.02112 1.45002 0.316122C 2.78102 -0.385878 4.42802 0.120094 5.13102 1.45009L 139.535 255.435C 144.548 264.908 145.95 273.313 143.702 280.415C 141.195 288.335 135 291.566 134.737 291.699L 69.787 326.07C 69.381 326.286 68.945 326.388 68.515 326.388Z"/>
<path id="path5_fill" d="M 136.756 316.439C 135.779 316.439 134.835 315.911 134.347 314.988L 5.20717 70.9521C 0.193173 61.4791 -1.20883 53.0731 1.04017 45.9711C 3.54717 38.0511 9.74218 34.8211 10.0052 34.6881L 74.9562 0.316099C 76.2862 -0.385901 77.9342 0.120132 78.6372 1.45013C 79.3412 2.77913 78.8332 4.4261 77.5042 5.1311L 12.5152 39.5221C 12.3102 39.6291 7.97318 41.9741 6.19918 47.7251C 4.45918 53.3661 5.74517 60.3241 10.0212 68.4071L 139.161 312.443C 139.865 313.772 139.357 315.419 138.028 316.124C 137.621 316.337 137.186 316.439 136.756 316.439Z"/>
<path id="path6_fill" d="M 225.822 266.39C 224.845 266.39 223.901 265.862 223.413 264.939L 94.273 20.9032C 89.967 12.7672 84.901 7.77923 79.213 6.07723C 73.507 4.37123 69.068 6.67526 69.025 6.69826L 3.99802 41.1102C 2.66802 41.8132 1.02102 41.3062 0.317019 39.9762C -0.386981 38.6472 0.121014 37.0002 1.45001 36.2952L 66.439 1.90425C 66.66 1.78325 72.817 -1.51979 80.774 0.859208C 87.911 2.99521 94.073 8.88222 99.086 18.3562L 228.226 262.392C 228.93 263.721 228.422 265.368 227.093 266.073C 226.688 266.288 226.252 266.39 225.822 266.39Z"/>
<path id="path7_fill" d="M 125.952 307.48C 125.366 307.48 124.799 307.164 124.506 306.61L 0.190002 71.6894C -0.0129976 71.3064 -0.0549938 70.8584 0.0720062 70.4444C 0.200006 70.0304 0.486003 69.6835 0.869003 69.4805L 131.809 0.189436C 132.608 -0.231564 133.596 0.0724661 134.017 0.870466L 258.335 235.791C 258.538 236.174 258.58 236.622 258.453 237.036C 258.325 237.45 258.039 237.797 257.656 238L 126.716 307.291C 126.471 307.42 126.21 307.48 125.952 307.48ZM 3.84201 71.6055L 126.63 303.638L 254.682 235.875L 131.894 3.84245L 3.84201 71.6055Z"/>
<path id="path8_fill" d="M 10.2919 20.5567C 6.60386 20.5567 3.03388 18.5696 1.19188 15.0896C -1.45812 10.0806 0.459882 3.84966 5.46788 1.19866C 7.89288 -0.0853428 10.6729 -0.348319 13.2979 0.460681C 15.9209 1.26868 18.0729 3.04967 19.3569 5.47667C 20.6409 7.90167 20.9029 10.6837 20.0959 13.3057C 19.2879 15.9297 17.5069 18.0807 15.0809 19.3647C 13.5529 20.1737 11.9109 20.5567 10.2919 20.5567ZM 10.2659 3.27068C 9.13886 3.27068 8.02087 3.54667 6.99687 4.08867C 3.58087 5.89567 2.27288 10.1457 4.07988 13.5617C 5.88788 16.9757 10.1359 18.2867 13.5529 16.4767C 15.2079 15.6027 16.4219 14.1347 16.9719 12.3457C 17.5229 10.5567 17.3439 8.65969 16.4689 7.00469C 15.5939 5.35069 14.1249 4.13564 12.3369 3.58464C 11.6549 3.37464 10.9589 3.27068 10.2659 3.27068Z"/>
<path id="path9_fill" d="M 4.00535 28.2047C 3.60935 28.2047 3.21035 28.1457 2.81935 28.0247C 1.79735 27.7097 0.961346 27.0197 0.463346 26.0787C -0.566654 24.1317 0.178349 21.7106 2.12535 20.6796L 40.3284 0.463643C 41.2684 -0.0333568 42.3493 -0.135353 43.3703 0.179647C 44.3923 0.494647 45.2283 1.18469 45.7263 2.12569C 46.7563 4.07269 46.0113 6.49368 44.0643 7.52468L 5.86136 27.7407C 5.28136 28.0477 4.64735 28.2047 4.00535 28.2047ZM 42.1884 2.18068C 41.8984 2.18068 41.6104 2.25065 41.3484 2.39065L 3.14535 22.6066C 2.26035 23.0746 1.92235 24.1757 2.39035 25.0607C 2.61535 25.4857 2.99635 25.7997 3.46235 25.9437C 3.92635 26.0837 4.41734 26.0427 4.84434 25.8157L 43.0473 5.59969C 43.9323 5.13069 44.2703 4.03065 43.8023 3.14565C 43.5773 2.71965 43.1963 2.40665 42.7303 2.26265C 42.5513 2.20765 42.3694 2.18068 42.1884 2.18068Z"/>
<path id="path10_fill" d="M 3.63685 7.26068C 2.33385 7.26068 1.07285 6.55867 0.420848 5.32867C -0.515152 3.55867 0.16285 1.35765 1.93185 0.420651C 2.78685 -0.0323494 3.77086 -0.121345 4.69786 0.162655C 5.62686 0.448655 6.38785 1.0777 6.83985 1.9317C 7.77585 3.7017 7.09785 5.90266 5.32885 6.83966C 4.78885 7.12566 4.20885 7.26068 3.63685 7.26068ZM 3.62385 2.17968C 3.39185 2.17968 3.16185 2.23568 2.95185 2.34668C 2.24385 2.72068 1.97286 3.60267 2.34686 4.31067C 2.72286 5.01867 3.60386 5.28867 4.30986 4.91467C 5.01786 4.54067 5.28885 3.65868 4.91485 2.95068C 4.73485 2.61068 4.42986 2.36066 4.05786 2.24566C 3.91386 2.20066 3.76885 2.17968 3.62385 2.17968Z"/>
<path id="path11_fill" d="M 20.5661 341.651C 20.3171 341.651 20.0641 341.607 19.8171 341.517C 18.6871 341.103 18.1061 339.852 18.5201 338.723C 24.7121 321.809 40.9701 276.775 41.8371 271.577C 41.9851 270.69 42.1331 269.872 42.2731 269.098C 43.1301 264.355 43.6481 261.492 41.8651 253.916C 40.3081 247.297 38.2061 232.786 35.9811 217.424C 35.0451 210.963 34.0811 204.308 33.1171 197.952C 32.5451 194.182 32.0231 190.639 31.5311 187.295C 29.2341 171.696 27.5751 160.424 24.4891 151.169C 23.4971 148.193 22.7741 146.435 22.1921 145.024C 20.4851 140.877 20.0271 139.763 18.3971 123.465C 17.3881 113.373 14.3141 102.422 11.6021 92.7579C 8.32213 81.0729 5.73213 71.843 7.00113 66.132C 9.08013 56.777 5.32613 38.009 3.72313 29.996C 3.49113 28.831 3.05512 27.341 2.55012 25.613C 0.608125 18.964 -2.05288 9.85797 2.54312 4.28597C 5.38412 0.842965 10.2761 -0.503992 17.4991 0.167008C 18.6971 0.279008 19.5781 1.33898 19.4661 2.53798C 19.3551 3.73498 18.2921 4.61896 17.0951 4.50496C 11.4941 3.98796 7.73013 4.843 5.90413 7.058C 2.77613 10.85 5.06313 18.677 6.73213 24.392C 7.26513 26.216 7.72612 27.792 7.99612 29.141C 9.65212 37.426 13.5321 56.824 11.2541 67.077C 10.2231 71.72 12.9301 81.3679 15.7971 91.5809C 18.5571 101.415 21.6861 112.562 22.7331 123.031C 24.2991 138.695 24.7061 139.684 26.2221 143.365C 26.8291 144.839 27.5841 146.673 28.6241 149.791C 31.8311 159.412 33.5131 170.842 35.8431 186.662C 36.3341 189.999 36.8551 193.536 37.4261 197.3C 38.3911 203.666 39.3561 210.33 40.2941 216.801C 42.5051 232.067 44.5931 246.486 46.1071 252.92C 48.0971 261.378 47.4861 264.759 46.5611 269.875C 46.4241 270.63 46.2801 271.428 46.1351 272.295C 45.0251 278.954 23.5271 337.723 22.6121 340.222C 22.2881 341.103 21.4541 341.651 20.5661 341.651Z"/>
<path id="path12_fill" d="M 11.3228 41.7778C 10.8688 41.7778 10.4228 41.5888 10.1058 41.2338C 9.72183 40.8058 9.59784 40.2178 9.75384 39.6838C 9.78184 37.1188 4.81683 18.5159 0.0648276 2.08886C -0.186172 1.22186 0.31384 0.315809 1.18084 0.0648095C 2.04884 -0.18619 2.95384 0.313837 3.20384 1.18084C 9.84184 24.1328 12.0848 33.6248 12.7258 37.7018L 19.2428 34.7118C 20.0628 34.3358 21.0328 34.6958 21.4088 35.5148C 21.7848 36.3348 21.4248 37.3048 20.6048 37.6818L 12.0018 41.6298C 11.7848 41.7298 11.5528 41.7778 11.3228 41.7778Z"/>
<path id="path13_fill" d="M 23.5991 52.044C 23.1641 52.044 22.7261 51.9141 22.3441 51.6451C 21.3621 50.9501 21.1281 49.5911 21.8221 48.6081C 39.6631 23.3611 30.0231 11.8561 29.6041 11.3791C 29.5801 11.3511 29.5411 11.3061 29.5181 11.2771C 25.9721 6.79908 22.0571 4.47207 17.8821 4.36107C 10.2441 4.17807 3.87808 11.29 3.81508 11.362C 3.02108 12.264 1.64508 12.354 0.74208 11.56C -0.16092 10.768 -0.2529 9.39503 0.5381 8.49003C 0.8501 8.13403 8.28109 -0.234952 17.9671 0.00504833C 23.4901 0.141048 28.5131 3.00808 32.8971 8.52708C 33.9631 9.75608 44.8821 23.5241 25.3791 51.1231C 24.9551 51.7231 24.2831 52.044 23.5991 52.044Z"/>
<path id="path14_fill" d="M 23.2378 47.1964C 22.4468 47.1964 21.6838 46.7644 21.2978 46.0124C 20.7488 44.9414 21.1708 43.6284 22.2418 43.0794C 31.5468 38.3054 37.3278 32.7144 38.9598 26.9094C 40.3808 21.8534 38.2588 18.2984 38.1678 18.1494C 38.1218 18.0734 38.0708 17.9794 38.0338 17.8984C 28.1808 -3.77455 4.09479 6.75244 3.07379 7.21144C 1.97779 7.70144 0.687782 7.21643 0.193782 6.12043C -0.301218 5.02443 0.184781 3.73643 1.27978 3.24043C 1.56878 3.10943 30.2608 -9.51856 41.9508 15.9874C 42.4808 16.9054 44.9168 21.6194 43.1928 27.9484C 41.2428 35.1064 34.8628 41.5005 24.2308 46.9555C 23.9118 47.1195 23.5728 47.1964 23.2378 47.1964Z"/>
<path id="path15_fill" d="M 22.8459 51.2375C 21.8229 51.2375 20.9099 50.5135 20.7089 49.4705C 20.4809 48.2895 21.2549 47.1475 22.4359 46.9195C 36.5879 44.1945 36.9689 37.8795 37.4959 29.1395C 37.6079 27.2845 37.7229 25.3654 37.9779 23.3944C 39.1519 14.2964 36.8129 7.65644 21.5839 4.81644C 8.17587 2.31744 4.20589 10.8055 4.16789 10.8905C 3.67689 11.9895 2.38489 12.4805 1.28889 11.9885C 0.190891 11.4965 -0.301131 10.2075 0.190869 9.10947C 0.243869 8.99247 5.63588 -2.58652 22.3819 0.533483C 37.8739 3.42048 44.0159 10.6425 42.2979 23.9515C 42.0629 25.7755 41.9519 27.6195 41.8439 29.4025C 41.2979 38.4635 40.7319 47.8335 23.2599 51.1975C 23.1219 51.2245 22.9829 51.2375 22.8459 51.2375Z"/>
<path id="path16_fill" d="M 23.6027 52.384C 22.9767 52.384 22.3567 52.116 21.9257 51.597C 21.1567 50.672 21.2837 49.298 22.2097 48.529C 32.1427 40.281 37.5207 31.616 37.7627 23.475C 37.9907 15.804 33.7267 10.158 30.1097 6.77204C 28.2537 5.03504 26.1207 4.23505 23.5657 4.36805C 14.3817 4.79905 3.91468 16.509 3.80968 16.627C 3.01269 17.529 1.63667 17.613 0.734673 16.815C -0.166327 16.017 -0.250339 14.641 0.547661 13.74C 1.02466 13.201 12.3597 0.531026 23.3617 0.0150257C 27.0917 -0.149974 30.3657 1.04401 33.0887 3.59101C 39.2147 9.32601 42.3367 16.247 42.1187 23.604C 41.8347 33.167 36.0737 42.68 24.9947 51.882C 24.5867 52.219 24.0927 52.384 23.6027 52.384Z"/>
<path id="path17_fill" d="M 2.17646 146.203C 1.80946 146.203 1.43845 146.11 1.09745 145.916C 0.0534528 145.318 -0.309545 143.989 0.287455 142.944C 0.559455 142.467 7.07347 131.151 17.4835 120.193C 28.2385 108.874 63.1485 59.7284 80.4955 1.55643C 80.8395 0.402428 82.0545 -0.250576 83.2055 0.0904244C 84.3585 0.435424 85.0154 1.64742 84.6704 2.80142C 67.0964 61.7364 31.5885 111.673 20.6425 123.195C 10.6105 133.754 4.13445 144.994 4.07045 145.106C 3.66745 145.809 2.93246 146.203 2.17646 146.203Z"/>
<path id="path18_fill" d="M 5.50777 23.1439C 5.24377 23.1439 5.01078 22.9509 4.96978 22.6809C 4.92478 22.3839 5.12777 22.1069 5.42577 22.0609C 5.50277 22.0489 13.0928 20.8419 12.7768 17.0419C 12.7388 16.5899 11.7948 5.92895 6.52877 2.25495C 4.84677 1.08295 2.88176 0.790972 0.689762 1.39997C 0.402762 1.47697 0.100764 1.30993 0.0197638 1.01893C -0.0602362 0.72993 0.109769 0.429947 0.399769 0.348947C 2.91977 -0.344053 5.19178 -0.00405264 7.15078 1.36195C 12.8318 5.32595 13.8218 16.479 13.8608 16.953C 14.2618 21.761 5.94377 23.0839 5.58977 23.1389C 5.56177 23.1419 5.53477 23.1439 5.50777 23.1439Z"/>
<path id="path19_fill" d="M 21.6262 13.4837C 21.4392 13.4837 21.2592 13.3867 21.1592 13.2187C 17.0062 6.2937 0.701175 5.98769 0.537175 5.98469C 0.342175 5.98169 0.164188 5.8747 0.0691881 5.7057C -0.0258119 5.5357 -0.0228163 5.32771 0.0771837 5.16071C 4.22118 -1.79229 11.1782 0.28571 11.2482 0.30671C 21.2752 2.16171 22.1622 12.7907 22.1702 12.8987C 22.1892 13.1497 22.0322 13.3817 21.7912 13.4567C 21.7362 13.4757 21.6812 13.4837 21.6262 13.4837ZM 1.52518 4.92872C 4.86918 5.08372 15.7642 5.9677 20.7162 10.9137C 19.9572 7.9167 17.6802 2.60472 10.9862 1.36372C 10.6842 1.27472 5.23418 -0.325281 1.52518 4.92872Z"/>
<path id="path20_fill" d="M 0.545337 17.9985C 0.377337 17.9985 0.212335 17.9206 0.105335 17.7756C -0.0726653 17.5326 -0.0196538 17.1925 0.223346 17.0145C 0.295346 16.9615 7.44536 11.6155 10.1734 0.415518C 10.2444 0.123518 10.5413 -0.0554457 10.8313 0.0155543C 11.1243 0.0855543 11.3033 0.380537 11.2323 0.672537C 8.40535 12.2805 1.17235 17.6695 0.866352 17.8935C 0.768352 17.9645 0.656337 17.9985 0.545337 17.9985Z"/>
<path id="path21_fill" d="M 3.68107 5.06783C 2.44507 5.06783 1.27408 4.82984 0.268076 4.23684C 0.00907612 4.08484 -0.0769323 3.75087 0.0750677 3.49087C 0.228068 3.22987 0.56207 3.14381 0.82107 3.29781C 5.29707 5.93381 14.2801 0.146853 14.3701 0.0878527C 14.6231 -0.0751473 14.9591 -0.00515069 15.1241 0.246849C 15.2881 0.497849 15.2171 0.83584 14.9651 0.99984C 14.6521 1.20584 8.65207 5.06783 3.68107 5.06783Z"/>
<path id="path22_fill" d="M 0.544469 3.4466C 0.391469 3.4466 0.238459 3.38159 0.131459 3.25659C -0.0645409 3.02859 -0.0385352 2.68459 0.190465 2.48859C 4.14146 -0.898412 12.2575 0.139596 12.5985 0.183596C 12.8965 0.223596 13.1055 0.497633 13.0665 0.796633C 13.0265 1.09463 12.7515 1.30359 12.4545 1.26459C 12.3755 1.25259 4.47947 0.246591 0.898473 3.31659C 0.796473 3.40359 0.670469 3.4466 0.544469 3.4466Z"/>
<path id="path23_fill" d="M 0 0L 147.042 0L 147.042 262.913L 0 262.913L 0 0Z"/>
<path id="path24_fill" d="M 0 0L 152.408 0L 152.408 271.544L 0 271.544L 0 0Z"/>
<path id="path25_fill" d="M 83.6997 42.0718C 83.6997 65.307 64.9628 84.1432 41.85 84.1432C 18.7368 84.1432 0 65.307 0 42.0718C 0 18.8361 18.7368 0 41.85 0C 64.9628 0 83.6997 18.8361 83.6997 42.0718Z"/>
<path id="path26_fill" d="M 110.192 55.3879C 110.192 85.9778 85.5247 110.776 55.096 110.776C 24.6673 110.776 0 85.9778 0 55.3879C 0 24.798 24.6673 0 55.096 0C 85.5247 0 110.192 24.798 110.192 55.3879Z"/>
<path id="path27_fill" d="M 57.5917 28.9484C 57.5917 44.9361 44.6993 57.8969 28.7958 57.8969C 12.8923 57.8969 0 44.9361 0 28.9484C 0 12.9606 12.8923 0 28.7958 0C 44.6993 0 57.5917 12.9606 57.5917 28.9484Z"/>
<path id="path28_fill" fill-rule="evenodd" d="M 17.0103 1.64845L 3.29232 1.64845C 2.38318 1.64845 1.64616 2.38648 1.64616 3.2969L 1.64616 32.3096C 1.64616 33.22 2.38318 33.958 3.29232 33.958L 17.0103 33.958C 17.9195 33.958 18.6565 33.22 18.6565 32.3096L 18.6565 3.2969C 18.6565 2.38648 17.9195 1.64845 17.0103 1.64845ZM 3.29232 0C 1.47402 0 0 1.47607 0 3.2969L 0 32.3096C 0 34.1304 1.47402 35.6065 3.29232 35.6065L 17.0103 35.6065C 18.8287 35.6065 20.3027 34.1304 20.3027 32.3096L 20.3027 3.2969C 20.3027 1.47607 18.8287 0 17.0103 0L 3.29232 0Z"/>
<path id="path29_fill" d="M 0 0L 10.0965 0L 10.0965 7.80264L 0 7.80264L 0 0Z"/>
<path id="path30_fill" fill-rule="evenodd" d="M 9.10876 1.64845L 3.29232 1.64845C 2.38317 1.64845 1.64616 2.38648 1.64616 3.2969L 1.64616 6.26412C 1.64616 7.78146 2.87451 9.01153 4.38975 9.01153L 8.01131 9.01153C 9.52659 9.01153 10.7549 7.78146 10.7549 6.26412L 10.7549 3.2969C 10.7549 2.38648 10.0179 1.64845 9.10876 1.64845ZM 3.29232 0C 1.47402 0 0 1.47607 0 3.2969L 0 6.26412C 0 8.69187 1.96537 10.66 4.38975 10.66L 8.01131 10.66C 10.4357 10.66 12.4011 8.69187 12.4011 6.26412L 12.4011 4.94535L 13.8278 4.94535L 13.8278 6.26412C 13.8278 8.69187 15.7931 10.66 18.2175 10.66L 21.8391 10.66C 24.2635 10.66 26.2289 8.69187 26.2289 6.26412L 26.2289 3.2969C 26.2289 1.47607 24.7548 0 22.9365 0L 17.1201 0C 15.3018 0 13.8278 1.47607 13.8278 3.2969L 12.4011 3.2969C 12.4011 1.47607 10.9271 0 9.10876 0L 3.29232 0ZM 22.9365 1.64845L 17.1201 1.64845C 16.211 1.64845 15.4739 2.38648 15.4739 3.2969L 15.4739 6.26412C 15.4739 7.78146 16.7023 9.01153 18.2175 9.01153L 21.8391 9.01153C 23.3544 9.01153 24.5827 7.78146 24.5827 6.26412L 24.5827 3.2969C 24.5827 2.38648 23.8457 1.64845 22.9365 1.64845Z"/>
<path id="path31_fill" fill-rule="evenodd" d="M 18.5468 3.95628L 0 3.95628L 0 0L 18.5468 0L 18.5468 3.95628Z"/>
<path id="path32_fill" d="M 0 0.494535C 0 0.221411 0.221104 0 0.49385 0L 4.99338 0C 5.2661 0 5.4872 0.221411 5.4872 0.494535C 5.4872 0.767658 5.2661 0.989069 4.99338 0.989069L 0.49385 0.989069C 0.221104 0.989069 0 0.767658 0 0.494535Z"/>
<path id="path33_fill" d="M 11.9072 0C 12.7852 0 13.2973 0.366322 13.4437 0.549484L 13.4437 3.2969C 13.2242 4.15776 11.8304 5.87946 8.01131 5.87946C 4.19223 5.87946 1.07915 3.535 0 2.36277C 0.804791 2.67415 2.90822 3.2969 4.88361 3.2969C 7.35284 3.2969 10.8098 0 11.9072 0Z"/>
<path id="path34_fill" d="M 0 0L 17.8883 0L 17.8883 2.15797L 0 2.15797L 0 0Z"/>
<path id="path35_fill" d="M 0 0L 122.714 0L 122.714 17.9831C 122.714 19.9694 121.112 21.5797 119.136 21.5797L 3.57766 21.5797C 1.60177 21.5797 0 19.9694 0 17.9831L 0 0Z"/>
<path id="path36_fill" d="M 0.715532 0.719323L 0.715532 0L 0 0L 0 0.719323L 0.715532 0.719323ZM 123.429 0.719323L 124.145 0.719323L 124.145 0L 123.429 0L 123.429 0.719323ZM 0.715532 1.43865L 123.429 1.43865L 123.429 0L 0.715532 0L 0.715532 1.43865ZM 122.714 0.719323L 122.714 18.7024L 124.145 18.7024L 124.145 0.719323L 122.714 0.719323ZM 119.852 21.5797L 4.29319 21.5797L 4.29319 23.0183L 119.852 23.0183L 119.852 21.5797ZM 1.43106 18.7024L 1.43106 0.719323L 0 0.719323L 0 18.7024L 1.43106 18.7024ZM 4.29319 21.5797C 2.71248 21.5797 1.43106 20.2915 1.43106 18.7024L 0 18.7024C 0 21.086 1.92213 23.0183 4.29319 23.0183L 4.29319 21.5797ZM 122.714 18.7024C 122.714 20.2915 121.432 21.5797 119.852 21.5797L 119.852 23.0183C 122.223 23.0183 124.145 21.086 124.145 18.7024L 122.714 18.7024Z"/>
<path id="path37_fill" d="M 0 3.59661C 0 1.61026 1.60177 0 3.57766 0L 119.136 0C 121.112 0 122.714 1.61026 122.714 3.59661L 122.714 21.5797L 0 21.5797L 0 3.59661Z"/>
<path id="path38_fill" d="M 123.429 22.299L 123.429 23.0183L 124.145 23.0183L 124.145 22.299L 123.429 22.299ZM 0.715532 22.299L 0 22.299L 0 23.0183L 0.715532 23.0183L 0.715532 22.299ZM 4.29319 1.43865L 119.852 1.43865L 119.852 0L 4.29319 0L 4.29319 1.43865ZM 122.714 4.31594L 122.714 22.299L 124.145 22.299L 124.145 4.31594L 122.714 4.31594ZM 123.429 21.5797L 0.715532 21.5797L 0.715532 23.0183L 123.429 23.0183L 123.429 21.5797ZM 1.43106 22.299L 1.43106 4.31594L 0 4.31594L 0 22.299L 1.43106 22.299ZM 119.852 1.43865C 121.432 1.43865 122.714 2.72685 122.714 4.31594L 124.145 4.31594C 124.145 1.93231 122.223 0 119.852 0L 119.852 1.43865ZM 4.29319 0C 1.92213 0 0 1.93231 0 4.31594L 1.43106 4.31594C 1.43106 2.72685 2.71248 1.43865 4.29319 1.43865L 4.29319 0Z"/>
<path id="path39_fill" d="M 0 3.59661C 0 1.61026 1.60177 0 3.57766 0L 119.136 0C 121.112 0 122.714 1.61026 122.714 3.59661L 122.714 21.5797C 122.714 23.5661 121.112 25.1763 119.136 25.1763L 3.57766 25.1763C 1.60177 25.1763 0 23.5661 0 21.5797L 0 3.59661Z"/>
<path id="path40_fill" d="M 3.45427 4.69441C 3.74917 5.55717 3.89707 6.01426 4.02383 6.56814L 4.04494 6.56814C 4.19284 6.00361 4.38299 5.40805 4.64706 4.67312L 6.29411 -6.16986e-14L 7.4869 -6.16986e-14L 8.07757 7.66428L 7.13829 7.66428L 6.85308 3.14028C 6.81083 2.49146 6.75802 1.47961 6.75802 1.06422L 6.73688 1.06422C 6.66293 1.3944 6.32491 2.47991 6.1242 3.02311L 4.44549 7.66428L 3.58982 7.66428L 1.93224 3.01245C 1.73154 2.44795 1.40407 1.47961 1.30899 1.06422L 1.28787 1.06422C 1.28787 1.47961 1.24562 2.53316 1.20336 3.18287L 0.90758 7.66428L 1.60043e-15 7.66428L 0.632927 -6.16986e-14L 1.83717 -6.16986e-14L 3.45427 4.69441Z"/>
<path id="path41_fill" d="M 2.41817 5.68496C 1.09773 5.68496 -7.22865e-15 4.80094 -7.22865e-15 2.86423C -7.22865e-15 0.905338 1.11885 -6.16986e-14 2.45954 -6.16986e-14C 3.77908 -6.16986e-14 4.87771 0.884043 4.87771 2.82075C 4.87857 4.77965 3.75887 5.68496 2.41817 5.68496ZM 2.43929 0.73492C 1.59509 0.73492 0.908464 1.34202 0.908464 2.85358C 0.908464 4.36514 1.59509 4.97225 2.43929 4.97225C 3.28349 4.97225 3.97013 4.36514 3.97013 2.85358C 3.97013 1.34202 3.28437 0.73492 2.43929 0.73492Z"/>
<path id="path42_fill" d="M 0.897017 3.30004C 1.39262 2.77902 2.02643 2.4382 2.75531 2.4382C 3.97979 2.4382 4.87771 3.41809 4.87771 5.16309C 4.87771 7.05807 3.81167 7.96251 2.51235 7.96251C 1.03434 7.96251 6.84625e-14 6.79178 6.84625e-14 4.12992C 6.84625e-14 1.17072 1.28787 0.106519 2.98771 0.106519C 3.58982 0.106519 4.04318 0.095859 4.32839 1.56258e-13L 4.32839 0.840546C 4.02207 0.925754 3.52645 0.947053 2.98771 0.947053C 1.83717 0.958591 1.06603 1.53375 0.897017 3.30004ZM 0.907581 4.03497L 0.907581 4.13082C 0.907581 6.40924 1.55195 7.23913 2.52292 7.23913C 3.32574 7.23913 3.97979 6.66485 3.97979 5.23851C 3.97979 3.87607 3.38825 3.22638 2.51235 3.22638C 1.9208 3.22549 1.38294 3.53436 0.907581 4.03497Z"/>
<path id="path43_fill" d="M 4.4763 5.42935L 3.63208 5.42935L 3.63208 1.38375L 0.80283 5.42935L 1.8717e-15 5.42935L 1.8717e-15 5.5566e-15L 0.844199 5.5566e-15L 0.844199 4.04562L 3.67347 5.5566e-15L 4.4763 5.5566e-15L 4.4763 5.42935Z"/>
<path id="path44_fill" d="M 5.27912 5.5566e-15L 5.27912 5.42935L 4.3812 5.42935L 4.3812 0.745579L 2.39704 0.745579C 2.31253 4.46099 1.91111 5.49326 0.348593 5.49326C 0.19014 5.49326 0.0739446 5.48261 -2.35699e-14 5.47197L -2.35699e-14 4.74858C 0.0739446 4.75922 0.169013 4.76987 0.274648 4.76987C 1.3935 4.76987 1.45689 3.43939 1.57309 0.000893867L 5.27912 0.000893867L 5.27912 5.5566e-15Z"/>
<path id="path45_fill" d="M -2.67848e-15 5.42935L -2.67848e-15 5.5566e-15L 0.907581 5.5566e-15L 0.907581 2.06541L 2.32221 2.06541C 3.57838 2.06541 4.3284 2.61926 4.3284 3.74739C 4.3284 4.8755 3.55815 5.42935 2.27028 5.42935L -2.67848e-15 5.42935ZM 2.18577 4.75833C 3.02029 4.75833 3.42082 4.44945 3.42082 3.75804C 3.42082 3.06572 3.01941 2.75773 2.18577 2.75773L 0.908461 2.75773L 0.908461 4.75922L 2.18577 4.75922L 2.18577 4.75833Z"/>
<path id="path46_fill" d="M 3.54759 2.9379L 0.907588 2.9379L 0.907588 5.42935L 2.30677e-14 5.42935L 2.30677e-14 5.5566e-15L 0.907588 5.5566e-15L 0.907588 2.20387L 3.54759 2.20387L 3.54759 5.5566e-15L 4.45516 5.5566e-15L 4.45516 5.42935L 3.54759 5.42935L 3.54759 2.9379Z"/>
<path id="path47_fill" d="M 4.87289e-14 5.42935L 4.87289e-14 5.5566e-15L 0.907586 5.5566e-15L 0.907586 2.06541L 2.32221 2.06541C 3.57838 2.06541 4.3284 2.61926 4.3284 3.74739C 4.3284 4.8755 3.55815 5.42935 2.27028 5.42935L 4.87289e-14 5.42935ZM 2.18577 4.75833C 3.02029 4.75833 3.42082 4.44945 3.42082 3.75804C 3.42082 3.06572 3.01941 2.75773 2.18577 2.75773L 0.908466 2.75773L 0.908466 4.75922L 2.18577 4.75922L 2.18577 4.75833ZM 5.58545 5.5566e-15L 6.47281 5.5566e-15L 6.47281 5.42935L 5.58545 5.42935L 5.58545 5.5566e-15Z"/>
<path id="path48_fill" d="M 4.4754 7.66518L 3.63122 7.66518L 3.63122 3.61956L 0.801943 7.66518L -3.2149e-15 7.66518L -3.2149e-15 2.23582L 0.844202 2.23582L 0.844202 6.28142L 3.67347 2.23582L 4.4754 2.23582L 4.4754 7.66518ZM 3.13472 -6.16986e-14L 3.82048 -6.16986e-14C 3.82048 0.936399 3.33543 1.53286 2.23682 1.53286C 1.13822 1.53286 0.653173 0.936399 0.653173 -6.16986e-14L 1.33892 -6.16986e-14C 1.33892 0.564501 1.58189 0.979896 2.23682 0.979896C 2.89176 0.979896 3.13472 0.564501 3.13472 -6.16986e-14Z"/>
<path id="path49_fill" d="M 3.53614 5.49325L 2.618 3.91779C 2.24915 3.28938 1.99475 3.02399 1.24562 3.02399L 0.907587 3.02399L 0.907587 5.49325L 4.17969e-14 5.49325L 4.17969e-14 0.0638978L 0.907587 0.0638978L 0.907587 2.34232L 1.24562 2.34232C 1.76323 2.34232 1.91112 2.20387 2.08981 1.88434L 2.54405 1.05356C 2.9349 0.330178 3.22012 3.54488e-15 4.20164 3.54488e-15L 4.20164 0.734921C 3.67347 0.734921 3.53614 0.883142 3.35744 1.20267L 2.90321 2.03345C 2.7562 2.31038 2.59687 2.51275 2.30109 2.65121C 2.86096 2.82163 3.14529 3.15092 3.4622 3.68347L 4.51766 5.49325L 3.53614 5.49325Z"/>
<path id="path50_fill" d="M 0.538738 1.31007L 0.306342 0.585793C 0.887334 0.266265 1.62591 -1.30606e-14 2.47099 -1.30606e-14C 3.60041 -1.30606e-14 4.28704 0.479283 4.28704 1.83107L 4.28704 4.32251C 4.28704 5.1533 4.33984 5.41869 4.39265 5.55716L 3.53702 5.55716C 3.4842 5.46131 3.43138 5.29087 3.41025 4.87549C 2.94546 5.37521 2.32309 5.68498 1.6259 5.68498C 0.686628 5.68498 -1.61356e-15 5.12046 -1.61356e-15 4.03493C -1.61356e-15 2.87398 0.781697 2.21452 2.52292 2.21452C 2.74475 2.21452 3.01941 2.22517 3.39969 2.27843L 3.39969 1.90563C 3.39969 1.06509 3.02997 0.756212 2.30109 0.756212C 1.67784 0.756212 1.10829 0.979889 0.538738 1.31007ZM 3.39969 4.21602L 3.39969 2.91748C 2.96659 2.85357 2.787 2.84381 2.57573 2.84381C 1.33012 2.84381 0.886451 3.21571 0.886451 3.93998C 0.886451 4.62164 1.2773 4.9616 1.86797 4.9616C 2.44897 4.9616 2.98771 4.62075 3.39969 4.21602Z"/>
<path id="path51_fill" d="M 3.75798 1.23374C 3.33632 0.924862 2.9666 0.75445 2.5018 0.75445C 1.59422 0.75445 0.907587 1.41481 0.907587 2.8518C 0.907587 4.27814 1.58366 4.93851 2.52293 4.93851C 3.00885 4.93851 3.41027 4.76811 3.77912 4.48052L 4.01149 5.18348C 3.59953 5.49236 3.05022 5.68409 2.40673 5.68409C 1.01322 5.68409 -1.60422e-13 4.77875 -1.60422e-13 2.90595C -1.60422e-13 0.989658 1.05547 -9.25479e-14 2.51236 -9.25479e-14C 3.13561 -9.25479e-14 3.59953 0.181067 3.99039 0.468645L 3.75798 1.23374Z"/>
<path id="path52_fill" d="M 3.75797 1.23374C 3.33631 0.924862 2.96658 0.75445 2.50179 0.75445C 1.59421 0.75445 0.907574 1.41481 0.907574 2.8518C 0.907574 4.27814 1.58364 4.93851 2.52292 4.93851C 3.00884 4.93851 3.41025 4.76811 3.77908 4.48052L 4.01148 5.18348C 3.59952 5.49236 3.05021 5.68409 2.40671 5.68409C 1.01321 5.68409 -1.53645e-13 4.77875 -1.53645e-13 2.90595C -1.53645e-13 0.989658 1.05547 -9.25479e-14 2.51236 -9.25479e-14C 3.13561 -9.25479e-14 3.59952 0.181067 3.99038 0.468645L 3.75797 1.23374Z"/>
<path id="path53_fill" d="M 4.4754 5.42935L 3.63121 5.42935L 3.63121 1.38375L 0.801944 5.42935L 6.84625e-14 5.42935L 6.84625e-14 5.5566e-15L 0.844199 5.5566e-15L 0.844199 4.04562L 3.67347 5.5566e-15L 4.4754 5.5566e-15L 4.4754 5.42935Z"/>
<path id="path54_fill" d="M 0.907572 0.127809L 0.907572 0.894681C 1.37237 0.340828 1.96305 -6.16986e-14 2.67081 -6.16986e-14C 3.87417 -6.16986e-14 4.75095 0.969246 4.75095 2.78968C 4.75095 4.69445 3.79053 5.68496 2.54405 5.68496C 1.90055 5.68496 1.37237 5.4187 0.907572 4.8755L 0.907572 7.7921L 5.29605e-14 7.7921L 5.29605e-14 0.127809L 0.907572 0.127809ZM 0.907572 1.61806L 0.907572 4.16186C 1.34068 4.66247 1.84685 4.92877 2.39616 4.92877C 3.26237 4.92877 3.84337 4.26839 3.84337 2.8527C 3.84337 1.4583 3.28349 0.798832 2.43929 0.798832C 1.86798 0.798832 1.36181 1.10681 0.907572 1.61806Z"/>
<path id="path55_fill" d="M 0.217522 4.17783C 1.27651 4.17783 1.52838 3.55058 1.61424 2.08316L 1.7001 0.633004L 2.94799 0.633004L 2.94799 4.1433L 3.66925 4.1433L 3.66925 6.86e-09L 1.04181 6.86e-09L 0.915881 1.99684C 0.84719 3.10172 0.721256 3.56784 0.154555 3.56784C 0.0915881 3.56784 0.0400698 3.56209 0 3.55633L 0 4.16632C 0.0457941 4.17207 0.114485 4.17783 0.217522 4.17783ZM 5.08092 2.68739C 5.08092 1.96807 5.37858 1.68609 5.74494 1.68609C 6.11125 1.68609 6.40895 1.96807 6.40895 2.68739C 6.40895 3.40671 6.11125 3.68869 5.74494 3.68869C 5.37858 3.68869 5.08092 3.40671 5.08092 2.68739ZM 7.11872 2.66437C 7.11872 1.61704 6.49478 1.13941 5.75635 1.13941C 5.00651 1.13941 4.37111 1.62855 4.37111 2.68739C 4.37111 3.73472 4.99506 4.21235 5.73349 4.21235C 6.48333 4.21235 7.11872 3.72322 7.11872 2.66437ZM 7.73476 1.20846L 7.73476 4.1433L 8.44457 4.1433L 8.44457 1.7609L 9.64094 1.7609L 9.64094 1.20846L 7.73476 1.20846ZM 12.7031 1.20846L 12.0734 1.20846L 10.7912 3.11898L 10.7912 1.20846L 10.1329 1.20846L 10.1329 4.1433L 10.7626 4.1433L 12.0448 2.23278L 12.0448 4.1433L 12.7031 4.1433L 12.7031 1.20846ZM 15.3301 4.1433L 16.0399 4.1433L 16.0399 1.20846L 15.3301 1.20846L 15.3301 2.34212L 14.2024 2.34212L 14.2024 1.20846L 13.4926 1.20846L 13.4926 4.1433L 14.2024 4.1433L 14.2024 2.8888L 15.3301 2.8888L 15.3301 4.1433Z"/>
<path id="path56_fill" d="M 5.11788e-09 4.1433L 0.721256 4.1433L 0.721256 0.633004L 2.39846 0.633004L 2.39846 4.1433L 3.11972 4.1433L 3.11972 6.86e-09L 5.11788e-09 6.86e-09L 5.11788e-09 4.1433ZM 5.0479 1.70911C 5.4028 1.70911 5.58598 1.85298 5.58598 2.23853L 5.58598 2.35362C 5.43715 2.33061 5.31694 2.3191 5.15094 2.3191C 4.22361 2.3191 3.82863 2.68739 3.82863 3.30313C 3.82863 3.89585 4.19499 4.21235 4.69872 4.21235C 5.04218 4.21235 5.33984 4.06849 5.5917 3.80953C 5.60888 4.0167 5.6375 4.09726 5.66612 4.1433L 6.33586 4.1433C 6.30724 4.07424 6.27861 3.94189 6.27861 3.47577L 6.27861 2.18099C 6.27861 1.39836 5.86647 1.13941 5.19673 1.13941C 4.72734 1.13941 4.31519 1.26601 3.98891 1.42714L 4.13774 1.96807C 4.44113 1.81845 4.73879 1.70911 5.0479 1.70911ZM 4.93914 3.67142C 4.68727 3.67142 4.52127 3.53331 4.52127 3.23408C 4.52127 2.91757 4.71017 2.75645 5.2139 2.75645C 5.35129 2.75645 5.43715 2.76795 5.58598 2.79097L 5.58598 3.37794C 5.40853 3.54482 5.17383 3.67142 4.93914 3.67142ZM 7.01901 1.20846L 7.01901 5.35176L 7.72882 5.35176L 7.72882 3.79802C 7.96351 4.07424 8.22683 4.21235 8.55311 4.21235C 9.20568 4.21235 9.72086 3.66567 9.72086 2.6356C 9.72086 1.68034 9.27437 1.13941 8.6218 1.13941C 8.2669 1.13941 7.97496 1.30054 7.72882 1.59402L 7.72882 1.20846L 7.01901 1.20846ZM 8.38711 1.74939C 8.74774 1.74939 9.01105 2.03712 9.01105 2.69314C 9.01105 3.34917 8.74774 3.64265 8.36421 3.64265C 8.14097 3.64265 7.92917 3.53907 7.72882 3.32615L 7.72882 2.08891C 7.94634 1.86448 8.15814 1.74939 8.38711 1.74939ZM 10.8944 2.68739C 10.8944 1.96807 11.192 1.68609 11.5584 1.68609C 11.9247 1.68609 12.2224 1.96807 12.2224 2.68739C 12.2224 3.40671 11.9247 3.68869 11.5584 3.68869C 11.192 3.68869 10.8944 3.40671 10.8944 2.68739ZM 12.9322 2.66437C 12.9322 1.61704 12.3083 1.13941 11.5698 1.13941C 10.82 1.13941 10.1846 1.62855 10.1846 2.68739C 10.1846 3.73472 10.8085 4.21235 11.5469 4.21235C 12.2968 4.21235 12.9322 3.72321 12.9322 2.66437ZM 13.8645 1.20846C 13.8187 2.98663 13.7558 3.64841 13.2349 3.64841C 13.1891 3.64841 13.1318 3.64265 13.0918 3.6369L 13.0918 4.16632C 13.1433 4.17207 13.2234 4.17783 13.315 4.17783C 14.1908 4.17783 14.4484 3.67142 14.4942 1.7609L 15.3414 1.7609L 15.3414 4.1433L 16.0512 4.1433L 16.0512 1.20846L 13.8645 1.20846ZM 17.5392 3.66567L 17.5392 2.7622L 18.0772 2.7622C 18.4608 2.7622 18.6439 2.90606 18.6439 3.21106C 18.6439 3.5218 18.4608 3.66567 18.0772 3.66567L 17.5392 3.66567ZM 18.1688 4.1433C 18.9015 4.1433 19.3423 3.83255 19.3423 3.2053C 19.3423 2.5723 18.9187 2.26155 18.2089 2.26155L 17.5392 2.26155L 17.5392 1.20846L 16.8408 1.20846L 16.8408 4.1433L 18.1688 4.1433Z"/>
<path id="path57_fill" d="M -1.69458e-15 1.63274e-13L 1.79786 1.63274e-13C 2.95728 1.63274e-13 3.63401 0.476035 3.63401 1.46847C 3.63401 2.1008 3.35371 2.51496 2.786 2.72595C 3.53278 2.92132 3.86756 3.4208 3.86756 4.10846C 3.86756 5.05336 3.24535 5.62382 1.91464 5.62382L 0.000648456 5.62382L 0.000648456 1.63274e-13L -1.69458e-15 1.63274e-13ZM 1.75049 2.49087C 2.56021 2.49087 2.96442 2.19392 2.96442 1.53034C 2.96442 0.866761 2.55956 0.577636 1.75049 0.577636L 0.676711 0.577636L 0.676711 2.49087L 1.75049 2.49087ZM 1.91399 5.06117C 2.77821 5.06117 3.19799 4.74858 3.19799 4.0453C 3.19799 3.34265 2.77821 3.03788 1.91399 3.03788L 0.676711 3.03788L 0.676711 5.06055L 1.91399 5.06055L 1.91399 5.06117Z"/>
<path id="path58_fill" d="M 2.34221 5.81138C 0.995923 5.81138 8.58132e-15 4.81177 8.58132e-15 2.92131C 8.58132e-15 1.01523 1.0115 6.04401e-14 2.37335 6.04401e-14C 3.71962 6.04401e-14 4.71557 0.999595 4.71557 2.89005C 4.71621 4.79612 3.7047 5.81138 2.34221 5.81138ZM 2.35778 0.609531C 1.36185 0.609531 0.684495 1.32846 0.684495 2.9135C 0.684495 4.49854 1.36121 5.21747 2.35778 5.21747C 3.35435 5.21747 4.03106 4.49854 4.03106 2.9135C 4.03106 1.32846 3.3537 0.609531 2.35778 0.609531Z"/>
<path id="path59_fill" d="M 4.10826 7.09944L 3.45492 7.09944L 3.45492 2.67126L 0.622208 7.09944L 2.63475e-14 7.09944L 2.63475e-14 1.47628L 0.653352 1.47628L 0.653352 5.9123L 3.48606 1.47628L 4.10826 1.47628L 4.10826 7.09944ZM 0.886923 -1.08171e-13L 1.39235 -1.08171e-13C 1.39235 0.359466 1.56364 0.609533 2.05414 0.609533C 2.54464 0.609533 2.71592 0.359466 2.71592 -1.08171e-13L 3.22199 -1.08171e-13C 3.22199 0.632321 2.86385 1.01525 2.05479 1.01525C 1.24442 1.01525 0.886923 0.632321 0.886923 -1.08171e-13Z"/>
<path id="path60_fill" d="M 1.63436 0.609533L -5.48563e-14 0.609533L -5.48563e-14 -2.74605e-13L 3.95321 -2.74605e-13L 3.95321 0.609533L 2.31886 0.609533L 2.31886 5.6238L 1.63371 5.6238L 1.63371 0.609533L 1.63436 0.609533Z"/>
<path id="path61_fill" d="M 4.10826 5.62317L 3.45492 5.62317L 3.45492 1.19498L 0.622209 5.62317L 5.28853e-15 5.62317L 5.28853e-15 1.63274e-13L 0.653356 1.63274e-13L 0.653356 4.43604L 3.48607 1.63274e-13L 4.10826 1.63274e-13L 4.10826 5.62317Z"/>
<path id="path62_fill" d="M 1.03692 1.59646C 1.49796 1.59646 1.88842 1.41842 1.88842 0.973779C 1.88842 0.568692 1.5677 0.385721 1.18225 0.385721C 0.841479 0.385721 0.555836 0.524184 0.285643 0.721577L 0.150339 0.351112C 0.430553 0.148362 0.811413 -2.58604e-13 1.22192 -2.58604e-13C 1.83288 -2.58604e-13 2.32859 0.32144 2.32859 0.919387C 2.32859 1.35415 2.068 1.64095 1.64747 1.76953C 2.12312 1.91294 2.3787 2.24385 2.3787 2.67407C 2.3787 3.27202 1.89302 3.67751 1.11668 3.67751C 0.696155 3.67751 0.305272 3.55884 -1.45847e-14 3.38081L 0.125282 2.99509C 0.410926 3.16817 0.746267 3.3017 1.12211 3.3017C 1.63786 3.3017 1.93854 3.04455 1.93854 2.64441C 1.93854 2.20965 1.58775 1.95744 1.00184 1.95744L 0.691143 1.95744L 0.691143 1.59686L 1.03692 1.59686L 1.03692 1.59646Z"/>
<path id="path63_fill" d="M 0.255576 0.608256L 0.145328 0.271983C 0.420951 0.123629 0.771322 -9.78277e-14 1.17223 -9.78277e-14C 1.70802 -9.78277e-14 2.03375 0.222538 2.03375 0.850154L 2.03375 2.00689C 2.03375 2.39261 2.05881 2.51583 2.08387 2.58012L 1.67795 2.58012C 1.6529 2.53561 1.62784 2.45649 1.61782 2.26363C 1.39732 2.49564 1.10207 2.63945 0.771322 2.63945C 0.325735 2.63945 4.27244e-16 2.37737 4.27244e-16 1.87338C 4.27244e-16 1.33437 0.370839 1.02817 1.19687 1.02817C 1.3021 1.02817 1.4324 1.03312 1.61281 1.05785L 1.61281 0.884764C 1.61281 0.494513 1.43741 0.351111 1.09163 0.351111C 0.79638 0.351111 0.526188 0.454958 0.255576 0.608256ZM 1.61281 1.95744L 1.61281 1.35456C 1.40734 1.32489 1.32215 1.32035 1.22192 1.32035C 0.631006 1.32035 0.420532 1.49301 0.420532 1.82928C 0.420532 2.14577 0.605952 2.3036 0.886165 2.3036C 1.16221 2.3036 1.41778 2.14536 1.61281 1.95744Z"/>
<path id="path64_fill" d="M 0.425545 1.53216C 0.660658 1.29026 0.961335 1.13201 1.30712 1.13201C 1.88801 1.13201 2.31397 1.58697 2.31397 2.39714C 2.31397 3.27696 1.80825 3.69688 1.19185 3.69688C 0.490691 3.69688 -1.05648e-15 3.15333 -1.05648e-15 1.91746C -1.05648e-15 0.543544 0.610961 0.049449 1.41737 0.049449C 1.70301 0.049449 1.91808 0.0445062 2.05338 1.38266e-13L 2.05338 0.390249C 1.90806 0.429809 1.67294 0.439696 1.41737 0.439696C 0.871132 0.445055 0.505724 0.712092 0.425545 1.53216ZM 0.430139 1.87337L 0.430139 1.91788C 0.430139 2.97572 0.735828 3.36102 1.19645 3.36102C 1.57731 3.36102 1.88759 3.0944 1.88759 2.43216C 1.88759 1.7996 1.60696 1.49795 1.19144 1.49795C 0.911223 1.49754 0.655646 1.64095 0.430139 1.87337Z"/>
<path id="path65_fill" d="M -4.00864e-15 2.52077L -4.00864e-15 -8.54582e-14L 0.430553 -8.54582e-14L 0.430553 0.95894L 1.10165 0.95894C 1.69758 0.95894 2.05338 1.21608 2.05338 1.73985C 2.05338 2.26362 1.68798 2.52077 1.07702 2.52077L -4.00864e-15 2.52077ZM 1.03692 2.20923C 1.43282 2.20923 1.62283 2.06581 1.62283 1.74479C 1.62283 1.42336 1.4324 1.28037 1.03692 1.28037L 0.430972 1.28037L 0.430972 2.20964L 1.03692 2.20964L 1.03692 2.20923ZM 2.64931 -8.54582e-14L 3.07026 -8.54582e-14L 3.07026 2.52077L 2.64931 2.52077L 2.64931 -8.54582e-14Z"/>
<path id="path66_fill" d="M 2.5044 -8.54582e-14L 2.5044 2.52077L 2.07844 2.52077L 2.07844 0.346156L 1.13715 0.346156C 1.09706 2.07118 0.906629 2.55044 0.165374 2.55044C 0.090205 2.55044 0.0350791 2.54549 -1.098e-14 2.54054L -1.098e-14 2.20468C 0.0350791 2.20963 0.0801825 2.21458 0.130296 2.21458C 0.661077 2.21458 0.691143 1.59685 0.746268 0.000402433L 2.5044 0.000402433L 2.5044 -8.54582e-14Z"/>
<path id="path67_fill" d="M 2.12312 2.52077L 1.72264 2.52077L 1.72264 0.642448L 0.380442 2.52077L -3.29114e-14 2.52077L -3.29114e-14 -8.54582e-14L 0.400488 -8.54582e-14L 0.400488 1.87831L 1.74268 -8.54582e-14L 2.12312 -8.54582e-14L 2.12312 2.52077Z"/>
<path id="path68_fill" d="M 1.61281 0.346156L 0.430553 0.346156L 0.430553 2.52077L -1.45847e-14 2.52077L -1.45847e-14 -9.6575e-15L 2.04336 -9.6575e-15L 2.04336 2.52077L 1.61281 2.52077L 1.61281 0.346156Z"/>
<path id="path69_fill" d="M 0.255576 0.608256L 0.145328 0.271983C 0.42095 0.123629 0.771324 -9.78277e-14 1.17223 -9.78277e-14C 1.70802 -9.78277e-14 2.03375 0.222538 2.03375 0.850154L 2.03375 2.00689C 2.03375 2.39261 2.05881 2.51583 2.08387 2.58012L 1.67795 2.58012C 1.6529 2.53561 1.62784 2.45649 1.61782 2.26363C 1.39732 2.49564 1.10207 2.63945 0.771324 2.63945C 0.325735 2.63945 4.22592e-15 2.37737 4.22592e-15 1.87338C 4.22592e-15 1.33437 0.370834 1.02817 1.19687 1.02817C 1.3021 1.02817 1.4324 1.03312 1.6128 1.05785L 1.6128 0.884764C 1.6128 0.494513 1.43741 0.351111 1.09163 0.351111C 0.796379 0.351111 0.526187 0.454958 0.255576 0.608256ZM 1.6128 1.95744L 1.6128 1.35456C 1.40734 1.32489 1.32215 1.32035 1.22192 1.32035C 0.631005 1.32035 0.420531 1.49301 0.420531 1.82928C 0.420531 2.14577 0.605947 2.3036 0.886164 2.3036C 1.1622 2.3036 1.41736 2.14536 1.6128 1.95744Z"/>
<path id="path70_fill" d="M 0.430552 0.0593465L 0.430552 0.415388C 0.65105 0.158242 0.931267 -5.28077e-15 1.26702 -5.28077e-15C 1.8379 -5.28077e-15 2.25383 0.450006 2.25383 1.29521C 2.25383 2.17956 1.79822 2.63945 1.20689 2.63945C 0.901615 2.63945 0.65105 2.51583 0.430552 2.26363L 0.430552 3.61776L 5.11694e-14 3.61776L 5.11694e-14 0.0593465L 0.430552 0.0593465ZM 0.430552 0.751244L 0.430552 1.9323C 0.636017 2.16472 0.876143 2.28835 1.13673 2.28835C 1.54766 2.28835 1.82328 1.98175 1.82328 1.32446C 1.82328 0.677064 1.55768 0.37088 1.15719 0.37088C 0.886582 0.37088 0.646042 0.513878 0.430552 0.751244Z"/>
<path id="path71_fill" d="M 1.14717 2.63945C 0.520758 2.63945 -5.11694e-14 2.22901 -5.11694e-14 1.32982C -5.11694e-14 0.42033 0.530783 -5.28077e-15 1.1668 -5.28077e-15C 1.7928 -5.28077e-15 2.31397 0.410447 2.31397 1.30964C 2.31397 2.21912 1.78319 2.63945 1.14717 2.63945ZM 1.1572 0.341214C 0.756709 0.341214 0.430974 0.623082 0.430974 1.32488C 0.430974 2.02667 0.756709 2.30854 1.1572 2.30854C 1.55768 2.30854 1.88342 2.02667 1.88342 1.32488C 1.88342 0.623082 1.55768 0.341214 1.1572 0.341214Z"/>
<path id="path72_fill" d="M 2.5044 -8.54582e-14L 2.5044 2.52077L 2.07844 2.52077L 2.07844 0.346156L 1.13715 0.346156C 1.09706 2.07118 0.90663 2.55044 0.165375 2.55044C 0.0902051 2.55044 0.0350791 2.54549 3.22901e-14 2.54054L 3.22901e-14 2.20468C 0.0350791 2.20963 0.0801826 2.21458 0.130296 2.21458C 0.661077 2.21458 0.691144 1.59685 0.746269 0.000402433L 2.5044 0.000402433L 2.5044 -8.54582e-14Z"/>
<path id="path73_fill" d="M 1.6629e-14 2.52077L 1.6629e-14 -8.54582e-14L 0.430559 -8.54582e-14L 0.430559 0.95894L 1.10165 0.95894C 1.69758 0.95894 2.05339 1.21608 2.05339 1.73985C 2.05339 2.26362 1.68798 2.52077 1.07702 2.52077L 1.6629e-14 2.52077ZM 1.03651 2.20923C 1.4324 2.20923 1.62241 2.06581 1.62241 1.74479C 1.62241 1.42336 1.43199 1.28037 1.03651 1.28037L 0.430559 1.28037L 0.430559 2.20964L 1.03651 2.20964L 1.03651 2.20923Z"/>
<path id="path74_fill" d="M 0.475659 0.356054C 0.355388 0.356054 0.185418 0.370889 2.02336e-14 0.425284L 2.02336e-14 0.0791287C 0.185418 0.0247324 0.380858 -2.58604e-13 0.560851 -2.58604e-13C 1.18183 -2.58604e-13 1.64788 0.296716 1.64788 0.869937C 1.64788 1.72008 0.636021 1.81898 0.636021 2.4466C 0.636021 2.4911 0.641029 2.55539 0.656063 2.61927L 0.310288 2.61927C 0.290243 2.52037 0.280218 2.43672 0.280218 2.36748C 0.280218 1.68052 1.22151 1.57173 1.22151 0.919387C 1.22234 0.534078 0.89661 0.356054 0.475659 0.356054ZM 0.771324 3.41048C 0.771324 3.55883 0.656063 3.67751 0.490693 3.67751C 0.325319 3.67751 0.21048 3.55883 0.21048 3.41048C 0.21048 3.26254 0.325736 3.14387 0.490693 3.14387C 0.656481 3.14345 0.771324 3.26213 0.771324 3.41048Z"/>
<path id="path75_fill" d="M 1.06471 2.32197C 1.06471 1.24299 1.5112 0.820028 2.06073 0.820028C 2.61026 0.820028 3.05675 1.24299 3.05675 2.32197C 3.05675 3.40096 2.61026 3.82392 2.06073 3.82392C 1.5112 3.82392 1.06471 3.40096 1.06471 2.32197ZM 4.12146 2.28745C 4.12146 0.716446 3.18555 4.3904e-08 2.07791 4.3904e-08C 0.953089 4.3904e-08 -3.75312e-09 0.733709 -3.75312e-09 2.32197C -3.75312e-09 3.89298 0.935916 4.60942 2.04356 4.60942C 3.16838 4.60942 4.12146 3.87571 4.12146 2.28745ZM 4.61618 0.932243L 6.06728 0.932243L 6.06728 4.50584L 7.13199 4.50584L 7.13199 0.932243L 8.58309 0.932243L 8.58309 0.103583L 4.61618 0.103583L 4.61618 0.932243Z"/>
<path id="path76_fill" d="M -3.22502e-14 5.93833C -3.22502e-14 2.7644 1.78037 0.716697 5.04439 0.716697C 6.47857 0.716697 7.36873 1.02386 7.96219 1.27982L 7.51709 2.45725C 6.72582 2.20129 6.18184 1.99651 5.04439 1.99651C 3.06619 1.99651 1.53309 3.07156 1.53309 5.78476C 1.53309 8.54919 3.1651 9.72661 5.34109 9.72661C 6.28073 9.72661 6.97311 9.57304 7.61602 9.36825L 7.96219 10.5457C 7.22036 10.8529 6.42909 11.0576 5.09384 11.0576C 1.73092 11.1088 -3.22502e-14 9.0611 -3.22502e-14 5.93833ZM 14.5397 7.11579C 14.5397 5.88715 14.0451 4.91449 12.6604 4.91449C 11.7702 4.91449 11.0778 5.22164 10.3855 5.58L 10.336 6.45028C 10.336 8.75394 11.0284 9.82901 12.4131 9.82901C 14.0451 9.82901 14.5397 8.44679 14.5397 7.11579ZM 8.95131 6.60385C 8.95131 5.01688 9.24804 2.50844 10.1382 1.68936C 10.88 0.972661 12.9571 0.460734 15.331 -6.92225e-24L 15.5782 1.33101C 13.4517 1.68936 11.5724 2.04771 11.1273 2.50844C 10.7317 2.91798 10.5338 3.83946 10.4349 4.50494C 11.0778 4.14661 11.968 3.78824 13.0066 3.78824C 14.8364 3.78824 15.9739 4.70973 15.9739 7.06458C 15.9739 9.82901 14.3913 11.0576 12.3142 11.0576C 10.2371 11.0576 8.95131 9.72661 8.95131 6.60385ZM 22.1557 6.34788C 22.1557 4.9657 21.6611 4.09543 20.5731 4.09543C 19.584 4.09543 18.8422 4.86331 18.7433 6.34788L 22.1557 6.34788ZM 17.2102 7.16697C 17.2102 4.09543 18.7433 2.96917 20.672 2.96917C 22.7986 2.96917 23.6888 4.35136 23.6888 6.85982L 23.6888 7.37173L 18.6938 7.37173C 18.6938 9.41946 19.8313 9.82901 21.1666 9.82901C 21.9084 9.82901 22.5019 9.72661 23.2437 9.47064L 23.491 10.5969C 22.7986 10.8529 21.9084 11.0064 20.9193 11.0064C 18.6444 11.1088 17.2102 10.1873 17.2102 7.16697Z"/>
<path id="path77_fill" d="M 5.2422 6.911C 5.2422 5.52882 4.74766 4.249 3.31346 4.249C 2.52219 4.249 1.92873 4.60734 1.5331 4.81213L 1.5331 9.72661C 1.73091 9.77779 2.32437 9.88019 2.81891 9.88019C 4.54982 9.88019 5.2422 8.65155 5.2422 6.911ZM 0.049454 3.17395L 1.48364 3.17395L 1.48364 3.78824C 2.12655 3.32753 2.72 2.96918 3.65962 2.96918C 5.44001 2.96918 6.67638 4.249 6.67638 6.80864C 6.67638 9.98258 4.84655 11.0576 2.76946 11.0576C 2.27491 11.0576 1.78037 11.0064 1.43418 10.9553L 1.43418 14.0268L 0 14.0268L 0 3.17395L 0.049454 3.17395ZM 13.5506 7.11579C 13.5506 5.88715 13.056 4.91449 11.6713 4.91449C 10.7811 4.91449 10.0888 5.22164 9.3964 5.58L 9.34692 6.45028C 9.34692 8.75394 10.0393 9.82901 11.424 9.82901C 13.1055 9.82901 13.5506 8.44679 13.5506 7.11579ZM 7.96219 6.60385C 7.96219 5.01688 8.25892 2.50844 9.14911 1.68936C 9.89094 0.972661 11.968 0.460734 14.3418 0L 14.5891 1.33101C 12.4626 1.68936 10.5833 2.04771 10.1382 2.50844C 9.74258 2.91798 9.54473 3.83946 9.44585 4.50494C 10.0888 4.14661 10.9789 3.78824 12.0175 3.78824C 13.8473 3.78824 14.9848 4.70973 14.9848 7.06458C 14.9848 9.82901 13.4022 11.0576 11.3251 11.0576C 9.24804 11.0576 7.96219 9.72661 7.96219 6.60385ZM 20.6226 9.16349L 20.6226 7.37173L 18.9906 7.42295C 17.9521 7.47412 17.3586 7.88367 17.3586 8.70276C 17.3586 9.47064 17.9026 9.82901 18.6444 9.82901C 19.3368 9.88019 20.0786 9.52186 20.6226 9.16349ZM 15.9244 8.80516C 15.9244 6.85982 17.6059 6.45028 18.9411 6.45028L 20.6226 6.3991L 20.6226 5.58C 20.6226 4.50494 20.0786 4.249 18.9906 4.249C 18.1993 4.249 17.507 4.40258 16.8641 4.60734L 16.5673 3.4811C 17.2597 3.17395 18.1499 2.96918 19.2379 2.96918C 21.0677 2.96918 22.0568 3.63467 22.0568 5.22164L 22.0568 9.21467C 22.0568 9.67543 22.4524 9.77779 22.848 9.82901L 22.7492 10.9553L 22.4524 11.0064C 21.6612 11.0064 20.9193 10.7505 20.771 10.0849C 20.2764 10.4433 19.5346 11.0576 18.2982 11.0576C 16.8641 11.0576 15.9244 10.2386 15.9244 8.80516Z"/>
<path id="path78_fill" d="M 4.69818 6.19431L 4.69818 4.40258L 3.06619 4.45376C 2.02764 4.50494 1.43418 4.91449 1.43418 5.73358C 1.43418 6.50146 1.97818 6.85982 2.72001 6.85982C 3.41237 6.911 4.1542 6.55267 4.69818 6.19431ZM 0 5.83597C 0 3.89064 1.68146 3.4811 3.01674 3.4811L 4.69818 3.42991L 4.69818 2.61083C 4.69818 1.53578 4.1542 1.27982 3.06619 1.27982C 2.27491 1.27982 1.58255 1.43339 0.939637 1.63816L 0.642913 0.511928C 1.33528 0.204771 2.22546 0 3.31346 0C 5.14328 0 6.13236 0.665503 6.13236 2.25248L 6.13236 6.24552C 6.13236 6.70625 6.52801 6.80864 6.92367 6.85982L 6.82474 7.98607L 6.52801 8.03725C 5.73674 8.03725 4.99491 7.78128 4.84655 7.11579C 4.35201 7.47413 3.61018 8.08846 2.37382 8.08846C 0.93964 8.08846 0 7.26937 0 5.83597Z"/>
<path id="path79_fill" d="M 0 0.0511926L 1.48364 0.0511926L 1.48364 3.32753L 5.04436 3.32753L 5.04436 0.0511926L 6.52801 0.0511926L 6.52801 7.78128L 5.04436 7.78128L 5.04436 4.50494L 1.48364 4.50494L 1.48364 7.78128L 0 7.78128L 0 0.0511926ZM 11.968 6.45028L 9.79202 3.78824L 12.8087 -1.47536e-15L 14.4408 -1.47536e-15L 11.3251 3.68588L 12.8582 5.37525C 13.5506 6.14313 14.144 6.60385 14.7375 6.75743L 14.4902 7.88367C 13.8473 7.88367 13.0066 7.7301 11.968 6.45028ZM 8.30836 0.0511926L 9.79202 0.0511926L 9.79202 7.83249L 8.30836 7.83249L 8.30836 0.0511926Z"/>
</defs>
</svg>
