<svg width="119" height="51" viewBox="0 0 119 51" version="1.1" xmlns="http://www.w3.org/2000/svg" xmlns:xlink="http://www.w3.org/1999/xlink">
<title>Page 1</title>
<desc>Created using Figma</desc>
<g id="Canvas" transform="translate(4533 -202)">
<g id="Page 1">
<g id="Fill 1">
<use xlink:href="#path0_fill" transform="translate(-4473.26 216.694)" fill="#F9A61A"/>
</g>
<g id="Fill 3">
<use xlink:href="#path1_fill" transform="translate(-4466.43 205.901)" fill="#F9A61A"/>
</g>
<g id="Fill 5">
<use xlink:href="#path2_fill" transform="translate(-4440.72 216.694)" fill="#F9A61A"/>
</g>
<g id="Fill 7">
<use xlink:href="#path3_fill" transform="translate(-4445.44 205.901)" fill="#F9A61A"/>
</g>
<g id="Fill 9">
<use xlink:href="#path4_fill" transform="translate(-4454.95 202)" fill="#F9A61A"/>
</g>
<g id="Fill 11">
<use xlink:href="#path5_fill" transform="translate(-4511.69 229.317)" fill="#009E4D"/>
</g>
<g id="Fill 13">
<use xlink:href="#path6_fill" transform="translate(-4489.49 229.317)" fill="#009E4D"/>
</g>
<g id="Fill 15">
<use xlink:href="#path7_fill" transform="translate(-4533 229.439)" fill="#009E4D"/>
</g>
<g id="Group 19">
<mask id="mask0_outline" mask-type="alpha">
<g id="Clip 18">
<use xlink:href="#path8_fill" transform="translate(-4435.56 229.439)" fill="#FFFFFF"/>
</g>
</mask>
<g id="Fill 17" mask="url(#mask0_outline)">
<use xlink:href="#path9_fill" transform="translate(-4435.56 229.439)" fill="#009E4D"/>
</g>
</g>
<g id="Group 22">
<g id="Fill 20">
<use xlink:href="#path10_fill" transform="translate(-4466.29 224.13)" fill="#F9A61A"/>
</g>
</g>
</g>
</g>
<defs>
<path id="path0_fill" fill-rule="evenodd" d="M 0.487652 0.555724C -0.837215 1.94679 0.635741 4.9936 3.71652 7.07405C 7.13138 9.37345 10.3347 9.93445 10.4017 9.9661C 10.4969 10.0057 9.42323 6.45502 7.17457 3.44866C 5.55441 1.28291 3.45207 0 1.91565 0C 1.34269 0 0.848178 0.177621 0.487652 0.555724Z"/>
<path id="path1_fill" fill-rule="evenodd" d="M 1.08276 0.104638C -0.74103 0.866121 -0.211259 5.31279 2.29832 9.66186C 5.07675 14.4761 8.20689 17.1527 8.26771 17.231C 8.34969 17.3365 8.39993 12.5645 7.05567 7.6755C 5.84628 3.2851 3.41516 0 1.61076 0C 1.42741 0 1.25024 0.0342931 1.08276 0.104638Z"/>
<path id="path2_fill" fill-rule="evenodd" d="M 3.23282 3.44866C 0.985038 6.45502 -0.0886064 10.0057 0.00571209 9.9661C 0.0735862 9.93445 3.27689 9.37345 6.69175 7.07405C 9.77253 4.9936 11.2464 1.94679 9.92062 0.555724C 9.55921 0.177621 9.0647 0 8.49262 0C 6.95619 0 4.85386 1.28291 3.23282 3.44866Z"/>
<path id="path3_fill" fill-rule="evenodd" d="M 1.24785 7.6755C -0.0972917 12.5645 -0.0479288 17.3356 0.0358119 17.2301C 0.0957527 17.1518 3.22589 14.4752 6.0052 9.66186C 8.51478 5.31191 9.04367 0.865241 7.219 0.104638C 7.05064 0.0342931 6.87435 0 6.69188 0C 4.88749 0 2.45636 3.2851 1.24785 7.6755Z"/>
<path id="path4_fill" fill-rule="evenodd" d="M 2.67149 0C 0.698733 0.0184655 -0.490386 4.62869 0.195407 9.9406C 0.954362 15.8214 2.84778 19.7282 2.87511 19.8302C 2.91037 19.9683 4.75531 15.2657 5.35295 9.88872C 5.94267 4.57945 4.65747 0 2.68383 0L 2.67149 0Z"/>
<path id="path5_fill" fill-rule="evenodd" d="M 3.51094 20.9531C 2.64092 20.9531 1.77001 20.8951 0.959933 20.2347C 0 19.4284 0 18.5895 0 17.602L 0 3.2341C 0 2.4269 0.119 1.55726 0.900874 0.838862C 1.68099 0.121345 2.70086 0 3.451 0L 18.5437 0L 18.5437 5.08945L 8.16164 5.08945C 7.77202 5.08945 7.35067 5.18002 7.11267 5.38929C 6.78036 5.65748 6.78036 6.13671 6.78036 6.40666L 6.78036 7.99293L 18.244 7.99293L 18.244 12.5425L 6.78036 12.5425L 6.78036 14.8164C 6.78036 15.2376 6.93197 15.4759 7.08182 15.5954C 7.41326 15.8953 7.95273 15.8663 8.37143 15.8663L 18.6328 15.8663L 18.6328 20.9531L 3.51094 20.9531Z"/>
<path id="path6_fill" fill-rule="evenodd" d="M 15.0327 20.9531L 8.67107 12.8414C 8.16158 12.182 7.44141 11.1365 7.44141 10.2378C 7.44141 9.45962 7.95267 8.53107 8.4031 7.90324L 14.0437 0L 22.0846 0L 14.7921 8.65065C 14.0129 9.57833 13.9238 10.0277 13.9238 10.2079C 13.9238 10.8955 14.5841 11.6139 15.0327 12.094L 23.1961 20.9531L 15.0327 20.9531ZM 0 20.9531L 6.78212 20.9531L 6.78212 0L 0 0L 0 20.9531Z"/>
<path id="path7_fill" fill-rule="evenodd" d="M 3.13984 20.4879C 2.34827 20.4879 1.46767 20.3129 0.91057 19.8452C 0.439859 19.4627 0 18.7038 0 17.8535L 0 0L 6.63227 0L 6.63227 14.1367C 6.63227 14.3706 6.66136 14.8683 6.95313 15.1321C 7.21933 15.3668 7.65743 15.395 8.00914 15.395L 18.6618 15.395L 18.6618 20.4879L 3.13984 20.4879Z"/>
<path id="path8_fill" fill-rule="evenodd" d="M 21.097 20.4888L 21.097 0L 0 0L 0 20.4888L 21.097 20.4888Z"/>
<path id="path9_fill" fill-rule="evenodd" d="M 0 3.9226C 0 2.98702 0.0590593 1.81578 0.792452 0.996259C 1.55581 0.146845 2.75904 0 3.55061 0L 14.7296 0C 16.0209 0 18.2793 0 19.6315 1.99076C 20.5103 3.30797 20.6866 5.12198 20.6866 6.67484C 20.6866 7.60955 20.6284 10.04 19.9241 11.708C 19.1616 13.5238 17.694 14.2545 16.1091 14.2545L 15.2285 14.2545L 15.2285 14.3714L 21.0974 20.4888L 13.1156 20.4888L 9.15507 15.1611C 8.47985 14.2545 7.74646 13.3769 7.74646 12.3816L 7.74646 11.9428C 7.74646 10.5676 9.00786 9.62933 10.7091 9.62933L 11.766 9.62933C 12.3522 9.62933 13.1455 9.57305 13.6145 9.01469C 13.9371 8.60669 14.0552 7.84521 14.0552 7.31762C 14.0552 6.20529 13.7026 5.7375 13.5563 5.58978C 13.0574 5.06395 12.324 5.09384 11.707 5.09384L 8.04087 5.09384C 7.65919 5.09384 7.30572 5.12198 7.01307 5.41479C 6.6023 5.79729 6.6305 6.20529 6.6305 6.70298L 6.6305 20.4888L 0 20.4888L 0 3.9226Z"/>
<path id="path10_fill" fill-rule="evenodd" d="M 10.7748 0.412397C 3.1844 2.27566 -1.45395 9.92126 0.413025 17.4921C 2.27824 25.063 9.94537 29.6917 17.5349 27.8293C 25.1236 25.966 29.7628 18.3204 27.8967 10.7478C 26.3083 4.31038 20.5267 0.00087931 14.1659 0C 13.0464 0 11.9102 0.133655 10.7748 0.412397ZM 8.7747 21.8174C 5.99363 20.6919 3.71588 17.8737 3.42676 14.5315C 3.13587 11.3325 4.44134 8.01403 6.97384 5.8096C 9.49135 3.59198 12.9908 2.73289 16.0892 3.46975C 19.0061 4.08703 21.6734 5.91248 23.157 8.28398C 23.9142 9.4517 24.4051 10.6889 24.711 11.883C 25.0107 13.0481 25.1932 14.2949 25.1297 15.5128C 25.031 17.952 24.0525 20.1019 22.8335 21.6258C 20.3309 24.6954 17.2669 25.7735 15.1557 25.9177C 14.083 25.9836 13.2165 25.7691 12.7052 25.471C 12.1843 25.1694 12.0397 24.8519 12.1261 24.7121C 12.3183 24.4202 13.2315 24.6409 14.7705 24.0034C 16.2664 23.4046 18.4842 22.01 19.9175 19.5972C 20.6209 18.4022 21.0458 16.9883 20.9621 15.4829C 20.8792 14.0355 20.2842 12.1661 19.3269 10.8797C 18.367 9.5537 16.8808 8.62515 15.0747 8.27694C 13.4695 7.92698 11.6034 8.41148 10.2864 9.58008C 8.94395 10.7276 8.23965 12.5249 8.3322 14.1226C 8.40977 15.6183 9.37764 16.9733 10.6593 17.5985C 11.2719 17.9133 12.0485 18.0663 12.6515 18.0461C 13.2562 18.0197 13.8353 17.8219 14.3236 17.4824C 15.3162 16.8344 15.8028 15.526 15.7164 14.5807C 15.6344 13.617 14.9371 12.7817 14.1262 12.4414C 13.2667 12.0685 12.5281 12.1318 11.904 12.4458C 10.6496 13.1017 10.4363 14.265 10.0661 14.2281C 9.90653 14.2281 9.70467 13.959 9.66676 13.3673C 9.64032 12.7922 9.81485 11.8364 10.6593 10.9386C 11.0754 10.4963 11.666 10.0945 12.4073 9.85179C 13.1671 9.60382 14.0072 9.57656 14.8772 9.73924C 16.619 10.047 18.56 11.4776 19.1894 13.8315C 19.49 15.0169 19.4503 16.2198 19.088 17.4226C 18.7266 18.6264 18.0073 19.7836 16.9725 20.6937C 15.9359 21.5985 14.5793 22.2439 13.0922 22.433C 12.7555 22.4717 12.4223 22.491 12.0926 22.491C 10.9625 22.491 9.8651 22.2668 8.7747 21.8174Z"/>
</defs>
</svg>
