<?xml version="1.0" encoding="UTF-8" standalone="no"?>
<svg viewBox="0 0 68 42" version="1.1" xmlns="http://www.w3.org/2000/svg" xmlns:xlink="http://www.w3.org/1999/xlink">
    <!-- Generator: Sketch 46.2 (44496) - http://www.bohemiancoding.com/sketch -->
    <title>Group 24</title>
    <desc>Created with Sketch.</desc>
    <defs></defs>
    <g id="Mobile" stroke="none" stroke-width="1" fill="none" fill-rule="evenodd">
        <g id="page_main_320-copy" transform="translate(-62.000000, -5510.000000)">
            <g id="Group-21" transform="translate(0.000000, 4804.000000)">
                <g id="Group-14" transform="translate(62.000000, 637.000000)">
                    <g id="Page-1" transform="translate(0.000000, 69.212490)">
                        <g id="Group-142" transform="translate(0.000000, 0.125925)">
                            <g id="Group-24">
                                <polygon id="Fill-10" fill="#F9B030" points="47.2457923 41.1519716 48.2878223 41.124537 49.3162043 41.0497776 50.3241142 40.9187771 51.3258824 40.7411378 52.3003545 40.5154878 53.2611785 40.2418272 54.2001657 39.9194701 55.1207279 39.5566469 56.0194532 39.145813 56.8915648 38.7013717 57.7363803 38.2082339 58.5600412 37.6808028 59.3502644 37.1129056 60.1131914 36.5100292 60.8488223 35.8735454 61.5510155 35.1952237 62.22523 34.4901533 62.857818 33.7514754 63.4576506 32.984677 64.0226807 32.190444 64.5474489 31.3619176 65.038097 30.5128152 65.4809768 29.6369641 65.8897365 28.7336783 66.2507279 27.8091307 66.5707751 26.8633212 66.8430541 25.8983075 67.0682472 24.9188906 67.2449897 23.9134107 67.3746464 22.8997005 67.4497107 21.8654143 67.4763245 20.8180966 67.4497107 19.7776376 67.3746464 18.7515817 67.2449897 17.7364998 67.0682472 16.7447373 66.8430541 15.7660062 66.5707751 14.8078511 66.2507279 13.8627275 65.8897365 12.9457244 65.4809768 12.0486114 65.038097 11.1720744 64.5474489 10.3305166 64.0226807 9.50199025 63.4576506 8.70707133 62.857818 7.94781746 62.22523 7.2084537 61.5510155 6.50201152 60.8488223 5.83123438 60.1131914 5.19543642 59.3502644 4.5932459 58.5600412 4.02466283 57.7363803 3.49723172 56.8915648 3.01095259 56.0194532 2.56719716 55.1207279 2.15567745 54.2001657 1.79216837 53.2611785 1.47186885 52.3003545 1.19683651 51.3258824 0.971186531 50.3241142 0.79286132 49.3162043 0.66323261 48.2878223 0.587787328 47.2457923 0.559666814 46.2105863 0.587787328 45.1822043 0.66323261 44.173612 0.79286132 43.1800326 0.971186531 42.2048781 1.19683651 41.2447365 1.47186885 40.311891 1.79216837 39.3920112 2.15567745 38.5001099 2.56719716 37.6348223 3.01095259 36.7893245 3.49723172 35.9724876 4.02466283 35.1829468 4.5932459 34.4200197 5.19543642 33.6905305 5.83123438 32.9890197 6.50201152 32.3209468 7.2084537 31.6876764 7.94781746 31.0885262 8.70707133 30.5296378 9.50199025 30.0055519 10.3305166 29.5217279 11.1720744 29.0727064 12.0486114 28.6700884 12.9457244 28.309097 13.8627275 27.9965562 14.8078511 27.7235948 15.7660062 27.4984017 16.7447373 27.3216592 17.7364998 27.192685 18.7515817 27.1169382 19.7776376 27.0903245 20.8180966 27.1169382 21.8654143 27.192685 22.8997005 27.3216592 23.9134107 27.4984017 24.9188906 27.7235948 25.8983075 27.9965562 26.8633212 28.309097 27.8091307 28.6700884 28.7336783 29.0727064 29.6369641 29.5217279 30.5128152 30.0055519 31.3619176 30.5296378 32.190444 31.0885262 32.984677 31.6876764 33.7514754 32.3209468 34.4901533 32.9890197 35.1952237 33.6905305 35.8735454 34.4200197 36.5100292 35.1829468 37.1129056 35.9724876 37.6808028 36.7893245 38.2082339 37.6348223 38.7013717 38.5001099 39.145813 39.3920112 39.5566469 40.311891 39.9194701 41.2447365 40.2418272 42.2048781 40.5154878 43.1800326 40.7411378 44.173612 40.9187771 45.1822043 41.0497776 46.2105863 41.124537"></polygon>
                                <polygon id="Fill-12" fill="#EA2230" points="20.2308734 41.1519716 21.2660794 41.124537 22.2944614 41.0497776 23.3023712 40.9187771 24.2973155 40.7411378 25.2711052 40.5154878 26.2319292 40.2418272 27.1654571 39.9194701 28.0839721 39.5566469 28.9765558 39.145813 29.8418433 38.7013717 30.6866588 38.2082339 31.5041781 37.6808028 32.2944013 37.1129056 33.0566459 36.5100292 33.7861352 35.8735454 34.4876459 35.1952237 35.1557189 34.4901533 35.7883069 33.7514754 36.3881395 32.984677 36.9463455 32.190444 37.4711137 31.3619176 37.9549378 30.5128152 38.4039592 29.6369641 38.8058948 28.7336783 39.1668863 27.8091307 39.4807918 26.8633212 39.7523884 25.8983075 39.9775815 24.9188906 40.1550064 23.9134107 40.2839807 22.8997005 40.3597275 21.8654143 40.3870236 20.8180966 40.3597275 19.7776376 40.2839807 18.7515817 40.1550064 17.7364998 39.9775815 16.7447373 39.7523884 15.7660062 39.4807918 14.8078511 39.1668863 13.8627275 38.8058948 12.9457244 38.4039592 12.0486114 37.9549378 11.1720744 37.4711137 10.3305166 36.9463455 9.50199025 36.3881395 8.70707133 35.7883069 7.94781746 35.1557189 7.2084537 34.4876459 6.50201152 33.7861352 5.83123438 33.0566459 5.19543642 32.2944013 4.5932459 31.5041781 4.02466283 30.6866588 3.49723172 29.8418433 3.01095259 28.9765558 2.56719716 28.0839721 2.15567745 27.1654571 1.79216837 26.2319292 1.47186885 25.2711052 1.19683651 24.2973155 0.971186531 23.3023712 0.79286132 22.2944614 0.66323261 21.2660794 0.587787328 20.2308734 0.559666814 19.1881609 0.587787328 18.159779 0.66323261 17.1518691 0.79286132 16.1507833 0.971186531 15.1763112 1.19683651 14.2154871 1.47186885 13.2758176 1.79216837 12.3559378 2.15567745 11.45653 2.56719716 10.5851009 3.01095259 9.74028541 3.49723172 8.91594206 4.02466283 8.12571888 4.5932459 7.36279185 5.19543642 6.62716094 5.83123438 5.92633262 6.50201152 5.25143562 7.2084537 4.61816524 7.94781746 4.01833262 8.70707133 3.45398498 9.50199025 2.92921674 10.3305166 2.43788627 11.1720744 1.99568884 12.0486114 1.58692918 12.9457244 1.22593777 13.8627275 0.905890558 14.8078511 0.633611588 15.7660062 0.408418455 16.7447373 0.230993562 17.7364998 0.10133691 18.7515817 0.0276373391 19.7776376 0.000341201717 20.8180966 0.0276373391 21.8654143 0.10133691 22.8997005 0.230993562 23.9134107 0.408418455 24.9188906 0.633611588 25.8983075 0.905890558 26.8633212 1.22593777 27.8091307 1.58692918 28.7336783 1.99568884 29.6369641 2.43788627 30.5128152 2.92921674 31.3619176 3.45398498 32.190444 4.01833262 32.984677 4.61816524 33.7514754 5.25143562 34.4901533 5.92633262 35.1952237 6.62716094 35.8735454 7.36279185 36.5100292 8.12571888 37.1129056 8.91594206 37.6808028 9.74028541 38.2082339 10.5851009 38.7013717 11.45653 39.145813 12.3559378 39.5566469 13.2758176 39.9194701 14.2154871 40.2418272 15.1763112 40.5154878 16.1507833 40.7411378 17.1518691 40.9187771 18.159779 41.0497776 19.1881609 41.124537"></polygon>
                                <g id="Group-23" transform="translate(1.000000, 7.000000)">
                                    <polygon id="Fill-14" fill="#F9B030" points="30.3742485 1.34424812 41.1036777 1.34424812 41.1036777 0.242061143 31.30027 0.242061143"></polygon>
                                    <polygon id="Fill-16" fill="#F9B030" points="28.7675296 3.79635693 41.1033365 3.79635693 41.1033365 2.69348409 29.4137657 2.69348409"></polygon>
                                    <polygon id="Fill-18" fill="#F9B030" points="27.5683421 6.23906938 41.1031318 6.23906938 41.1031318 5.13756828 28.0453421 5.13756828"></polygon>
                                    <polygon id="Fill-20" fill="#F9B030" points="26.7436575 8.6911782 41.103473 8.6911782 41.103473 7.58830536 27.0841768 7.58830536"></polygon>
                                    <polygon id="Fill-22" fill="#F9B030" points="27.220794 20.5344413 41.1370472 20.5344413 41.1370472 19.4329402 26.8802747 19.4329402"></polygon>
                                    <polygon id="Fill-24" fill="#F9B030" points="28.2490395 22.9858642 41.1369107 22.9858642 41.1369107 21.8843631 27.7386017 21.8843631"></polygon>
                                    <polygon id="Fill-26" fill="#F9B030" points="29.6934828 25.4306343 41.1373884 25.4306343 41.1373884 24.3277615 29.0056202 24.3277615"></polygon>
                                    <polygon id="Fill-28" fill="#F9B030" points="31.6824159 27.8813714 41.1371155 27.8813714 41.1371155 26.7716399 30.7222742 26.7716399"></polygon>
                                    <polygon id="Fill-30" fill="#F9B030" points="26.2605159 11.1345765 41.103473 11.1345765 41.103473 10.0323895 26.4713785 10.0323895"></polygon>
                                    <polygon id="Fill-32" fill="#F9B030" points="35.3059781 18.091043 40.9665146 18.091043 40.9665146 16.988856 35.5106991 16.988856"></polygon>
                                    <polygon id="Fill-34" fill="#F9B030" points="35.7561597 15.6463415 40.9669923 15.6463415 40.9669923 14.5379817 35.9601983 14.5379817"></polygon>
                                    <polygon id="Fill-36" fill="#F9B030" points="25.8852622 14.537776 27.356524 14.537776 27.356524 15.6461358 25.954185 15.6461358"></polygon>
                                    <polygon id="Fill-38" fill="#FEFEFE" points="23.1400215 13.2015715 23.0451674 13.1953987 22.9496309 13.1816813 22.8609185 13.167964 22.772206 13.1556184 22.691 13.1412152 22.6022876 13.1268121 22.5142575 13.1130947 22.418721 13.1007491 22.3231845 13.0856601 22.2146824 13.0794873 22.0911674 13.0726286 21.9621931 13.06577 21.8188884 13.06577 21.6619356 13.0726286 21.4858755 13.0856601 21.2879785 13.1007491 21.1514979 13.1206393 21.0218412 13.1412152 20.906515 13.1816813 20.8034721 13.2228333 20.708618 13.270844 20.620588 13.3257132 20.5523476 13.393614 20.4902489 13.4560278 20.4499871 13.5301014 20.415867 13.6069184 20.4022189 13.6885365 20.4022189 13.7715263 20.422691 13.860003 20.4499871 13.9484798 20.5045794 14.0376424 20.5728197 14.1261191 20.708618 14.2571195 20.8723948 14.3593136 21.0634678 14.4477903 21.2675064 14.5239215 21.4858755 14.5918222 21.7097039 14.6672675 21.934897 14.7495715 22.1525837 14.8394199 22.3573047 14.9546455 22.5476953 15.0993632 22.7176137 15.2701439 22.8609185 15.4820766 22.970103 15.7427057 23.0376609 16.0499738 23.0656395 16.4196556 23.0376609 16.8510655 22.9905751 17.1734226 22.9093691 17.4539419 22.8001845 17.714571 22.6637039 17.940221 22.5067511 18.1384363 22.3293262 18.309217 22.1389356 18.4601076 21.928073 18.5897363 21.7097039 18.6933021 21.4858755 18.7824647 21.2538584 18.8510513 21.0156996 18.9052347 20.7836824 18.9470726 20.5584893 18.9669627 20.3339785 18.98068 20.1231159 18.9882245 19.8303648 18.9882245 19.5574034 18.98068 19.3185622 18.98068 19.0940515 18.9731355 18.8900129 18.9669627 18.7057639 18.9532454 18.5426695 18.939528 18.3863991 18.9182662 18.2430944 18.9052347 18.1134378 18.8778001 17.9837811 18.8572241 17.8677725 18.8229308 17.7524464 18.796182 17.6432618 18.75503 17.5347597 18.7138781 17.4187511 18.6727261 17.7251502 17.1597053 17.7858841 17.1734226 17.8616309 17.1939986 17.956485 17.2200615 18.073176 17.2488679 18.1953262 17.2749308 18.3318069 17.3023654 18.4812532 17.3373446 18.64503 17.3647793 18.8156309 17.3922139 18.991691 17.4196486 19.1759399 17.4402245 19.3670129 17.4614864 19.5649099 17.4676592 19.7621245 17.4745179 19.9593391 17.4745179 20.1565536 17.4676592 20.3544506 17.4265072 20.5114034 17.3716379 20.6335536 17.2968785 20.7290901 17.2001714 20.7973305 17.1041501 20.8512403 16.9944115 20.8860429 16.8860447 20.9126567 16.7831647 20.9263047 16.5842635 20.8655708 16.4134829 20.7495622 16.2763096 20.5796438 16.1597124 20.3749227 16.0568324 20.1367639 15.9546384 19.8706266 15.8586171 19.6051717 15.7488785 19.3322103 15.6254226 19.0742618 15.4820766 18.8354206 15.3030655 18.6177339 15.0925046 18.447133 14.8318754 18.3249828 14.5239215 18.2628841 14.1549255 18.2703906 13.716657 18.3045107 13.4484833 18.3515966 13.1953987 18.4198369 12.9622042 18.5017253 12.742727 18.6109099 12.5390247 18.7330601 12.3593278 18.8756824 12.1885471 19.0462833 12.0383424 19.2448627 11.9080278 19.461867 11.7989751 19.7075322 11.696781 19.9798112 11.619964 20.2868927 11.5582361 20.620588 11.5102254 20.9884034 11.4841625 21.3896567 11.476618 21.6414635 11.476618 21.8734807 11.4841625 22.0843433 11.4903353 22.2747339 11.4978798 22.4453348 11.5102254 22.6022876 11.5253145 22.7394506 11.5383459 22.8609185 11.5527491 22.976927 11.5650947 23.0724635 11.5870424 23.161176 11.6000739 23.2430644 11.6137912 23.3106223 11.6275086 23.3720386 11.6350531 23.4334549 11.6480845 23.4880472 11.6556291"></polygon>
                                    <polyline id="Stroke-40" stroke="#FEFEFE" stroke-width="0.03" points="23.1400215 13.2015715 23.1400215 13.2015715 23.0451674 13.1953987 22.9496309 13.1816813 22.8609185 13.167964 22.772206 13.1556184 22.691 13.1412152 22.6022876 13.1268121 22.5142575 13.1130947 22.418721 13.1007491 22.3231845 13.0856601 22.2146824 13.0794873 22.0911674 13.0726286 21.9621931 13.06577 21.8188884 13.06577 21.6619356 13.0726286 21.4858755 13.0856601 21.2879785 13.1007491 21.1514979 13.1206393 21.0218412 13.1412152 20.906515 13.1816813 20.8034721 13.2228333 20.708618 13.270844 20.620588 13.3257132 20.5523476 13.393614 20.4902489 13.4560278 20.4499871 13.5301014 20.415867 13.6069184 20.4022189 13.6885365 20.4022189 13.7715263 20.422691 13.860003 20.4499871 13.9484798 20.5045794 14.0376424 20.5728197 14.1261191 20.708618 14.2571195 20.8723948 14.3593136 21.0634678 14.4477903 21.2675064 14.5239215 21.4858755 14.5918222 21.7097039 14.6672675 21.934897 14.7495715 22.1525837 14.8394199 22.3573047 14.9546455 22.5476953 15.0993632 22.7176137 15.2701439 22.8609185 15.4820766 22.970103 15.7427057 23.0376609 16.0499738 23.0656395 16.4196556 23.0376609 16.8510655 22.9905751 17.1734226 22.9093691 17.4539419 22.8001845 17.714571 22.6637039 17.940221 22.5067511 18.1384363 22.3293262 18.309217 22.1389356 18.4601076 21.928073 18.5897363 21.7097039 18.6933021 21.4858755 18.7824647 21.2538584 18.8510513 21.0156996 18.9052347 20.7836824 18.9470726 20.5584893 18.9669627 20.3339785 18.98068 20.1231159 18.9882245 19.8303648 18.9882245 19.5574034 18.98068 19.3185622 18.98068 19.0940515 18.9731355 18.8900129 18.9669627 18.7057639 18.9532454 18.5426695 18.939528 18.3863991 18.9182662 18.2430944 18.9052347 18.1134378 18.8778001 17.9837811 18.8572241 17.8677725 18.8229308 17.7524464 18.796182 17.6432618 18.75503 17.5347597 18.7138781 17.4187511 18.6727261 17.7251502 17.1597053 17.7858841 17.1734226 17.8616309 17.1939986 17.956485 17.2200615 18.073176 17.2488679 18.1953262 17.2749308 18.3318069 17.3023654 18.4812532 17.3373446 18.64503 17.3647793 18.8156309 17.3922139 18.991691 17.4196486 19.1759399 17.4402245 19.3670129 17.4614864 19.5649099 17.4676592 19.7621245 17.4745179 19.9593391 17.4745179 20.1565536 17.4676592 20.3544506 17.4265072 20.5114034 17.3716379 20.6335536 17.2968785 20.7290901 17.2001714 20.7973305 17.1041501 20.8512403 16.9944115 20.8860429 16.8860447 20.9126567 16.7831647 20.9263047 16.5842635 20.8655708 16.4134829 20.7495622 16.2763096 20.5796438 16.1597124 20.3749227 16.0568324 20.1367639 15.9546384 19.8706266 15.8586171 19.6051717 15.7488785 19.3322103 15.6254226 19.0742618 15.4820766 18.8354206 15.3030655 18.6177339 15.0925046 18.447133 14.8318754 18.3249828 14.5239215 18.2628841 14.1549255 18.2703906 13.716657 18.3045107 13.4484833 18.3515966 13.1953987 18.4198369 12.9622042 18.5017253 12.742727 18.6109099 12.5390247 18.7330601 12.3593278 18.8756824 12.1885471 19.0462833 12.0383424 19.2448627 11.9080278 19.461867 11.7989751 19.7075322 11.696781 19.9798112 11.619964 20.2868927 11.5582361 20.620588 11.5102254 20.9884034 11.4841625 21.3896567 11.476618 21.6414635 11.476618 21.8734807 11.4841625 22.0843433 11.4903353 22.2747339 11.4978798 22.4453348 11.5102254 22.6022876 11.5253145 22.7394506 11.5383459 22.8609185 11.5527491 22.976927 11.5650947 23.0724635 11.5870424 23.161176 11.6000739 23.2430644 11.6137912 23.3106223 11.6275086 23.3720386 11.6350531 23.4334549 11.6480845 23.4880472 11.6556291 23.1400215 13.2015715"></polyline>
                                    <polygon id="Fill-42" fill="#FEFEFE" points="24.7547245 9.96448879 26.64157 9.96448879 26.3631494 11.6201698 27.4993511 11.6201698 27.2550506 13.1681698 26.0560678 13.1338765 25.4023253 16.9534653 25.3948189 17.0913244 25.4289391 17.2072358 25.4971794 17.2963984 25.5852094 17.3718437 25.7080421 17.4198543 25.8452052 17.4616922 25.9946515 17.4877551 26.1577459 17.5021583 26.3085571 17.4946137 26.443673 17.4808964 26.567188 17.4616922 26.6756901 17.4328858 26.7644026 17.4068229 26.8258189 17.3848751 26.8660807 17.3718437 26.8804112 17.364985 26.64157 18.6379527 26.5938017 18.672246 26.5460335 18.6996806 26.4982652 18.7271153 26.4511794 18.7545499 26.4034112 18.7751259 26.3488189 18.7963878 26.288085 18.815592 26.2259863 18.8375397 26.1577459 18.8574299 26.090188 18.8704613 26.0076172 18.8855504 25.9270936 18.897896 25.8376987 18.9122992 25.7360206 18.9253306 25.6268361 18.9397338 25.5108275 18.9527653 24.9935657 18.9527653 24.7212867 18.9328751 24.4824455 18.9054405 24.2640764 18.8649744 24.0811923 18.815592 23.9235571 18.7545499 23.7939004 18.6866492 23.6778918 18.6036594 23.5898618 18.5151826 23.5223039 18.4191614 23.4745356 18.3018782 23.4404155 18.1859669 23.4199433 18.0563381 23.4131193 17.9123062 23.4131193 17.7614157 23.4335914 17.6050382 23.4533811 17.4328858"></polygon>
                                    <polyline id="Stroke-44" stroke="#FEFEFE" stroke-width="0.03" points="24.7547245 9.96448879 26.64157 9.96448879 26.3631494 11.6201698 27.4993511 11.6201698 27.2550506 13.1681698 26.0560678 13.1338765 25.4023253 16.9534653 25.3948189 17.0913244 25.4289391 17.2072358 25.4971794 17.2963984 25.5852094 17.3718437 25.7080421 17.4198543 25.8452052 17.4616922 25.9946515 17.4877551 26.1577459 17.5021583 26.3085571 17.4946137 26.443673 17.4808964 26.567188 17.4616922 26.6756901 17.4328858 26.7644026 17.4068229 26.8258189 17.3848751 26.8660807 17.3718437 26.8804112 17.364985 26.64157 18.6379527 26.5938017 18.672246 26.5460335 18.6996806 26.4982652 18.7271153 26.4511794 18.7545499 26.4034112 18.7751259 26.3488189 18.7963878 26.288085 18.815592 26.2259863 18.8375397 26.1577459 18.8574299 26.090188 18.8704613 26.0076172 18.8855504 25.9270936 18.897896 25.8376987 18.9122992 25.7360206 18.9253306 25.6268361 18.9397338 25.5108275 18.9527653 24.9935657 18.9527653 24.7212867 18.9328751 24.4824455 18.9054405 24.2640764 18.8649744 24.0811923 18.815592 23.9235571 18.7545499 23.7939004 18.6866492 23.6778918 18.6036594 23.5898618 18.5151826 23.5223039 18.4191614 23.4745356 18.3018782 23.4404155 18.1859669 23.4199433 18.0563381 23.4131193 17.9123062 23.4131193 17.7614157 23.4335914 17.6050382 23.4533811 17.4328858 24.7547245 9.96448879"></polyline>
                                    <polygon id="Fill-46" fill="#FEFEFE" points="29.0054155 15.7488099 28.9849433 15.866093 28.9781193 15.9881772 28.991085 16.1191777 29.0190635 16.2488064 29.0668318 16.3784351 29.121424 16.5025769 29.195806 16.6328914 29.2776944 16.7488028 29.3732309 16.8654001 29.474909 16.9675942 29.5840936 17.0697882 29.7069262 17.152778 29.8297588 17.2282233 29.9662395 17.2892654 30.1013554 17.337276 30.2385185 17.3647107 30.4145785 17.3921453 30.5858618 17.4127213 30.7626043 17.4326114 30.9400292 17.4477005 31.1167717 17.4538733 31.3003382 17.4538733 31.4777631 17.4477005 31.6626944 17.4326114 31.8462609 17.4065485 32.0305099 17.3715693 32.220218 17.3304174 32.404467 17.2693753 32.5955399 17.19393 32.7927545 17.1116261 32.9838275 17.0018875 33.1810421 16.8859761 32.9087631 18.5697776 32.7995785 18.6246469 32.690394 18.6795162 32.5812094 18.7199823 32.4795313 18.7611342 32.3771708 18.7961134 32.2679863 18.8297209 32.1588017 18.8571555 32.0434755 18.8784174 31.9206429 18.8983075 31.7848446 18.9120248 31.6408575 18.9257421 31.4845871 18.9394595 31.3078446 18.947004 31.1235957 18.947004 30.912733 18.9531768 30.6875399 18.9531768 30.354527 18.947004 30.0140077 18.9120248 29.672806 18.8647 29.3322867 18.7823961 28.9985914 18.6795162 28.6785442 18.5485157 28.3721451 18.377735 28.0855356 18.1795197 27.8200807 17.9463252 27.5887459 17.6658059 27.3908489 17.3516792 27.2277545 16.988856 27.1117459 16.5841949 27.0366815 16.1267222 27.0162094 15.6191812 27.051012 15.0574568 27.0776258 14.8393514 27.11857 14.584895 27.1731622 14.318093 27.2482266 14.0300292 27.3499047 13.7364785 27.4727373 13.4422419 27.6296901 13.1411467 27.8200807 12.852397 28.0377674 12.5794222 28.3039047 12.319479 28.6034798 12.0862844 28.9439991 11.8805246 29.3391107 11.7097439 29.7813082 11.5869739 30.2719562 11.503984 30.824703 11.4765494 31.0894755 11.4840939 31.3692609 11.5101568 31.6483639 11.5588533 31.9281494 11.62744 32.2004283 11.7303199 32.4658833 11.8530899 32.7108661 12.0183837 32.9360592 12.2097404 33.1400979 12.4436207 33.3106987 12.7159096 33.446497 13.0307222 33.5420335 13.3935454 33.5966258 13.8050651 33.6027674 14.2707683 33.5549991 14.7913407 33.4540034 15.3654107 33.4198833 15.7837891 28.4526687 15.7837891 28.7672567 14.4340044 31.7500421 14.4340044 31.7636901 14.2632237 31.7575485 14.0999876 31.743218 13.9484112 31.7166043 13.8119238 31.6688361 13.6816092 31.6210678 13.5643261 31.5528275 13.462132 31.4845871 13.3661108 31.4033811 13.2844927 31.3146687 13.2159061 31.2116258 13.1555498 31.1099476 13.1006805 31.0014455 13.0581568 30.8922609 13.0307222 30.7769348 13.0108321 30.6541021 12.9971148 30.5244455 13.0032875 30.4016129 13.0245494 30.2862867 13.0506123 30.1702781 13.093136 30.0542695 13.1480053 29.951909 13.2090474 29.8502309 13.2844927 29.7615185 13.3661108 29.672806 13.462132 29.5909176 13.5643261 29.5158532 13.6747506 29.4551193 13.7913478 29.393703 13.9141179 29.3459348 14.0506052 29.3049906 14.1884643 29.2776944 14.3318104"></polygon>
                                    <polyline id="Stroke-48" stroke="#FEFEFE" stroke-width="0.03" points="29.0054155 15.7488099 29.0054155 15.7488099 28.9849433 15.866093 28.9781193 15.9881772 28.991085 16.1191777 29.0190635 16.2488064 29.0668318 16.3784351 29.121424 16.5025769 29.195806 16.6328914 29.2776944 16.7488028 29.3732309 16.8654001 29.474909 16.9675942 29.5840936 17.0697882 29.7069262 17.152778 29.8297588 17.2282233 29.9662395 17.2892654 30.1013554 17.337276 30.2385185 17.3647107 30.4145785 17.3921453 30.5858618 17.4127213 30.7626043 17.4326114 30.9400292 17.4477005 31.1167717 17.4538733 31.3003382 17.4538733 31.4777631 17.4477005 31.6626944 17.4326114 31.8462609 17.4065485 32.0305099 17.3715693 32.220218 17.3304174 32.404467 17.2693753 32.5955399 17.19393 32.7927545 17.1116261 32.9838275 17.0018875 33.1810421 16.8859761 32.9087631 18.5697776 32.7995785 18.6246469 32.690394 18.6795162 32.5812094 18.7199823 32.4795313 18.7611342 32.3771708 18.7961134 32.2679863 18.8297209 32.1588017 18.8571555 32.0434755 18.8784174 31.9206429 18.8983075 31.7848446 18.9120248 31.6408575 18.9257421 31.4845871 18.9394595 31.3078446 18.947004 31.1235957 18.947004 30.912733 18.9531768 30.6875399 18.9531768 30.354527 18.947004 30.0140077 18.9120248 29.672806 18.8647 29.3322867 18.7823961 28.9985914 18.6795162 28.6785442 18.5485157 28.3721451 18.377735 28.0855356 18.1795197 27.8200807 17.9463252 27.5887459 17.6658059 27.3908489 17.3516792 27.2277545 16.988856 27.1117459 16.5841949 27.0366815 16.1267222 27.0162094 15.6191812 27.051012 15.0574568 27.0776258 14.8393514 27.11857 14.584895 27.1731622 14.318093 27.2482266 14.0300292 27.3499047 13.7364785 27.4727373 13.4422419 27.6296901 13.1411467 27.8200807 12.852397 28.0377674 12.5794222 28.3039047 12.319479 28.6034798 12.0862844 28.9439991 11.8805246 29.3391107 11.7097439 29.7813082 11.5869739 30.2719562 11.503984 30.824703 11.4765494 31.0894755 11.4840939 31.3692609 11.5101568 31.6483639 11.5588533 31.9281494 11.62744 32.2004283 11.7303199 32.4658833 11.8530899 32.7108661 12.0183837 32.9360592 12.2097404 33.1400979 12.4436207 33.3106987 12.7159096 33.446497 13.0307222 33.5420335 13.3935454 33.5966258 13.8050651 33.6027674 14.2707683 33.5549991 14.7913407 33.4540034 15.3654107 33.4198833 15.7837891 28.4526687 15.7837891 28.7672567 14.4340044 31.7500421 14.4340044 31.7636901 14.2632237 31.7575485 14.0999876 31.743218 13.9484112 31.7166043 13.8119238 31.6688361 13.6816092 31.6210678 13.5643261 31.5528275 13.462132 31.4845871 13.3661108 31.4033811 13.2844927 31.3146687 13.2159061 31.2116258 13.1555498 31.1099476 13.1006805 31.0014455 13.0581568 30.8922609 13.0307222 30.7769348 13.0108321 30.6541021 12.9971148 30.5244455 13.0032875 30.4016129 13.0245494 30.2862867 13.0506123 30.1702781 13.093136 30.0542695 13.1480053 29.951909 13.2090474 29.8502309 13.2844927 29.7615185 13.3661108 29.672806 13.462132 29.5909176 13.5643261 29.5158532 13.6747506 29.4551193 13.7913478 29.393703 13.9141179 29.3459348 14.0506052 29.3049906 14.1884643 29.2776944 14.3318104 29.0054155 15.7488099"></polyline>
                                    <polygon id="Fill-50" fill="#FEFEFE" points="45.2511893 12.0314152 45.1624768 11.9834045 45.0744468 11.9429384 44.9795927 11.8942419 44.8772322 11.8469171 44.7748717 11.8057652 44.6588631 11.7646132 44.5428545 11.7234612 44.4200219 11.6823093 44.2910476 11.648016 44.161391 11.6198954 44.0180863 11.5931467 43.8754639 11.5725707 43.7191936 11.5588533 43.5622408 11.545136 43.3984639 11.545136 43.2285455 11.545136 43.0579446 11.545136 42.8805197 11.5588533 42.6969532 11.5801152 42.5058803 11.6137226 42.3154897 11.6685919 42.1250991 11.7433514 41.9347086 11.8400585 41.7429532 11.9628285 41.5593867 12.1137191 41.3826442 12.2913584 41.2120433 12.5101498 41.0489489 12.7639202 40.8988202 13.0657014 40.7555155 13.4072627 40.6265412 13.7913478 40.5166742 14.2289304 40.4764124 14.4758423 40.4491163 14.7145237 40.4354682 14.9545769 40.4422923 15.1877714 40.4627644 15.42028 40.5105326 15.6404431 40.5719489 15.8448312 40.6463309 16.0499052 40.7486914 16.2350891 40.871524 16.4134143 41.0148288 16.5704776 41.1786056 16.7145095 41.3614897 16.8372796 41.5723524 16.9408454 41.8050519 17.0293221 42.0636828 17.0910501 42.1517129 17.1116261 42.2540734 17.132202 42.376906 17.1452335 42.5127043 17.1596367 42.6635155 17.173354 42.8197858 17.173354 42.9903867 17.173354 43.1603052 17.1596367 43.3370476 17.1390607 43.5144725 17.1040815 43.684391 17.0567568 43.8543094 17.0018875 44.0249103 16.9278139 44.1818631 16.8372796 44.3251678 16.7282268 44.4616485 16.6047709 44.154567 18.4326043 44.1136227 18.4668977 44.0726785 18.5073638 44.0180863 18.5553744 43.9573524 18.5972122 43.882288 18.6520815 43.7867515 18.7000922 43.677567 18.7481028 43.5560991 18.7899406 43.3984639 18.8372654 43.2210391 18.8708728 43.0176828 18.8983075 42.7788416 18.9257421 42.5127043 18.9394595 42.2063052 18.947004 41.8596442 18.9394595 41.4774983 18.9181976 41.1642751 18.885276 40.8510519 18.8160035 40.5385112 18.7138095 40.2239232 18.5766362 39.9243481 18.4120284 39.638421 18.2069544 39.3661421 17.9669012 39.1143352 17.6932406 38.8898245 17.3852867 38.6980691 17.0437253 38.5349747 16.6596402 38.4128245 16.2419477 38.3302536 15.7837891 38.3036399 15.2968241 38.3166056 14.7625343 38.39167 14.1946371 38.4462622 13.9141179 38.5076785 13.6404572 38.5766013 13.3722836 38.6441592 13.1205707 38.7192236 12.8805175 38.8072536 12.6404643 38.8959661 12.4148144 38.9915026 12.2021958 39.0938631 11.9902632 39.1955412 11.7920479 39.3122322 11.6000053 39.4343824 11.4216801 39.5565326 11.2515853 39.6923309 11.0869774 39.829494 10.9360868 39.9721163 10.7913691 40.1290691 10.6562534 40.2860219 10.5259389 40.4491163 10.4093416 40.6190348 10.299603 40.8032837 10.1967231 40.9868502 10.1075605 41.1786056 10.0245707 41.3751378 9.94981125 41.5866828 9.88122463 41.7975455 9.82772707 42.0159146 9.77903057 42.2479318 9.7378786 42.4785841 9.70358529 42.7242494 9.67615064 42.9692322 9.66311918 43.2285455 9.65626052 43.4462322 9.66311918 43.6570948 9.67615064 43.8618159 9.69672663 44.0658545 9.72416128 44.2569275 9.75159592 44.440494 9.7927479 44.6179189 9.82772707 44.7816957 9.86887904 44.9379661 9.90934515 45.0744468 9.94981125 45.2041034 9.99096323 45.313288 10.0321152 45.4081421 10.0670944 45.4900305 10.094529 45.5507644 10.1205919 45.592391 10.1343093"></polygon>
                                    <polyline id="Stroke-52" stroke="#FEFEFE" stroke-width="0.03" points="45.2511893 12.0314152 45.2511893 12.0314152 45.1624768 11.9834045 45.0744468 11.9429384 44.9795927 11.8942419 44.8772322 11.8469171 44.7748717 11.8057652 44.6588631 11.7646132 44.5428545 11.7234612 44.4200219 11.6823093 44.2910476 11.648016 44.161391 11.6198954 44.0180863 11.5931467 43.8754639 11.5725707 43.7191936 11.5588533 43.5622408 11.545136 43.3984639 11.545136 43.2285455 11.545136 43.0579446 11.545136 42.8805197 11.5588533 42.6969532 11.5801152 42.5058803 11.6137226 42.3154897 11.6685919 42.1250991 11.7433514 41.9347086 11.8400585 41.7429532 11.9628285 41.5593867 12.1137191 41.3826442 12.2913584 41.2120433 12.5101498 41.0489489 12.7639202 40.8988202 13.0657014 40.7555155 13.4072627 40.6265412 13.7913478 40.5166742 14.2289304 40.4764124 14.4758423 40.4491163 14.7145237 40.4354682 14.9545769 40.4422923 15.1877714 40.4627644 15.42028 40.5105326 15.6404431 40.5719489 15.8448312 40.6463309 16.0499052 40.7486914 16.2350891 40.871524 16.4134143 41.0148288 16.5704776 41.1786056 16.7145095 41.3614897 16.8372796 41.5723524 16.9408454 41.8050519 17.0293221 42.0636828 17.0910501 42.1517129 17.1116261 42.2540734 17.132202 42.376906 17.1452335 42.5127043 17.1596367 42.6635155 17.173354 42.8197858 17.173354 42.9903867 17.173354 43.1603052 17.1596367 43.3370476 17.1390607 43.5144725 17.1040815 43.684391 17.0567568 43.8543094 17.0018875 44.0249103 16.9278139 44.1818631 16.8372796 44.3251678 16.7282268 44.4616485 16.6047709 44.154567 18.4326043 44.1136227 18.4668977 44.0726785 18.5073638 44.0180863 18.5553744 43.9573524 18.5972122 43.882288 18.6520815 43.7867515 18.7000922 43.677567 18.7481028 43.5560991 18.7899406 43.3984639 18.8372654 43.2210391 18.8708728 43.0176828 18.8983075 42.7788416 18.9257421 42.5127043 18.9394595 42.2063052 18.947004 41.8596442 18.9394595 41.4774983 18.9181976 41.1642751 18.885276 40.8510519 18.8160035 40.5385112 18.7138095 40.2239232 18.5766362 39.9243481 18.4120284 39.638421 18.2069544 39.3661421 17.9669012 39.1143352 17.6932406 38.8898245 17.3852867 38.6980691 17.0437253 38.5349747 16.6596402 38.4128245 16.2419477 38.3302536 15.7837891 38.3036399 15.2968241 38.3166056 14.7625343 38.39167 14.1946371 38.4462622 13.9141179 38.5076785 13.6404572 38.5766013 13.3722836 38.6441592 13.1205707 38.7192236 12.8805175 38.8072536 12.6404643 38.8959661 12.4148144 38.9915026 12.2021958 39.0938631 11.9902632 39.1955412 11.7920479 39.3122322 11.6000053 39.4343824 11.4216801 39.5565326 11.2515853 39.6923309 11.0869774 39.829494 10.9360868 39.9721163 10.7913691 40.1290691 10.6562534 40.2860219 10.5259389 40.4491163 10.4093416 40.6190348 10.299603 40.8032837 10.1967231 40.9868502 10.1075605 41.1786056 10.0245707 41.3751378 9.94981125 41.5866828 9.88122463 41.7975455 9.82772707 42.0159146 9.77903057 42.2479318 9.7378786 42.4785841 9.70358529 42.7242494 9.67615064 42.9692322 9.66311918 43.2285455 9.65626052 43.4462322 9.66311918 43.6570948 9.67615064 43.8618159 9.69672663 44.0658545 9.72416128 44.2569275 9.75159592 44.440494 9.7927479 44.6179189 9.82772707 44.7816957 9.86887904 44.9379661 9.90934515 45.0744468 9.94981125 45.2041034 9.99096323 45.313288 10.0321152 45.4081421 10.0670944 45.4900305 10.094529 45.5507644 10.1205919 45.592391 10.1343093 45.2511893 12.0314152"></polyline>
                                    <polygon id="Fill-54" fill="#FEFEFE" points="62.0220043 18.9530396 60.1344764 18.9530396 60.2716395 18.1937857 60.2716395 18.1245132 60.1617725 18.2616865 60.0457639 18.3851424 59.9311202 18.4941951 59.8082876 18.5902164 59.6854549 18.6800649 59.5626223 18.7548243 59.4404721 18.8158664 59.310133 18.8782802 59.1811588 18.925605 59.0521845 18.9605841 58.9225279 18.9941916 58.7860472 19.0140817 58.6502489 19.0353436 58.5205923 19.0490609 58.3841116 19.0566054 58.2476309 19.0566054 57.8941459 19.0284849 57.5672747 18.9530396 57.2670172 18.8371282 56.9954206 18.6800649 56.7497554 18.4811637 56.5313863 18.248655 56.3409957 17.9955704 56.1772189 17.7075066 56.0407382 17.3995527 55.9322361 17.0771956 55.8571717 16.741807 55.8025794 16.3927011 55.7821073 16.0429093 55.7889313 15.6869448 55.8230515 15.3378389 55.8851502 14.9894189 55.9868283 14.5847578 56.1096609 14.2020445 56.2529657 13.8522527 56.4228841 13.5237228 56.5996266 13.2157689 56.8043476 12.9421083 57.0152103 12.6951965 57.2404034 12.4695465 57.4792446 12.2713311 57.7310515 12.0998646 57.989 11.948974 58.2476309 11.8330626 58.5205923 11.7370414 58.7935536 11.6753134 59.0658326 11.6348473 59.3449356 11.6204441 59.5428326 11.6273028 59.7332232 11.6485646 59.9106481 11.6821721 60.0744249 11.7301827 60.2306953 11.785052 60.3664936 11.8474658 60.5029742 11.9229111 60.6251245 11.9983564 60.7336266 12.0792886 60.8366695 12.1684512 60.925382 12.256928 61.006588 12.3460906 61.0748283 12.4345673 61.136927 12.5244158 61.1908369 12.6067197 61.2317811 12.6890237 61.7080987 9.99837058 63.5615064 9.99837058"></polygon>
                                    <polyline id="Stroke-56" stroke="#FEFEFE" stroke-width="0.03" points="62.0220043 18.9530396 60.1344764 18.9530396 60.2716395 18.1937857 60.2716395 18.1245132 60.1617725 18.2616865 60.0457639 18.3851424 59.9311202 18.4941951 59.8082876 18.5902164 59.6854549 18.6800649 59.5626223 18.7548243 59.4404721 18.8158664 59.310133 18.8782802 59.1811588 18.925605 59.0521845 18.9605841 58.9225279 18.9941916 58.7860472 19.0140817 58.6502489 19.0353436 58.5205923 19.0490609 58.3841116 19.0566054 58.2476309 19.0566054 57.8941459 19.0284849 57.5672747 18.9530396 57.2670172 18.8371282 56.9954206 18.6800649 56.7497554 18.4811637 56.5313863 18.248655 56.3409957 17.9955704 56.1772189 17.7075066 56.0407382 17.3995527 55.9322361 17.0771956 55.8571717 16.741807 55.8025794 16.3927011 55.7821073 16.0429093 55.7889313 15.6869448 55.8230515 15.3378389 55.8851502 14.9894189 55.9868283 14.5847578 56.1096609 14.2020445 56.2529657 13.8522527 56.4228841 13.5237228 56.5996266 13.2157689 56.8043476 12.9421083 57.0152103 12.6951965 57.2404034 12.4695465 57.4792446 12.2713311 57.7310515 12.0998646 57.989 11.948974 58.2476309 11.8330626 58.5205923 11.7370414 58.7935536 11.6753134 59.0658326 11.6348473 59.3449356 11.6204441 59.5428326 11.6273028 59.7332232 11.6485646 59.9106481 11.6821721 60.0744249 11.7301827 60.2306953 11.785052 60.3664936 11.8474658 60.5029742 11.9229111 60.6251245 11.9983564 60.7336266 12.0792886 60.8366695 12.1684512 60.925382 12.256928 61.006588 12.3460906 61.0748283 12.4345673 61.136927 12.5244158 61.1908369 12.6067197 61.2317811 12.6890237 61.7080987 9.99837058 63.5615064 9.99837058 62.0220043 18.9530396"></polyline>
                                    <polygon id="Fill-58" fill="#F9B030" points="58.935903 17.2966728 59.1276584 17.2822696 59.3037185 17.2418035 59.4674953 17.1944787 59.6237657 17.1183475 59.7670704 17.0360436 59.9035511 16.9338495 60.0325253 16.8179381 60.1485339 16.6937964 60.2508944 16.557309 60.3464309 16.4064184 60.4344609 16.2493551 60.5095253 16.0840613 60.5770833 15.9139665 60.6316755 15.7356413 60.6801262 15.5504574 60.7142464 15.3659594 60.7476841 15.1739169 60.769521 14.9750157 60.769521 14.7912035 60.7620146 14.5984751 60.7415425 14.4215217 60.7142464 14.2500551 60.6664781 14.0854472 60.6125682 13.927698 60.5436455 13.7918965 60.4617571 13.6615819 60.3730446 13.5518433 60.2713665 13.4558221 60.1553579 13.3721464 60.0325253 13.3186488 59.9035511 13.2843555 59.7609288 13.2706382 59.5759974 13.2843555 59.406079 13.3111043 59.2491262 13.3666595 59.0921734 13.4345602 58.9570575 13.5237228 58.8205768 13.6334614 58.7045682 13.7500587 58.5892421 13.8803732 58.4868815 14.0298921 58.3913451 14.1883272 58.3026326 14.352935 58.2275682 14.5298885 58.1600103 14.7143865 58.105418 14.9002563 58.0508258 15.0991575 58.0105639 15.2966869 57.9757614 15.5991539 57.9894094 15.926998 58.0371777 16.2623865 58.1252077 16.5840578 58.2623708 16.8652629 58.4391133 17.0909129 58.663624 17.2418035"></polygon>
                                    <polygon id="Fill-60" fill="#FEFEFE" points="17.1053232 17.4326114 16.8323618 18.9531768 15.1161172 18.9531768 15.1638854 18.6726575 15.1980056 18.418887 15.2253017 18.2268445 15.2525979 18.1246504 15.1577438 18.234389 15.0478768 18.3441276 14.9182202 18.4470075 14.7755979 18.5423429 14.6125034 18.6383642 14.4419026 18.7199823 14.2644777 18.8022862 14.0809112 18.8708728 13.8836966 18.9332867 13.6857996 18.9806114 13.4879026 19.0217634 13.2838639 19.0485122 13.0866494 19.0629154 12.8887524 19.0690882 12.6983618 19.0485122 12.5134305 19.0217634 12.2759541 18.9607213 12.0582674 18.8921347 11.8671944 18.8022862 11.697276 18.7000922 11.5471472 18.5903536 11.4106665 18.4668977 11.3021644 18.3365831 11.2059455 18.2007816 11.1240571 18.0560638 11.0564991 17.9051732 11.0019069 17.7556544 10.9616451 17.6047638 10.9336665 17.4470146 10.9131944 17.2892654 10.8995464 17.1390607 10.8995464 16.988856 10.9200185 16.7213682 10.9616451 16.4682836 11.029203 16.2289163 11.1179155 15.9950359 11.2271 15.7762446 11.3492502 15.5780292 11.4925549 15.3859867 11.6563318 15.215206 11.8269326 15.0574568 12.0173232 14.9141108 12.2145378 14.7844821 12.4185764 14.6747435 12.6362631 14.5787222 12.8614562 14.5032769 13.0934734 14.441549 13.3316322 14.400397 13.3452803 14.400397 13.378718 14.3928525 13.4264863 14.3866797 13.502233 14.3805069 13.5834391 14.3661037 13.6789755 14.359245 13.7813361 14.3455277 13.8973446 14.3318104 14.0126708 14.318093 14.1286794 14.3043757 14.251512 14.2982029 14.3606966 14.2837997 14.4691987 14.2762552 14.5715592 14.2707683 14.6670957 14.2632237 14.7414777 14.2632237 14.8984305 14.2632237 15.0622073 14.2707683 15.2116536 14.2762552 15.3611 14.2762552 15.4839326 14.2837997 15.5794691 14.2906584 15.6477094 14.2982029 15.6681815 14.2982029 15.6818296 14.2495064 15.7227738 14.1260505 15.7562116 13.9827045 15.7698597 13.8523899 15.7425635 13.7021852 15.6818296 13.5643261 15.5999412 13.4422419 15.4907567 13.3386761 15.3611 13.2501994 15.2184777 13.1884714 15.0547009 13.1480053 14.8779584 13.1336021 14.6868854 13.1267435 14.4828468 13.1205707 14.2713017 13.1205707 14.053615 13.1267435 13.8291043 13.1411467 13.6114176 13.1603509 13.3930485 13.1816128 13.1815034 13.2090474 12.9781472 13.2364821 12.7802502 13.2707754 12.6028253 13.3050687 12.4397309 13.3386761 12.2896021 13.3798281 12.1667695 13.4209801 12.071233 13.4689907 11.9968511 13.5108285 12.4799927 11.8606345 12.6294391 11.7989065 12.7802502 11.7433514 12.9433446 11.6967125 13.1064391 11.6624191 13.2702159 11.62744 13.4476408 11.6000053 13.6243833 11.5725707 13.8086322 11.5588533 13.9990227 11.545136 14.1969197 11.5382774 14.4016408 11.5314187 14.6125034 11.5314187 14.8301901 11.5314187 15.0547009 11.5314187 15.2935421 11.5382774 15.5310185 11.545136 15.7227738 11.5588533 15.92613 11.5931467 16.1383575 11.6418432 16.3560442 11.7028852 16.5669069 11.7851892 16.7716279 11.8805246 16.9763489 11.9984936 17.1667395 12.1267506 17.3366579 12.278327 17.4874691 12.4436207 17.622585 12.6274329 17.7249455 12.8325069 17.7931858 13.0506123 17.83413 13.2844927 17.83413 13.544436 17.7931858 13.8174107"></polygon>
                                    <polyline id="Stroke-62" stroke="#FEFEFE" stroke-width="0.03" points="17.1053232 17.4326114 16.8323618 18.9531768 15.1161172 18.9531768 15.1638854 18.6726575 15.1980056 18.418887 15.2253017 18.2268445 15.2525979 18.1246504 15.1577438 18.234389 15.0478768 18.3441276 14.9182202 18.4470075 14.7755979 18.5423429 14.6125034 18.6383642 14.4419026 18.7199823 14.2644777 18.8022862 14.0809112 18.8708728 13.8836966 18.9332867 13.6857996 18.9806114 13.4879026 19.0217634 13.2838639 19.0485122 13.0866494 19.0629154 12.8887524 19.0690882 12.6983618 19.0485122 12.5134305 19.0217634 12.2759541 18.9607213 12.0582674 18.8921347 11.8671944 18.8022862 11.697276 18.7000922 11.5471472 18.5903536 11.4106665 18.4668977 11.3021644 18.3365831 11.2059455 18.2007816 11.1240571 18.0560638 11.0564991 17.9051732 11.0019069 17.7556544 10.9616451 17.6047638 10.9336665 17.4470146 10.9131944 17.2892654 10.8995464 17.1390607 10.8995464 16.988856 10.9200185 16.7213682 10.9616451 16.4682836 11.029203 16.2289163 11.1179155 15.9950359 11.2271 15.7762446 11.3492502 15.5780292 11.4925549 15.3859867 11.6563318 15.215206 11.8269326 15.0574568 12.0173232 14.9141108 12.2145378 14.7844821 12.4185764 14.6747435 12.6362631 14.5787222 12.8614562 14.5032769 13.0934734 14.441549 13.3316322 14.400397 13.3452803 14.400397 13.378718 14.3928525 13.4264863 14.3866797 13.502233 14.3805069 13.5834391 14.3661037 13.6789755 14.359245 13.7813361 14.3455277 13.8973446 14.3318104 14.0126708 14.318093 14.1286794 14.3043757 14.251512 14.2982029 14.3606966 14.2837997 14.4691987 14.2762552 14.5715592 14.2707683 14.6670957 14.2632237 14.7414777 14.2632237 14.8984305 14.2632237 15.0622073 14.2707683 15.2116536 14.2762552 15.3611 14.2762552 15.4839326 14.2837997 15.5794691 14.2906584 15.6477094 14.2982029 15.6681815 14.2982029 15.6818296 14.2495064 15.7227738 14.1260505 15.7562116 13.9827045 15.7698597 13.8523899 15.7425635 13.7021852 15.6818296 13.5643261 15.5999412 13.4422419 15.4907567 13.3386761 15.3611 13.2501994 15.2184777 13.1884714 15.0547009 13.1480053 14.8779584 13.1336021 14.6868854 13.1267435 14.4828468 13.1205707 14.2713017 13.1205707 14.053615 13.1267435 13.8291043 13.1411467 13.6114176 13.1603509 13.3930485 13.1816128 13.1815034 13.2090474 12.9781472 13.2364821 12.7802502 13.2707754 12.6028253 13.3050687 12.4397309 13.3386761 12.2896021 13.3798281 12.1667695 13.4209801 12.071233 13.4689907 11.9968511 13.5108285 12.4799927 11.8606345 12.6294391 11.7989065 12.7802502 11.7433514 12.9433446 11.6967125 13.1064391 11.6624191 13.2702159 11.62744 13.4476408 11.6000053 13.6243833 11.5725707 13.8086322 11.5588533 13.9990227 11.545136 14.1969197 11.5382774 14.4016408 11.5314187 14.6125034 11.5314187 14.8301901 11.5314187 15.0547009 11.5314187 15.2935421 11.5382774 15.5310185 11.545136 15.7227738 11.5588533 15.92613 11.5931467 16.1383575 11.6418432 16.3560442 11.7028852 16.5669069 11.7851892 16.7716279 11.8805246 16.9763489 11.9984936 17.1667395 12.1267506 17.3366579 12.278327 17.4874691 12.4436207 17.622585 12.6274329 17.7249455 12.8325069 17.7931858 13.0506123 17.83413 13.2844927 17.83413 13.544436 17.7931858 13.8174107 17.1053232 17.4326114"></polyline>
                                    <polygon id="Fill-64" fill="#EA2230" points="15.4636652 15.6463415 15.4568412 15.6127341 15.4302275 15.5777549 15.3886009 15.5578648 15.3210429 15.5441475 15.2452961 15.5304301 15.1572661 15.5228856 15.0549056 15.5228856 14.9525451 15.5228856 14.8433605 15.5304301 14.7280343 15.5441475 14.6195322 15.5578648 14.5103476 15.5715821 14.4079871 15.5852994 14.3124506 15.6051895 14.2305622 15.6257655 14.1554979 15.6463415 14.1077296 15.6607447 14.0538197 15.6806348 13.9794378 15.7087553 13.903691 15.7430486 13.8149785 15.7835148 13.7269485 15.8315254 13.631412 15.879536 13.5426996 15.9337195 13.4471631 16.0023061 13.359133 16.0715786 13.2765622 16.1525108 13.2021803 16.2348147 13.1339399 16.3246632 13.0868541 16.4199986 13.0459099 16.5290513 13.0254378 16.6387899 13.0186137 16.8726703 13.0520515 17.0571683 13.1202918 17.1943415 13.2083219 17.2965356 13.3113648 17.3651222 13.426691 17.4062742 13.5358755 17.4268502 13.6443777 17.4323371 13.8490987 17.4268502 14.0333476 17.4062742 14.2100901 17.3774678 14.3670429 17.3376875 14.5028412 17.2896769 14.6324979 17.2286348 14.747824 17.1655351 14.850867 17.0907757 14.9395794 17.022875 15.0207854 16.9412569 15.0890258 16.8651257 15.143618 16.7828218 15.1913863 16.7005179 15.2323305 16.6182139 15.2657682 16.5434545 15.2862403 16.4680092 15.3408326 16.2697939 15.3886009 16.0427722 15.4302275 15.8246667"></polygon>
                                    <polygon id="Fill-66" fill="#FEFEFE" points="2.77355451 18.9530396 0.920829185 18.9530396 2.46715536 9.96476314 5.68878197 9.96476314 5.99518112 15.2966869 8.22254592 9.96476314 11.5881597 9.96476314 10.0083957 18.9530396 8.15430558 18.9530396 9.32599227 12.236352 9.2516103 12.236352 6.47900515 18.9530396 4.38812103 18.9530396 4.37447296 18.6725203 4.32602232 17.9262979 4.26597082 16.8652629 4.19704807 15.6464787 4.12812532 14.4215217 4.06739142 13.3460835 4.02030558 12.5655677 4.00665751 12.236352 3.985503 12.236352 3.9452412 12.236352 3.904297 12.236352"></polygon>
                                    <polyline id="Stroke-68" stroke="#FEFEFE" stroke-width="0.03" points="2.77355451 18.9530396 0.920829185 18.9530396 2.46715536 9.96476314 5.68878197 9.96476314 5.99518112 15.2966869 8.22254592 9.96476314 11.5881597 9.96476314 10.0083957 18.9530396 8.15430558 18.9530396 9.32599227 12.236352 9.2516103 12.236352 6.47900515 18.9530396 4.38812103 18.9530396 4.37447296 18.6725203 4.32602232 17.9262979 4.26597082 16.8652629 4.19704807 15.6464787 4.12812532 14.4215217 4.06739142 13.3460835 4.02030558 12.5655677 4.00665751 12.236352 3.985503 12.236352 3.9452412 12.236352 3.904297 12.236352 2.77355451 18.9530396"></polyline>
                                    <polygon id="Fill-70" fill="#FEFEFE" points="50.9123399 17.4326114 50.6332369 18.9531768 48.9231339 18.9531768 48.9360996 18.6726575 48.943606 18.4264315 48.943606 18.2412477 48.9565717 18.1589437 48.8685416 18.2618237 48.7661811 18.3640177 48.6433485 18.460039 48.5075502 18.5553744 48.3642455 18.6452229 48.2004687 18.7275268 48.0305502 18.8098307 47.8606318 18.8777315 47.6763828 18.9332867 47.4859923 18.988156 47.2949193 19.0217634 47.1045288 19.0485122 46.9066318 19.0629154 46.7162412 19.0690882 46.5319923 19.0485122 46.3484258 19.0217634 46.1034429 18.9607213 45.8850738 18.8921347 45.6940009 18.8022862 45.5172584 18.7000922 45.367812 18.5903536 45.237473 18.4668977 45.1282884 18.3365831 45.0334343 18.2007816 44.9522283 18.0560638 44.890812 17.9051732 44.8362197 17.7556544 44.8020996 17.6047638 44.7748034 17.4470146 44.7543313 17.2892654 44.7406833 17.1390607 44.7406833 16.988856 44.7543313 16.7213682 44.7952755 16.4682836 44.8566918 16.2289163 44.9454043 15.9950359 45.0470824 15.7762446 45.1760567 15.5780292 45.3200438 15.3859867 45.4763142 15.215206 45.6530567 15.0574568 45.8373056 14.9141108 46.0352026 14.7844821 46.2460652 14.6747435 46.4569279 14.5787222 46.682121 14.5032769 46.9066318 14.441549 47.1379665 14.400397 47.1516146 14.400397 47.1864172 14.3928525 47.233503 14.3866797 47.3017433 14.3805069 47.3904558 14.3661037 47.4859923 14.359245 47.5876704 14.3455277 47.6968549 14.3318104 47.8128635 14.318093 47.9356961 14.3043757 48.0510223 14.2982029 48.1670309 14.2837997 48.2762155 14.2762552 48.3710695 14.2707683 48.466606 14.2632237 48.540988 14.2632237 48.7054472 14.2632237 48.8685416 14.2707683 49.0254944 14.2762552 49.1749408 14.2762552 49.3045974 14.2837997 49.413782 14.2906584 49.4751983 14.2982029 49.5024944 14.2982029 49.5154601 14.2495064 49.5359322 14.1260505 49.5570867 13.9827045 49.5700524 13.8523899 49.5427562 13.7021852 49.4881639 13.5643261 49.3994515 13.4422419 49.2977734 13.3386761 49.1749408 13.2501994 49.0323185 13.1884714 48.8815073 13.1480053 48.7190953 13.1336021 48.5280223 13.1267435 48.3233013 13.1205707 48.1124386 13.1205707 47.8940695 13.1267435 47.6695588 13.1411467 47.4518721 13.1603509 47.233503 13.1816128 47.0226403 13.2090474 46.8186017 13.2364821 46.6207047 13.2707754 46.4432798 13.3050687 46.279503 13.3386761 46.1307391 13.3798281 46.0079064 13.4209801 45.9116876 13.4689907 45.8373056 13.5108285 46.3143056 11.8606345 46.4637519 11.7989065 46.6207047 11.7433514 46.7769751 11.6967125 46.9407519 11.6624191 47.1113528 11.62744 47.2819536 11.6000053 47.4580137 11.5725707 47.6422627 11.5588533 47.8326532 11.545136 48.0305502 11.5382774 48.2277648 11.5314187 48.4393099 11.5314187 48.6508549 11.5314187 48.8685416 11.5314187 49.0998764 11.5382774 49.3318936 11.545136 49.5222841 11.5588533 49.7270052 11.5931467 49.9378678 11.6418432 50.1555545 11.7028852 50.3670996 11.7851892 50.5779622 11.8805246 50.7833657 11.9984936 50.9730738 12.1267506 51.1436747 12.278327 51.2999451 12.4436207 51.4364258 12.6274329 51.5387863 12.8325069 51.6131682 13.0506123 51.6609365 13.2844927 51.6609365 13.544436 51.6268163 13.8174107"></polygon>
                                    <polygon id="Fill-78" fill="#FEFEFE" points="46.341397 19.0629154 46.341397 19.0629154 46.5317876 19.0896642 46.7160365 19.1102401 46.9071094 19.1040673 47.104324 19.0896642 47.3015386 19.0629154 47.4926116 19.0286221 47.6830021 18.9730669 47.8733927 18.9181976 48.0439936 18.8509827 48.2214185 18.7679929 48.3851953 18.6863748 48.5278176 18.5903536 48.6711223 18.4943323 48.7932725 18.3976252 48.9024571 18.2892583 48.9911695 18.1863784 48.9229292 18.1315091 48.8342167 18.234389 48.7386803 18.3310961 48.6158476 18.4264315 48.4868734 18.5217669 48.3442511 18.603385 48.1804742 18.6863748 48.0173798 18.7679929 47.846779 18.8372654 47.6693541 18.8921347 47.4789635 18.947004 47.2878906 18.9806114 47.104324 19.0080461 46.9071094 19.0217634 46.7160365 19.0286221 46.5317876 19.0080461 46.3550451 18.9806114"></polygon>
                                    <polygon id="Fill-80" fill="#FEFEFE" points="44.6927103 16.9885817 44.6927103 16.9885817 44.6995343 17.1394722 44.7131824 17.2889911 44.7343369 17.4542848 44.7609506 17.6106623 44.7950708 17.7615529 44.8496631 17.9186162 44.910397 18.0770513 44.9997918 18.2210832 45.0946459 18.3644292 45.2038305 18.494058 45.3396288 18.6250584 45.4958991 18.734797 45.6740064 18.8431638 45.871221 18.9330123 46.0964142 19.0015989 46.341397 19.062641 46.3550451 18.9803371 46.1093798 18.9179233 45.8991996 18.8513942 45.7149506 18.7608599 45.5375258 18.6648386 45.394221 18.5551 45.2720708 18.4391887 45.1622039 18.3095599 45.0673498 18.1792454 44.9922854 18.0358993 44.9308691 17.8911816 44.8769592 17.7478355 44.8428391 17.5976308 44.8155429 17.4398816 44.7950708 17.2889911 44.7821052 17.1394722 44.7882468 16.9885817"></polygon>
                                    <polygon id="Fill-82" fill="#FEFEFE" points="47.138103 14.3589707 47.138103 14.3589707 46.8999442 14.4008085 46.667927 14.4625365 46.4434163 14.5379817 46.2257296 14.6333171 46.0141845 14.7423699 45.8101459 14.8795431 45.625897 15.0242609 45.4484721 15.187497 45.2853777 15.3582777 45.1427554 15.5503202 45.0055923 15.7560801 44.9045966 15.9817301 44.8152017 16.2149246 44.7537854 16.4604647 44.7128412 16.7210938 44.6930515 16.9885817 44.7879056 16.9885817 44.7947296 16.7210938 44.8356738 16.4748679 44.8970901 16.2416734 44.9858026 16.0091647 45.0881631 15.7972321 45.2109957 15.6051895 45.353618 15.413147 45.5030644 15.2423663 45.6804893 15.0921616 45.8640558 14.9488156 46.0558112 14.8246738 46.2666738 14.7149352 46.4707124 14.6195998 46.6959056 14.5441545 46.9135923 14.4831125 47.138103 14.4412746"></polygon>
                                    <polygon id="Fill-90" fill="#FEFEFE" points="48.7191635 13.17544 48.7191635 13.1816128 48.8754339 13.1891573 49.0180562 13.2303093 49.1545369 13.2913514 49.2705455 13.3722836 49.366082 13.4689907 49.447288 13.5855879 49.5018803 13.7090439 49.5298588 13.8523899 49.6117472 13.8523899 49.5837687 13.6953265 49.5298588 13.544436 49.4336399 13.4141214 49.3244554 13.3050687 49.1961635 13.2090474 49.0460348 13.1480053 48.889082 13.1054816 48.7191635 13.0855915 48.7191635 13.093136"></polygon>
                                    <polygon id="Fill-94" fill="#FEFEFE" points="46.2848213 11.8184537 46.2583724 11.8534329 45.7968391 13.5036269 45.8755245 13.5173443 46.3377191 11.8678361 46.3112702 11.9014435 46.2848213 11.8184537 46.2643234 11.8259982 46.2583724 11.8534329"></polygon>
                                    <polygon id="Fill-98" fill="#FEFEFE" points="51.6680335 13.825161 51.6680335 13.825161 51.7021536 13.5446417 51.7021536 13.2846984 51.653703 13.0453311 51.579321 12.8189953 51.4708189 12.6070626 51.3343382 12.4143342 51.1705614 12.2435536 51.0006429 12.0933489 50.8027459 11.9630343 50.5980249 11.8395784 50.3803382 11.7435571 50.1694755 11.6626249 49.9449648 11.6002111 49.7334197 11.5528863 49.5218747 11.5179071 49.3314841 11.5035039 49.3314841 11.5864938 49.5218747 11.6002111 49.7204541 11.6351903 49.9313167 11.682515 50.1428618 11.7435571 50.3530421 11.8258611 50.5577631 11.9232541 50.7618017 12.0316209 50.9460506 12.1612496 51.1159691 12.3121402 51.2660979 12.4692035 51.4025785 12.6475288 51.4974326 12.8457441 51.572497 13.0583626 51.6209476 13.2846984 51.6209476 13.5446417 51.5861451 13.8114437"></polygon>
                                    <polygon id="Fill-100" fill="#FEFEFE" points="50.9529429 17.4400188 50.9529429 17.4400188 51.6681017 13.8248181 51.5862133 13.8117866 50.8710545 17.4263015"></polygon>
                                    <polygon id="Fill-102" fill="#F9B030" points="49.263585 15.6463415 49.2492545 15.6051895 49.2219584 15.5715821 49.1748725 15.5503202 49.1066322 15.5304301 49.0322502 15.5228856 48.9435378 15.5167128 48.8404948 15.5167128 48.7381343 15.5228856 48.6303146 15.5372888 48.5204476 15.5503202 48.4126279 15.5640376 48.309585 15.5777549 48.2072245 15.5997026 48.118512 15.6127341 48.030482 15.6326242 47.962924 15.6463415 47.9151558 15.653886 47.8605635 15.6737762 47.7923232 15.695038 47.7172588 15.7211009 47.6285464 15.7622529 47.5473403 15.8034049 47.4518039 15.8521014 47.362409 15.9145152 47.274379 15.9748714 47.1863489 16.0503167 47.1112845 16.1264479 47.0355378 16.2149246 46.9748039 16.31026 46.9270356 16.4131399 46.8860914 16.5228785 46.8656193 16.6387899 46.8594777 16.8726703 46.892233 17.0571683 46.9468253 17.1943415 47.0293961 17.2965356 47.1317567 17.3651222 47.2470828 17.4062742 47.362409 17.4268502 47.4791 17.4323371 47.6831386 17.4268502 47.8735292 17.4062742 48.0509541 17.3719809 48.2072245 17.3225985 48.3580356 17.2691009 48.4863275 17.2066871 48.6098425 17.1394722 48.719027 17.0571683 48.8138811 16.9810371 48.8950871 16.8918745 48.9708339 16.8102564 49.0322502 16.7210938 49.0793361 16.6387899 49.1134562 16.5571718 49.1414348 16.4748679 49.1612245 16.4001085 49.189203 16.2073801 49.2219584 16.0091647 49.2492545 15.8171222"></polygon>
                                    <polygon id="Fill-104" fill="#FEFEFE" points="63.2955056 18.0147061 63.3098361 17.8576427 63.3644283 17.6731447 63.4592824 17.5092227 63.5746086 17.3651908 63.7179133 17.2492794 63.8810077 17.1656037 64.0584326 17.1121062 64.2488232 17.0908443 64.4398961 17.1121062 64.617321 17.1656037 64.7804155 17.2492794 64.9237202 17.3651908 65.0390464 17.5092227 65.1352652 17.6731447 65.1891751 17.8576427 65.2028232 18.0147061 64.9987845 18.0147061 64.9912781 17.8912502 64.9510163 17.7410455 64.882776 17.6045581 64.7940635 17.487275 64.6855614 17.3926254 64.5559047 17.3226671 64.405776 17.2753423 64.2488232 17.261625 64.0925528 17.2753423 63.942424 17.3226671 63.8134498 17.3926254 63.7049476 17.487275 63.6162352 17.6045581 63.5479948 17.7410455 63.5070506 17.8912502 63.4934026 18.0147061"></polygon>
                                    <polygon id="Fill-108" fill="#FEFEFE" points="63.2955056 18.0147061 63.2886815 18.0565439 63.3098361 18.2554451 63.3644283 18.4392572 63.4592824 18.6031793 63.5746086 18.7417242 63.7179133 18.8576356 63.8810077 18.9467982 64.0584326 19.0009817 64.2488232 19.0222435 64.4398961 19.0009817 64.617321 18.9467982 64.7804155 18.8576356 64.9237202 18.7417242 65.0390464 18.6031793 65.1352652 18.4392572 65.1891751 18.2554451 65.2103296 18.0565439 65.2028232 18.0147061 64.9987845 18.0147061 65.0056086 18.0565439 64.9912781 18.2211518 64.9510163 18.3720424 64.882776 18.5016711 64.7940635 18.6175825 64.6855614 18.7142896 64.5559047 18.7897349 64.405776 18.8370596 64.2488232 18.8514628 64.0925528 18.8370596 63.942424 18.7897349 63.8134498 18.7142896 63.7049476 18.6175825 63.6162352 18.5016711 63.5479948 18.3720424 63.5070506 18.2211518 63.4934026 18.0565439 63.4934026 18.0147061"></polygon>
                                    <polyline id="Stroke-112" stroke="#FEFEFE" stroke-width="0.03" points="63.2888863 18.056201 63.2888863 18.056201 63.3093584 17.8579856 63.3639506 17.6728018 63.4594871 17.5088798 63.5748133 17.3648479 63.7174356 17.2489365 63.8812124 17.1652608 64.0586373 17.1117632 64.2490279 17.0911872 64.4401009 17.1117632 64.6168433 17.1652608 64.7806202 17.2489365 64.9239249 17.3648479 65.0385687 17.5088798 65.13547 17.6728018 65.1893798 17.8579856 65.2098519 18.056201 65.1893798 18.2551022 65.13547 18.4396002 65.0385687 18.6035222 64.9239249 18.7413813 64.7806202 18.8572927 64.6168433 18.9471412 64.4401009 19.0013246 64.2490279 19.0219006 64.0586373 19.0013246 63.8812124 18.9471412 63.7174356 18.8572927 63.5748133 18.7413813 63.4594871 18.6035222 63.3639506 18.4396002 63.3093584 18.2551022 63.2888863 18.056201"></polyline>
                                    <polyline id="Stroke-114" stroke="#FEFEFE" stroke-width="0.03" points="64.0789047 18.4326729 63.9083039 18.4326729 63.9083039 17.6048324 64.2829433 17.6048324 64.3648318 17.6110052 64.4398961 17.6247226 64.4944884 17.6459844 64.5429391 17.6734191 64.5763768 17.714571 64.603673 17.755723 64.617321 17.8030478 64.6234627 17.8503725 64.617321 17.9121005 64.603673 17.960797 64.5832009 18.0012631 64.5559047 18.0362423 64.5217845 18.0636769 64.4808403 18.0767084 64.4337545 18.0911116 64.3853039 18.0911116 64.5907073 18.4326729 64.4535442 18.4326729 64.2495056 18.0911116 64.0789047 18.0911116 64.0789047 18.4326729"></polyline>
                                    <polyline id="Stroke-118" stroke="#FEFEFE" stroke-width="0.03" points="64.2491644 18.8512571 64.2491644 18.8512571 64.4054348 18.8368539 64.5555635 18.7895291 64.6852202 18.7140838 64.7944047 18.6173767 64.8824348 18.5014653 64.9506751 18.3725225 64.9916193 18.220946 65.0052674 18.0563381 64.9916193 17.8917303 64.9506751 17.7408397 64.8824348 17.6050382 64.7944047 17.4877551 64.6852202 17.3924197 64.5555635 17.3224613 64.4054348 17.2751366 64.2491644 17.2621051 64.092894 17.2751366 63.9427652 17.3224613 63.8131086 17.3924197 63.7046064 17.4877551 63.615894 17.6050382 63.5476536 17.7408397 63.5067094 17.8917303 63.4937438 18.0563381 63.5067094 18.220946 63.5476536 18.3725225 63.615894 18.5014653 63.7046064 18.6173767 63.8131086 18.7140838 63.9427652 18.7895291 64.092894 18.8368539 64.2491644 18.8512571"></polyline>
                                    <polygon id="Fill-120" fill="#FEFEFE" points="51.4234601 18.9530396 53.3430609 18.9530396 54.031606 15.0573196 54.0589021 14.9071149 54.0998464 14.7562244 54.1407906 14.6046479 54.1953828 14.4544432 54.2629408 14.3049244 54.3455116 14.1608925 54.4335416 14.0230334 54.5427262 13.8934047 54.6655588 13.7768074 54.8013571 13.6670689 54.9583099 13.5648748 55.1350524 13.481885 55.3329494 13.4139842 55.5506361 13.3591149 55.7887948 13.3186488 56.0549322 13.3056174 56.1504687 13.3056174 56.2050609 13.3056174 56.2248506 13.3056174 56.5312498 11.5449988 56.3408592 11.5587162 56.1572927 11.579978 55.9873742 11.6135855 55.822915 11.662282 55.6734687 11.7157795 55.5308464 11.785052 55.3943657 11.8604973 55.2640266 11.9428012 55.1418764 12.0381366 55.0265502 12.1341579 54.9173657 12.2438965 54.8081811 12.3536351 54.706503 12.4695465 54.6041425 12.5991752 54.501782 12.7226311 54.4062455 12.8598043 54.6109665 11.6204441 52.6968249 11.6204441"></polygon>
                                    <polyline id="Stroke-122" stroke="#FEFEFE" stroke-width="0.03" points="51.4234601 18.9530396 53.3430609 18.9530396 54.031606 15.0573196 54.0589021 14.9071149 54.0998464 14.7562244 54.1407906 14.6046479 54.1953828 14.4544432 54.2629408 14.3049244 54.3455116 14.1608925 54.4335416 14.0230334 54.5427262 13.8934047 54.6655588 13.7768074 54.8013571 13.6670689 54.9583099 13.5648748 55.1350524 13.481885 55.3329494 13.4139842 55.5506361 13.3591149 55.7887948 13.3186488 56.0549322 13.3056174 56.1504687 13.3056174 56.2050609 13.3056174 56.2248506 13.3056174 56.5312498 11.5449988 56.3408592 11.5587162 56.1572927 11.579978 55.9873742 11.6135855 55.822915 11.662282 55.6734687 11.7157795 55.5308464 11.785052 55.3943657 11.8604973 55.2640266 11.9428012 55.1418764 12.0381366 55.0265502 12.1341579 54.9173657 12.2438965 54.8081811 12.3536351 54.706503 12.4695465 54.6041425 12.5991752 54.501782 12.7226311 54.4062455 12.8598043 54.6109665 11.6204441 52.6968249 11.6204441 51.4234601 18.9530396"></polyline>
                                    <polygon id="Fill-124" fill="#FEFEFE" points="33.3850807 18.9530396 35.3060464 18.9530396 35.3401665 18.9530396 35.993909 15.0573196 36.0218876 14.9071149 36.0553253 14.763083 36.0894455 14.619737 36.1372137 14.4825638 36.191806 14.3453905 36.2593639 14.2157618 36.3419348 14.0923059 36.4374712 13.9757086 36.5459734 13.8728287 36.668806 13.7713205 36.8182524 13.6883307 36.9820292 13.6135713 37.1724197 13.5518433 37.3832824 13.496974 37.615982 13.4619949 37.8814369 13.4421047 37.9012266 13.4421047 37.9292052 13.4489634 37.9626429 13.4558221 37.9967631 13.4558221 38.0315657 13.4619949 38.0588618 13.4688535 38.0786515 13.4763981 38.0861579 13.4763981 38.0922996 13.4489634 38.1134541 13.3659736 38.1400678 13.2438894 38.174188 13.0929988 38.2212738 12.9146736 38.2690421 12.7226311 38.3304584 12.5319603 38.3918747 12.3392319 38.446467 12.2096032 38.5147073 12.0792886 38.5822652 11.948974 38.6505056 11.8330626 38.7119219 11.7301827 38.7596901 11.6485646 38.7938103 11.5998681 38.806776 11.579978 38.8013167 11.579978 38.7733382 11.5724335 38.739218 11.5655748 38.6914498 11.5587162 38.6443639 11.5587162 38.5897717 11.5525434 38.5420034 11.5449988 38.4935528 11.5449988 38.2833725 11.5587162 38.0922996 11.579978 37.9155571 11.6135855 37.7510979 11.6554233 37.5948275 11.7096067 37.4522052 11.7781934 37.3225485 11.8474658 37.1997159 11.9283981 37.0843897 12.0182465 36.9752052 12.1211265 36.8728446 12.2233205 36.7711665 12.3392319 36.668806 12.4558292 36.5732695 12.5854579 36.470909 12.7226311 36.3692309 12.8598043 36.6142137 11.6204441 34.6591279 11.6204441"></polygon>
                                    <polyline id="Stroke-126" stroke="#FEFEFE" stroke-width="0.03" points="33.3850807 18.9530396 35.3060464 18.9530396 35.3401665 18.9530396 35.993909 15.0573196 36.0218876 14.9071149 36.0553253 14.763083 36.0894455 14.619737 36.1372137 14.4825638 36.191806 14.3453905 36.2593639 14.2157618 36.3419348 14.0923059 36.4374712 13.9757086 36.5459734 13.8728287 36.668806 13.7713205 36.8182524 13.6883307 36.9820292 13.6135713 37.1724197 13.5518433 37.3832824 13.496974 37.615982 13.4619949 37.8814369 13.4421047 37.9012266 13.4421047 37.9292052 13.4489634 37.9626429 13.4558221 37.9967631 13.4558221 38.0315657 13.4619949 38.0588618 13.4688535 38.0786515 13.4763981 38.0861579 13.4763981 38.0922996 13.4489634 38.1134541 13.3659736 38.1400678 13.2438894 38.174188 13.0929988 38.2212738 12.9146736 38.2690421 12.7226311 38.3304584 12.5319603 38.3918747 12.3392319 38.446467 12.2096032 38.5147073 12.0792886 38.5822652 11.948974 38.6505056 11.8330626 38.7119219 11.7301827 38.7596901 11.6485646 38.7938103 11.5998681 38.806776 11.579978 38.8013167 11.579978 38.7733382 11.5724335 38.739218 11.5655748 38.6914498 11.5587162 38.6443639 11.5587162 38.5897717 11.5525434 38.5420034 11.5449988 38.4935528 11.5449988 38.2833725 11.5587162 38.0922996 11.579978 37.9155571 11.6135855 37.7510979 11.6554233 37.5948275 11.7096067 37.4522052 11.7781934 37.3225485 11.8474658 37.1997159 11.9283981 37.0843897 12.0182465 36.9752052 12.1211265 36.8728446 12.2233205 36.7711665 12.3392319 36.668806 12.4558292 36.5732695 12.5854579 36.470909 12.7226311 36.3692309 12.8598043 36.6142137 11.6204441 34.6591279 11.6204441 33.3850807 18.9530396"></polyline>
                                    <polygon id="Fill-128" fill="#F9B030" points="63.3094948 26.1553205 63.3094948 26.1278859 63.3640871 25.9495607 63.4589412 25.7924973 63.5749498 25.6553241 63.7175721 25.5462713 63.8813489 25.4639674 64.0587738 25.4166426 64.2491644 25.3960666 64.4402373 25.4166426 64.6169798 25.4639674 64.7800742 25.5462713 64.923379 25.6553241 65.0387052 25.7924973 65.134924 25.9495607 65.1888339 26.1278859 65.1888339 26.1553205 64.9916193 26.1553205 64.9506751 26.0119745 64.8824348 25.8823458 64.7944047 25.7650626 64.6852202 25.6697272 64.5555635 25.594282 64.4054348 25.5462713 64.2491644 25.5318681 64.0922116 25.5462713 63.9427652 25.594282 63.8131086 25.6697272 63.7046064 25.7650626 63.615894 25.8823458 63.5476536 26.0119745 63.5067094 26.1553205"></polygon>
                                    <polygon id="Fill-138" fill="#F9B030" points="63.2888863 26.3060053 63.2888863 26.3258954 63.3093584 26.5254825 63.3639506 26.7092946 63.4594871 26.8739025 63.5748133 27.0172486 63.7174356 27.1345317 63.8812124 27.2168356 64.0586373 27.2710191 64.2490279 27.2922809 64.4401009 27.2710191 64.6168433 27.2168356 64.7806202 27.1345317 64.9239249 27.0172486 65.0385687 26.8739025 65.13547 26.7092946 65.1893798 26.5254825 65.2098519 26.3258954 65.2098519 26.3060053 65.0058133 26.3060053 65.0058133 26.3258954 64.9914828 26.4911892 64.951221 26.6413939 64.8822983 26.7717085 64.7942682 26.8883057 64.6850837 26.9836411 64.555427 27.0597723 64.4059807 27.107097 64.2490279 27.1215002 64.0927575 27.107097 63.9426288 27.0597723 63.8136545 26.9836411 63.70447 26.8883057 63.6157575 26.7717085 63.5475172 26.6413939 63.506573 26.4911892 63.4936073 26.3258954 63.4936073 26.3060053"></polygon>
                                </g>
                            </g>
                        </g>
                    </g>
                </g>
            </g>
        </g>
    </g>
</svg>