<svg width="207" height="166" viewBox="0 0 207 166" version="1.1" xmlns="http://www.w3.org/2000/svg" xmlns:xlink="http://www.w3.org/1999/xlink">
<title>Page 1</title>
<desc>Created using Figma</desc>
<g id="Canvas" transform="translate(3899 -3104)">
<g id="Page 1" opacity="0.5">
<g id="Fill 1">
<use xlink:href="#path0_fill" transform="translate(-3820.89 3104)" fill="#FFFFFF"/>
</g>
<g id="Group 5">
<g id="Fill 3">
<use xlink:href="#path1_fill" transform="translate(-3899 3149.72)" fill="#FFFFFF"/>
</g>
</g>
<g id="Fill 6">
<use xlink:href="#path2_fill" transform="translate(-3817.7 3163.98)" fill="#FFFFFF"/>
</g>
<g id="Fill 8">
<use xlink:href="#path3_fill" transform="translate(-3751.82 3164.55)" fill="#FFFFFF"/>
</g>
<g id="Fill 10">
<use xlink:href="#path4_fill" transform="translate(-3736.59 3166.31)" fill="#FFFFFF"/>
</g>
<g id="Fill 12">
<use xlink:href="#path5_fill" transform="translate(-3857.81 3193.39)" fill="#FFFFFF"/>
</g>
</g>
</g>
<defs>
<path id="path0_fill" fill-rule="evenodd" d="M 55.9122 63.1993C 54.8192 56.6474 60.2982 54.8247 62.4972 50.9572C 73.7692 31.1384 59.5092 7.27574 37.0372 6.79765C 17.6542 6.38629 3.7612 22.5557 7.6262 42.2131C 7.9772 44.001 13.4712 53.5229 8.5042 54.8925C 3.2442 56.3417 0.530197 43.5119 0.163197 39.5896C -1.8458 18.1104 15.0392 2.1034 31.7692 0.239851C 61.9922 -3.12769 83.5652 29.6533 67.7652 55.3297C 65.8252 58.4811 61.9752 65.9134 55.9122 63.1993Z"/>
<path id="path1_fill" fill-rule="evenodd" d="M 58.525 11.3565C 45.249 8.36941 24.26 8.45507 16.823 16.6035C 18.283 20.4262 20.756 22.7071 23.846 25.7848C 25.854 27.7838 31.32 30.8755 31.748 33.6554C 32.328 37.4223 27.805 42.6693 26.48 47.6465C 25.608 50.9244 26.266 53.5648 24.285 56.3905C 13.871 57.9742 7.13399 58.5598 7.16599 70.8189C 7.18399 78.1645 9.48499 89.4474 15.945 92.2423C 21.481 94.6367 27.377 92.7741 34.381 93.554C 39.826 99.7901 46.821 104.482 53.257 109.731C 52.152 117.52 50.011 124.278 48.428 131.592L 77.4 131.592C 80.315 128.228 80.352 121.998 83.546 118.913C 91.729 120.524 103.068 117.392 110.323 118.475C 112.305 122.476 109.221 127.075 108.567 131.155C 113.419 131.96 117.729 131.592 122.175 131.592C 126.367 131.592 132.313 132.867 136.222 131.592C 138.935 130.708 143.953 122.009 146.318 118.475C 155.422 104.879 164.766 88.6875 169.145 71.6924C 170.422 66.7362 169.081 58.3567 173.534 58.1395C 181.291 57.76 174.245 77.7512 173.095 81.3119C 165.812 103.874 152.752 122.165 139.734 138.587C 127.366 137.789 111.744 140.232 101.544 137.276C 99.554 134.004 102.616 129.707 102.86 125.909C 98.942 125.31 92.754 127.239 87.936 125.909C 85.255 129.214 85.015 134.95 82.229 138.151C 75.968 138.93 69.046 138.587 60.719 138.587C 55.476 138.587 42.92 140.192 40.966 136.838C 39.406 134.162 42.431 128.183 43.161 125.034C 44.248 120.343 44.491 116.829 45.795 113.228C 41.409 108.562 35.607 105.304 31.309 100.55C 23.939 99.8787 15.846 100.636 10.677 97.052C 1.68999 90.8199 -2.82101 69.9862 1.89799 59.4503C 4.41499 53.8327 12.015 51.7491 19.018 50.7062C 20.073 45.1992 21.595 40.1574 23.846 35.8406C 19.383 28.495 9.36099 24.2091 10.238 15.2917C 11.103 6.50287 31.674 2.61242 44.478 2.61242C 48.391 2.61242 54.095 4.13334 57.208 3.92417C 60.682 3.6911 74.437 -4.18442 74.767 3.04967C 75.04 9.05069 60.785 7.72997 58.525 11.3565Z"/>
<path id="path2_fill" fill-rule="evenodd" d="M 50.5327 14.1486C 46.1247 17.295 42.2227 12.3219 38.2407 10.6506C 31.4167 7.78601 21.8077 6.4862 11.0247 7.15353C 7.05969 7.39856 0.737687 9.31888 0.0516874 5.40452C -0.993312 -0.55566 14.0787 -0.1702 20.6827 0.157491C 33.2167 0.779007 52.3887 5.71827 50.5327 14.1486Z"/>
<path id="path3_fill" fill-rule="evenodd" d="M 19.7676 21.0104C 15.3526 23.355 12.0266 16.5881 8.79261 13.1408C 5.85761 10.0103 0.213613 6.86492 0.0136134 3.95953C -0.120387 2.00733 0.722613 0.290191 3.08661 0.0242539C 7.06361 -0.424951 11.0086 5.47348 14.0606 8.76831C 17.5586 12.5432 22.3136 16.3122 19.7676 21.0104Z"/>
<path id="path4_fill" fill-rule="evenodd" d="M 16.8321 10.0732C 16.2751 13.5244 19.5901 16.9796 22.9781 18.38C 24.9431 11.6598 17.9831 2.93667 16.8321 10.0732ZM 42.292 0.454501C 46.802 12.0332 42.94 23.5293 33.513 25.8132C 32.154 26.1419 29.991 25.5363 28.245 26.2494C 25.776 27.2584 24.023 30.3451 20.783 31.9337C 18.719 32.9457 1.83104 38.7435 0.151038 32.8082C -1.93596 25.4357 18.275 29.6558 19.466 24.5004C 8.10504 21.4875 6.45104 -2.32838 21.661 0.454501C 27.312 1.48837 29.838 10.832 30.001 19.2544C 37.413 18.858 37.81 9.82207 36.585 2.20351C 37.353 0.453505 39.957 -0.676978 42.292 0.454501Z"/>
<path id="path5_fill" fill-rule="evenodd" d="M 4.60799 0.476354C 16.491 -3.0396 15.528 14.077 6.36399 13.5929C 1.03299 13.3111 -3.93001 3.00226 4.60799 0.476354Z"/>
</defs>
</svg>
