<svg width="16" height="18" viewBox="0 0 16 18" version="1.1" xmlns="http://www.w3.org/2000/svg" xmlns:xlink="http://www.w3.org/1999/xlink">
<title>Union</title>
<desc>Created using Figma</desc>
<g id="Canvas" transform="translate(-2625 -2293)">
<g id="Union">
<use xlink:href="#path0_fill" transform="translate(2625 2293)" fill="#B2ABA8"/>
</g>
</g>
<defs>
<path id="path0_fill" fill-rule="evenodd" d="M 7.9941 10.4307C 7.9941 10.4307 7.9941 10.4307 7.9941 10.4307L 7.94737 10.4307C 7.93693 10.4307 7.92644 10.4306 7.916 10.4304C 7.21757 10.4159 6.60139 10.2538 6.07333 9.94779C 5.94296 9.87224 5.76869 9.92824 5.64712 10.0173C 5.64589 10.0182 5.64458 10.0191 5.64333 10.02L 5.62959 10.0295C 5.62865 10.0302 5.62796 10.0307 5.62702 10.0313C 5.44394 10.1583 4.05939 11.118 2.31271 11.628C 2.16428 11.6714 2.01278 11.7112 1.87808 11.7871C 1.17994 12.1806 1.08185 13.0594 1.05451 13.8821C 1.05333 13.9175 1.05291 13.9529 1.05083 13.9882C 1.05044 13.9945 1.05005 14.0008 1.04971 14.007C 1.04869 14.0259 1.04867 14.0415 1.04836 14.0604C 1.03565 14.8322 1.50891 15.5078 2.22049 15.8069C 3.41033 16.3068 5.40363 16.9217 8.00177 16.9217C 10.6829 16.9217 12.7093 16.2745 13.8812 15.769C 14.526 15.4909 14.9465 14.8798 14.9513 14.1775C 14.9514 14.1576 14.9515 14.138 14.9515 14.1189C 14.9515 14.0659 14.9473 14.0141 14.9471 13.9611C 14.947 13.9472 14.9468 13.9323 14.9464 13.9184C 14.9208 13.0865 14.8291 12.1897 14.1217 11.791C 13.987 11.7152 13.8356 11.6754 13.6873 11.6321C 11.8534 11.0967 10.4182 10.0689 10.3547 10.0226C 10.2288 9.9313 10.0481 9.87149 9.91345 9.94925C 9.38496 10.2543 8.76928 10.4159 8.07198 10.4304C 8.06168 10.4306 8.05133 10.4307 8.04103 10.4307L 8.01745 10.4307L 7.9941 10.4307ZM 10.9575 9.13602C 10.9263 9.11357 10.917 9.06921 10.9404 9.03871C 12.1863 7.41256 12.0783 4.88899 12.0343 4.30342C 12.0291 4.23415 12.0243 4.16564 12.0201 4.09631C 11.8959 2.03092 10.9334 1.0344 10.1365 0.565225C 9.53969 0.212599 8.84414 0.0205306 8.0682 0.000630486C 8.04997 0.000162937 8.03168 0 8.01344 0L 7.9981 0L 7.97475 0C 7.54207 0 6.69305 0.0721588 5.87906 0.549199C 5.07473 1.01826 4.09687 2.01445 3.97213 4.09418C 3.96789 4.16492 3.96301 4.2348 3.95773 4.30547C 3.91363 4.8957 3.80704 7.42163 5.0571 9.04564C 5.07787 9.07264 5.06998 9.11218 5.0423 9.13205C 5.0417 9.13248 5.04164 9.13253 5.04104 9.13297C 5.01149 9.15516 3.56404 10.1893 1.80844 10.648C 1.79276 10.652 1.78109 10.656 1.76941 10.66C 0.0846867 11.2554 0.0287603 13.1013 0.00537683 13.8954C 0.00533933 13.8966 0.00528663 13.8978 0.00521446 13.8991C 0.00506426 13.9018 0.00498931 13.9044 0.00498891 13.9071C 0.00498424 13.9376 0.00487167 13.9654 0.00215496 13.9928C 0.0014638 13.9998 0.000985884 14.0068 0.000985884 14.0138C 0.000985884 14.0148 0.000979791 14.0157 0.000962591 14.0167C -0.00269974 14.2283 -0.00625009 15.2952 0.199813 15.8313C 0.229824 15.9121 0.278896 15.9833 0.342983 16.0392C 0.380292 16.0718 0.421599 16.0972 0.463455 16.1236C 0.910086 16.406 3.63945 18 8.00577 18C 12.6919 18 15.4925 16.16 15.6092 16.0838C 15.699 16.0237 15.773 15.9355 15.8117 15.8313C 16.0032 15.3072 16.003 14.2642 15.9991 14.0308C 15.999 14.0227 15.9989 14.0153 15.9989 14.0073C 15.9989 13.9918 15.9979 13.9762 15.9969 13.9602C 15.9959 13.9432 15.9949 13.9257 15.9949 13.9071C 15.9949 13.9034 15.9948 13.8999 15.9947 13.8962C 15.971 13.0996 15.9135 11.2683 14.2492 10.6707C 14.2369 10.6663 14.2242 10.6621 14.2118 10.6583C 14.1982 10.6541 14.1845 10.6502 14.1708 10.6466C 12.4325 10.1853 10.9891 9.15963 10.9588 9.137C 10.9582 9.13653 10.9582 9.13648 10.9575 9.13602ZM 5.00915 4.27859C 5.00884 4.28097 5.00852 4.28319 5.00811 4.28555C 5.00632 4.29588 5.00584 4.3053 5.00485 4.31574C 4.98432 4.53249 4.78461 7.11783 5.97247 8.49046C 6.4555 9.05538 7.10775 9.33603 7.9553 9.3481C 7.96819 9.34828 7.9812 9.34833 7.9941 9.34833C 7.9941 9.34833 7.9941 9.34833 7.9941 9.34833C 8.007 9.34833 8.02 9.34828 8.0329 9.3481C 8.88434 9.33605 9.53237 9.0554 10.0197 8.49046C 11.192 7.13228 11.0104 4.61799 10.9845 4.32851C 10.9828 4.30953 10.9779 4.29254 10.9778 4.27348C 10.9778 4.27095 10.9778 4.26792 10.9777 4.26539C 10.8565 1.57709 9.10304 1.11909 8.04802 1.08717C 8.02734 1.08655 8.00711 1.08636 7.98642 1.08636C 7.98642 1.08636 7.98642 1.08636 7.98642 1.08636L 7.97074 1.08636C 7.97074 1.08636 7.97074 1.08636 7.97074 1.08636C 7.1223 1.08636 5.14302 1.39438 5.01078 4.26009C 5.0105 4.26605 5.00997 4.27224 5.00921 4.27817L 5.00915 4.27859Z"/>
</defs>
</svg>
