<svg width="49" height="48" viewBox="0 0 49 48" version="1.1" xmlns="http://www.w3.org/2000/svg" xmlns:xlink="http://www.w3.org/1999/xlink">
<title>Vector</title>
<desc>Created using Figma</desc>
<g id="Canvas" transform="translate(-2609 -1893)">
<g id="Vector">
<use xlink:href="#path0_fill" transform="translate(2609 1893)" fill="#22A84A"/>
</g>
</g>
<defs>
<path id="path0_fill" d="M 14.9069 14.3915L 36.8192 1.43915C 35.9231 0.931217 34.9456 0.42328 33.9681 0L 14.9069 11.1746L 6.43521 6.17989C 5.865 6.85714 5.29479 7.61905 4.72458 8.38095L 14.9069 14.3915ZM 41.3808 4.99471C 40.7292 4.31746 39.996 3.72487 39.2629 3.13228L 14.9069 17.5238L 3.25833 10.6667C 2.85104 11.4286 2.44375 12.2751 2.03646 13.1217L 14.8254 20.6561L 41.3808 4.99471ZM 14.9069 23.7884L 1.14042 15.6614C 0.896042 16.5926 0.651667 17.4392 0.48875 18.455L 14.9069 26.9206L 44.8835 9.31217C 44.3948 8.55026 43.8246 7.78836 43.2544 7.11111L 14.9069 23.7884ZM 48.875 23.0265C 48.875 36.8254 37.9596 48 24.4375 48C 10.9969 48 -1.21383e-09 36.8254 -1.21383e-09 23.0265C -1.21383e-09 22.4339 0 21.9259 0.0814583 21.3333L 14.8254 30.0529L 46.1054 11.5979C 47.8975 15.0688 48.875 18.963 48.875 23.0265Z"/>
</defs>
</svg>
