<svg width="161" height="47" viewBox="0 0 161 47" version="1.1" xmlns="http://www.w3.org/2000/svg" xmlns:xlink="http://www.w3.org/1999/xlink">
<title>&#208;&#155;&#208;&#190;&#208;&#179;&#208;&#190;&#209;&#130;&#208;&#184;&#208;&#191; &#208;&#188;&#208;&#190;&#208;&#177;. &#208;&#186;&#208;&#176;&#209;&#129;&#209;&#129;&#208;&#184;&#209;&#128;</title>
<desc>Created using Figma</desc>
<g id="Canvas" transform="translate(-2678 -1894)">
<g id="&#208;&#155;&#208;&#190;&#208;&#179;&#208;&#190;&#209;&#130;&#208;&#184;&#208;&#191; &#208;&#188;&#208;&#190;&#208;&#177;. &#208;&#186;&#208;&#176;&#209;&#129;&#209;&#129;&#208;&#184;&#209;&#128;">
<g id="Vector">
<use xlink:href="#path0_fill" transform="translate(2679.12 1894.92)" fill="#22A84A"/>
</g>
<g id="Vector">
<use xlink:href="#path1_fill" transform="translate(2720.95 1894.92)" fill="#22A84A"/>
</g>
<g id="Vector">
<use xlink:href="#path2_fill" transform="translate(2761.12 1900.13)" fill="#22A84A"/>
</g>
<g id="&#208;&#156;&#208;&#190;&#208;&#177; &#208;&#186;&#208;&#176;&#209;&#129;&#209;&#129;&#208;&#184;&#209;&#128;">
<g id="Group">
<g id="Vector">
<use xlink:href="#path3_fill" transform="translate(2678.96 1923.37)" fill="#787D80"/>
</g>
<g id="Vector">
<use xlink:href="#path4_fill" transform="translate(2695.14 1927.12)" fill="#787D80"/>
</g>
<g id="Vector">
<use xlink:href="#path5_fill" transform="translate(2705.27 1923.06)" fill="#787D80"/>
</g>
<g id="Vector">
<use xlink:href="#path6_fill" transform="translate(2715.95 1927.35)" fill="#787D80"/>
</g>
<g id="Vector">
<use xlink:href="#path7_fill" transform="translate(2725.09 1927.35)" fill="#787D80"/>
</g>
<g id="Vector">
<use xlink:href="#path8_fill" transform="translate(2737 1927.35)" fill="#787D80"/>
</g>
<g id="Vector">
<use xlink:href="#path9_fill" transform="translate(2746.72 1927.35)" fill="#787D80"/>
</g>
<g id="Vector">
<use xlink:href="#path10_fill" transform="translate(2757.21 1927.35)" fill="#787D80"/>
</g>
<g id="Vector">
<use xlink:href="#path11_fill" transform="translate(2770.83 1923.37)" fill="#787D80"/>
</g>
<g id="Vector">
<use xlink:href="#path12_fill" transform="translate(2785.37 1927.23)" fill="#787D80"/>
</g>
<g id="Vector">
<use xlink:href="#path13_fill" transform="translate(2794.29 1927.12)" fill="#787D80"/>
</g>
<g id="Vector">
<use xlink:href="#path14_fill" transform="translate(2803.81 1927.12)" fill="#787D80"/>
</g>
<g id="Vector">
<use xlink:href="#path15_fill" transform="translate(2812.31 1927.12)" fill="#787D80"/>
</g>
<g id="Vector">
<use xlink:href="#path16_fill" transform="translate(2820.63 1927.35)" fill="#787D80"/>
</g>
<g id="Vector">
<use xlink:href="#path17_fill" transform="translate(2830.79 1927.12)" fill="#787D80"/>
</g>
</g>
</g>
</g>
</g>
<defs>
<path id="path0_fill" d="M -1.25878e-06 9.90876C -1.25878e-06 4.6127 2.96984 1.19588 8.41456 1.19588C 10.8069 1.19588 12.2918 1.70841 13.2818 2.13551L 12.5393 4.10018C 11.2194 3.67307 10.312 3.33139 8.41456 3.33139C 5.11473 3.33139 2.55736 5.12522 2.55736 9.6525C 2.55736 14.2652 5.27972 16.2299 8.90953 16.2299C 10.4769 16.2299 11.6319 15.9736 12.7043 15.6319L 13.2818 17.5966C 12.0444 18.1091 10.7244 18.4508 8.49705 18.4508C 2.88735 18.5362 -1.25878e-06 15.1194 -1.25878e-06 9.90876ZM 24.2537 11.8734C 24.2537 9.82334 23.4288 8.20035 21.1189 8.20035C 19.634 8.20035 18.479 8.71287 17.3241 9.31081L 17.2416 10.763C 17.2416 14.6069 18.3965 16.4007 20.7064 16.4007C 23.4288 16.4007 24.2537 14.0944 24.2537 11.8734ZM 14.9317 11.0192C 14.9317 8.37119 15.4267 4.1856 16.9116 2.81887C 18.149 1.62299 21.6139 0.768783 25.5736 3.79342e-15L 25.9861 2.22093C 22.4388 2.81887 19.304 3.41681 18.5615 4.1856C 17.9015 4.86896 17.5716 6.40652 17.4066 7.51699C 18.479 6.91905 19.9639 6.3211 21.6964 6.3211C 24.7487 6.3211 26.6461 7.85867 26.6461 11.788C 26.6461 16.4007 24.0062 18.4508 20.5414 18.4508C 17.0766 18.4508 14.9317 16.2299 14.9317 11.0192ZM 36.958 10.5921C 36.958 8.28577 36.1331 6.83363 34.3182 6.83363C 32.6683 6.83363 31.4308 8.11493 31.2658 10.5921L 36.958 10.5921ZM 28.7085 11.9588C 28.7085 6.83363 31.2658 4.95438 34.4832 4.95438C 38.0305 4.95438 39.5154 7.26073 39.5154 11.4463L 39.5154 12.3005L 31.1833 12.3005C 31.1833 15.7173 33.0807 16.4007 35.3081 16.4007C 36.5456 16.4007 37.5355 16.2299 38.7729 15.8028L 39.1854 17.682C 38.0305 18.1091 36.5456 18.3654 34.8956 18.3654C 31.1009 18.5362 28.7085 16.9986 28.7085 11.9588Z"/>
<path id="path1_fill" d="M 8.74453 11.5317C 8.74453 9.2254 7.91958 7.08989 5.52721 7.08989C 4.20728 7.08989 3.21733 7.68783 2.55737 8.02951L 2.55737 16.2299C 2.88735 16.3153 3.87729 16.4861 4.70225 16.4861C 7.5896 16.4861 8.74453 14.436 8.74453 11.5317ZM 0.0824969 5.29606L 2.47487 5.29606L 2.47487 6.3211C 3.54731 5.55232 4.53726 4.95438 6.10467 4.95438C 9.07452 4.95438 11.1369 7.08989 11.1369 11.3609C 11.1369 16.657 8.08457 18.4508 4.61975 18.4508C 3.79479 18.4508 2.96984 18.3654 2.39237 18.2799L 2.39237 23.4052L 2.51757e-06 23.4052L 2.51757e-06 5.29606L 0.0824969 5.29606ZM 22.6038 11.8734C 22.6038 9.82334 21.7788 8.20035 19.469 8.20035C 17.984 8.20035 16.8291 8.71287 15.6742 9.31081L 15.5917 10.763C 15.5917 14.6069 16.7466 16.4007 19.0565 16.4007C 21.8613 16.4007 22.6038 14.0944 22.6038 11.8734ZM 13.2818 11.0192C 13.2818 8.37119 13.7768 4.1856 15.2617 2.81887C 16.4991 1.62299 19.9639 0.768783 23.9237 3.79342e-15L 24.3362 2.22093C 20.7889 2.81887 17.6541 3.41681 16.9116 4.1856C 16.2516 4.86896 15.9217 6.40652 15.7567 7.51699C 16.8291 6.91905 18.314 6.3211 20.0464 6.3211C 23.0988 6.3211 24.9962 7.85867 24.9962 11.788C 24.9962 16.4007 22.3563 18.4508 18.8915 18.4508C 15.4267 18.4508 13.2818 16.2299 13.2818 11.0192ZM 34.4007 15.2902L 34.4007 12.3005L 31.6783 12.3859C 29.9459 12.4714 28.956 13.1547 28.956 14.5215C 28.956 15.8028 29.8634 16.4007 31.1009 16.4007C 32.2558 16.4861 33.4932 15.8882 34.4007 15.2902ZM 26.5636 14.6923C 26.5636 11.4463 29.3685 10.763 31.5958 10.763L 34.4007 10.6775L 34.4007 9.31081C 34.4007 7.51699 33.4932 7.08989 31.6783 7.08989C 30.3584 7.08989 29.2034 7.34615 28.131 7.68783L 27.636 5.80858C 28.791 5.29606 30.2759 4.95438 32.0908 4.95438C 35.1431 4.95438 36.793 6.06484 36.793 8.71287L 36.793 15.3757C 36.793 16.1444 37.453 16.3153 38.113 16.4007L 37.948 18.2799L 37.453 18.3654C 36.1331 18.3654 34.8957 17.9383 34.6482 16.8278C 33.8232 17.4257 32.5858 18.4508 30.5234 18.4508C 28.131 18.4508 26.5636 17.0841 26.5636 14.6923Z"/>
<path id="path2_fill" d="M 0 0.0854202L 2.47487 0.0854202L 2.47487 5.55232L 8.41455 5.55232L 8.41455 0.0854202L 10.8894 0.0854202L 10.8894 12.9839L 8.41455 12.9839L 8.41455 7.51699L 2.47487 7.51699L 2.47487 12.9839L 0 12.9839L 0 0.0854202ZM 19.9639 10.763L 16.3341 6.32111L 21.3664 3.25853e-07L 24.0887 3.25853e-07L 18.8915 6.15026L 21.4489 8.96914C 22.6038 10.2504 23.5937 11.0192 24.5837 11.2755L 24.1712 13.1547C 23.0988 13.1547 21.6963 12.8985 19.9639 10.763ZM 13.8593 0.0854202L 16.3341 0.0854202L 16.3341 13.0693L 13.8593 13.0693L 13.8593 0.0854202Z"/>
<path id="path3_fill" d="M 5.96609 8.36202C 6.47543 9.89877 6.73086 10.713 6.9498 11.6996L 6.98629 11.6996C 7.24172 10.694 7.57013 9.63316 8.02625 8.32407L 10.8709 -3.47392e-06L 12.9311 -3.47392e-06L 13.9513 13.6521L 12.329 13.6521L 11.8364 5.59367C 11.7634 4.43794 11.6722 2.63557 11.6722 1.89565L 11.6357 1.89565C 11.508 2.48379 10.9242 4.41738 10.5775 5.38496L 7.67808 13.6521L 6.20024 13.6521L 3.3373 5.36598C 2.99065 4.36045 2.42506 2.63557 2.26085 1.89565L 2.22436 1.89565C 2.22436 2.63557 2.15138 4.51223 2.0784 5.66954L 1.56754 13.6521L 6.0319e-07 13.6521L 1.09317 -3.47392e-06L 3.1731 -3.47392e-06L 5.96609 8.36202Z"/>
<path id="path4_fill" d="M 4.17657 10.1264C 1.89596 10.1264 4.63993e-07 8.55175 4.63993e-07 5.10196C 4.63993e-07 1.61265 1.93244 -3.47392e-06 4.24803 -3.47392e-06C 6.52712 -3.47392e-06 8.4246 1.57471 8.4246 5.0245C 8.42612 8.51381 6.49216 10.1264 4.17657 10.1264ZM 4.21305 1.30909C 2.75498 1.30909 1.56907 2.3905 1.56907 5.08297C 1.56907 7.77545 2.75498 8.85689 4.21305 8.85689C 5.67113 8.85689 6.85706 7.77545 6.85706 5.08297C 6.85706 2.3905 5.67265 1.30909 4.21305 1.30909Z"/>
<path id="path5_fill" d="M 1.5493 5.87824C 2.40529 4.95018 3.49999 4.34308 4.75889 4.34308C 6.87378 4.34308 8.4246 6.08851 8.4246 9.1968C 8.4246 12.5723 6.58338 14.1834 4.33925 14.1834C 1.78648 14.1834 5.19672e-06 12.098 5.19672e-06 7.35649C 5.19672e-06 2.08536 2.22436 0.189733 5.16028 0.189733C 6.20024 0.189733 6.98325 0.170745 7.47587 -5.59688e-06L 7.47587 1.49723C 6.94676 1.64901 6.09077 1.68695 5.16028 1.68695C 3.1731 1.7075 1.84122 2.732 1.5493 5.87824ZM 1.56755 7.18733L 1.56755 7.35808C 1.56755 11.4166 2.68049 12.8948 4.3575 12.8948C 5.74411 12.8948 6.87378 11.8719 6.87378 9.3312C 6.87378 6.90433 5.85206 5.74702 4.33925 5.74702C 3.31754 5.74544 2.38857 6.29563 1.56755 7.18733Z"/>
<path id="path6_fill" d="M 7.73129 9.67111L 6.27321 9.67111L 6.27321 2.46481L 1.38662 9.67111L 9.27985e-08 9.67111L 9.27985e-08 -7.91283e-06L 1.45807 -7.91283e-06L 1.45807 7.20629L 6.34467 -7.91283e-06L 7.73129 -7.91283e-06L 7.73129 9.67111Z"/>
<path id="path7_fill" d="M 9.11791 -7.91283e-06L 9.11791 9.67111L 7.56708 9.67111L 7.56708 1.32807L 4.14008 1.32807C 3.99412 7.94622 3.30081 9.78495 0.602078 9.78495C 0.328404 9.78495 0.127716 9.76597 1.67037e-06 9.747L 1.67037e-06 8.45847C 0.127716 8.47744 0.291915 8.49641 0.474364 8.49641C 2.40681 8.49641 2.51629 6.12646 2.71698 0.0015843L 9.11791 0.0015843L 9.11791 -7.91283e-06Z"/>
<path id="path8_fill" d="M 2.78396e-07 9.67111L 2.78396e-07 -7.91283e-06L 1.56754 -7.91283e-06L 1.56754 3.67905L 4.01085 3.67905C 6.18047 3.67905 7.47586 4.66559 7.47586 6.67507C 7.47586 8.68454 6.14551 9.67111 3.92114 9.67111L 2.78396e-07 9.67111ZM 3.77518 8.47586C 5.21653 8.47586 5.90832 7.92567 5.90832 6.69405C 5.90832 5.46085 5.21501 4.91224 3.77518 4.91224L 1.56906 4.91224L 1.56906 8.47743L 3.77518 8.47743L 3.77518 8.47586Z"/>
<path id="path9_fill" d="M 6.12726 5.23317L 1.56755 5.23317L 1.56755 9.67111L -5.66071e-06 9.67111L -5.66071e-06 -7.91283e-06L 1.56755 -7.91283e-06L 1.56755 3.92567L 6.12726 3.92567L 6.12726 -7.91283e-06L 7.6948 -7.91283e-06L 7.6948 9.67111L 6.12726 9.67111L 6.12726 5.23317Z"/>
<path id="path10_fill" d="M -3.34075e-06 9.67111L -3.34075e-06 -7.91283e-06L 1.56755 -7.91283e-06L 1.56755 3.67905L 4.01084 3.67905C 6.18047 3.67905 7.47586 4.66559 7.47586 6.67507C 7.47586 8.68454 6.1455 9.67111 3.92114 9.67111L -3.34075e-06 9.67111ZM 3.77518 8.47586C 5.21653 8.47586 5.90832 7.92567 5.90832 6.69405C 5.90832 5.46085 5.21501 4.91224 3.77518 4.91224L 1.56907 4.91224L 1.56907 8.47743L 3.77518 8.47743L 3.77518 8.47586ZM 9.64701 -7.91283e-06L 11.1796 -7.91283e-06L 11.1796 9.67111L 9.64701 9.67111L 9.64701 -7.91283e-06Z"/>
<path id="path11_fill" d="M 7.72977 13.6537L 6.2717 13.6537L 6.2717 6.44741L 1.38509 13.6537L 1.11358e-06 13.6537L 1.11358e-06 3.98259L 1.45807 3.98259L 1.45807 11.1889L 6.34467 3.98259L 7.72977 3.98259L 7.72977 13.6537ZM 5.41418 -3.47392e-06L 6.59858 -3.47392e-06C 6.59858 1.66797 5.76084 2.73043 3.86337 2.73043C 1.96589 2.73043 1.12814 1.66797 1.12814 -3.47392e-06L 2.31254 -3.47392e-06C 2.31254 1.00553 2.73218 1.74545 3.86337 1.74545C 4.99455 1.74545 5.41418 1.00553 5.41418 -3.47392e-06Z"/>
<path id="path12_fill" d="M 6.10749 9.78494L 4.52171 6.97864C 3.88465 5.85927 3.44525 5.38654 2.15138 5.38654L 1.56755 5.38654L 1.56755 9.78494L -5.10392e-06 9.78494L -5.10392e-06 0.113826L 1.56755 0.113826L 1.56755 4.17231L 2.15138 4.17231C 3.04538 4.17231 3.30081 3.92568 3.60945 3.35652L 4.39399 1.87667C 5.06906 0.588141 5.56166 6.36886e-06 7.25692 6.36886e-06L 7.25692 1.3091C 6.34467 1.3091 6.10749 1.57312 5.79885 2.14228L 5.01432 3.62213C 4.76041 4.11541 4.48522 4.47588 3.97436 4.72252C 4.94134 5.02607 5.43243 5.61262 5.97978 6.56124L 7.80275 9.78494L 6.10749 9.78494Z"/>
<path id="path13_fill" d="M 0.930491 2.33359L 0.529103 1.04347C 1.53257 0.474298 2.80821 9.45679e-06 4.2678 9.45679e-06C 6.21849 9.45679e-06 7.40439 0.853742 7.40439 3.26164L 7.40439 7.69958C 7.40439 9.17941 7.49564 9.65215 7.58686 9.89879L 6.10902 9.89879C 6.0178 9.72804 5.92655 9.42447 5.89006 8.68456C 5.08729 9.57467 4.01237 10.1265 2.8082 10.1265C 1.18592 10.1265 7.42388e-07 9.12091 7.42388e-07 7.18732C 7.42388e-07 5.11934 1.35012 3.94465 4.35749 3.94465C 4.74064 3.94465 5.21501 3.96363 5.87183 4.05849L 5.87183 3.39444C 5.87183 1.89722 5.23325 1.34702 3.97435 1.34702C 2.8979 1.34702 1.9142 1.74545 0.930491 2.33359ZM 5.87183 7.50986L 5.87183 5.19681C 5.12378 5.08297 4.81361 5.06559 4.44872 5.06559C 2.29733 5.06559 1.53105 5.72804 1.53105 7.01816C 1.53105 8.23238 2.20611 8.83791 3.2263 8.83791C 4.22977 8.83791 5.16027 8.23081 5.87183 7.50986Z"/>
<path id="path14_fill" d="M 6.49064 2.19761C 5.76237 1.64742 5.12379 1.34387 4.32101 1.34387C 2.75347 1.34387 1.56754 2.52014 1.56754 5.07981C 1.56754 7.62051 2.73523 8.79681 4.35751 8.79681C 5.19677 8.79681 5.89008 8.49325 6.52714 7.981L 6.92851 9.23315C 6.21696 9.78335 5.26823 10.1249 4.15681 10.1249C 1.75 10.1249 -1.09502e-05 8.51222 -1.09502e-05 5.17626C -1.09502e-05 1.76284 1.82297 -5.21089e-06 4.33925 -5.21089e-06C 5.4157 -5.21089e-06 6.21696 0.322523 6.89202 0.834774L 6.49064 2.19761Z"/>
<path id="path15_fill" d="M 6.49064 2.19761C 5.76236 1.64742 5.12378 1.34387 4.32101 1.34387C 2.75346 1.34387 1.56753 2.52014 1.56753 5.07981C 1.56753 7.62051 2.73522 8.79681 4.3575 8.79681C 5.19677 8.79681 5.89008 8.49325 6.52713 7.981L 6.92851 9.23315C 6.21695 9.78335 5.26822 10.1249 4.1568 10.1249C 1.74999 10.1249 5.01112e-06 8.51222 5.01112e-06 5.17626C 5.01112e-06 1.76284 1.82298 -5.21089e-06 4.33926 -5.21089e-06C 5.41572 -5.21089e-06 6.21695 0.322523 6.89201 0.834774L 6.49064 2.19761Z"/>
<path id="path16_fill" d="M 7.72977 9.67111L 6.2717 9.67111L 6.2717 2.46481L 1.38509 9.67111L 5.19672e-06 9.67111L 5.19672e-06 -7.91283e-06L 1.45808 -7.91283e-06L 1.45808 7.20629L 6.34469 -7.91283e-06L 7.72977 -7.91283e-06L 7.72977 9.67111Z"/>
<path id="path17_fill" d="M 1.56753 0.227659L 1.56753 1.59366C 2.37031 0.607102 3.39051 -3.47392e-06 4.61292 -3.47392e-06C 6.69133 -3.47392e-06 8.20566 1.72648 8.20566 4.96915C 8.20566 8.36203 6.54689 10.1264 4.39399 10.1264C 3.28257 10.1264 2.37031 9.65213 1.56753 8.68454L 1.56753 13.8798L 3.15515e-06 13.8798L 3.15515e-06 0.227659L 1.56753 0.227659ZM 1.56753 2.8822L 1.56753 7.4134C 2.31557 8.30509 3.18983 8.77942 4.13856 8.77942C 5.63465 8.77942 6.63811 7.60314 6.63811 5.08141C 6.63811 2.59762 5.67113 1.42293 4.21306 1.42293C 3.22631 1.42293 2.35206 1.97153 1.56753 2.8822Z"/>
</defs>
</svg>
