<svg width="16" height="22" viewBox="0 0 16 22" version="1.1" xmlns="http://www.w3.org/2000/svg" xmlns:xlink="http://www.w3.org/1999/xlink">
<title>Union</title>
<desc>Created using Figma</desc>
<g id="Canvas" transform="translate(-2921 -2292)">
<g id="Union">
<use xlink:href="#path0_fill" transform="translate(2921 2292)" fill="#B2ABA8"/>
</g>
</g>
<defs>
<path id="path0_fill" fill-rule="evenodd" d="M 14.5297 9.58741L 14.8442 9.58741C 15.4819 9.58741 16 10.1205 16 10.7767L 16 18.4366C 16 20.4006 14.4456 22 12.5369 22L 3.46305 22C 1.5544 22 0 20.4006 0 18.4366L 0 10.7767C 0 10.1205 0.518148 9.58741 1.15584 9.58741L 1.46582 9.58741L 1.46582 6.94961C 1.45833 6.86434 1.46582 6.79394 1.46582 6.72121C 1.46582 3.01201 4.39746 0 7.9978 0C 11.6025 0 14.5297 3.01657 14.5297 6.72121L 14.5297 9.58741ZM 2.66667 6.48062L 2.66667 9.58741L 13.3341 9.58741L 13.3341 6.72121C 13.3341 3.69097 10.9383 1.23032 7.9978 1.23032C 5.13131 1.23032 2.78943 3.56593 2.66667 6.48062ZM 1.5 10.8177L 1.5 10.8295L 2.66667 10.8295L 2.66667 10.8177L 14.8043 10.8177L 14.8043 18.4366C 14.8043 19.7216 13.7902 20.7697 12.5369 20.7697L 3.46749 20.7697C 2.21867 20.7697 1.20011 19.7262 1.20011 18.4366L 1.20011 10.8177L 1.5 10.8177Z"/>
</defs>
</svg>
