<svg width="212" height="227" viewBox="0 0 212 227" version="1.1" xmlns="http://www.w3.org/2000/svg" xmlns:xlink="http://www.w3.org/1999/xlink">
<title>Hand3</title>
<desc>Created using Figma</desc>
<g id="Canvas" transform="translate(-3350 -2327)">
<g id="Hand3">
<g id="Group">
<g id="Group">
<g id="Group">
<g id="Group">
<g id="Group">
<g id="Vector">
<use xlink:href="#path0_fill" transform="matrix(0.94918 -0.314734 0.314734 0.94918 3372.9 2426.54)" fill="#ABAAA9" fill-opacity="0.8"/>
</g>
</g>
<g id="Group">
<g id="Vector">
<use xlink:href="#path1_fill" transform="matrix(0.94918 -0.314734 0.314734 0.94918 3441.99 2483.99)" fill="#ABAAA9" fill-opacity="0.8"/>
</g>
</g>
</g>
<g id="Group">
<g id="Group">
<g id="Vector">
<use xlink:href="#path2_fill" transform="matrix(0.94918 -0.314734 0.314734 0.94918 3347.21 2349.06)" fill="#ABAAA9" fill-opacity="0.8"/>
</g>
</g>
<g id="Group">
<g id="Vector">
<use xlink:href="#path3_fill" transform="matrix(0.94918 -0.314734 0.314734 0.94918 3378.31 2338.75)" fill="#ABAAA9" fill-opacity="0.8"/>
</g>
</g>
<g id="Group">
<g id="Vector">
<use xlink:href="#path4_fill" transform="matrix(0.94918 -0.314734 0.314734 0.94918 3438.53 2387.17)" fill="#ABAAA9" fill-opacity="0.8"/>
</g>
</g>
<g id="Group">
<g id="Vector">
<use xlink:href="#path5_fill" transform="matrix(0.94918 -0.314734 0.314734 0.94918 3445.24 2407.41)" fill="#ABAAA9" fill-opacity="0.8"/>
</g>
</g>
</g>
</g>
<g id="Group">
<g id="Vector">
<use xlink:href="#path6_fill" transform="matrix(0.94918 -0.314734 0.314734 0.94918 3357.01 2365.69)" fill="#ABAAA9" fill-opacity="0.8"/>
</g>
</g>
</g>
<g id="Group">
<g id="Vector">
<use xlink:href="#path7_fill" transform="matrix(0.94918 -0.314734 0.314734 0.94918 3425.07 2476.18)" fill="#ABAAA9" fill-opacity="0.8"/>
</g>
</g>
<g id="Group">
<g id="Vector">
<use xlink:href="#path8_fill" transform="matrix(0.94918 -0.314734 0.314734 0.94918 3376.37 2351.51)" fill="#ABAAA9" fill-opacity="0.8"/>
</g>
</g>
<g id="Group">
<g id="Vector">
<use xlink:href="#path9_fill" transform="matrix(0.94918 -0.314734 0.314734 0.94918 3383.8 2342.07)" fill="#ABAAA9" fill-opacity="0.8"/>
</g>
</g>
</g>
<g id="Group">
<g id="Vector">
<use xlink:href="#path10_fill" transform="matrix(0.94918 -0.314734 0.314734 0.94918 3333.01 2407.35)" fill="#ABAAA9" fill-opacity="0.8"/>
</g>
</g>
<g id="Group">
<g id="Vector">
<use xlink:href="#path11_fill" transform="matrix(0.94918 -0.314734 0.314734 0.94918 3356.69 2422.15)" fill="#ABAAA9" fill-opacity="0.8"/>
</g>
</g>
<g id="Group">
<g id="Vector">
<use xlink:href="#path12_fill" transform="matrix(0.94918 -0.314734 0.314734 0.94918 3431.47 2519.25)" fill="#ABAAA9" fill-opacity="0.8"/>
</g>
</g>
<g id="Group">
<g id="Vector">
<use xlink:href="#path13_fill" transform="matrix(0.94918 -0.314734 0.314734 0.94918 3446.94 2483.52)" fill="#ABAAA9" fill-opacity="0.8"/>
</g>
</g>
<g id="Group">
<g id="Vector">
<use xlink:href="#path14_fill" transform="matrix(0.94918 -0.314734 0.314734 0.94918 3420.06 2482.29)" fill="#ABAAA9" fill-opacity="0.8"/>
</g>
</g>
<g id="Group">
<g id="Vector">
<use xlink:href="#path15_fill" transform="matrix(0.94918 -0.314734 0.314734 0.94918 3497.09 2455.7)" fill="#ABAAA9" fill-opacity="0.8"/>
</g>
</g>
<g id="Group">
<g id="Vector">
<use xlink:href="#path16_fill" transform="matrix(0.94918 -0.314734 0.314734 0.94918 3430.26 2368.3)" fill="#ABAAA9" fill-opacity="0.8"/>
</g>
</g>
<g id="Group">
<g id="Vector">
<use xlink:href="#path17_fill" transform="matrix(0.94918 -0.314734 0.314734 0.94918 3437.6 2392.86)" fill="#ABAAA9" fill-opacity="0.8"/>
</g>
</g>
<g id="Group">
<g id="Vector">
<use xlink:href="#path18_fill" transform="matrix(0.94918 -0.314734 0.314734 0.94918 3440.75 2401.35)" fill="#ABAAA9" fill-opacity="0.8"/>
</g>
</g>
<g id="Group">
<g id="Vector">
<use xlink:href="#path19_fill" transform="matrix(0.94918 -0.314734 0.314734 0.94918 3371.14 2428.49)" fill="#ABAAA9" fill-opacity="0.8"/>
</g>
</g>
<g id="Group">
<g id="Vector">
<use xlink:href="#path20_fill" transform="matrix(0.94918 -0.314734 0.314734 0.94918 3353.38 2403.28)" fill="#ABAAA9" fill-opacity="0.8"/>
</g>
</g>
<g id="Group">
<g id="Vector">
<use xlink:href="#path21_fill" transform="matrix(0.94918 -0.314734 0.314734 0.94918 3368.33 2448.37)" fill="#ABAAA9" fill-opacity="0.8"/>
</g>
</g>
<g id="Group">
<g id="Vector">
<use xlink:href="#path22_fill" transform="matrix(0.94918 -0.314734 0.314734 0.94918 3421.78 2485.12)" fill="#ABAAA9" fill-opacity="0.8"/>
</g>
</g>
<g id="Group">
<g id="Vector">
<use xlink:href="#path23_fill" transform="matrix(0.94918 -0.314734 0.314734 0.94918 3413.23 2495.48)" fill="#ABAAA9" fill-opacity="0.8"/>
</g>
</g>
<g id="Group">
<g id="Vector">
<use xlink:href="#path24_fill" transform="matrix(0.94918 -0.314734 0.314734 0.94918 3419.32 2406.96)" fill="#ABAAA9" fill-opacity="0.8"/>
</g>
</g>
<g id="Group">
<g id="Vector">
<use xlink:href="#path25_fill" transform="matrix(0.94918 -0.314734 0.314734 0.94918 3442.44 2393.71)" fill="#ABAAA9" fill-opacity="0.8"/>
</g>
</g>
<g id="Group">
<g id="Vector">
<use xlink:href="#path26_fill" transform="matrix(0.94918 -0.314734 0.314734 0.94918 3451.22 2415.97)" fill="#ABAAA9" fill-opacity="0.8"/>
</g>
</g>
<g id="Group">
<g id="Group">
<g id="Vector">
<use xlink:href="#path27_fill" transform="matrix(0.94918 -0.314734 0.314734 0.94918 3414.3 2406.4)" fill="#ABAAA9" fill-opacity="0.8"/>
</g>
<g id="Vector">
<use xlink:href="#path27_fill" transform="matrix(0.94918 -0.314734 0.314734 0.94918 3414.3 2406.4)" fill="#ABAAA9" fill-opacity="0.8"/>
</g>
</g>
</g>
<g id="Group">
<g id="Group">
<g id="Vector">
<use xlink:href="#path28_fill" transform="matrix(0.94918 -0.314734 0.314734 0.94918 3465.27 2448.47)" fill="#ABAAA9" fill-opacity="0.8"/>
</g>
<g id="Vector">
<use xlink:href="#path28_fill" transform="matrix(0.94918 -0.314734 0.314734 0.94918 3465.27 2448.47)" fill="#ABAAA9" fill-opacity="0.8"/>
</g>
</g>
</g>
<g id="Group">
<g id="Group">
<g id="Vector">
<use xlink:href="#path29_fill" transform="matrix(0.94918 -0.314734 0.314734 0.94918 3446.57 2415.1)" fill="#ABAAA9" fill-opacity="0.8"/>
</g>
<g id="Vector">
<use xlink:href="#path29_fill" transform="matrix(0.94918 -0.314734 0.314734 0.94918 3446.57 2415.1)" fill="#ABAAA9" fill-opacity="0.8"/>
</g>
</g>
</g>
<g id="Group">
<g id="Vector">
<use xlink:href="#path30_fill" transform="matrix(0.94918 -0.314734 0.314734 0.94918 3452.05 2427.94)" fill="#ABAAA9" fill-opacity="0.8"/>
</g>
</g>
</g>
</g>
<defs>
<path id="path0_fill" d="M 9.62406 78.7613C 9.31499 78.7613 6.25483 78.6915 3.64778 76.126C 1.22763 73.7432 -2.22587e-06 70.058 -2.22587e-06 65.1721L -2.22587e-06 1.2413C -2.22587e-06 0.555691 0.555699 3.67268e-06 1.24131 3.67268e-06C 1.92692 3.67268e-06 2.48259 0.555691 2.48259 1.2413L 2.48259 65.1717C 2.48259 69.3674 3.46088 72.4577 5.38916 74.3563C 7.32746 76.2641 9.59444 76.2714 9.62635 76.2787L 27.4089 76.2782C 28.0945 76.2782 28.6502 76.8339 28.6502 77.5195C 28.6502 78.2051 28.0945 78.7608 27.4089 78.7608L 9.64549 78.7608C 9.6423 78.7608 9.63455 78.7613 9.62406 78.7613Z"/>
<path id="path1_fill" d="M 16.2623 2.4826L 1.24131 2.4826C 0.555704 2.4826 3.3388e-06 1.92691 3.3388e-06 1.2413C 3.3388e-06 0.555695 0.555704 -5.67596e-06 1.24131 -5.67596e-06L 16.2623 -5.67596e-06C 16.9479 -5.67596e-06 17.5036 0.555695 17.5036 1.2413C 17.5036 1.92691 16.9479 2.4826 16.2623 2.4826Z"/>
<path id="path2_fill" d="M 1.24131 52.828C 0.555699 52.828 -2.22587e-06 52.2723 -2.22587e-06 51.5867L -2.22587e-06 13.5896C -2.22587e-06 8.70369 1.22717 5.01808 3.64778 2.63577C 6.34691 -0.021427 9.54201 -0.00273606 9.66555 0.000454939L 43.1642 -6.6776e-07C 43.8498 -6.6776e-07 44.4055 0.55569 44.4055 1.2413C 44.4055 1.92691 43.8498 2.4826 43.1642 2.4826L 9.64641 2.4826C 9.64595 2.4826 9.64549 2.4826 9.64549 2.4826C 9.52605 2.4826 7.28733 2.50904 5.35313 4.44142C 3.44901 6.34372 2.48351 9.42121 2.48351 13.5891L 2.48351 51.5862C 2.4826 52.2723 1.92692 52.828 1.24131 52.828Z"/>
<path id="path3_fill" d="M 43.1638 46.7864C 42.4782 46.7864 41.9225 46.2307 41.9225 45.5451L 41.9225 13.5895C 41.9225 9.39378 40.9442 6.30352 39.0159 4.40487C 37.095 2.51398 34.8334 2.48252 34.7796 2.48252C 34.7792 2.48252 34.7792 2.48252 34.7788 2.48252L 1.24131 2.48298C 0.555699 2.48298 -2.22587e-06 1.92729 -2.22587e-06 1.24168C -2.22587e-06 0.556066 0.555699 0.000375923 1.24131 0.000375923L 34.7591 0.000375923C 34.8713 -0.00372679 38.0605 -0.0187677 40.7578 2.63615C 43.1779 5.01891 44.4055 8.70406 44.4055 13.5899L 44.4055 45.5456C 44.4051 46.2307 43.8494 46.7864 43.1638 46.7864Z"/>
<path id="path4_fill" d="M 1.2413 7.94468C 0.555694 7.94468 -7.12278e-06 7.38899 -7.12278e-06 6.70338L -7.12278e-06 1.2413C -7.12278e-06 0.555692 0.555694 -1.94763e-06 1.2413 -1.94763e-06C 1.92691 -1.94763e-06 2.48261 0.555692 2.48261 1.2413L 2.48261 6.70338C 2.48261 7.38899 1.92691 7.94468 1.2413 7.94468Z"/>
<path id="path5_fill" d="M 1.2413 14.4274C 0.555694 14.4274 -7.12278e-06 13.8717 -7.12278e-06 13.1861L -7.12278e-06 1.2413C -7.12278e-06 0.555691 0.555694 4.45173e-06 1.2413 4.45173e-06C 1.92691 4.45173e-06 2.48261 0.555691 2.48261 1.2413L 2.48261 13.1861C 2.48261 13.8717 1.92691 14.4274 1.2413 14.4274Z"/>
<path id="path6_fill" d="M 57.7025 122.651L 0.744862 122.651C 0.333678 122.651 3.11621e-06 122.318 3.11621e-06 121.906L 3.11621e-06 0.744874C 3.11621e-06 0.333235 0.333678 1.78069e-06 0.744862 1.78069e-06L 68.2775 1.78069e-06C 68.6886 1.78069e-06 69.0223 0.333235 69.0223 0.744874L 69.0223 92.7187C 69.0223 93.1303 68.6886 93.4636 68.2775 93.4636C 67.8663 93.4636 67.5326 93.1303 67.5326 92.7187L 67.5326 1.48974L 1.48975 1.48974L 1.48975 121.161L 57.7025 121.161C 58.1137 121.161 58.4473 121.495 58.4473 121.906C 58.4473 122.318 58.1137 122.651 57.7025 122.651Z"/>
<path id="path7_fill" d="M 7.20801 8.45525C 6.99467 8.45525 6.78317 8.36453 6.63593 8.18766C 6.37199 7.87175 6.41437 7.40222 6.73028 7.13873C 7.46011 6.5288 7.87905 5.6344 7.87905 4.68439C 7.87905 2.92296 6.44629 1.48975 4.6844 1.48975C 2.92251 1.48975 1.48976 2.92296 1.48976 4.68439C 1.48976 5.09603 1.15605 5.42927 0.744869 5.42927C 0.333686 5.42927 1.04616e-05 5.09603 1.04616e-05 4.68439C 1.04616e-05 2.10151 2.10106 1.44681e-06 4.6844 1.44681e-06C 7.26775 1.44681e-06 9.3688 2.10151 9.3688 4.68439C 9.3688 6.07704 8.75474 7.38854 7.68484 8.28202C 7.54581 8.39872 7.37622 8.45525 7.20801 8.45525Z"/>
<path id="path8_fill" d="M 21.5238 3.64185L 1.82024 3.64185C 0.816442 3.64185 9.12606e-06 2.82495 9.12606e-06 1.82115C 9.12606e-06 0.816898 0.816442 3.3388e-06 1.82024 3.3388e-06L 21.5238 3.3388e-06C 22.5276 3.3388e-06 23.344 0.816898 23.344 1.82115C 23.344 2.82541 22.5276 3.64185 21.5238 3.64185ZM 1.82024 0.99377C 1.36393 0.99377 0.992857 1.36529 0.992857 1.8216C 0.992857 2.27792 1.36393 2.64899 1.82024 2.64899L 21.5238 2.64899C 21.9801 2.64899 22.3512 2.27792 22.3512 1.8216C 22.3512 1.36529 21.9801 0.99377 21.5238 0.99377L 1.82024 0.99377Z"/>
<path id="path9_fill" d="M 1.65522 3.31044C 0.742592 3.31044 8.68088e-06 2.56785 8.68088e-06 1.65522C 8.68088e-06 0.742593 0.742592 -1.33552e-06 1.65522 -1.33552e-06C 2.56785 -1.33552e-06 3.31043 0.742593 3.31043 1.65522C 3.31043 2.56785 2.56785 3.31044 1.65522 3.31044ZM 1.65522 0.993313C 1.29008 0.993313 0.993302 1.29053 0.993302 1.65522C 0.993302 2.02036 1.29008 2.31758 1.65522 2.31758C 2.02036 2.31758 2.31714 2.02036 2.31714 1.65522C 2.31714 1.29053 2.02036 0.993313 1.65522 0.993313Z"/>
<path id="path10_fill" d="M 0.993635 180.15C 0.878303 180.15 0.761154 180.129 0.646733 180.087C 0.132526 179.895 -0.128683 179.324 0.0627771 178.809C 0.240106 178.333 17.6981 131.098 12.4101 112.679C 11.89 111.761 8.8011 105.862 6.71373 91.9238C 6.01353 87.248 5.09042 82.6466 4.19785 78.197C 2.19664 68.2187 0.615726 60.3369 2.61421 56.84C 5.10911 52.4738 9.44113 37.2997 9.7689 32.7375C 9.84274 31.7141 9.8122 30.6998 9.78303 29.7188C 9.6832 26.3723 9.57971 22.9128 13.8292 19.9393C 15.2191 18.9669 17.1392 16.0039 19.1723 12.8671C 22.9423 7.05036 27.2146 0.457748 31.8757 0.023316C 33.6166 -0.140793 35.2481 0.562139 36.7206 2.10795C 37.0989 2.50546 37.0834 3.13363 36.6859 3.51199C 36.2898 3.89036 35.6602 3.87531 35.2819 3.47781C 34.2352 2.37873 33.1804 1.89643 32.0594 2.00083C 28.357 2.34591 24.1881 8.77852 20.8389 13.947C 18.6043 17.3947 16.6742 20.3723 14.9675 21.5667C 11.5969 23.9253 11.6726 26.4558 11.7678 29.6595C 11.7988 30.6902 11.8303 31.756 11.7501 32.8802C 11.4022 37.7182 6.98724 53.1909 4.33825 57.8256C 2.70947 60.6765 4.37836 68.9973 6.14527 77.8068C 7.04239 82.2801 7.97054 86.9057 8.67758 91.6297C 10.8443 106.095 14.1469 111.717 14.1798 111.773C 14.2235 111.845 14.2586 111.925 14.2828 112.006C 19.8625 130.975 2.65935 177.531 1.92405 179.504C 1.77544 179.902 1.39616 180.15 0.993635 180.15Z"/>
<path id="path11_fill" d="M 1.81557 14.9173C 1.26444 14.9173 0.938502 14.895 0.915709 14.8931C 0.36868 14.8503 -0.0397748 14.3725 0.00307578 13.8255C 0.0459264 13.2794 0.52186 12.87 1.07071 12.9133C 1.69433 12.9598 15.954 13.8911 17.1866 0.898751C 17.2386 0.35309 17.7232 -0.0439542 18.2688 0.0039108C 18.815 0.0558786 19.2161 0.540455 19.1641 1.08657C 17.9379 14.0083 5.32522 14.9173 1.81557 14.9173Z"/>
<path id="path12_fill" d="M 0.994537 42.953C 0.946216 42.953 0.897436 42.9493 0.848659 42.942C 0.306189 42.8627 -0.0694439 42.3581 0.010787 41.8152C 0.565566 38.0388 5.60508 4.78767 11.5636 0.205845C 11.998 -0.128299 12.6212 -0.0471621 12.9562 0.387726C 13.2904 0.822614 13.2088 1.44622 12.7739 1.78037C 8.26821 5.24534 3.45114 32.063 1.97553 42.1042C 1.90351 42.5979 1.47911 42.953 0.994537 42.953Z"/>
<path id="path13_fill" d="M 0.992512 11.4212C 0.751819 11.4212 0.511127 11.3346 0.320578 11.1586C -0.0828556 10.7871 -0.109274 10.1589 0.262706 9.75547L 8.95271 0.320585C 9.32287 -0.0828488 9.95241 -0.109281 10.3558 0.262699C 10.7593 0.634223 10.7852 1.26239 10.4137 1.66628L 1.72371 11.1012C 1.52769 11.3136 1.26056 11.4212 0.992512 11.4212Z"/>
<path id="path14_fill" d="M 35.9681 81.6234C 35.7384 81.6234 35.5082 81.5441 35.3204 81.3822C 33.821 80.0899 20.6435 68.6264 19.6074 64.1358C 18.6255 59.8794 9.85294 37.5091 7.92421 33.3804L 7.73276 32.972C 6.48963 30.3157 6.0242 29.3219 5.52823 26.512C 5.42384 25.9212 4.86494 24.3786 4.21716 22.5921C 1.07129 13.9167 -1.74362 5.17969 1.3202 1.98276C 1.41228 1.88794 3.52564 -0.248208 7.41501 0.0239388C 12.6004 0.384522 18.2448 4.69739 24.1915 12.8431C 24.2316 12.8983 24.2667 12.958 24.295 13.0204C 24.4504 13.366 28.0822 21.4479 28.9725 26.0119C 31.2386 30.385 35.1261 36.6526 36.8215 37.1367C 37.3484 37.2871 37.6539 37.8369 37.5035 38.3643C 37.3526 38.8913 36.8032 39.1976 36.2758 39.0463C 33.1258 38.146 28.1141 28.6823 27.1413 26.7942C 27.0971 26.708 27.0657 26.6155 27.0479 26.5202C 26.2975 22.4676 22.9406 14.8594 22.5267 13.9303C 15.6382 4.52463 10.4715 2.25537 7.3471 2.01103C 4.37718 1.77899 2.81132 3.302 2.74567 3.36719C 0.289055 5.93094 4.20397 16.727 6.08483 21.9151C 6.82013 23.9423 7.35073 25.4065 7.48521 26.1669C 7.93514 28.7184 8.30577 29.5093 9.53248 32.1305L 9.72393 32.5403C 11.6723 36.7095 20.5442 59.357 21.5439 63.6899C 22.2185 66.6138 30.9281 74.9733 36.6177 79.8788C 37.0334 80.2371 37.0799 80.8639 36.7216 81.2792C 36.5243 81.5067 36.2471 81.6234 35.9681 81.6234Z"/>
<path id="path15_fill" d="M 40.3913 80.9596C 39.8502 80.9596 39.407 80.5247 39.3984 79.9813L 38.571 24.8631C 38.4179 10.6121 23.7999 10.448 23.1776 10.448C 22.7815 10.448 22.4232 10.2123 22.2659 9.84855C 19.4656 3.36488 13.4492 3.9575 13.1943 3.98622C 13.1036 3.9958 13.0079 3.99397 12.9181 3.97938L 0.830583 1.97316C 0.28948 1.88336 -0.0765976 1.37188 0.0136622 0.830779C 0.103466 0.290132 0.613573 -0.0759214 1.15559 0.0134267L 13.126 2.00005C 14.2223 1.9294 20.608 1.8332 23.8291 8.491C 26.9717 8.70662 40.4027 10.4717 40.5577 24.8371L 41.385 79.9513C 41.3932 80.4997 40.9552 80.951 40.4068 80.9592C 40.4013 80.9596 40.3963 80.9596 40.3913 80.9596Z"/>
<path id="path16_fill" d="M 10.6046 27.054C 10.0562 27.054 9.61131 26.6095 9.61131 26.0607L 9.61131 22.9157C 9.61131 22.6103 9.75217 22.3222 9.99241 22.1335C 13.4173 19.4535 13.9137 13.7885 13.9183 13.7316C 14.9631 3.42598 9.06884 2.17465 8.8172 2.12633C 8.77435 2.11767 5.14618 1.45348 3.33734 3.06722C 2.54871 3.77015 2.21777 4.82501 2.32535 6.29105C 2.33036 6.35988 2.32762 6.42962 2.31851 6.498C 1.93103 9.33891 1.45785 17.2909 3.88529 19.939C 4.44007 20.5439 5.09013 20.8051 5.92115 20.7654C 6.45588 20.7367 6.93454 21.1607 6.96189 21.7091C 6.98878 22.257 6.5662 22.7229 6.01826 22.7493C 4.58687 22.82 3.37792 22.3249 2.42062 21.2806C -0.984183 17.5649 0.134488 7.86877 0.337345 6.3307C 0.21016 4.28436 0.776349 2.68658 2.0213 1.57975C 4.56772 -0.683579 8.99683 0.138788 9.18464 0.174801C 9.248 0.185741 17.133 1.71378 15.8958 13.9125C 15.8762 14.1528 15.3538 20.0908 11.597 23.3825L 11.597 26.0611C 11.5979 26.6095 11.153 27.054 10.6046 27.054Z"/>
<path id="path17_fill" d="M 18.4766 25.7605C 18.1853 25.7605 17.8967 25.6329 17.7007 25.3876C 17.3579 24.9591 17.4272 24.3341 17.8557 23.9913C 20.5858 21.8073 23.0133 14.8683 19.5515 6.91035C 16.4785 -0.154986 7.88197 2.42927 7.51774 2.54232C 7.42201 2.57195 7.32081 2.58745 7.22098 2.58745C 5.53522 2.58745 4.24378 3.08616 3.3813 4.07035C 1.59297 6.11032 2.0347 9.6341 2.03972 9.6692C 2.11129 10.2121 1.72974 10.7117 1.18726 10.7847C 0.637044 10.8549 0.144719 10.4774 0.071326 9.93542C 0.0467096 9.75535 -0.50124 5.49719 1.8797 2.76979C 3.10778 1.36302 4.85327 0.634097 7.06828 0.602187C 10.7954 -0.516032 18.3813 -0.761284 21.3731 6.11761C 24.8818 14.184 22.9235 22.4811 19.0965 25.5426C 18.9137 25.6894 18.6945 25.7605 18.4766 25.7605Z"/>
<path id="path18_fill" d="M 9.15259 9.50599C 6.79991 9.50599 4.29678 9.08159 2.47791 7.46877C 0.814482 5.99361 -0.018825 3.72938 0.000320987 0.739861C 0.00305613 0.330045 0.335847 -3.3388e-06 0.745208 -3.3388e-06C 0.746575 -3.3388e-06 0.748848 -3.3388e-06 0.750216 -3.3388e-06C 1.1614 0.00273181 1.49326 0.338252 1.49007 0.749891C 1.47366 3.2913 2.1383 5.17718 3.46666 6.35511C 6.00488 8.60614 10.5457 8.02947 13.2594 7.68484L 13.4386 7.66206C 16.8908 7.22535 17.4761 6.16183 17.4816 6.15089C 17.4661 6.18052 17.4624 6.1983 17.4624 6.1983L 18.8706 6.68515C 18.7625 6.99787 18.0012 8.58654 13.6254 9.13995L 13.4472 9.16228C 12.2542 9.31362 10.7371 9.50599 9.15259 9.50599Z"/>
<path id="path19_fill" d="M 3.52156 26.9243C 3.12861 26.9243 2.80723 26.6207 2.77851 26.235C 2.67412 25.6875 1.29925 21.8556 0.0470129 18.4945C 0.0073533 18.3879 -0.00770447 18.2735 0.00369197 18.16C 0.0128091 18.0665 0.929547 8.73463 0.103077 0.822307C 0.0602263 0.413403 0.357453 0.0468903 0.766357 0.00449552C 1.18119 -0.0406344 1.54175 0.258872 1.58506 0.667776C 2.36412 8.13062 1.62474 16.8033 1.50212 18.1344C 4.26598 25.5553 4.26598 26.0244 4.26598 26.1794C 4.26643 26.591 3.93275 26.9243 3.52156 26.9243Z"/>
<path id="path20_fill" d="M 3.01183 11.3511C 1.56585 11.3511 0.149506 10.1202 0.084318 10.0633C -0.0187058 9.97254 -0.028712 9.81618 0.0620037 9.7127C 0.152719 9.61014 0.309965 9.60011 0.412077 9.69037C 0.428032 9.70404 2.00304 11.0675 3.34007 10.8264C 3.88208 10.7288 4.32426 10.37 4.6543 9.75875C 4.86901 9.36169 5.11836 8.9186 5.38458 8.44542C 6.85518 5.83199 9.07795 1.8829 8.1512 0.378112C 8.07963 0.261413 8.11562 0.108697 8.23277 0.0366711C 8.34765 -0.0344427 8.50174 0.000662475 8.57422 0.117818C 9.65415 1.87196 7.52666 5.65193 5.81765 8.68931C 5.5528 9.1593 5.30527 9.59965 5.09238 9.99488C 4.68667 10.7461 4.12641 11.1901 3.42713 11.3155C 3.289 11.3397 3.15042 11.3511 3.01183 11.3511Z"/>
<path id="path21_fill" d="M 0.248275 7.53055C 0.145251 7.53055 0.0495036 7.46673 0.0139467 7.36417C -0.0311832 7.2347 0.0367325 7.09292 0.166196 7.04825C 0.232295 7.02545 6.76202 4.70469 9.45933 0.122405C 9.52862 0.00342606 9.68087 -0.0348629 9.79939 0.0344275C 9.917 0.103718 9.95712 0.255972 9.88692 0.374039C 7.09616 5.11541 0.605191 7.4216 0.329853 7.51733C 0.302957 7.526 0.275171 7.53055 0.248275 7.53055Z"/>
<path id="path22_fill" d="M 3.2788 13.4284C 3.22318 13.4284 3.16711 13.4102 3.12107 13.3714C 3.01485 13.2843 2.9998 13.128 3.08687 13.0222C 5.16011 10.505 9.25919 9.17979 10.3163 8.87117C 10.0186 7.86145 9.77341 6.96022 9.5546 6.15837C 8.43046 2.03377 8.05162 0.643854 5.02655 0.504362C 1.42299 0.340709 0.521764 3.04122 0.485751 3.15655C 0.445636 3.28738 0.305702 3.36077 0.175326 3.3202C 0.0444953 3.27962 -0.0289082 3.14151 0.0107514 3.01067C 0.0203244 2.97876 1.03781 -0.18352 5.04981 0.00839654C 8.43592 0.164756 8.90408 1.88105 10.0337 6.02753C 10.2689 6.89047 10.5356 7.86874 10.8638 8.97146C 10.8829 9.03574 10.8748 9.10548 10.8419 9.16383C 10.8091 9.22218 10.7535 9.26504 10.6888 9.2819C 10.6391 9.29512 5.70897 10.6194 3.47025 13.3377C 3.42102 13.3974 3.34991 13.4284 3.2788 13.4284Z"/>
<path id="path23_fill" d="M 0.248583 4.13769C 0.202998 4.13769 0.156487 4.12493 0.115004 4.09895C -0.000328473 4.0251 -0.0349701 3.87192 0.0388789 3.75613C 0.0507311 3.73836 1.19129 1.9359 1.83588 0.16307C 1.88329 0.0345185 2.02506 -0.0311338 2.15406 0.014452C 2.28307 0.0614053 2.34962 0.203646 2.30267 0.332654C 1.63894 2.15791 0.506136 3.94714 0.457815 4.02281C 0.410406 4.09666 0.330638 4.13769 0.248583 4.13769Z"/>
<path id="path24_fill" d="M 2.01453 10.4691C 1.62751 10.4691 1.28743 10.3118 1.00343 10.0014C -0.0751285 8.82251 -0.136657 5.51254 0.138681 3.03632C 0.491059 -0.136908 4.71869 -0.00197997 4.7588 0.00166689C 4.89556 0.00713718 5.00223 0.122474 4.9963 0.259687C 4.99083 0.396444 4.86958 0.50266 4.7383 0.497646C 4.58513 0.493087 0.933711 0.378665 0.631933 3.09102C 0.347478 5.65157 0.464608 8.67801 1.36903 9.66631C 1.56322 9.87829 1.78386 9.9845 2.03504 9.97265C 2.77353 9.95624 4.26464 9.2916 5.84327 8.5873C 8.04552 7.60492 10.3225 6.58699 11.5283 6.85412C 11.6623 6.8833 11.7471 7.01595 11.7175 7.14997C 11.6883 7.28354 11.5579 7.36878 11.4216 7.33915C 10.3781 7.11168 8.07518 8.13554 6.04524 9.04087C 4.34945 9.79714 2.8843 10.4504 2.04553 10.4691C 2.0355 10.4691 2.02456 10.4691 2.01453 10.4691Z"/>
<path id="path25_fill" d="M 5.42755 8.608C 5.37421 8.608 5.32133 8.59067 5.27803 8.55785C 5.22195 8.515 5.18596 8.45118 5.18003 8.38052C 4.9088 5.21231 0.138239 1.22492 0.0899176 1.1848C 0.0142453 1.12189 -0.0172098 1.0207 0.00922994 0.926337C 0.0361255 0.831975 0.11591 0.761773 0.213008 0.747642L 5.39199 0.002769C 5.42663 -0.0027013 5.46219 2.98451e-05 5.49638 0.0100587C 10.2086 1.37034 10.2628 7.4018 10.2628 7.46243C 10.2628 7.58141 10.1789 7.68351 10.0622 7.7063L 5.4754 8.60298C 5.45945 8.60663 5.4435 8.608 5.42755 8.608ZM 0.822033 1.16201C 1.99176 2.20456 5.2165 5.29847 5.64182 8.06461L 9.75864 7.26003C 9.70348 6.23526 9.24218 1.64796 5.40932 0.502393L 0.822033 1.16201Z"/>
<path id="path26_fill" d="M 4.10265 8.6803C 4.06664 8.6803 4.03108 8.67256 3.99734 8.65706C 3.92395 8.62287 3.87244 8.55494 3.85831 8.47562C 3.43163 6.07325 0.125741 3.39737 0.0929196 3.37093C -0.0142069 3.28523 -0.0310665 3.12887 0.0546347 3.02175C 0.140336 2.91462 0.297614 2.8982 0.403372 2.98345C 0.539218 3.0924 3.60212 5.5709 4.27132 8.0494L 6.97227 6.49766C 7.06754 5.77649 7.38118 1.96461 3.63266 0.478971C 3.50502 0.428371 3.44303 0.283864 3.49363 0.15668C 3.54468 0.0290394 3.68875 -0.0325012 3.81593 0.0171872C 8.25644 1.77725 7.4532 6.64718 7.44454 6.69596C 7.43178 6.76844 7.38801 6.83134 7.32373 6.86827L 4.22666 8.64749C 4.18791 8.66937 4.1455 8.6803 4.10265 8.6803Z"/>
<path id="path27_fill" d="M 19.5349 124.02C 19.0444 124.02 18.6177 123.657 18.5521 123.157C 18.5042 122.793 17.3896 114.153 18.5521 105.352C 19.5887 97.5027 17.8879 80.7144 17.1448 74.9081C 16.6662 71.1678 13.8271 58.1521 8.50861 43.8396C 8.48354 43.7803 4.61742 34.4033 2.12524 24.5577C -1.32013 10.9476 -0.573433 2.90585 4.3439 0.653004C 4.76329 0.408208 6.59631 -0.510798 9.1286 0.382227C 13.5951 1.95676 17.5264 8.02514 20.8131 18.4201C 21.4217 20.0042 32.4102 48.6056 33.2343 51.4068L 33.3228 51.7095C 37.3585 65.5266 42.1942 72.1611 45.5397 75.2938C 45.94 75.6685 45.9605 76.2971 45.5858 76.6974C 45.2106 77.0981 44.5815 77.1177 44.1817 76.7439C 40.6548 73.4416 35.5774 66.5149 31.4164 52.2666L 31.3284 51.9675C 30.5215 49.2242 19.0635 19.4056 18.9478 19.1047C 18.9405 19.0856 18.9341 19.0665 18.9277 19.0473C 15.1044 6.94248 11.1672 3.2482 8.53735 2.28042C 6.63734 1.58068 5.39604 2.33557 5.34407 2.36794C 5.30486 2.39255 5.25198 2.42219 5.20913 2.44088C -2.8901 6.05446 6.17919 33.0257 10.3567 43.1134C 16.3375 59.2075 18.785 72.0859 19.1141 74.6556C 19.1415 74.8671 21.8037 95.8994 20.5205 105.611C 19.3927 114.155 20.5095 122.81 20.5205 122.896C 20.592 123.44 20.2096 123.939 19.6662 124.011C 19.622 124.017 19.5787 124.02 19.5349 124.02Z"/>
<path id="path28_fill" d="M 34.8758 26.6698C 34.3802 26.6703 33.9513 26.2992 33.8916 25.7951C 33.5848 23.2395 29.9151 20.0563 27.236 17.7323C 26.0257 16.6825 24.98 15.7753 24.3536 15.0364L 23.9602 14.57C 21.7717 11.9698 15.1116 4.05613 10.3624 2.27509C 5.8882 0.597537 1.88123 7.05202 1.84066 7.11766C 1.55438 7.58583 0.943065 7.73353 0.475811 7.4477C 0.00718891 7.16188 -0.140053 6.55058 0.14577 6.08241C 0.344068 5.7583 5.0663 -1.83174 11.0599 0.415186C 16.2968 2.37902 22.9687 10.3064 25.4801 13.2909L 25.8694 13.7522C 26.3963 14.3749 27.3888 15.2356 28.5375 16.2316C 31.6241 18.9093 35.4656 22.2412 35.8631 25.558C 35.9288 26.1028 35.5404 26.5969 34.9956 26.6626C 34.9551 26.6676 34.9154 26.6698 34.8758 26.6698Z"/>
<path id="path29_fill" d="M 7.26984 42.8103C 7.08932 42.8103 6.90655 42.761 6.74289 42.6575C 6.27838 42.3658 6.13841 41.7531 6.43016 41.2886C 6.49763 41.181 13.2571 30.4469 19.9564 22.1289C 26.1127 14.4846 18.2565 4.36231 18.1767 4.26065C 14.1392 -0.925184 6.60156 4.23603 6.28292 4.45849C 6.23688 4.4904 6.18672 4.51912 6.13612 4.54328C 3.94846 5.56987 2.61189 6.92559 2.1615 8.57306C 1.4294 11.2535 3.20587 13.8998 3.2241 13.9262C 3.28519 14.0201 4.36923 15.6475 6.84682 16.1161C 9.66538 16.6481 13.2553 15.4337 17.2194 12.6015C 17.6657 12.2828 18.2861 12.3859 18.6048 12.8321C 18.9239 13.2784 18.8204 13.8989 18.3746 14.2175C 13.8643 17.4395 9.83588 18.7305 6.41102 18.0545C 3.09648 17.4008 1.6236 15.1114 1.56297 15.0143C 1.48866 14.9068 -0.725427 11.605 0.246005 8.04929C 0.850473 5.8361 2.52165 4.06418 5.21531 2.7814C 8.47925 0.526269 15.6152 -2.26359 19.7394 3.03394C 19.8237 3.14061 28.6591 14.4896 21.5035 23.3739C 14.8767 31.6025 8.17929 42.2382 8.11228 42.3444C 7.9231 42.6452 7.59988 42.8103 7.26984 42.8103Z"/>
<path id="path30_fill" d="M 1.2413 13.4068C 0.555694 13.4068 -7.12278e-06 12.8511 -7.12278e-06 12.1655L -7.12278e-06 1.2413C -7.12278e-06 0.555691 0.555694 4.56303e-06 1.2413 4.56303e-06C 1.92691 4.56303e-06 2.48261 0.555691 2.48261 1.2413L 2.48261 12.1655C 2.48261 12.8511 1.92691 13.4068 1.2413 13.4068Z"/>
</defs>
</svg>
