<svg width="29" height="20" viewBox="0 0 29 20" version="1.1" xmlns="http://www.w3.org/2000/svg" xmlns:xlink="http://www.w3.org/1999/xlink">
<title>Fill 1</title>
<desc>Created using Figma</desc>
<g id="Canvas" transform="translate(4169 -3522)">
<g id="Fill 1">
<use xlink:href="#path0_fill" transform="translate(-4168.29 3522.61)" fill="#B7B7B7"/>
</g>
</g>
<defs>
<path id="path0_fill" fill-rule="evenodd" d="M 24.0844 10.5906C 24.1656 10.5184 24.1017 10.6165 24.164 10.4729L 24.3099 9.96471C 25.0943 9.94039 25.6359 9.88078 26.2697 9.6298L 27.576 8.74039C 27.144 8.73412 26.6891 8.8502 25.9859 8.74196L 24.5606 8.44471C 24.678 8.37098 24.8594 8.36784 25.0257 8.34353C 25.1968 8.31843 25.3442 8.2949 25.5129 8.25569C 25.8416 8.17961 26.0821 8.10588 26.358 7.97961L 27.4531 6.91373C 26.9532 7.1098 26.5007 7.19137 25.8267 7.19922C 25.4987 7.20235 24.3083 7.18353 24.1995 6.89255C 24.0678 6.54745 24.0694 6.22118 23.7966 5.57412C 23.6216 5.16157 23.4072 4.76784 23.166 4.41333C 22.6685 3.68314 22.0544 3.07529 21.3275 2.60941L 18.3262 1.77333C 18.5146 1.59373 19.2218 1.45176 19.4772 1.38431C 20.8151 1.02902 20.6992 0.542745 20.3759 0.452549C 19.9628 0.337255 18.953 0.715294 18.5028 0.852549L 19.3109 0C 18.4697 0.0784314 17.9202 0.495686 17.2903 0.881569L 17.552 0.241569C 16.759 0.506667 15.3281 2.38667 14.9315 3.13961L 13.2531 6.80392C 13.1096 6.74588 12.1163 5.73333 11.3571 5.28157C 10.6949 4.88784 9.81035 4.46745 9.04958 4.11686C 7.21822 3.27294 5.90954 2.76 4.03404 2.07765C 3.94101 3.71529 4.9982 4.61647 6.31634 5.49725L 4.70966 5.70667C 4.73725 6.40706 5.27965 7.1349 5.69275 7.48471C 6.44169 8.12157 6.83429 8.12392 7.52174 8.38274L 7.66365 8.4549C 6.55521 8.64627 6.88632 8.52392 5.92374 9.14431C 5.93556 9.58118 6.88948 10.5082 7.60925 10.6675L 9.2112 10.8737C 9.10004 10.9741 8.9266 11.0463 8.79573 11.1302C 8.63175 11.2337 8.56474 11.2957 8.44728 11.4369C 8.22653 11.7027 8.11143 12.0055 8.25649 12.3749L 10.1115 13.2165C 10.0122 13.4118 9.40671 13.8965 9.20331 14.0369C 8.0933 14.8008 6.84533 15.3388 5.25442 15.4086C 4.1247 15.458 3.03046 15.2439 2.16562 14.8996C 1.16914 14.5027 0.760767 14.171 0 13.5867C 0.223106 13.9694 0.728444 14.4965 1.03748 14.822C 3.94653 17.891 8.65225 19.5851 13.5716 18.7114C 16.5753 18.1773 18.5115 17.1459 20.2695 15.8675C 20.5596 15.6565 21.2502 15.04 21.4994 14.7851C 22.2633 14 22.9444 13.1592 23.4419 12.1882C 23.5909 11.8965 24.1065 10.8871 24.0844 10.5906Z"/>
</defs>
</svg>
