<?xml version="1.0" encoding="UTF-8" standalone="no"?>
<svg viewBox="0 0 71 23" version="1.1" xmlns="http://www.w3.org/2000/svg" xmlns:xlink="http://www.w3.org/1999/xlink">
    <!-- Generator: Sketch 46.2 (44496) - http://www.bohemiancoding.com/sketch -->
    <title>Group 25</title>
    <desc>Created with Sketch.</desc>
    <defs></defs>
    <g id="Mobile" stroke="none" stroke-width="1" fill="none" fill-rule="evenodd">
        <g id="page_main_320-copy" transform="translate(-150.000000, -5520.000000)">
            <g id="Group-21" transform="translate(0.000000, 4804.000000)">
                <g id="Group-14" transform="translate(62.000000, 637.000000)">
                    <g id="Page-1" transform="translate(0.000000, 69.212490)">
                        <g id="Group-25" transform="translate(88.000000, 10.000000)">
                            <polygon id="Fill-1" fill="#00599F" points="25.0453833 21.5585554 28.6225421 0.459939566 34.3451773 0.459939566 30.7646064 21.5585554"></polygon>
                            <path d="M51.5171773,0.978522995 C50.3837052,0.551914222 48.6067266,0.0930697386 46.3889155,0.0930697386 C40.735203,0.0930697386 36.7520142,2.9545035 36.717894,7.05529747 C36.6871858,10.0875119 39.5614691,11.778858 41.7321944,12.788453 C43.9595592,13.8227392 44.7074734,14.4818566 44.6972373,15.4057184 C44.6829069,16.8192886 42.918894,17.4660604 41.2743017,17.4660604 C38.9841558,17.4660604 37.7674305,17.1457609 35.8880914,16.3590724 L35.1510957,16.0223121 L34.3479069,20.7451867 C35.6847352,21.3350316 38.155718,21.8460019 40.7222373,21.8706931 C46.7362588,21.8706931 50.6409712,19.0421809 50.6853275,14.6636112 C50.7071644,12.2630795 49.1826751,10.4366178 45.8818897,8.93045565 C43.8824476,7.95446805 42.6568511,7.3042669 42.6698167,6.31524785 C42.6698167,5.43802499 43.7063876,4.5004459 45.9460356,4.5004459 C47.8178682,4.47095366 49.1731215,4.88110164 50.2287996,5.30839628 L50.7412845,5.55187878 L51.5171773,0.978522995" id="Fill-2" fill="#00599F"></path>
                            <path d="M59.1345738,14.0789788 C59.6074794,12.8643098 61.4138013,8.18121542 61.4138013,8.18121542 C61.3803635,8.23677058 61.8832948,6.95968773 62.1726339,6.16819814 L62.5595567,7.98711529 C62.5595567,7.98711529 63.6554966,13.0227449 63.8841017,14.0789788 L59.1345738,14.0789788 Z M66.1899429,0.479623926 L61.7686511,0.479623926 C60.3990674,0.479623926 59.373415,0.856164466 58.7722176,2.22995445 L50.2742476,21.5658942 L56.2828099,21.5658942 C56.2828099,21.5658942 57.2654708,18.9657755 57.4879343,18.3944489 C58.143724,18.3944489 63.981003,18.4047369 64.8162648,18.4047369 C64.9868657,19.1420431 65.5116339,21.5658942 65.5116339,21.5658942 L70.8207326,21.5658942 L66.1899429,0.479623926 L66.1899429,0.479623926 Z" id="Fill-4" fill="#00599F"></path>
                            <path d="M20.2455622,0.474891449 L14.6443948,14.8636783 L14.0472918,11.938459 C13.003897,8.5687984 9.75497425,4.91656092 6.12254077,3.08872751 L11.2446609,21.5405857 L17.2989442,21.5330412 L26.3073519,0.474891449 L20.2455622,0.474891449" id="Fill-6" fill="#00599F"></path>
                            <path d="M9.44673262,0.462134338 L0.220638197,0.462134338 L0.14762103,0.901088702 C7.32582275,2.6479899 12.0753506,6.86881046 14.0474966,11.9380475 L12.0412305,2.24401471 C11.6945695,0.907261498 10.6900717,0.508773239 9.44673262,0.462134338" id="Fill-8" fill="#F8A51C"></path>
                        </g>
                    </g>
                </g>
            </g>
        </g>
    </g>
</svg>