<svg width="18" height="21" viewBox="0 0 18 21" version="1.1" xmlns="http://www.w3.org/2000/svg" xmlns:xlink="http://www.w3.org/1999/xlink">
<title>Fill 5</title>
<desc>Created using Figma</desc>
<g id="Canvas" transform="translate(4109 -3522)">
<g id="Fill 5">
<use xlink:href="#path0_fill" transform="translate(-4108.36 3522.47)" fill="#B7B7B7"/>
</g>
</g>
<defs>
<path id="path0_fill" fill-rule="evenodd" d="M 5.62646 15.4306L 8.47165 15.4306C 9.43424 15.4306 10.1107 15.2479 10.5025 14.8769C 10.8974 14.5059 11.0945 14.0079 11.0945 13.3812C 11.0945 12.8001 10.9014 12.3334 10.5104 11.9804C 10.1193 11.6275 9.43897 11.4495 8.45983 11.4495L 5.62646 11.4495L 5.62646 15.4306ZM 5.62646 7.71061L 8.05146 7.71061C 8.92181 7.71061 9.52648 7.54591 9.87178 7.2212C 10.2116 6.89179 10.3795 6.42042 10.3795 5.80708C 10.3795 5.23532 10.2116 4.78748 9.87178 4.46669C 9.52648 4.1412 8.93363 3.9812 8.0893 3.9812L 5.62646 3.9812L 5.62646 7.71061ZM 0 0L 10.4426 0C 12.1825 0 13.5196 0.472157 14.4475 1.40941C 15.3809 2.34745 15.8476 3.5098 15.8476 4.89176C 15.8476 6.05412 15.5157 7.05176 14.8511 7.88471C 14.4065 8.43843 13.7585 8.87765 12.9047 9.19843C 14.1999 9.53647 15.1546 10.1216 15.7672 10.9459C 16.3774 11.7749 16.6833 12.8133 16.6833 14.0627C 16.6833 15.0831 16.4649 15.9984 16.0321 16.8125C 15.5953 17.6275 15.0025 18.2675 14.2464 18.7443C 13.7797 19.0369 13.0742 19.2518 12.1281 19.3843C 10.8707 19.5631 10.0398 19.6549 9.62824 19.6549L 0 19.6549L 0 0Z"/>
</defs>
</svg>
