<svg width="151" height="45" viewBox="0 0 151 45" xmlns="http://www.w3.org/2000/svg" xmlns:xlink="http://www.w3.org/1999/xlink"><title>Group 3</title><desc>Created using Figma</desc><use xlink:href="#a" transform="translate(.19)" fill="#4A3A4F"/><use xlink:href="#b" transform="translate(11.69 13.45)" fill="#FFF"/><use xlink:href="#c" transform="translate(23.49 6.47)" fill="#FFF"/><use xlink:href="#d" transform="translate(45.85 19.93)" fill="#FFF"/><use xlink:href="#e" transform="translate(58.98 23.11)" fill="#FFF"/><use xlink:href="#f" transform="translate(69.8 23.11)" fill="#FFF"/><use xlink:href="#g" transform="translate(83.94 19.81)" fill="#FFF"/><use xlink:href="#h" transform="translate(92.82 21.01)" fill="#FFF"/><use xlink:href="#i" transform="translate(99.85 23.14)" fill="#FFF"/><use xlink:href="#j" transform="translate(111.09 23.14)" fill="#FFF"/><use xlink:href="#k" transform="translate(117.67 23.13)" fill="#FFF"/><g transform="translate(47 6)" fill="#FFF"><use xlink:href="#l"/><use xlink:href="#m"/><use xlink:href="#n"/><use xlink:href="#o"/><use xlink:href="#p"/><use xlink:href="#q"/><use xlink:href="#r"/><use xlink:href="#s"/></g><defs><path id="a" d="M145.275 0H5.537C2.479 0 0 2.525 0 5.64v33.72C0 42.475 2.479 45 5.537 45h139.738c3.058 0 5.537-2.525 5.537-5.64V5.64c0-3.115-2.479-5.64-5.537-5.64z"/><path id="b" d="M22.398 2.86l-.868.997c-2.866 3.177-2.682 7.244.616 9.889 1.033.827 1.175 1.541.615 2.575-.56 1.034-1.175 2.156-1.846 3.17-2.128 3.184-3.968 3.567-6.631 2.232-1.477-.74-2.99-.464-4.51.113-2.78 1.071-3.93.752-5.752-1.667C.946 16.096-.696 11.533.282 6.382 1.223 1.37 5.37-.975 9.977.855c1.729.683 3.12.176 4.651-.344 3.187-1.14 5.752-.376 7.77 2.35z"/><path id="c" d="M5.41 0C5.644 3.603 3.448 6.267.156 6.473-.668 3.56 1.866.37 5.41 0z"/><path id="d" d="M10.15 13.786L8.822 9.97H3.66l-1.316 3.816H0L5.044 0h2.4l5.044 13.786H10.15zM8.207 8.027l-1.23-3.76c-.095-.25-.224-.645-.388-1.184A19.62 19.62 0 0 1 6.256 1.9c-.192.85-.437 1.687-.732 2.506L4.294 7.99l3.913.037z"/><path id="e" d="M5.143 10.798a3.519 3.519 0 0 1-1.676-.334 3.588 3.588 0 0 1-1.332-1.088h-.13c.087.877.13 1.41.13 1.598v4.261H0V.195h1.753c.05.195.148.658.302 1.391h.11A3.418 3.418 0 0 1 3.492.37a3.343 3.343 0 0 1 1.75-.363A3.494 3.494 0 0 1 6.9.341c.518.245.97.614 1.319 1.076a7.849 7.849 0 0 1 1.074 3.967 7.849 7.849 0 0 1-1.074 3.967 3.594 3.594 0 0 1-1.36 1.118 3.523 3.523 0 0 1-1.716.33zM4.62 1.831a2.214 2.214 0 0 0-1.035.156c-.328.133-.62.344-.854.615a4.03 4.03 0 0 0-.615 2.462v.326a4.95 4.95 0 0 0 .615 2.751c.227.296.522.529.86.678.337.148.706.209 1.072.175a1.93 1.93 0 0 0 .992-.232c.304-.166.56-.41.743-.708a4.936 4.936 0 0 0 .615-2.683 4.726 4.726 0 0 0-.615-2.644 2.023 2.023 0 0 0-.773-.687 1.98 1.98 0 0 0-1.005-.21z"/><path id="f" d="M5.174 10.798a3.519 3.519 0 0 1-1.676-.334 3.588 3.588 0 0 1-1.333-1.088h-.129c.086.877.13 1.41.13 1.598v4.261H0V.195h1.753c.05.195.148.658.302 1.391h.11A3.418 3.418 0 0 1 3.492.37a3.343 3.343 0 0 1 1.75-.363A3.494 3.494 0 0 1 6.9.341c.518.245.97.614 1.319 1.076a7.849 7.849 0 0 1 1.074 3.967 7.849 7.849 0 0 1-1.074 3.967 3.593 3.593 0 0 1-1.346 1.11 3.524 3.524 0 0 1-1.7.337zM4.65 1.831a2.214 2.214 0 0 0-1.035.156c-.328.133-.62.344-.854.615a4.075 4.075 0 0 0-.615 2.462v.326a4.95 4.95 0 0 0 .615 2.751c.226.296.522.529.86.678.337.148.706.209 1.072.175a1.93 1.93 0 0 0 .992-.232c.304-.166.56-.41.743-.708a4.936 4.936 0 0 0 .615-2.683 4.726 4.726 0 0 0-.615-2.644 2.023 2.023 0 0 0-.784-.693 1.98 1.98 0 0 0-1.019-.203h.025z"/><path id="g" d="M8.637 10.179a3.515 3.515 0 0 1-.31 1.6 3.45 3.45 0 0 1-.994 1.276 5.567 5.567 0 0 1-3.587 1.047A8.428 8.428 0 0 1 0 13.375v-2.124c.629.3 1.287.533 1.962.695a8.08 8.08 0 0 0 1.932.257 3.033 3.033 0 0 0 1.932-.508 1.65 1.65 0 0 0 .468-.607 1.68 1.68 0 0 0 .147-.759 1.75 1.75 0 0 0-.572-1.303 8.558 8.558 0 0 0-2.362-1.253A6.242 6.242 0 0 1 .904 6.037a3.724 3.724 0 0 1-.756-2.35 3.343 3.343 0 0 1 .282-1.5c.209-.47.523-.883.917-1.207A4.9 4.9 0 0 1 4.571.008a9.316 9.316 0 0 1 3.857.865l-.701 1.83a8.301 8.301 0 0 0-3.212-.77 2.428 2.428 0 0 0-1.624.476 1.55 1.55 0 0 0-.42.56 1.58 1.58 0 0 0-.133.693c-.01.32.067.636.221.915.187.294.437.54.732.72.59.348 1.208.645 1.846.89a9.784 9.784 0 0 1 2.178 1.178c.431.33.78.76 1.015 1.254.212.49.317 1.023.307 1.56z"/><path id="h" d="M4.995 11.11a5.188 5.188 0 0 0 1.587-.256v1.667c-.298.123-.61.212-.928.263a5.952 5.952 0 0 1-1.175.112c-2.051 0-3.076-1.102-3.076-3.308V3.986H0v-.978L1.495 2.2 2.233 0h1.335v2.312h2.91v1.674h-2.91V9.55a1.568 1.568 0 0 0 .394 1.178 1.428 1.428 0 0 0 1.033.383z"/><path id="i" d="M9.693 5.36a5.753 5.753 0 0 1-1.28 3.98 4.597 4.597 0 0 1-1.634 1.112 4.525 4.525 0 0 1-1.94.316 4.851 4.851 0 0 1-2.528-.658A4.314 4.314 0 0 1 .625 8.23 6.537 6.537 0 0 1 .01 5.373a5.709 5.709 0 0 1 1.273-3.948A4.602 4.602 0 0 1 2.925.317 4.531 4.531 0 0 1 4.87.01a4.411 4.411 0 0 1 1.91.33c.606.251 1.15.634 1.595 1.123A5.655 5.655 0 0 1 9.693 5.36zm-7.425 0c0 2.398.87 3.6 2.608 3.604 1.739.004 2.6-1.197 2.584-3.604 0-2.377-.868-3.563-2.602-3.56-.38-.032-.76.036-1.107.197a2.218 2.218 0 0 0-.868.725 4.72 4.72 0 0 0-.615 2.638z"/><path id="j" d="M5.18 0c.36-.006.722.026 1.076.095L6.047 2.15a4.025 4.025 0 0 0-.96-.112 2.741 2.741 0 0 0-1.145.203 2.784 2.784 0 0 0-.965.661 3.168 3.168 0 0 0-.805 2.25v5.433H0V.19h1.698l.289 1.83h.11c.317-.594.771-1.1 1.323-1.473A3.121 3.121 0 0 1 5.18.001z"/><path id="k" d="M5.074 10.778a4.876 4.876 0 0 1-2.006-.312 4.947 4.947 0 0 1-1.716-1.104A5.412 5.412 0 0 1 .3 7.549a5.482 5.482 0 0 1-.29-2.085 5.94 5.94 0 0 1 1.231-3.998C1.67.976 2.201.59 2.795.339A4.236 4.236 0 0 1 4.674.006 4.132 4.132 0 0 1 6.4.286c.55.216 1.05.548 1.466.973a4.83 4.83 0 0 1 1.169 3.44v1.197H2.269a3.44 3.44 0 0 0 .805 2.325 2.765 2.765 0 0 0 2.129.815 7.959 7.959 0 0 0 1.686-.176 8.984 8.984 0 0 0 1.673-.576v1.792c-.51.25-1.05.434-1.606.545a9.662 9.662 0 0 1-1.882.157zm-.4-9.08a2.136 2.136 0 0 0-.897.151 2.17 2.17 0 0 0-.758.513 3.204 3.204 0 0 0-.744 1.949h4.632a2.906 2.906 0 0 0-.615-1.95 2.072 2.072 0 0 0-.737-.513 2.04 2.04 0 0 0-.881-.15z"/><path id="l" d="M0 3.956C0 6.225 1.618 8 4.096 8c1.414 0 2.41-.57 3.088-1.227l-.6-.778A3.618 3.618 0 0 1 4.13 7.003c-1.855 0-2.975-1.414-2.975-3.058 0-1.633 1.097-2.959 2.953-2.959.826 0 1.72.34 2.308.844l.566-.81C6.21.306 5.09 0 4.06 0 1.687 0 0 1.71 0 3.956z"/><path id="m" d="M8.596 7.868h1.12v-3.54h1.188l2.127 3.54h1.278l-2.477-4.043v-.022l2.33-3.671H12.93l-2.025 3.254H9.716V.132h-1.12v7.736z"/><path id="n" d="M14.663 7.868h1.143l.803-2.224h3.01l.803 2.224h1.154L18.713.132h-1.188l-2.862 7.736zm2.24-3.123l.894-2.444c.136-.405.305-1.106.305-1.106h.023s.181.7.317 1.106l.882 2.444h-2.42z"/><path id="o" d="M24.242 4.899c.826 0 1.64-.318 2.048-.526h.022s-.022.208-.022.361v3.134h1.131V.132H26.29v3.254a3.61 3.61 0 0 1-1.81.526c-1.075 0-1.517-.526-1.517-1.501V.131h-1.13v2.51c0 1.425.757 2.258 2.409 2.258z"/><path id="p" d="M28.65 7.868h1.143l.803-2.224h3.01l.803 2.224h1.154L32.701.132h-1.188L28.65 7.868zm2.24-3.123l.894-2.444c.136-.405.306-1.106.306-1.106h.022s.182.7.317 1.106l.883 2.444H30.89z"/><path id="q" d="M37.974 7.868h1.108V1.074h2.75V.132h-6.608v.942h2.75v6.794z"/><path id="r" d="M43.068 7.868h2.862c1.391 0 2.387-.953 2.387-2.389 0-1.545-1.04-2.432-2.432-2.432h-1.697V.132h-1.12v7.736zm1.12-.942V3.989h1.538c.883 0 1.448.58 1.448 1.49 0 .9-.531 1.447-1.437 1.447h-1.55z"/><path id="s" d="M52.558 7.868h2.862c1.403 0 2.58-.745 2.58-2.202 0-.866-.475-1.633-1.324-1.874V3.77c.611-.307.996-.91.996-1.666 0-1.25-.962-1.972-2.32-1.972h-2.794v7.736zm1.12-4.482V1.074h1.663c.758 0 1.188.46 1.188 1.14 0 .68-.452 1.172-1.176 1.172h-1.675zm0 3.54V4.285h1.8c.836 0 1.368.537 1.368 1.315 0 .8-.51 1.326-1.369 1.326h-1.799z"/></defs></svg>