<svg width="11" height="22" viewBox="0 0 11 22" xmlns="http://www.w3.org/2000/svg" xmlns:xlink="http://www.w3.org/1999/xlink"><title>Fill 9</title><desc>Created using Figma</desc><use xlink:href="#a" transform="translate(.77 .99)" fill="#B7B7B7"/><defs><path id="a" fill-rule="evenodd" d="M2.107 10.318c.053.066.023.525.023.61l.003 9.683h4.22c.024-2.548 0-5.164 0-7.725 0-.036-.008-2.48.004-2.53.007-.034.008-.03.017-.044.006 0 2.684.022 2.778 0l.047-.014.37-3.534H6.366c-.012-.523.003-1.06.003-1.582.001-.478-.01-1.068.276-1.33l2.908-.291L9.548.016C8.998-.017 8.345.012 7.783.012c-.584 0-1.176-.011-1.75.027-1.096.071-1.98.396-2.62.939-.927 1.478-1.285.208-1.292 5.787L0 6.766l.005 3.55 2.102.002z"/></defs></svg>