<svg width="15" height="20" viewBox="0 0 15 20" xmlns="http://www.w3.org/2000/svg" xmlns:xlink="http://www.w3.org/1999/xlink"><title>Path 980</title><desc>Created using Figma</desc><use xlink:href="#a" transform="rotate(90 6.185 7.395)" fill="#F9A61A"/><defs><path id="a" d="M0 0v-1a1 1 0 0 0-1 1h1zm16.815 0l.796.606A1 1 0 0 0 16.815-1v1zm-4.788 6.291l-.795-.605a1 1 0 0 0 0 1.211l.796-.606zm4.788 6.292v1a1 1 0 0 0 .796-1.606l-.796.606zM0 12.583h-1a1 1 0 0 0 1 1v-1zM0 1h16.815v-2H0v2zM16.02-.606l-4.788 6.292 1.591 1.211L17.611.606 16.02-.606zm-4.788 7.503l4.788 6.291 1.591-1.21-4.788-6.292-1.591 1.211zm5.583 4.686H0v2h16.815v-2zM1 12.583V0h-2v12.583h2z"/></defs></svg>