<svg width="151" height="45" viewBox="0 0 151 45" xmlns="http://www.w3.org/2000/svg" xmlns:xlink="http://www.w3.org/1999/xlink"><title>Group 2</title><desc>Created using Figma</desc><use xlink:href="#a" fill="#4A3A4F"/><use xlink:href="#b" transform="translate(46.42 19.49)" fill="#FFF"/><use xlink:href="#c" transform="translate(58.97 22.9)" fill="#FFF"/><use xlink:href="#d" transform="translate(69.57 22.9)" fill="#FFF"/><use xlink:href="#e" transform="translate(79.47 22.81)" fill="#FFF"/><use xlink:href="#f" transform="translate(90.38 18.82)" fill="#FFF"/><use xlink:href="#g" transform="translate(94.08 22.85)" fill="#FFF"/><use xlink:href="#h" transform="translate(108.84 19.7)" fill="#FFF"/><use xlink:href="#i" transform="translate(119.28 18.82)" fill="#FFF"/><use xlink:href="#j" transform="translate(122.88 22.85)" fill="#FFF"/><use xlink:href="#k" transform="translate(132.07 23.05)" fill="#FFF"/><use xlink:href="#l" transform="translate(10.87 6.32)" fill="#00CFFE"/><use xlink:href="#m" transform="translate(11.46 20.4)" fill="#F13548"/><use xlink:href="#n" transform="translate(11.3 5.63)" fill="#03ED77"/><use xlink:href="#o" transform="translate(25.57 15.58)" fill="#FCC701"/><g transform="translate(47 6)" fill="#FFF"><use xlink:href="#p"/><use xlink:href="#q"/><use xlink:href="#r"/><use xlink:href="#s"/><use xlink:href="#t"/><use xlink:href="#u"/><use xlink:href="#v"/><use xlink:href="#w"/></g><defs><path id="a" d="M145.275 0H5.537C2.479 0 0 2.525 0 5.64v33.72C0 42.475 2.479 45 5.537 45h139.738c3.058 0 5.537-2.525 5.537-5.64V5.64c0-3.115-2.479-5.64-5.537-5.64z"/><path id="b" d="M6.176 6.492h4.971v6.894c-.762.258-1.544.45-2.338.576-.802.117-1.613.173-2.423.17-2.043 0-3.618-.627-4.725-1.85C.554 11.062 0 9.313 0 7.07c0-2.245.615-3.943 1.846-5.19C3.076.633 4.81 0 7 0a9.881 9.881 0 0 1 4.005.821l-.776 1.88a7.677 7.677 0 0 0-3.26-.777 4.35 4.35 0 0 0-1.854.311 4.42 4.42 0 0 0-1.56 1.068 5.41 5.41 0 0 0-1.23 3.76c0 1.67.377 2.947 1.131 3.828.413.451.92.803 1.482 1.031a4.022 4.022 0 0 0 1.773.285c.77-.007 1.537-.1 2.288-.275v-3.51H6.201l-.025-1.93z"/><path id="c" d="M9.693 5.329a5.753 5.753 0 0 1-1.28 3.98 4.585 4.585 0 0 1-1.63 1.111 4.512 4.512 0 0 1-1.938.317 4.85 4.85 0 0 1-2.528-.627A4.358 4.358 0 0 1 .625 8.23 6.537 6.537 0 0 1 .01 5.373a5.709 5.709 0 0 1 1.273-3.948A4.614 4.614 0 0 1 2.928.317 4.543 4.543 0 0 1 4.876.01a4.411 4.411 0 0 1 1.911.33c.606.251 1.15.634 1.596 1.123a5.706 5.706 0 0 1 1.31 3.866zm-7.425 0c0 2.398.871 3.6 2.614 3.603 1.743.004 2.604-1.197 2.584-3.603 0-2.377-.868-3.564-2.602-3.56a2.185 2.185 0 0 0-1.102.2 2.23 2.23 0 0 0-.867.722 4.72 4.72 0 0 0-.615 2.638h-.012z"/><path id="d" d="M9.693 5.329a5.753 5.753 0 0 1-1.28 3.98A4.597 4.597 0 0 1 6.78 10.42a4.526 4.526 0 0 1-1.94.316 4.85 4.85 0 0 1-2.528-.627A4.314 4.314 0 0 1 .625 8.23 6.537 6.537 0 0 1 .01 5.373a5.709 5.709 0 0 1 1.273-3.948A4.602 4.602 0 0 1 2.925.317 4.531 4.531 0 0 1 4.87.01a4.411 4.411 0 0 1 1.91.33c.606.251 1.15.634 1.595 1.122A5.655 5.655 0 0 1 9.693 5.33zm-7.425 0c0 2.398.87 3.599 2.608 3.603 1.739.004 2.6-1.197 2.584-3.603 0-2.377-.868-3.564-2.602-3.56-.38-.032-.76.035-1.107.197a2.218 2.218 0 0 0-.868.725 4.72 4.72 0 0 0-.615 2.638z"/><path id="e" d="M9.955.236v1.209l-1.74.332c.172.247.305.52.393.809.107.327.161.67.16 1.015a3.14 3.14 0 0 1-1.089 2.506 4.506 4.506 0 0 1-3.002.922 4.773 4.773 0 0 1-.886-.076c-.196.095-.364.24-.487.421a1.268 1.268 0 0 0-.214.613.585.585 0 0 0 .332.54c.383.146.792.206 1.2.175h1.765a3.909 3.909 0 0 1 2.566.733 2.619 2.619 0 0 1 .873 2.118c.02.54-.099 1.075-.346 1.552a3.05 3.05 0 0 1-1.063 1.168 7.417 7.417 0 0 1-4.134.958 5.63 5.63 0 0 1-3.186-.752 2.41 2.41 0 0 1-.827-.92 2.463 2.463 0 0 1-.268-1.216 2.294 2.294 0 0 1 .615-1.617 3.162 3.162 0 0 1 1.661-.903 1.676 1.676 0 0 1-.714-.626 1.58 1.58 0 0 1-.283-.878c-.009-.358.107-.71.326-.99.274-.318.599-.587.96-.796A2.858 2.858 0 0 1 1.281 5.4 3.735 3.735 0 0 1 1.835.937c.85-.67 1.911-1 2.984-.927.302 0 .604.02.904.063.242.024.483.066.72.125l3.512.038zM1.958 12.242c-.007.224.047.445.155.64.109.195.268.355.46.463a3.397 3.397 0 0 0 1.772.382 5.285 5.285 0 0 0 2.64-.513c.255-.124.472-.318.625-.56.153-.243.237-.524.242-.813.015-.19-.021-.38-.105-.55a1.033 1.033 0 0 0-.37-.415 3.81 3.81 0 0 0-1.765-.282H3.97a2.27 2.27 0 0 0-1.483.445c-.177.143-.32.326-.415.535a1.49 1.49 0 0 0-.132.668h.018zm.91-8.622a2.105 2.105 0 0 0 .499 1.503 1.814 1.814 0 0 0 1.415.526c1.255 0 1.882-.682 1.882-2.048a2.38 2.38 0 0 0-.467-1.567 1.754 1.754 0 0 0-1.415-.551 1.815 1.815 0 0 0-1.427.545 2.348 2.348 0 0 0-.486 1.592z"/><path id="f" d="M2.165 14.626H0V0h2.165v14.626z"/><path id="g" d="M5.074 10.78a4.84 4.84 0 0 1-2.008-.309 4.911 4.911 0 0 1-1.714-1.107A5.386 5.386 0 0 1 .297 7.548 5.457 5.457 0 0 1 .011 5.46a5.965 5.965 0 0 1 1.23-4.005A4.32 4.32 0 0 1 2.807.33 4.236 4.236 0 0 1 4.698.008a4.12 4.12 0 0 1 1.725.28 4.188 4.188 0 0 1 1.462.973A4.837 4.837 0 0 1 9.06 4.7v1.197H2.238a3.45 3.45 0 0 0 .8 2.325 2.796 2.796 0 0 0 2.134.815 7.904 7.904 0 0 0 1.68-.176 8.839 8.839 0 0 0 1.673-.576v1.792a6.623 6.623 0 0 1-1.6.545 9.664 9.664 0 0 1-1.851.157zM4.698 1.7a2.154 2.154 0 0 0-.9.152 2.187 2.187 0 0 0-.76.512 3.243 3.243 0 0 0-.739 1.949h4.626c.04-.705-.179-1.4-.615-1.95a2.066 2.066 0 0 0-.734-.512 2.033 2.033 0 0 0-.878-.151z"/><path id="h" d="M8.926 4.155a4.064 4.064 0 0 1-.309 1.815 3.994 3.994 0 0 1-1.075 1.48 6.01 6.01 0 0 1-3.937 1.148H2.202v5.144H0V0h3.882c1.685 0 2.949.35 3.79 1.053.43.383.767.862.985 1.4.218.539.31 1.121.27 1.702zM2.202 6.73h1.17a4.142 4.142 0 0 0 2.46-.626c.273-.224.488-.512.626-.84.138-.328.196-.685.167-1.04a2.167 2.167 0 0 0-.141-.963 2.131 2.131 0 0 0-.548-.798 3.458 3.458 0 0 0-2.214-.583H2.19l.012 4.85z"/><path id="i" d="M2.172 14.626H0V0h2.172v14.626z"/><path id="j" d="M7.11 10.596L6.675 9.15H6.6a4.224 4.224 0 0 1-1.483 1.29 4.672 4.672 0 0 1-1.919.345 3.218 3.218 0 0 1-2.35-.827 3.143 3.143 0 0 1-.66-1.083 3.187 3.187 0 0 1-.183-1.26 2.788 2.788 0 0 1 .271-1.37 2.73 2.73 0 0 1 .898-1.056 6.668 6.668 0 0 1 3.574-.89l1.76-.056v-.558A2.126 2.126 0 0 0 6.053 2.2a1.814 1.814 0 0 0-1.415-.495 4.838 4.838 0 0 0-1.508.232 11.24 11.24 0 0 0-1.384.557L1.045.914A7.349 7.349 0 0 1 2.89.244 8.052 8.052 0 0 1 4.736.012 4.341 4.341 0 0 1 7.67.877c.352.348.623.772.795 1.24.171.468.238.97.196 1.467v7.006l-1.55.006zM3.88 9.092a2.646 2.646 0 0 0 1.896-.677 2.43 2.43 0 0 0 .557-.86c.123-.325.176-.672.156-1.02v-.902l-1.31.056a4.369 4.369 0 0 0-2.227.52 1.593 1.593 0 0 0-.695 1.423 1.421 1.421 0 0 0 .406 1.078c.345.278.78.414 1.218.382z"/><path id="k" d="M0 0h2.387L4.46 5.89c.29.765.496 1.56.615 2.37h.074c.075-.425.178-.844.308-1.254C5.604 6.509 6.386 4.174 7.8 0h2.344L5.777 11.775c-.796 2.16-2.119 3.24-3.968 3.24a6.133 6.133 0 0 1-1.403-.157V13.11c.368.079.743.117 1.12.112 1.045 0 1.778-.626 2.202-1.88l.381-.977L0 0z"/><path id="l" d="M.587 28.2a5.948 5.948 0 0 1-.56-1.736 2874.12 2874.12 0 0 1 0-24.916A6.24 6.24 0 0 1 .428 0c.345.282.714.533 1.028.846A871.745 871.745 0 0 1 5.33 4.794l9.037 9.287c-1.483 1.51-2.966 3.014-4.442 4.53-3.117 3.21-6.23 6.405-9.339 9.588z"/><path id="m" d="M0 14.118l9.338-9.587C10.815 3.014 12.298 1.51 13.78 0h.357l4.62 4.75C14.48 7.181 10.2 9.607 5.93 12.063c-1.23.69-2.331 1.504-3.537 2.18-.775.42-1.636.847-2.393-.125z"/><path id="n" d="M14.272 14.749h-.357L4.903 5.48a581.071 581.071 0 0 0-3.876-3.947C.714 1.219.345.969 0 .687.929-.473 1.889.06 2.953.655c1.064.596 2.215 1.254 3.316 1.918a694.207 694.207 0 0 0 5.592 3.265c1.427.827 2.866 1.635 4.306 2.462.935.54 1.845 1.097 2.793 1.648l-4.688 4.8z"/><path id="o" d="M0 4.8L4.675 0c1.846 1.078 3.747 2.13 5.605 3.234 1.23.726 1.31 1.967.24 2.92a2.108 2.108 0 0 1-.32.25L4.663 9.538 0 4.8z"/><path id="p" d="M0 3.956C0 6.225 1.618 8 4.096 8c1.414 0 2.41-.57 3.088-1.227l-.6-.778A3.618 3.618 0 0 1 4.13 7.003c-1.855 0-2.975-1.414-2.975-3.058 0-1.633 1.097-2.959 2.953-2.959.826 0 1.72.34 2.308.844l.566-.81C6.21.306 5.09 0 4.06 0 1.687 0 0 1.71 0 3.956z"/><path id="q" d="M8.596 7.868h1.12v-3.54h1.188l2.127 3.54h1.278l-2.477-4.043v-.022l2.33-3.671H12.93l-2.025 3.254H9.716V.132h-1.12v7.736z"/><path id="r" d="M14.663 7.868h1.143l.803-2.224h3.01l.803 2.224h1.154L18.713.132h-1.188l-2.862 7.736zm2.24-3.123l.894-2.444c.136-.405.305-1.106.305-1.106h.023s.181.7.317 1.106l.882 2.444h-2.42z"/><path id="s" d="M24.242 4.899c.826 0 1.64-.318 2.048-.526h.022s-.022.208-.022.361v3.134h1.131V.132H26.29v3.254a3.61 3.61 0 0 1-1.81.526c-1.075 0-1.517-.526-1.517-1.501V.131h-1.13v2.51c0 1.425.757 2.258 2.409 2.258z"/><path id="t" d="M28.65 7.868h1.143l.803-2.224h3.01l.803 2.224h1.154L32.701.132h-1.188L28.65 7.868zm2.24-3.123l.894-2.444c.136-.405.306-1.106.306-1.106h.022s.182.7.317 1.106l.883 2.444H30.89z"/><path id="u" d="M37.974 7.868h1.108V1.074h2.75V.132h-6.608v.942h2.75v6.794z"/><path id="v" d="M43.068 7.868h2.862c1.391 0 2.387-.953 2.387-2.389 0-1.545-1.04-2.432-2.432-2.432h-1.697V.132h-1.12v7.736zm1.12-.942V3.989h1.538c.883 0 1.448.58 1.448 1.49 0 .9-.531 1.447-1.437 1.447h-1.55z"/><path id="w" d="M52.558 7.868h2.862c1.403 0 2.58-.745 2.58-2.202 0-.866-.475-1.633-1.324-1.874V3.77c.611-.307.996-.91.996-1.666 0-1.25-.962-1.972-2.32-1.972h-2.794v7.736zm1.12-4.482V1.074h1.663c.758 0 1.188.46 1.188 1.14 0 .68-.452 1.172-1.176 1.172h-1.675zm0 3.54V4.285h1.8c.836 0 1.368.537 1.368 1.315 0 .8-.51 1.326-1.369 1.326h-1.799z"/></defs></svg>