<svg width="62" height="53" viewBox="0 0 62 53" xmlns="http://www.w3.org/2000/svg" xmlns:xlink="http://www.w3.org/1999/xlink"><title>Group 2</title><desc>Created using Figma</desc><use xlink:href="#a" transform="translate(1 1.212)" fill="#FFF"/><use xlink:href="#b" transform="rotate(-90 33.876 -.664)" fill="#FFF"/><use xlink:href="#c" transform="rotate(-90 24.714 2.714)" fill="#FFF"/><defs><path id="a" d="M16.85 42.678l-.707.707.707-.707zM.589 26.417l.707-.707-.707.707zm0-2.834l.707.707-.707-.707zm16.26-16.26l-.706-.708.707.707zm34.65 34.647c-9.373 9.372-24.569 9.372-33.941 0l-1.414 1.414c10.153 10.153 26.615 10.153 36.77 0l-1.415-1.414zm-33.941 0L1.296 25.71l-1.414 1.414 16.26 16.26 1.415-1.413zM1.296 25.71a.999.999 0 0 1 0-1.42l-1.414-1.414a2.999 2.999 0 0 0 0 4.248l1.414-1.414zm0-1.42l16.26-16.26-1.413-1.415L-.118 22.876l1.414 1.414zm16.26-16.26c9.373-9.373 24.57-9.373 33.942 0l1.414-1.415c-10.154-10.153-26.616-10.153-36.77 0l1.415 1.414zm33.942 0c9.373 9.372 9.373 24.568 0 33.94l1.414 1.415c10.154-10.154 10.154-26.616 0-36.77L51.498 8.03z"/><path id="b" fill-rule="evenodd" d="M13.536.258a1.108 1.108 0 0 0-1.567.147l-5 4.705-5-4.705A1.109 1.109 0 0 0 .402.258 1.107 1.107 0 0 0 .257 1.82l4.868 4.576.9.847c.24.29.596.428.946.4.348.026.703-.11.942-.4l.9-.847 4.868-4.577a1.107 1.107 0 0 0-.145-1.562z"/><path id="c" fill-rule="evenodd" d="M1.284.01A1.107 1.107 0 0 0 .042.968S.024 13.136.015 15.365L.01 16.6c-.08.61.348 1.166.96 1.248.61.078 1.165-.35 1.239-.962l.036-15.63A1.109 1.109 0 0 0 1.284.009z"/></defs></svg>