<svg width="212" height="227" viewBox="0 0 212 227" xmlns="http://www.w3.org/2000/svg" xmlns:xlink="http://www.w3.org/1999/xlink"><title>Hand3</title><desc>Created using Figma</desc><use xlink:href="#a" transform="rotate(-18.345 319.68 -21.141)" fill="#ABAAA9" fill-opacity=".8"/><use xlink:href="#b" transform="rotate(-18.345 532.123 -206.357)" fill="#ABAAA9" fill-opacity=".8"/><use xlink:href="#c" transform="rotate(-18.345 66.915 19.67)" fill="#ABAAA9" fill-opacity=".8"/><use xlink:href="#d" transform="rotate(-18.345 50.54 -81.788)" fill="#ABAAA9" fill-opacity=".8"/><use xlink:href="#e" transform="rotate(-18.345 230.584 -244.053)" fill="#ABAAA9" fill-opacity=".8"/><use xlink:href="#f" transform="rotate(-18.345 296.614 -254.71)" fill="#ABAAA9" fill-opacity=".8"/><use xlink:href="#g" transform="rotate(-18.345 123.31 -2.362)" fill="#ABAAA9" fill-opacity=".8"/><use xlink:href="#h" transform="rotate(-18.345 499.478 -157.868)" fill="#ABAAA9" fill-opacity=".8"/><use xlink:href="#i" transform="rotate(-18.345 89.081 -69.401)" fill="#ABAAA9" fill-opacity=".8"/><use xlink:href="#j" transform="rotate(-18.345 63.565 -97.128)" fill="#ABAAA9" fill-opacity=".8"/><use xlink:href="#k" transform="rotate(-18.345 240.313 92.785)" fill="#ABAAA9" fill-opacity=".8"/><use xlink:href="#l" transform="rotate(-18.345 297.982 26.859)" fill="#ABAAA9" fill-opacity=".8"/><use xlink:href="#m" transform="rotate(-18.345 636.047 -156.151)" fill="#ABAAA9" fill-opacity=".8"/><use xlink:href="#n" transform="rotate(-18.345 533.142 -221.92)" fill="#ABAAA9" fill-opacity=".8"/><use xlink:href="#o" transform="rotate(-18.345 515.893 -139.3)" fill="#ABAAA9" fill-opacity=".8"/><use xlink:href="#p" transform="rotate(-18.345 472.071 -391.122)" fill="#ABAAA9" fill-opacity=".8"/><use xlink:href="#q" transform="rotate(-18.345 168.018 -227.88)" fill="#ABAAA9" fill-opacity=".8"/><use xlink:href="#r" transform="rotate(-18.345 247.739 -238.328)" fill="#ABAAA9" fill-opacity=".8"/><use xlink:href="#s" transform="rotate(-18.345 275.604 -243.837)" fill="#ABAAA9" fill-opacity=".8"/><use xlink:href="#t" transform="rotate(-18.345 324.839 -14.716)" fill="#ABAAA9" fill-opacity=".8"/><use xlink:href="#u" transform="rotate(-18.345 237.895 27.674)" fill="#ABAAA9" fill-opacity=".8"/><use xlink:href="#v" transform="rotate(-18.345 384.993 3.925)" fill="#ABAAA9" fill-opacity=".8"/><use xlink:href="#w" transform="rotate(-18.345 525.517 -143.21)" fill="#ABAAA9" fill-opacity=".8"/><use xlink:href="#x" transform="rotate(-18.345 553.322 -111.555)" fill="#ABAAA9" fill-opacity=".8"/><use xlink:href="#y" transform="rotate(-18.345 282.26 -174.673)" fill="#ABAAA9" fill-opacity=".8"/><use xlink:href="#z" transform="rotate(-18.345 252.79 -252.89)" fill="#ABAAA9" fill-opacity=".8"/><use xlink:href="#A" transform="rotate(-18.345 326.11 -268.948)" fill="#ABAAA9" fill-opacity=".8"/><g transform="rotate(-18.345 278.016 -159.408)" fill="#ABAAA9" fill-opacity=".8"><use xlink:href="#B"/><use xlink:href="#B"/></g><g transform="rotate(-18.345 433.773 -296.205)" fill="#ABAAA9" fill-opacity=".8"><use xlink:href="#C"/><use xlink:href="#C"/></g><g transform="rotate(-18.345 321.091 -254.984)" fill="#ABAAA9" fill-opacity=".8"><use xlink:href="#D"/><use xlink:href="#D"/></g><use xlink:href="#E" transform="rotate(-18.345 363.59 -265.533)" fill="#ABAAA9" fill-opacity=".8"/><defs><path id="a" d="M9.624 78.761c-.309 0-3.37-.07-5.976-2.635C1.228 73.743 0 70.058 0 65.172V1.242a1.241 1.241 0 1 1 2.483 0v63.93c0 4.195.978 7.286 2.906 9.184 1.938 1.908 4.205 1.915 4.237 1.923H27.41a1.241 1.241 0 1 1 0 2.482H9.625z"/><path id="b" d="M16.262 2.483H1.242a1.241 1.241 0 1 1 0-2.483h15.02a1.241 1.241 0 1 1 0 2.483z"/><path id="c" d="M1.241 52.828A1.241 1.241 0 0 1 0 51.587V13.59C0 8.704 1.227 5.018 3.648 2.636 6.347-.021 9.542-.003 9.666 0h33.498a1.241 1.241 0 1 1 0 2.483H9.646c-.12 0-2.359.026-4.293 1.958-1.904 1.903-2.87 4.98-2.87 9.148v37.997c0 .686-.556 1.242-1.242 1.242z"/><path id="d" d="M43.164 46.786a1.241 1.241 0 0 1-1.242-1.24V13.59c0-4.196-.978-7.286-2.906-9.185-1.921-1.891-4.183-1.922-4.236-1.922H1.24A1.241 1.241 0 1 1 1.24 0h33.52c.112-.004 3.301-.019 5.999 2.636 2.42 2.383 3.648 6.068 3.648 10.954v31.956c0 .685-.557 1.24-1.242 1.24z"/><path id="e" d="M1.241 7.945A1.241 1.241 0 0 1 0 6.703V1.241a1.241 1.241 0 1 1 2.483 0v5.462c0 .686-.556 1.242-1.242 1.242z"/><path id="f" d="M1.241 14.427A1.241 1.241 0 0 1 0 13.187V1.24a1.241 1.241 0 1 1 2.483 0v11.945c0 .686-.556 1.241-1.242 1.241z"/><path id="g" d="M57.703 122.651H.745a.745.745 0 0 1-.745-.745V.745C0 .333.334 0 .745 0h67.532c.412 0 .745.333.745.745v91.974a.745.745 0 1 1-1.49 0V1.489H1.49v119.672h56.212a.745.745 0 0 1 0 1.49z"/><path id="h" d="M7.208 8.455a.744.744 0 0 1-.478-1.317 3.191 3.191 0 0 0 1.15-2.453A3.198 3.198 0 0 0 4.684 1.49 3.198 3.198 0 0 0 1.49 4.684a.745.745 0 1 1-1.49 0A4.69 4.69 0 0 1 4.684 0 4.69 4.69 0 0 1 9.37 4.684a4.676 4.676 0 0 1-1.684 3.598.74.74 0 0 1-.477.173z"/><path id="i" d="M21.524 3.642H1.82A1.823 1.823 0 0 1 0 1.822C0 .816.816 0 1.82 0h19.704a1.821 1.821 0 0 1 0 3.641zM1.82.994a.829.829 0 0 0 0 1.655h19.704a.828.828 0 0 0 0-1.655H1.82z"/><path id="j" d="M1.655 3.31A1.657 1.657 0 0 1 0 1.655C0 .743.743 0 1.655 0 2.568 0 3.31.743 3.31 1.655c0 .913-.742 1.655-1.655 1.655zm0-2.317a.663.663 0 1 0 .002 1.326.663.663 0 0 0-.002-1.326z"/><path id="k" d="M.994 180.15a.993.993 0 0 1-.93-1.341c.176-.476 17.634-47.711 12.346-66.13-.52-.918-3.609-6.817-5.696-20.755-.7-4.676-1.624-9.277-2.516-13.727C2.197 68.219.616 60.337 2.614 56.84 5.11 52.474 9.441 37.3 9.77 32.737c.074-1.023.043-2.037.014-3.018-.1-3.347-.203-6.806 4.046-9.78 1.39-.972 3.31-3.935 5.343-7.072C22.942 7.05 27.215.457 31.876.023c1.74-.164 3.372.54 4.845 2.085a.993.993 0 1 1-1.44 1.37c-1.046-1.1-2.1-1.582-3.222-1.477-3.702.345-7.87 6.778-11.22 11.946-2.235 3.448-4.165 6.425-5.871 7.62-3.371 2.358-3.295 4.889-3.2 8.093.03 1.03.062 2.096-.018 3.22-.348 4.838-4.763 20.31-7.412 24.946-1.629 2.85.04 11.171 1.807 19.98.897 4.474 1.826 9.1 2.533 13.824 2.166 14.465 5.469 20.087 5.502 20.143.043.072.079.152.103.233 5.58 18.969-11.624 65.525-12.359 67.498a.995.995 0 0 1-.93.646z"/><path id="l" d="M1.816 14.917c-.552 0-.877-.022-.9-.024a.993.993 0 1 1 .155-1.98c.623.047 14.883.978 16.116-12.014a.993.993 0 0 1 1.978.188c-1.227 12.921-13.84 13.83-17.35 13.83z"/><path id="m" d="M.995 42.953a.992.992 0 0 1-.984-1.138C.566 38.04 5.605 4.788 11.564.205a.993.993 0 0 1 1.21 1.575C8.268 5.245 3.45 32.063 1.976 42.104a.993.993 0 0 1-.981.849z"/><path id="n" d="M.993 11.421a.993.993 0 0 1-.73-1.666L8.953.321a.992.992 0 1 1 1.46 1.345l-8.69 9.435a.992.992 0 0 1-.73.32z"/><path id="o" d="M35.968 81.623a.992.992 0 0 1-.648-.24c-1.499-1.293-14.677-12.757-15.713-17.247-.982-4.257-9.754-26.627-11.683-30.756l-.191-.408c-1.243-2.656-1.709-3.65-2.205-6.46-.104-.59-.663-2.133-1.31-3.92C1.07 13.917-1.745 5.18 1.32 1.982c.092-.094 2.206-2.23 6.095-1.958 5.185.36 10.83 4.673 16.777 12.82.04.054.075.114.103.176.155.346 3.787 8.428 4.677 12.992 2.267 4.373 6.154 10.64 7.85 11.125a.993.993 0 0 1-.546 1.91c-3.15-.901-8.162-10.365-9.135-12.253a1.006 1.006 0 0 1-.093-.274c-.75-4.052-4.107-11.66-4.521-12.59C15.638 4.525 10.47 2.255 7.347 2.011c-2.97-.232-4.536 1.291-4.601 1.356-2.457 2.564 1.458 13.36 3.339 18.548.735 2.027 1.266 3.492 1.4 4.252.45 2.551.82 3.342 2.047 5.963l.192.41c1.948 4.17 10.82 26.817 11.82 31.15.674 2.924 9.384 11.283 15.074 16.189a.992.992 0 0 1-.65 1.744z"/><path id="p" d="M40.391 80.96a.994.994 0 0 1-.993-.979l-.827-55.118c-.153-14.25-14.771-14.415-15.393-14.415a.994.994 0 0 1-.912-.6c-2.8-6.483-8.817-5.89-9.072-5.862-.09.01-.186.008-.276-.007L.831 1.973a.993.993 0 1 1 .325-1.96L13.126 2c1.096-.07 7.482-.167 10.703 6.491 3.143.216 16.574 1.98 16.729 16.346l.827 55.114c.008.549-.43 1-.978 1.008h-.016z"/><path id="q" d="M10.605 27.054a.993.993 0 0 1-.994-.993v-3.145c0-.306.141-.594.381-.782 3.425-2.68 3.922-8.345 3.926-8.402 1.045-10.306-4.85-11.557-5.1-11.606-.044-.008-3.672-.673-5.48.941-.79.703-1.12 1.758-1.013 3.224.005.069.003.139-.006.207-.388 2.84-.861 10.793 1.566 13.441.555.605 1.205.866 2.036.826a.993.993 0 1 1 .097 1.984c-1.431.071-2.64-.424-3.597-1.468C-.984 17.565.134 7.869.337 6.33.21 4.284.777 2.687 2.021 1.58 4.568-.684 8.997.139 9.185.175c.063.01 7.948 1.539 6.71 13.737-.019.24-.541 6.179-4.298 9.47v2.68a.992.992 0 0 1-.992.992z"/><path id="r" d="M18.477 25.76a.993.993 0 0 1-.62-1.77c2.729-2.183 5.156-9.122 1.695-17.08C16.479-.155 7.882 2.43 7.518 2.542a1.01 1.01 0 0 1-.297.045c-1.686 0-2.977.5-3.84 1.483-1.788 2.04-1.346 5.564-1.341 5.6a.995.995 0 0 1-.853 1.115.99.99 0 0 1-1.116-.85C.047 9.755-.5 5.497 1.88 2.77 3.108 1.363 4.853.634 7.068.602 10.795-.516 18.381-.76 21.373 6.118c3.509 8.066 1.55 16.363-2.277 19.425a.986.986 0 0 1-.62.218z"/><path id="s" d="M9.153 9.506c-2.353 0-4.856-.424-6.675-2.037C.814 5.994-.02 3.729 0 .739a.745.745 0 1 1 1.49.01c-.016 2.542.648 4.428 1.977 5.606 2.538 2.251 7.079 1.674 9.792 1.33l.18-.023c3.452-.437 4.037-1.5 4.043-1.511-.016.03-.02.047-.02.047l1.409.487c-.108.313-.87 1.902-5.246 2.455l-.178.022c-1.193.152-2.71.344-4.294.344z"/><path id="t" d="M3.522 26.924a.745.745 0 0 1-.743-.689c-.105-.547-1.48-4.38-2.732-7.74a.746.746 0 0 1-.043-.335c.009-.093.926-9.425.1-17.338a.744.744 0 1 1 1.48-.154c.78 7.463.04 16.135-.083 17.466 2.764 7.421 2.764 7.89 2.764 8.045a.744.744 0 0 1-.744.745z"/><path id="u" d="M3.012 11.351c-1.446 0-2.862-1.23-2.928-1.288a.248.248 0 0 1 .328-.373c.016.014 1.591 1.378 2.928 1.136.542-.097.984-.456 1.314-1.067.215-.397.464-.84.73-1.314C6.856 5.832 9.079 1.883 8.152.378a.248.248 0 0 1 .423-.26c1.08 1.754-1.047 5.534-2.756 8.571-.265.47-.513.91-.726 1.306-.405.751-.966 1.195-1.665 1.32a2.403 2.403 0 0 1-.415.036z"/><path id="v" d="M.248 7.53a.248.248 0 0 1-.082-.482C.232 7.025 6.762 4.705 9.46.122a.248.248 0 1 1 .428.252C7.097 5.115.605 7.422.33 7.517a.268.268 0 0 1-.082.014z"/><path id="w" d="M3.279 13.428a.248.248 0 0 1-.192-.406c2.073-2.517 6.172-3.842 7.23-4.15-.298-1.01-.544-1.912-.762-2.714C8.43 2.034 8.052.644 5.027.504 1.423.341.522 3.041.486 3.157A.248.248 0 0 1 .01 3.01C.02 2.979 1.038-.184 5.05.008c3.386.157 3.854 1.873 4.984 6.02.235.862.502 1.84.83 2.943a.249.249 0 0 1-.175.31c-.05.014-4.98 1.338-7.219 4.057a.245.245 0 0 1-.191.09z"/><path id="x" d="M.249 4.138a.248.248 0 0 1-.21-.382C.05 3.738 1.19 1.936 1.836.163a.248.248 0 1 1 .467.17C1.639 2.158.506 3.947.458 4.023a.248.248 0 0 1-.21.115z"/><path id="y" d="M2.015 10.47c-.387 0-.728-.158-1.012-.469C-.075 8.823-.137 5.513.14 3.036.49-.137 4.719-.002 4.759.002c.137.005.243.12.237.258a.252.252 0 0 1-.258.238C4.585.493.934.378.632 3.09c-.285 2.56-.167 5.587.737 6.575.194.212.415.319.666.307.739-.017 2.23-.681 3.808-1.386 2.203-.982 4.48-2 5.685-1.733a.248.248 0 1 1-.106.485c-1.044-.227-3.347.797-5.377 1.702-1.696.756-3.16 1.41-4 1.428h-.03z"/><path id="z" d="M5.428 8.608a.248.248 0 0 1-.248-.227C4.909 5.212.138 1.225.09 1.185A.249.249 0 0 1 .213.748L5.392.003a.239.239 0 0 1 .104.007c4.713 1.36 4.767 7.392 4.767 7.452a.248.248 0 0 1-.2.244l-4.588.897a.213.213 0 0 1-.047.005zM.822 1.162c1.17 1.043 4.394 4.136 4.82 6.903l4.117-.805c-.056-1.025-.517-5.612-4.35-6.758l-4.587.66z"/><path id="A" d="M4.103 8.68a.248.248 0 0 1-.244-.205C3.431 6.074.125 3.398.092 3.372a.248.248 0 0 1 .31-.388c.136.11 3.2 2.588 3.868 5.066l2.701-1.551c.096-.722.41-4.533-3.34-6.019a.248.248 0 1 1 .184-.462c4.44 1.76 3.637 6.63 3.629 6.679a.248.248 0 0 1-.121.172l-3.097 1.78a.251.251 0 0 1-.124.032z"/><path id="B" d="M19.535 124.02a.992.992 0 0 1-.983-.863c-.048-.364-1.162-9.004 0-17.805 1.037-7.85-.664-24.638-1.407-30.444-.479-3.74-3.318-16.756-8.636-31.068-.025-.06-3.892-9.437-6.384-19.282C-1.32 10.948-.573 2.906 4.344.653c.42-.245 2.252-1.164 4.785-.27 4.466 1.574 8.397 7.642 11.684 18.037.609 1.584 11.597 30.186 12.421 32.987l.089.303c4.035 13.817 8.871 20.451 12.217 23.584a.993.993 0 0 1-1.358 1.45c-3.527-3.302-8.605-10.23-12.766-24.477l-.088-.3c-.806-2.743-12.264-32.561-12.38-32.862a1.397 1.397 0 0 1-.02-.058C15.104 6.942 11.168 3.248 8.538 2.28c-1.9-.7-3.142.056-3.194.088-.04.025-.092.054-.135.073-8.1 3.613.97 30.585 5.148 40.672 5.98 16.095 8.428 28.973 8.757 31.543.027.211 2.69 21.243 1.406 30.955-1.127 8.544-.01 17.199 0 17.285a.994.994 0 0 1-.985 1.124z"/><path id="C" d="M34.876 26.67a.992.992 0 0 1-.984-.875c-.307-2.556-3.977-5.739-6.656-8.063-1.21-1.05-2.256-1.957-2.882-2.696l-.394-.466c-2.188-2.6-8.848-10.514-13.598-12.295C5.888.598 1.882 7.052 1.841 7.118A.993.993 0 1 1 .146 6.082C.344 5.758 5.066-1.832 11.06.415c5.237 1.964 11.909 9.891 14.42 12.876l.39.461c.526.623 1.519 1.484 2.668 2.48 3.086 2.677 6.928 6.01 7.325 9.326a.993.993 0 0 1-.987 1.112z"/><path id="D" d="M7.27 42.81a.993.993 0 0 1-.84-1.522c.068-.107 6.827-10.841 13.526-19.16 6.157-7.643-1.7-17.766-1.78-17.867-4.037-5.186-11.574-.025-11.893.197a1.021 1.021 0 0 1-.147.085C3.948 5.57 2.612 6.926 2.162 8.573c-.733 2.68 1.044 5.327 1.062 5.353.061.094 1.145 1.722 3.623 2.19 2.818.532 6.408-.682 10.372-3.514a.993.993 0 0 1 1.156 1.615c-4.51 3.222-8.54 4.513-11.964 3.838-3.315-.654-4.787-2.944-4.848-3.04-.074-.108-2.288-3.41-1.317-6.966.604-2.213 2.276-3.985 4.97-5.268 3.263-2.255 10.4-5.045 14.523.253.085.107 8.92 11.456 1.764 20.34-6.626 8.229-13.324 18.864-13.39 18.97a.994.994 0 0 1-.843.466z"/><path id="E" d="M1.241 13.407A1.241 1.241 0 0 1 0 12.165V1.242a1.241 1.241 0 1 1 2.483 0v10.924c0 .686-.556 1.242-1.242 1.242z"/></defs></svg>