<svg width="305" height="475" viewBox="0 0 305 475" xmlns="http://www.w3.org/2000/svg" xmlns:xlink="http://www.w3.org/1999/xlink"><title>Group</title><desc>Created using Figma</desc><use xlink:href="#a" transform="translate(2 2)" fill="#F5F6F3"/><use xlink:href="#b" transform="translate(276.31 255.68)" fill="#4A3A4F"/><use xlink:href="#c" transform="translate(270.2 226.65)" fill="#4A3A4F"/><use xlink:href="#d" transform="translate(7.17 97.84)" fill="#4A3A4F"/><use xlink:href="#e" transform="translate(151.98 21.21)" fill="#4A3A4F"/><use xlink:href="#f" transform="translate(0 26.58)" fill="#4A3A4F"/><use xlink:href="#g" transform="translate(55.75)" fill="#4A3A4F"/><use xlink:href="#h" transform="translate(19.1 33.35)" fill="#4A3A4F"/><use xlink:href="#i" transform="translate(209.55 311.86)" fill="#4A3A4F"/><use xlink:href="#j" transform="translate(56.65 43.33)" fill="#4A3A4F"/><use xlink:href="#k" transform="translate(69.15 40.64)" fill="#4A3A4F"/><use xlink:href="#l" transform="translate(8.35 133.16)" fill="#4A3A4F"/><use xlink:href="#m" transform="translate(64 204.28)" fill="#4A3A4F"/><use xlink:href="#n" transform="translate(181.42 67.47)" fill="#4A3A4F"/><use xlink:href="#o" transform="translate(208.21 123.94)" fill="#4A3A4F"/><use xlink:href="#p" transform="translate(233.14 166.28)" fill="#4A3A4F"/><use xlink:href="#q" transform="translate(262.39 216.36)" fill="#4A3A4F"/><use xlink:href="#r" transform="translate(164.54 328.6)" fill="#4A3A4F"/><use xlink:href="#s" transform="translate(10.52 149.72)" fill="#4A3A4F"/><use xlink:href="#t" transform="translate(246.57 178.96)" fill="#4A3A4F"/><use xlink:href="#u" transform="translate(133.59 354)" fill="#4A3A4F"/><use xlink:href="#v" transform="translate(17.4 205.37)" fill="#4A3A4F"/><use xlink:href="#w" transform="translate(16.94 196.86)" fill="#4A3A4F"/><use xlink:href="#x" transform="rotate(-27.9 222.2 7.005)" fill="#FFF"/><use xlink:href="#y" transform="scale(1 -1) rotate(27.901 761.527 120.852)" fill="#02BE75"/><use xlink:href="#y" transform="scale(1 -1) rotate(27.901 761.527 120.852)" fill="url(#z)"/><use xlink:href="#A" transform="rotate(-27.9 259.574 -69.983)" fill="#FFF" opacity=".1"/><use xlink:href="#B" transform="rotate(-27.9 239.856 -36.372)" fill="#75E5A1" opacity=".1"/><use xlink:href="#C" transform="rotate(-27.9 279.637 -102.055)" fill="#FFF"/><use xlink:href="#D" transform="rotate(-27.9 289.678 -145.23)" fill="#03BE75"/><use xlink:href="#E" transform="rotate(-27.9 314.343 -147.138)" fill="#FFF"/><use xlink:href="#E" transform="rotate(-27.9 307.48 -174.743)" fill="#FFF"/><use xlink:href="#F" transform="rotate(-27.9 312.013 -144.212)" fill="#FFA803"/><use xlink:href="#G" transform="rotate(-27.9 292.114 -147.723)" fill="#03BE75"/><use xlink:href="#H" transform="rotate(-27.9 290.423 -161.136)" fill="#FFF"/><use xlink:href="#I" transform="rotate(-27.9 335.235 -149.513)" fill="#2DC968"/><use xlink:href="#I" transform="scale(-1 1) rotate(27.901 -321.814 -203.537)" fill="#2DC968"/><use xlink:href="#J" transform="rotate(-27.9 354.339 -163.446)" fill="#03BE75"/><g transform="translate(-6725 -2037)"><mask id="L"><use xlink:href="#K" transform="rotate(-27.9 8032.021 -12623.048)" fill="#FFF"/></mask><g mask="url(#L)"><use xlink:href="#M" transform="rotate(-27.9 8030.932 -12621.246)" fill="#FFF"/></g></g><g transform="translate(-6725 -2037)"><mask id="O"><use xlink:href="#N" transform="rotate(-27.9 7990.045 -12612.618)" fill="#FFF"/></mask><g mask="url(#O)"><use xlink:href="#P" transform="rotate(-27.9 7988.956 -12610.815)" fill="#FFF"/></g></g><use xlink:href="#Q" transform="rotate(-27.9 643.142 -123.335)" fill="#FFC875" filter="url(#R)"/><g fill="#FFF"><use xlink:href="#S" transform="rotate(-27.9 438.441 -104.814)"/><use xlink:href="#T" transform="rotate(-27.9 438.004 -124.733)"/><use xlink:href="#U" transform="rotate(-27.9 430.478 -135.386)"/><use xlink:href="#V" transform="rotate(-27.9 432.223 -149.035)"/><use xlink:href="#W" transform="rotate(-27.9 429.591 -159.69)"/><use xlink:href="#X" transform="rotate(-27.9 426.135 -173.563)"/><use xlink:href="#Y" transform="rotate(-27.9 423.331 -184.902)"/><use xlink:href="#Z" transform="rotate(-27.9 420.28 -197.136)"/><use xlink:href="#aa" transform="rotate(-27.9 411.847 -211.882)"/><use xlink:href="#ab" transform="rotate(-27.9 412.006 -229.9)"/><use xlink:href="#ac" transform="rotate(-27.9 409.304 -240.274)"/><use xlink:href="#ad" transform="rotate(-27.9 406.546 -251.366)"/><use xlink:href="#ae" transform="rotate(-27.9 404.091 -261.272)"/><use xlink:href="#af" transform="rotate(-27.9 401.924 -271.043)"/><use xlink:href="#ag" transform="rotate(-27.9 398.717 -282.824)"/></g><use xlink:href="#ah" transform="rotate(-27.9 539.234 -119.91)" fill="#FFF"/><use xlink:href="#ai" transform="rotate(-27.9 580.254 -131.134)" fill="#FFF"/><g fill="#FFF"><use xlink:href="#aj" transform="rotate(-27.9 637.553 -227.77)"/><use xlink:href="#ak" transform="rotate(-27.9 634.984 -237.298)"/><use xlink:href="#al" transform="rotate(-27.9 629.263 -248.421)"/><use xlink:href="#am" transform="rotate(-27.9 629.69 -259.342)"/><use xlink:href="#an" transform="rotate(-27.9 627.265 -269.198)"/></g><g fill="#A0E8BE"><use xlink:href="#ao" transform="rotate(-27.9 548.181 -265.1)"/><use xlink:href="#ap" transform="rotate(-27.9 548.815 -271.44)"/><use xlink:href="#aq" transform="rotate(-27.9 545.398 -276.178)"/><use xlink:href="#ar" transform="rotate(-27.9 546.168 -282.633)"/><use xlink:href="#as" transform="rotate(-27.9 544.437 -289.602)"/><use xlink:href="#at" transform="rotate(-27.9 542.802 -296.184)"/><use xlink:href="#au" transform="rotate(-27.9 540.803 -304.224)"/><use xlink:href="#av" transform="rotate(-27.9 539.367 -309.54)"/><use xlink:href="#aw" transform="rotate(-27.9 537.975 -315.12)"/><use xlink:href="#ax" transform="rotate(-27.9 536.604 -320.611)"/><use xlink:href="#ay" transform="rotate(-27.9 535.495 -325.61)"/><use xlink:href="#az" transform="rotate(-27.9 533.865 -332.212)"/><use xlink:href="#aA" transform="rotate(-27.9 530.402 -336.684)"/></g><use xlink:href="#aB" transform="rotate(-27.9 472.291 -113.93)" fill="#FFF"/><use xlink:href="#aC" transform="rotate(-27.9 457.72 -140.18)" fill="#FFF"/><use xlink:href="#aD" transform="rotate(-27.9 445.189 -190.65)" fill="#FFF"/><use xlink:href="#aE" transform="rotate(-27.9 431.218 -272.485)" fill="#FFF"/><use xlink:href="#aF" transform="rotate(-27.9 439.434 -240.696)" fill="#FFF"/><defs><filter id="R" filterUnits="userSpaceOnUse" x="6858" y="2267" width="119" height="78" color-interpolation-filters="sRGB"><feFlood flood-opacity="0" result="BackgroundImageFix"/><feBlend in="SourceGraphic" in2="BackgroundImageFix" result="shape"/><feColorMatrix in="SourceAlpha" values="0 0 0 0 0 0 0 0 0 0 0 0 0 0 0 0 0 0 255 0" result="hardAlpha"/><feOffset dy="-2"/><feComposite in2="hardAlpha" operator="arithmetic" k2="-1" k3="1"/><feColorMatrix values="0 0 0 0 1 0 0 0 0 0.666667 0 0 0 0 0.0313726 0 0 0 1 0"/><feBlend in2="shape" result="effect1_innerShadow"/></filter><linearGradient id="z" x2="1" gradientUnits="userSpaceOnUse" gradientTransform="matrix(0 271.544 -152.408 0 228.612 0)"><stop offset="0" stop-color="#2DC968"/><stop offset="1" stop-color="#76E5A2" stop-opacity="0"/></linearGradient><path id="a" d="M16.5 213l9 35.5L28 269l3.5 8.5L68 285h42.5l62-40 71-37.5-13.5-41 9-6 7-8 3.5-8.5-6-9.5-9.5-8.5-14-1.5-14 1.5-2.5-9 8-21 2.5-10-2.5-9-8-8H190l-10 6.5L155 24 141 5.5 128 0 9.5 62 0 73.5 4 92l21.5 41-16 4.5V151l7 38-2.5 9.5 2.5 14.5z"/><path id="b" d="M7.243 5.8c-2.15 0-4.425-.459-6.348-1.86A2.18 2.18 0 0 1 .418.893 2.18 2.18 0 0 1 3.461.417c2.821 2.055 7.956.528 9.697-.233A2.178 2.178 0 1 1 14.92 4.17c-.225.1-3.746 1.63-7.676 1.63z"/><path id="c" d="M14.222 21.223a.546.546 0 0 1-.523-.394c-.031-.106-3.214-10.724-13.391-15.636a.543.543 0 0 1-.12-.903c.34-.294 8.409-7.152 13.42-2.908 3.069 2.599 6.265 7.02 6.036 11.636-.157 3.15-1.877 5.879-5.113 8.109a.545.545 0 0 1-.31.096zM1.55 4.6c8.605 4.522 12.072 12.708 12.957 15.201 2.558-1.939 3.919-4.236 4.049-6.837.21-4.224-2.913-8.431-5.651-10.75C9.34-.808 3.492 3.126 1.55 4.6z"/><path id="d" d="M158.875 276.339a20.31 20.31 0 0 1-5.842-.861c-7.137-2.136-13.298-8.023-18.311-17.497L.317 3.997A2.724 2.724 0 1 1 5.131 1.45l134.405 253.985c4.305 8.136 9.372 13.124 15.059 14.826 5.704 1.707 10.145-.597 10.188-.621l65.026-34.411a2.724 2.724 0 0 1 2.548 4.815l-64.988 34.39c-.163.089-3.545 1.905-8.494 1.905z"/><path id="e" d="M68.515 326.388a2.724 2.724 0 0 1-1.276-5.132l64.988-34.39c.205-.107 4.542-2.452 6.316-8.204 1.74-5.641.454-12.599-3.822-20.681L.317 3.997A2.724 2.724 0 1 1 5.131 1.45l134.404 253.985c5.013 9.473 6.415 17.878 4.167 24.98-2.507 7.92-8.702 11.151-8.965 11.284l-64.95 34.371a2.7 2.7 0 0 1-1.272.318z"/><path id="f" d="M136.756 316.439a2.723 2.723 0 0 1-2.409-1.451L5.207 70.952C.193 61.48-1.209 53.073 1.04 45.972c2.507-7.92 8.702-11.15 8.965-11.284L74.956.316a2.724 2.724 0 0 1 2.548 4.815L12.515 39.522c-.205.107-4.542 2.452-6.316 8.203-1.74 5.641-.454 12.6 3.822 20.682l129.14 244.036a2.724 2.724 0 0 1-2.405 3.996z"/><path id="g" d="M225.822 266.39a2.723 2.723 0 0 1-2.409-1.451L94.273 20.903c-4.306-8.136-9.372-13.124-15.06-14.826-5.706-1.706-10.145.598-10.188.621L3.998 41.11a2.724 2.724 0 0 1-2.548-4.815l64.989-34.39c.221-.122 6.378-3.425 14.335-1.046 7.137 2.136 13.299 8.023 18.312 17.497l129.14 244.036a2.724 2.724 0 0 1-2.404 3.998z"/><path id="h" d="M125.952 307.48a1.634 1.634 0 0 1-1.446-.87L.19 71.69a1.635 1.635 0 0 1 .679-2.21L131.809.19a1.634 1.634 0 0 1 2.208.68l124.318 234.921a1.635 1.635 0 0 1-.679 2.209l-130.94 69.291a1.632 1.632 0 0 1-.764.189zM3.842 71.605L126.63 303.639l128.052-67.763L131.894 3.842 3.842 71.606z"/><path id="i" d="M10.292 20.557c-3.688 0-7.258-1.987-9.1-5.467C-1.458 10.08.46 3.85 5.468 1.199a10.2 10.2 0 0 1 7.83-.738 10.21 10.21 0 0 1 6.059 5.016 10.208 10.208 0 0 1 .739 7.829 10.21 10.21 0 0 1-5.015 6.059 10.208 10.208 0 0 1-4.79 1.192zM10.266 3.27a6.975 6.975 0 0 0-3.27.818c-3.415 1.807-4.723 6.057-2.916 9.473 1.808 3.414 6.056 4.725 9.473 2.915a6.95 6.95 0 0 0 3.419-4.131 6.966 6.966 0 0 0-.503-5.341 6.966 6.966 0 0 0-4.132-3.42 7.027 7.027 0 0 0-2.071-.314z"/><path id="j" d="M4.005 28.205a4.04 4.04 0 0 1-1.186-.18 3.966 3.966 0 0 1-2.356-1.946 4 4 0 0 1 1.662-5.4L40.328.465A3.966 3.966 0 0 1 43.37.18a3.966 3.966 0 0 1 2.356 1.946 4 4 0 0 1-1.662 5.399L5.861 27.74a3.958 3.958 0 0 1-1.856.464zM42.188 2.18c-.29 0-.578.07-.84.21L3.145 22.607a1.818 1.818 0 0 0-.755 2.454c.225.425.606.739 1.072.883.464.14.955.099 1.382-.128L43.047 5.6a1.818 1.818 0 0 0 .755-2.454 1.803 1.803 0 0 0-1.072-.883 1.841 1.841 0 0 0-.542-.082z"/><path id="k" d="M3.637 7.26A3.636 3.636 0 0 1 .42 5.33 3.637 3.637 0 0 1 1.93.42 3.613 3.613 0 0 1 4.699.163c.929.286 1.69.915 2.142 1.769A3.636 3.636 0 0 1 5.329 6.84c-.54.286-1.12.42-1.692.42zm-.013-5.08c-.232 0-.462.056-.672.167a1.456 1.456 0 0 0-.605 1.964 1.455 1.455 0 0 0 1.963.604 1.456 1.456 0 0 0 .605-1.964c-.18-.34-.485-.59-.857-.705a1.447 1.447 0 0 0-.434-.066z"/><path id="l" d="M20.566 341.651a2.178 2.178 0 0 1-2.046-2.928c6.192-16.914 22.45-61.948 23.317-67.146.148-.887.296-1.705.436-2.479.857-4.743 1.375-7.606-.408-15.182-1.557-6.619-3.659-21.13-5.884-36.492-.936-6.461-1.9-13.116-2.864-19.472-.572-3.77-1.094-7.313-1.586-10.657-2.297-15.599-3.956-26.871-7.042-36.126a84.587 84.587 0 0 0-2.297-6.145c-1.707-4.147-2.165-5.261-3.795-21.559-1.009-10.092-4.083-21.043-6.795-30.707-3.28-11.685-5.87-20.915-4.6-26.626 2.078-9.355-1.676-28.123-3.279-36.136-.232-1.165-.668-2.655-1.173-4.383C.608 18.964-2.053 9.858 2.543 4.286 5.384.843 10.276-.504 17.5.167a2.178 2.178 0 1 1-.404 4.338c-5.6-.517-9.365.338-11.19 2.553-3.129 3.792-.842 11.619.827 17.334.533 1.824.994 3.4 1.264 4.749 1.656 8.285 5.536 27.683 3.258 37.936-1.03 4.643 1.676 14.29 4.543 24.504 2.76 9.834 5.89 20.981 6.936 31.45 1.566 15.664 1.973 16.653 3.49 20.334a89.145 89.145 0 0 1 2.401 6.426c3.207 9.621 4.89 21.051 7.22 36.871.49 3.337 1.011 6.874 1.582 10.638.965 6.366 1.93 13.03 2.868 19.501 2.211 15.266 4.3 29.685 5.813 36.119 1.99 8.458 1.38 11.839.454 16.955a174.23 174.23 0 0 0-.426 2.42c-1.11 6.659-22.608 65.428-23.523 67.927a2.182 2.182 0 0 1-2.046 1.429z"/><path id="m" d="M11.323 41.778a1.634 1.634 0 0 1-1.569-2.094c.028-2.565-4.937-21.168-9.69-37.595a1.634 1.634 0 0 1 3.14-.908c6.638 22.952 8.88 32.444 9.522 36.52l6.517-2.99a1.634 1.634 0 0 1 1.362 2.97l-8.603 3.949a1.62 1.62 0 0 1-.68.148z"/><path id="n" d="M23.6 52.044a2.18 2.18 0 0 1-1.777-3.436c17.84-25.247 8.2-36.752 7.781-37.229-.024-.028-.063-.073-.086-.102-3.546-4.478-7.46-6.805-11.636-6.916-7.638-.183-14.004 6.929-14.067 7.001A2.179 2.179 0 0 1 .538 8.49C.85 8.134 8.281-.235 17.968.005c5.522.136 10.545 3.003 14.93 8.522 1.065 1.23 11.984 14.997-7.519 42.596-.424.6-1.096.921-1.78.921z"/><path id="o" d="M23.238 47.196a2.178 2.178 0 0 1-.996-4.117c9.305-4.774 15.086-10.365 16.718-16.17 1.42-5.056-.701-8.61-.792-8.76a2.623 2.623 0 0 1-.134-.25C28.18-3.776 4.094 6.751 3.074 7.21a2.182 2.182 0 0 1-2.88-1.09A2.177 2.177 0 0 1 1.28 3.24c.289-.132 28.98-12.76 40.67 12.746.53.918 2.967 5.632 1.243 11.961-1.95 7.158-8.33 13.553-18.962 19.008-.32.163-.658.24-.993.24z"/><path id="p" d="M22.846 51.237a2.18 2.18 0 0 1-.41-4.318c14.152-2.724 14.533-9.04 15.06-17.78.112-1.854.227-3.774.482-5.745 1.174-9.098-1.165-15.738-16.394-18.578C8.176 2.317 4.206 10.806 4.168 10.89A2.178 2.178 0 1 1 .19 9.11C.244 8.991 5.636-2.588 22.38.532c15.493 2.887 21.635 10.11 19.917 23.418-.235 1.825-.346 3.668-.454 5.451-.546 9.062-1.112 18.431-18.584 21.795-.138.027-.277.04-.414.04z"/><path id="q" d="M23.603 52.384a2.178 2.178 0 0 1-1.393-3.855c9.933-8.248 15.31-16.913 15.553-25.054.228-7.671-4.036-13.317-7.653-16.703-1.856-1.737-3.99-2.537-6.544-2.404C14.382 4.8 3.915 16.51 3.81 16.627A2.178 2.178 0 1 1 .548 13.74C1.025 13.201 12.36.531 23.362.015c3.73-.165 7.004 1.029 9.727 3.576 6.126 5.735 9.248 12.656 9.03 20.013-.284 9.563-6.045 19.076-17.124 28.278a2.18 2.18 0 0 1-1.392.502z"/><path id="r" d="M2.176 146.203a2.176 2.176 0 0 1-1.889-3.259c.272-.477 6.786-11.793 17.196-22.751C28.239 108.874 63.148 59.728 80.496 1.556a2.178 2.178 0 0 1 4.175 1.245c-17.576 58.935-53.084 108.872-64.03 120.394-10.03 10.559-16.507 21.799-16.571 21.911a2.18 2.18 0 0 1-1.894 1.097z"/><path id="s" d="M5.508 23.144a.545.545 0 0 1-.082-1.083c.077-.012 7.667-1.22 7.35-5.02-.037-.451-.981-11.112-6.247-14.786C4.847 1.083 2.882.791.689 1.4A.546.546 0 0 1 .4.349c2.52-.693 4.793-.353 6.752 1.013 5.68 3.964 6.67 15.117 6.71 15.591.4 4.808-7.917 6.13-8.271 6.186a.767.767 0 0 1-.082.005z"/><path id="t" d="M21.626 13.484a.544.544 0 0 1-.467-.265C17.006 6.294.701 5.988.537 5.985a.547.547 0 0 1-.46-.824C4.221-1.792 11.178.286 11.248.307 21.275 2.162 22.162 12.79 22.17 12.899a.542.542 0 0 1-.544.585zm-20.1-8.555c3.343.155 14.238 1.039 19.19 5.985-.759-2.997-3.036-8.31-9.73-9.55-.302-.09-5.752-1.69-9.46 3.565z"/><path id="u" d="M.545 17.998a.546.546 0 0 1-.322-.983c.072-.053 7.222-5.4 9.95-16.6a.546.546 0 0 1 1.06.258C8.404 12.28 1.172 17.67.865 17.893a.545.545 0 0 1-.32.105z"/><path id="v" d="M3.681 5.068c-1.236 0-2.407-.238-3.413-.831a.545.545 0 0 1 .553-.94c4.476 2.637 13.46-3.15 13.55-3.21a.544.544 0 1 1 .595.912c-.314.207-6.314 4.069-11.285 4.069z"/><path id="w" d="M.544 3.447a.544.544 0 0 1-.354-.958C4.141-.898 12.258.139 12.6.184a.546.546 0 0 1-.145 1.08C12.375 1.254 4.48.248.899 3.318a.544.544 0 0 1-.354.13z"/><path id="x" d="M0 0h147.042v262.913H0V0z"/><path id="y" d="M0 0h152.408v271.544H0V0z"/><path id="A" d="M83.7 42.072c0 23.235-18.737 42.071-41.85 42.071C18.737 84.143 0 65.307 0 42.072 0 18.836 18.737 0 41.85 0 64.963 0 83.7 18.836 83.7 42.072z"/><path id="B" d="M110.192 55.388c0 30.59-24.667 55.388-55.096 55.388C24.667 110.776 0 85.978 0 55.388S24.667 0 55.096 0c30.429 0 55.096 24.798 55.096 55.388z"/><path id="C" d="M57.592 28.948c0 15.988-12.893 28.949-28.796 28.949C12.892 57.897 0 44.937 0 28.948 0 12.961 12.892 0 28.796 0c15.903 0 28.796 12.96 28.796 28.948z"/><path id="D" fill-rule="evenodd" d="M17.01 1.648H3.292c-.909 0-1.646.738-1.646 1.649V32.31c0 .91.737 1.648 1.646 1.648H17.01c.91 0 1.646-.738 1.646-1.648V3.297c0-.91-.736-1.649-1.646-1.649zM3.292 0A3.295 3.295 0 0 0 0 3.297V32.31a3.295 3.295 0 0 0 3.292 3.296H17.01a3.295 3.295 0 0 0 3.293-3.296V3.297A3.295 3.295 0 0 0 17.01 0H3.292z"/><path id="E" d="M0 0h10.097v7.803H0V0z"/><path id="F" fill-rule="evenodd" d="M9.109 1.648H3.292c-.909 0-1.646.738-1.646 1.649v2.967A2.746 2.746 0 0 0 4.39 9.012h3.62a2.745 2.745 0 0 0 2.744-2.748V3.297c0-.91-.737-1.649-1.646-1.649zM3.292 0A3.295 3.295 0 0 0 0 3.297v2.967a4.393 4.393 0 0 0 4.39 4.396h3.62a4.393 4.393 0 0 0 4.39-4.396V4.945h1.427v1.32a4.393 4.393 0 0 0 4.39 4.395h3.621a4.393 4.393 0 0 0 4.39-4.396V3.297A3.295 3.295 0 0 0 22.936 0H17.12a3.295 3.295 0 0 0-3.292 3.297H12.4A3.295 3.295 0 0 0 9.11 0H3.292zm19.645 1.648H17.12c-.909 0-1.646.738-1.646 1.649v2.967a2.746 2.746 0 0 0 2.744 2.748h3.621a2.745 2.745 0 0 0 2.744-2.748V3.297c0-.91-.737-1.649-1.646-1.649z"/><path id="G" fill-rule="evenodd" d="M18.547 3.956H0V0h18.547v3.956z"/><path id="H" d="M0 .495C0 .22.221 0 .494 0h4.5a.494.494 0 0 1 0 .99h-4.5A.494.494 0 0 1 0 .494z"/><path id="I" d="M11.907 0c.878 0 1.39.366 1.537.55v2.747c-.22.86-1.614 2.582-5.433 2.582S1.08 3.535 0 2.363c.805.311 2.908.934 4.884.934C7.353 3.297 10.81 0 11.907 0z"/><path id="J" d="M0 0h17.888v2.158H0V0z"/><path id="K" d="M0 0h122.714v17.983a3.587 3.587 0 0 1-3.578 3.597H3.578A3.587 3.587 0 0 1 0 17.983V0z"/><path id="M" d="M.716.72V0H0v.72h.716zm122.713 0h.716V0h-.716v.72zM.716 1.438h122.713V0H.716v1.439zm121.998-.72v17.983h1.431V.72h-1.431zm-2.862 20.86H4.293v1.44h115.559v-1.44zM1.432 18.703V.72H0v17.983h1.431zm2.861 2.878a2.87 2.87 0 0 1-2.862-2.878H0c0 2.384 1.922 4.316 4.293 4.316V21.58zm118.421-2.878a2.87 2.87 0 0 1-2.862 2.878v1.438c2.371 0 4.293-1.932 4.293-4.316h-1.431z"/><path id="N" d="M0 3.597A3.587 3.587 0 0 1 3.578 0h115.558a3.587 3.587 0 0 1 3.578 3.597V21.58H0V3.597z"/><path id="P" d="M123.429 22.299v.72h.716v-.72h-.716zm-122.713 0H0v.72h.716v-.72zm3.577-20.86h115.559V0H4.293v1.439zm118.421 2.877v17.983h1.431V4.316h-1.431zm.715 17.264H.716v1.438h122.713V21.58zm-121.998.719V4.316H0v17.983h1.431zm118.421-20.86a2.87 2.87 0 0 1 2.862 2.877h1.431c0-2.384-1.922-4.316-4.293-4.316v1.439zM4.293 0C1.923 0 0 1.932 0 4.316h1.431a2.87 2.87 0 0 1 2.862-2.877V0z"/><path id="Q" d="M0 3.597A3.587 3.587 0 0 1 3.578 0h115.558a3.587 3.587 0 0 1 3.578 3.597V21.58a3.587 3.587 0 0 1-3.578 3.596H3.578A3.587 3.587 0 0 1 0 21.58V3.597z"/><path id="S" d="M3.454 4.694c.295.863.443 1.32.57 1.874h.02c.149-.564.339-1.16.603-1.895L6.294 0h1.193l.59 7.664h-.939L6.853 3.14a45.34 45.34 0 0 1-.095-2.076h-.021c-.074.33-.412 1.416-.613 1.96l-1.679 4.64H3.59L1.932 3.012c-.2-.564-.528-1.532-.623-1.948h-.021c0 .416-.042 1.47-.085 2.119L.908 7.664H0L.633 0h1.204l1.617 4.694z"/><path id="T" d="M2.418 5.685C1.098 5.685 0 4.801 0 2.865 0 .904 1.119 0 2.46 0c1.32 0 2.418.884 2.418 2.82 0 1.96-1.12 2.865-2.46 2.865zM2.44.735c-.844 0-1.53.607-1.53 2.119 0 1.511.686 2.118 1.53 2.118s1.53-.607 1.53-2.118c0-1.512-.686-2.12-1.53-2.12z"/><path id="U" d="M.897 3.3c.496-.521 1.13-.862 1.858-.862 1.225 0 2.123.98 2.123 2.725 0 1.895-1.066 2.8-2.366 2.8C1.034 7.963 0 6.792 0 4.13 0 1.17 1.288.107 2.988.107 3.59.107 4.043.096 4.328 0v.84c-.306.086-.802.107-1.34.107C1.838.96 1.066 1.534.897 3.3zm.01.735v.096c0 2.278.645 3.108 1.616 3.108.803 0 1.457-.574 1.457-2 0-1.363-.592-2.013-1.468-2.013-.591 0-1.13.308-1.604.809z"/><path id="V" d="M4.476 5.43h-.844V1.383L.802 5.429H0V0h.844v4.046L3.674 0h.802v5.43z"/><path id="W" d="M5.28 0v5.43h-.9V.745H2.397C2.313 4.46 1.911 5.493.349 5.493c-.159 0-.275-.01-.349-.021v-.723c.074.01.169.02.275.02 1.119 0 1.182-1.33 1.298-4.768H5.28V0z"/><path id="X" d="M0 5.43V0h.908v2.065h1.414c1.256 0 2.006.554 2.006 1.682S3.558 5.43 2.27 5.43H0zm2.186-.672c.834 0 1.235-.309 1.235-1 0-.692-.402-1-1.235-1H.908v2.001h1.278z"/><path id="Y" d="M3.548 2.938H.908v2.491H0V0h.908v2.204h2.64V0h.907v5.43h-.907V2.937z"/><path id="Z" d="M0 5.43V0h.908v2.065h1.414c1.256 0 2.006.554 2.006 1.682S3.558 5.43 2.27 5.43H0zm2.186-.672c.834 0 1.235-.309 1.235-1 0-.692-.402-1-1.235-1H.908v2.001h1.278zM5.586 0h.887v5.43h-.888V0z"/><path id="aa" d="M4.475 7.665h-.844V3.62L.801 7.665H0v-5.43h.844v4.046l2.83-4.045h.801v5.43zM3.135 0h.685c0 .936-.485 1.533-1.583 1.533C1.138 1.533.653.936.653 0h.686c0 .565.243.98.898.98s.898-.415.898-.98z"/><path id="ab" d="M3.536 5.493l-.918-1.575c-.369-.629-.623-.894-1.372-.894H.908v2.47H0V.063h.908v2.278h.338c.517 0 .665-.138.844-.458l.454-.83C2.934.33 3.22 0 4.202 0v.735c-.529 0-.666.148-.845.468l-.454.83c-.147.277-.306.48-.602.618.56.17.844.5 1.161 1.032l1.056 1.81h-.982z"/><path id="ac" d="M.539 1.31L.306.586C.887.266 1.626 0 2.471 0c1.13 0 1.816.48 1.816 1.831v2.492c0 .83.053 1.096.106 1.234h-.856c-.053-.096-.106-.266-.127-.682-.465.5-1.087.81-1.784.81C.686 5.685 0 5.12 0 4.035c0-1.161.782-1.82 2.523-1.82.222 0 .496.01.877.063v-.372c0-.84-.37-1.15-1.099-1.15-.623 0-1.193.224-1.762.554zm2.86 2.906V2.917a4.986 4.986 0 0 0-.823-.073c-1.246 0-1.69.372-1.69 1.096 0 .682.391 1.022.982 1.022.581 0 1.12-.341 1.532-.746z"/><path id="ad" d="M3.758 1.234c-.422-.31-.791-.48-1.256-.48-.908 0-1.594.66-1.594 2.098 0 1.426.676 2.087 1.615 2.087.486 0 .887-.17 1.256-.458l.232.702c-.411.31-.96.501-1.604.501C1.013 5.684 0 4.78 0 2.906 0 .99 1.055 0 2.512 0 3.136 0 3.6.181 3.99.469l-.232.765z"/><path id="ae" d="M3.758 1.234c-.422-.31-.791-.48-1.256-.48-.908 0-1.594.66-1.594 2.098 0 1.426.676 2.087 1.615 2.087.486 0 .887-.17 1.256-.458l.232.702c-.411.31-.96.501-1.604.501C1.013 5.684 0 4.78 0 2.906 0 .99 1.055 0 2.512 0 3.136 0 3.6.181 3.99.469l-.232.765z"/><path id="af" d="M4.475 5.43h-.844V1.383L.801 5.429H0V0h.844v4.046L3.674 0h.801v5.43z"/><path id="ag" d="M.908.128v.767C1.372.34 1.963 0 2.67 0c1.203 0 2.08.97 2.08 2.79 0 1.904-.96 2.895-2.207 2.895-.643 0-1.172-.266-1.636-.81v2.917H0V.128h.908zm0 1.49v2.544c.433.5.939.767 1.488.767.866 0 1.447-.66 1.447-2.076 0-1.395-.56-2.054-1.404-2.054-.571 0-1.077.308-1.531.82z"/><path id="ah" d="M.218 4.178c1.059 0 1.31-.627 1.396-2.095L1.7.633h1.248v3.51h.721V0H1.042L.916 1.997C.847 3.102.72 3.567.155 3.567A1.23 1.23 0 0 1 0 3.557v.61c.046.005.114.01.218.01zm4.863-1.49c0-.72.298-1.002.664-1.002.366 0 .664.282.664 1.001 0 .72-.298 1.002-.664 1.002-.366 0-.664-.282-.664-1.002zm2.038-.024c0-1.047-.624-1.525-1.363-1.525-.75 0-1.385.49-1.385 1.548 0 1.048.624 1.525 1.362 1.525.75 0 1.386-.489 1.386-1.548zm.616-1.456v2.935h.71V1.761H9.64v-.553H7.735zm4.968 0h-.63L10.791 3.12V1.21h-.658v2.934h.63l1.282-1.91v1.91h.658V1.208zm2.627 2.935h.71V1.208h-.71v1.134h-1.128V1.208h-.71v2.935h.71V2.89h1.128v1.254z"/><path id="ai" d="M0 4.143h.721V.633h1.677v3.51h.722V0H0v4.143zM5.048 1.71c.355 0 .538.144.538.53v.115a2.616 2.616 0 0 0-.435-.035c-.927 0-1.322.368-1.322.984 0 .593.366.91.87.91.343 0 .64-.145.893-.403.017.207.046.287.074.333h.67c-.029-.069-.057-.201-.057-.667V2.18c0-.783-.413-1.042-1.082-1.042-.47 0-.882.127-1.208.288l.149.541c.303-.15.6-.259.91-.259zm-.109 1.962c-.252 0-.418-.138-.418-.437 0-.316.19-.478.693-.478.137 0 .223.012.372.035v.587c-.177.167-.412.293-.647.293zm2.08-2.463v4.144h.71V3.798c.235.276.498.414.824.414.653 0 1.168-.546 1.168-1.576 0-.956-.447-1.497-1.1-1.497-.354 0-.646.162-.892.455v-.386h-.71zm1.368.541c.36 0 .624.288.624.944 0 .656-.263.95-.647.95-.223 0-.435-.104-.635-.317V2.09c.217-.225.43-.34.658-.34zm2.507.938c0-.719.298-1 .664-1 .367 0 .664.281.664 1 0 .72-.297 1.002-.664 1.002-.366 0-.664-.282-.664-1.002zm2.038-.023c0-1.047-.624-1.525-1.362-1.525-.75 0-1.385.49-1.385 1.548 0 1.048.623 1.525 1.362 1.525.75 0 1.385-.489 1.385-1.548zm.932-1.456c-.045 1.779-.108 2.44-.63 2.44-.045 0-.102-.005-.142-.011v.53c.051.005.131.01.223.01.876 0 1.133-.506 1.18-2.416h.846v2.382h.71V1.208h-2.186zm3.675 2.458v-.904h.538c.384 0 .567.144.567.45 0 .31-.183.454-.567.454h-.538zm.63.477c.732 0 1.173-.31 1.173-.938 0-.633-.423-.943-1.133-.943h-.67V1.208h-.698v2.935h1.328z"/><path id="aj" d="M0 0h1.798c1.16 0 1.836.476 1.836 1.468 0 .633-.28 1.047-.848 1.258.747.195 1.082.695 1.082 1.382 0 .945-.623 1.516-1.953 1.516H0V0zm1.75 2.49c.81 0 1.214-.296 1.214-.96 0-.663-.404-.952-1.214-.952H.677V2.49H1.75zm.164 2.571c.864 0 1.284-.312 1.284-1.016 0-.702-.42-1.007-1.284-1.007H.677V5.06h1.237z"/><path id="ak" d="M2.342 5.811C.996 5.811 0 4.811 0 2.921 0 1.015 1.012 0 2.373 0 3.72 0 4.716 1 4.716 2.89c0 1.906-1.011 2.921-2.374 2.921zM2.358.61C1.362.61.684 1.328.684 2.914c0 1.585.677 2.303 1.674 2.303.996 0 1.673-.718 1.673-2.303C4.031 1.327 3.354.61 2.358.61z"/><path id="al" d="M4.108 7.1h-.653V2.67L.622 7.1H0V1.476h.653v4.436l2.833-4.436h.622V7.1zM.887 0h.505c0 .36.172.61.662.61.49 0 .662-.25.662-.61h.506c0 .632-.358 1.015-1.167 1.015C1.245 1.015.887.632.887 0z"/><path id="am" d="M1.634.61H0V0h3.953v.61H2.32v5.014h-.685V.61z"/><path id="an" d="M4.108 5.623h-.653V1.195L.622 5.623H0V0h.653v4.436L3.486 0h.622v5.623z"/><path id="ao" d="M1.037 1.596c.461 0 .851-.178.851-.622 0-.405-.32-.588-.706-.588-.34 0-.626.138-.896.336L.15.352C.43.147.811 0 1.222 0c.61 0 1.107.321 1.107.92 0 .434-.261.72-.682.85.476.143.732.474.732.904 0 .598-.486 1.004-1.262 1.004A2.24 2.24 0 0 1 0 3.38l.125-.386c.286.173.621.307.997.307.516 0 .817-.257.817-.658 0-.434-.351-.687-.937-.687h-.31v-.36h.345z"/><path id="ap" d="M.256.608L.146.272A2.17 2.17 0 0 1 1.171 0c.536 0 .862.223.862.85v1.157c0 .386.025.509.05.573h-.406c-.025-.044-.05-.124-.06-.316a1.16 1.16 0 0 1-.847.375C.326 2.64 0 2.377 0 1.873c0-.539.37-.845 1.197-.845.105 0 .235.005.416.03V.885c0-.39-.176-.534-.521-.534-.296 0-.566.104-.836.257zm1.357 1.35v-.603a2.416 2.416 0 0 0-.391-.035c-.591 0-.801.173-.801.51 0 .316.185.474.465.474.276 0 .532-.159.727-.347z"/><path id="aq" d="M.426 1.532c.235-.242.535-.4.881-.4.581 0 1.007.455 1.007 1.265 0 .88-.506 1.3-1.122 1.3C.49 3.697 0 3.153 0 1.917 0 .544.611.05 1.417.05c.286 0 .501-.004.636-.049v.39c-.145.04-.38.05-.636.05C.871.445.506.712.426 1.532zm.004.341v.045c0 1.058.306 1.443.766 1.443.381 0 .692-.267.692-.929 0-.632-.281-.934-.697-.934-.28 0-.535.143-.76.375z"/><path id="ar" d="M0 2.52V0h.43v.959h.672c.596 0 .951.257.951.78 0 .525-.365.782-.976.782H0zm1.037-.31c.396 0 .586-.144.586-.465 0-.322-.19-.465-.586-.465H.43v.93h.606zM2.649 0h.421v2.52h-.42V0z"/><path id="as" d="M2.504 0v2.52h-.426V.347h-.94C1.097 2.071.906 2.55.164 2.55a1.19 1.19 0 0 1-.165-.01v-.335c.035.005.08.01.13.01C.66 2.215.69 1.597.745 0h1.758z"/><path id="at" d="M2.123 2.52h-.4V.643L.38 2.521H0V0h.4v1.878L1.743 0h.38v2.52z"/><path id="au" d="M1.613.346H.43v2.175H0V0h2.043v2.52h-.43V.347z"/><path id="av" d="M.256.608L.146.272A2.17 2.17 0 0 1 1.171 0c.536 0 .862.223.862.85v1.157c0 .386.025.509.05.573h-.406c-.025-.044-.05-.124-.06-.316a1.16 1.16 0 0 1-.847.375C.326 2.64 0 2.377 0 1.873c0-.539.37-.845 1.197-.845.105 0 .235.005.416.03V.885c0-.39-.176-.534-.521-.534-.296 0-.566.104-.836.257zm1.357 1.35v-.603a2.416 2.416 0 0 0-.391-.035c-.591 0-.801.173-.801.51 0 .316.185.474.465.474.276 0 .531-.159.727-.347z"/><path id="aw" d="M.43.06v.355C.652.158.932 0 1.268 0c.57 0 .987.45.987 1.295 0 .885-.456 1.344-1.047 1.344-.305 0-.556-.123-.776-.375v1.354H0V.059h.43zm0 .691v1.181c.206.233.446.356.707.356.41 0 .686-.306.686-.964 0-.647-.265-.953-.666-.953-.27 0-.511.143-.726.38z"/><path id="ax" d="M1.147 2.64C.521 2.64 0 2.228 0 1.33 0 .42.53 0 1.167 0c.626 0 1.147.41 1.147 1.31 0 .91-.53 1.33-1.167 1.33zm.01-2.3c-.4 0-.726.282-.726.984s.326.984.726.984c.4 0 .726-.282.726-.984S1.558.34 1.157.34z"/><path id="ay" d="M2.504 0v2.52h-.426V.347h-.94C1.097 2.071.906 2.55.164 2.55a1.19 1.19 0 0 1-.165-.01v-.335c.035.005.08.01.13.01C.66 2.215.69 1.597.745 0h1.758z"/><path id="az" d="M0 2.52V0h.43v.959h.672c.596 0 .951.257.951.78 0 .525-.365.782-.976.782H0zm1.037-.31c.395 0 .585-.144.585-.465 0-.322-.19-.465-.585-.465H.43v.93h.606z"/><path id="aA" d="M.476.356c-.12 0-.29.015-.476.07V.078C.185.025.38 0 .56 0c.622 0 1.088.297 1.088.87 0 .85-1.012.949-1.012 1.577a.79.79 0 0 0 .02.172H.31a1.3 1.3 0 0 1-.03-.252c0-.686.942-.795.942-1.448C1.222.534.897.356.476.356zM.77 3.41c0 .149-.115.268-.28.268-.166 0-.28-.12-.28-.268 0-.147.115-.266.28-.266.165 0 .28.118.28.266z"/><path id="aB" d="M1.065 2.322c0-1.079.446-1.502.996-1.502s.996.423.996 1.502-.447 1.502-.996 1.502c-.55 0-.996-.423-.996-1.502zm3.056-.035C4.121.717 3.186 0 2.078 0 .953 0 0 .734 0 2.322c0 1.571.936 2.287 2.044 2.287 1.124 0 2.077-.733 2.077-2.322zM4.616.932h1.451v3.574h1.065V.932h1.451V.104H4.616v.828z"/><path id="aC" d="M0 5.938C0 2.764 1.78.717 5.044.717c1.435 0 2.325.307 2.918.563l-.445 1.177c-.791-.256-1.335-.46-2.473-.46-1.978 0-3.51 1.075-3.51 3.788 0 2.764 1.631 3.942 3.807 3.942.94 0 1.632-.154 2.275-.359l.346 1.178c-.742.307-1.533.512-2.868.512C1.73 11.108 0 9.06 0 5.938zm14.54 1.178c0-1.229-.495-2.202-1.88-2.202-.89 0-1.582.308-2.274.666l-.05.87c0 2.304.692 3.379 2.077 3.379 1.632 0 2.127-1.382 2.127-2.713zm-5.59-.512c0-1.587.297-4.096 1.187-4.915C10.88.973 12.958.461 15.331 0l.247 1.331c-2.126.358-4.006.717-4.45 1.177-.396.41-.594 1.331-.693 1.997.643-.358 1.533-.717 2.572-.717 1.83 0 2.967.922 2.967 3.277 0 2.764-1.583 3.993-3.66 3.993S8.951 9.727 8.951 6.604zm13.205-.256c0-1.382-.495-2.253-1.583-2.253-.989 0-1.73.768-1.83 2.253h3.413zm-4.946.819c0-3.072 1.533-4.198 3.462-4.198 2.127 0 3.017 1.382 3.017 3.89v.513h-4.995c0 2.047 1.137 2.457 2.473 2.457.741 0 1.335-.102 2.077-.358l.247 1.126c-.692.256-1.583.41-2.572.41-2.275.102-3.709-.82-3.709-3.84z"/><path id="aD" d="M5.242 6.911c0-1.382-.494-2.662-1.929-2.662-.79 0-1.384.358-1.78.563v4.915c.198.05.791.153 1.286.153 1.73 0 2.423-1.228 2.423-2.969zM.05 3.174h1.435v.614c.643-.46 1.236-.819 2.176-.819 1.78 0 3.016 1.28 3.016 3.84 0 3.174-1.83 4.249-3.907 4.249-.494 0-.989-.052-1.335-.103v3.072H0V3.174h.05zm13.502 3.942c0-1.229-.495-2.202-1.88-2.202-.89 0-1.582.308-2.275.666l-.05.87c0 2.304.693 3.379 2.078 3.379 1.681 0 2.127-1.382 2.127-2.713zm-5.589-.512c0-1.587.297-4.096 1.187-4.915C9.891.973 11.968.461 14.342 0l.247 1.331c-2.126.358-4.006.717-4.45 1.177-.396.41-.594 1.331-.693 1.997.643-.358 1.533-.717 2.572-.717 1.83 0 2.967.922 2.967 3.277 0 2.764-1.583 3.993-3.66 3.993S7.962 9.727 7.962 6.604zm12.66 2.56V7.371l-1.631.051c-1.039.051-1.632.46-1.632 1.28 0 .768.544 1.126 1.285 1.126.693.051 1.435-.307 1.979-.666zm-4.698-.359c0-1.945 1.682-2.355 3.017-2.355l1.682-.05v-.82c0-1.075-.544-1.331-1.632-1.331-.792 0-1.484.154-2.127.358l-.297-1.126c.693-.307 1.583-.512 2.67-.512 1.83 0 2.82.666 2.82 2.253v3.993c0 .46.395.563.791.614l-.099 1.126-.297.051c-.79 0-1.533-.255-1.681-.921-.495.358-1.236.973-2.473.973-1.434 0-2.374-.82-2.374-2.253z"/><path id="aE" d="M4.698 6.194V4.403l-1.632.05c-1.038.052-1.632.461-1.632 1.28 0 .768.544 1.127 1.286 1.127.692.051 1.434-.307 1.978-.666zM0 5.836c0-1.945 1.681-2.355 3.017-2.355l1.681-.051v-.82c0-1.074-.544-1.33-1.632-1.33-.791 0-1.483.153-2.126.358L.643.512C1.335.205 2.225 0 3.313 0c1.83 0 2.82.666 2.82 2.252v3.994c0 .46.395.563.79.614l-.098 1.126-.297.051c-.791 0-1.533-.256-1.681-.921-.495.358-1.237.972-2.473.972C.94 8.088 0 7.27 0 5.836z"/><path id="aF" d="M0 .051h1.484v3.277h3.56V.05h1.484v7.73H5.044V4.505h-3.56V7.78H0V.051zm11.968 6.4L9.792 3.787 12.809 0h1.632l-3.116 3.686 1.533 1.69c.693.767 1.286 1.228 1.88 1.381l-.248 1.127c-.643 0-1.483-.154-2.522-1.434zM8.308.05h1.484v7.781H8.308V.052z"/></defs></svg>