<svg width="119" height="51" viewBox="0 0 119 51" xmlns="http://www.w3.org/2000/svg" xmlns:xlink="http://www.w3.org/1999/xlink"><title>Page 1</title><desc>Created using Figma</desc><use xlink:href="#a" transform="translate(59.74 14.694)" fill="#F9A61A"/><use xlink:href="#b" transform="translate(66.57 3.901)" fill="#F9A61A"/><use xlink:href="#c" transform="translate(92.28 14.694)" fill="#F9A61A"/><use xlink:href="#d" transform="translate(87.56 3.901)" fill="#F9A61A"/><use xlink:href="#e" transform="translate(78.05)" fill="#F9A61A"/><use xlink:href="#f" transform="translate(21.31 27.317)" fill="#009E4D"/><use xlink:href="#g" transform="translate(43.51 27.317)" fill="#009E4D"/><use xlink:href="#h" transform="translate(0 27.439)" fill="#009E4D"/><g transform="translate(4533 -202)"><mask id="j"><use xlink:href="#i" transform="translate(-4435.56 229.439)" fill="#FFF"/></mask><g mask="url(#j)"><use xlink:href="#k" transform="translate(-4435.56 229.439)" fill="#009E4D"/></g></g><use xlink:href="#l" transform="translate(66.71 22.13)" fill="#F9A61A"/><defs><path id="a" fill-rule="evenodd" d="M.488.556c-1.325 1.39.148 4.438 3.229 6.518 3.414 2.3 6.618 2.86 6.685 2.892.095.04-.979-3.511-3.227-6.517C5.555 1.283 3.452 0 1.915 0 1.344 0 .849.178.489.556z"/><path id="b" fill-rule="evenodd" d="M1.083.105C-.741.866-.211 5.313 2.298 9.662c2.779 4.814 5.909 7.49 5.97 7.569.082.105.132-4.667-1.212-9.556C5.846 3.285 3.416 0 1.61 0c-.184 0-.36.034-.528.105z"/><path id="c" fill-rule="evenodd" d="M3.233 3.449C.985 6.455-.09 10.006.006 9.966c.068-.032 3.27-.593 6.686-2.892 3.08-2.08 4.554-5.127 3.229-6.518C9.559.178 9.065 0 8.493 0c-1.537 0-3.64 1.283-5.26 3.449z"/><path id="d" fill-rule="evenodd" d="M1.248 7.676C-.097 12.565-.048 17.335.036 17.23c.06-.078 3.19-2.755 5.97-7.568C8.514 5.312 9.043.865 7.218.105A1.355 1.355 0 0 0 6.692 0C4.887 0 2.456 3.285 1.248 7.676z"/><path id="e" fill-rule="evenodd" d="M2.671 0C.7.018-.49 4.629.195 9.94c.76 5.881 2.653 9.788 2.68 9.89.035.138 1.88-4.564 2.478-9.941C5.943 4.579 4.657 0 2.683 0h-.012z"/><path id="f" fill-rule="evenodd" d="M3.51 20.953c-.87 0-1.74-.058-2.55-.718C0 19.428 0 18.59 0 17.602V3.234C0 2.427.119 1.557.9.84S2.7 0 3.452 0h15.093v5.09H8.162c-.39 0-.811.09-1.05.3-.332.267-.332.747-.332 1.017v1.586h11.464v4.55H6.78v2.273c0 .422.152.66.302.78.331.3.87.27 1.29.27h10.26v5.087H3.512z"/><path id="g" fill-rule="evenodd" d="M15.033 20.953L8.67 12.841c-.51-.659-1.23-1.704-1.23-2.603 0-.778.512-1.707.962-2.335L14.043 0h8.042l-7.293 8.65c-.78.928-.868 1.378-.868 1.558 0 .688.66 1.406 1.109 1.886l8.163 8.86h-8.163zM0 20.953h6.782V0H0v20.953z"/><path id="h" fill-rule="evenodd" d="M3.14 20.488c-.792 0-1.672-.175-2.23-.643-.47-.382-.91-1.141-.91-1.991V0h6.632v14.137c0 .234.03.731.321.995.266.235.704.263 1.056.263h10.653v5.093H3.14z"/><path id="i" fill-rule="evenodd" d="M21.097 20.489V0H0v20.489h21.097z"/><path id="k" fill-rule="evenodd" d="M0 3.923C0 2.987.06 1.816.792.996 1.556.146 2.76 0 3.551 0H14.73c1.29 0 3.55 0 4.901 1.99.88 1.318 1.056 3.132 1.056 4.685 0 .935-.059 3.365-.763 5.033-.762 1.816-2.23 2.546-3.815 2.546h-.88v.117l5.868 6.118h-7.981l-3.96-5.328c-.676-.906-1.41-1.784-1.41-2.78v-.438c0-1.375 1.262-2.314 2.963-2.314h1.057c.586 0 1.38-.056 1.848-.614.323-.408.441-1.17.441-1.697 0-1.113-.352-1.58-.499-1.728-.499-.526-1.232-.496-1.849-.496H8.041c-.382 0-.735.028-1.028.32-.41.383-.383.791-.383 1.289v13.786H0V3.923z"/><path id="l" fill-rule="evenodd" d="M10.775.412C3.185 2.276-1.454 9.922.413 17.492c1.865 7.571 9.532 12.2 17.122 10.337 7.589-1.863 12.228-9.509 10.362-17.081C26.308 4.31 20.527 0 14.166 0c-1.12 0-2.256.134-3.391.412zm-2 21.405c-2.781-1.125-5.06-3.943-5.348-7.286-.291-3.199 1.014-6.517 3.547-8.721 2.517-2.218 6.017-3.077 9.115-2.34 2.917.617 5.584 2.442 7.068 4.814a12.129 12.129 0 0 1 1.554 3.599c.3 1.165.482 2.412.419 3.63-.099 2.439-1.078 4.589-2.296 6.113-2.503 3.07-5.567 4.147-7.678 4.292-1.073.066-1.94-.149-2.45-.447-.522-.302-.666-.62-.58-.759.192-.292 1.106-.071 2.645-.709 1.495-.598 3.713-1.993 5.146-4.406.704-1.195 1.129-2.609 1.045-4.114-.083-1.447-.678-3.317-1.635-4.603-.96-1.326-2.446-2.255-4.252-2.603-1.605-.35-3.472.134-4.789 1.303-1.342 1.148-2.046 2.945-1.954 4.543.078 1.495 1.046 2.85 2.327 3.476.613.314 1.39.467 1.992.447a3.171 3.171 0 0 0 1.673-.564c.992-.648 1.479-1.956 1.392-2.901-.082-.964-.779-1.8-1.59-2.14-.86-.373-1.598-.31-2.222.005-1.254.656-1.468 1.819-1.838 1.782-.16 0-.361-.269-.4-.86-.026-.576.149-1.532.993-2.43a4.187 4.187 0 0 1 1.748-1.086c.76-.248 1.6-.275 2.47-.113 1.742.308 3.683 1.739 4.312 4.092.301 1.186.261 2.389-.101 3.592a7.11 7.11 0 0 1-2.116 3.27 7.352 7.352 0 0 1-3.88 1.74 8.605 8.605 0 0 1-4.318-.616z"/></defs></svg>