<svg viewBox="0 0 68 42" xmlns="http://www.w3.org/2000/svg"><title>Group 24</title><g fill="none" fill-rule="evenodd"><path fill="#F9B030" d="M47.246 41.49l1.042-.027 1.028-.075 1.008-.13 1.002-.178.974-.226.961-.274.94-.322.92-.363.898-.41.873-.445.844-.493.824-.528.79-.568.763-.603.736-.636.702-.678.674-.705.633-.74.6-.766.565-.794.524-.829.491-.849.443-.876.409-.903.36-.924.32-.946.273-.965.225-.98.177-1.005.13-1.014.075-1.034.026-1.047-.026-1.04-.075-1.027-.13-1.015-.177-.992-.225-.979-.272-.958-.32-.945-.361-.917-.409-.897-.443-.877-.49-.841-.525-.829-.565-.795-.6-.759-.633-.74-.674-.706-.702-.67-.736-.636-.763-.602-.79-.569-.824-.527-.844-.487-.873-.443-.898-.412-.92-.363-.94-.32-.96-.276-.975-.225-1.002-.179-1.008-.13-1.028-.075-1.042-.028-1.035.028-1.029.076-1.008.13-.994.178-.975.225-.96.275-.933.32-.92.364-.892.412-.865.443-.846.487-.817.527-.79.569-.762.602-.73.636-.701.67-.668.707-.633.74-.6.758-.558.795-.524.829-.484.841-.45.877-.402.897-.36.917-.313.945-.273.958-.226.98-.176.99-.13 1.016-.075 1.026-.027 1.04.027 1.048.076 1.034.129 1.014.176 1.005.226.98.273.965.312.946.361.924.403.903.449.876.484.85.524.828.559.794.599.767.633.739.668.705.702.678.729.636.763.603.79.568.816.528.846.493.865.444.892.411.92.363.933.322.96.274.975.226.994.177 1.008.131 1.029.075z"/><path fill="#EA2230" d="M20.23 41.49l1.036-.027 1.028-.075 1.008-.13.995-.178.974-.226.96-.274.934-.322.919-.363.893-.41.865-.445.845-.493.817-.528.79-.568.763-.603.73-.636.7-.678.669-.705.632-.74.6-.766.558-.794.525-.829.484-.849.449-.876.402-.903.36-.924.315-.946.271-.965.226-.98.177-1.005.129-1.014.076-1.034.027-1.047-.027-1.04-.076-1.027-.129-1.015-.177-.992-.226-.979-.271-.958-.314-.945-.361-.917-.402-.897-.45-.877-.483-.841-.525-.829-.558-.795-.6-.759-.632-.74-.668-.706-.702-.67-.73-.636-.762-.602-.79-.569-.817-.527-.845-.487-.865-.443-.893-.412-.919-.363-.933-.32-.96-.276-.975-.225-.995-.179-1.008-.13-1.028-.075-1.035-.028-1.043.028-1.028.076-1.008.13-1.001.178-.975.225-.96.275-.94.32-.92.364-.9.412-.87.443-.846.487-.824.527-.79.569-.763.602-.736.636-.7.67-.676.707-.633.74-.6.758-.564.795-.525.829-.491.841-.442.877-.41.897-.36.917-.32.945-.272.958-.226.98-.177.99-.13 1.016-.073 1.026L0 21.156l.028 1.048.073 1.034.13 1.014.177 1.005.226.98.272.965.32.946.36.924.41.903.442.876.491.85.525.828.564.794.6.767.633.739.675.705.701.678.736.636.763.603.79.568.824.528.845.493.872.444.899.411.92.363.94.322.96.274.975.226 1 .177 1.009.131 1.028.075z"/><path fill="#F9B030" d="M31.374 8.683h10.73V7.58H32.3zm-1.606 2.452h12.335v-1.103h-11.69zm-1.2 2.442h13.535v-1.101H29.045zm-.824 2.453h14.36v-1.103h-14.02zm.476 11.843h13.917V26.77H27.88zm1.029 2.451h12.888v-1.101H28.739zm1.444 2.445h11.444v-1.103H30.006zm1.989 2.451h9.455v-1.11H31.722zM27.26 18.473h14.843v-1.102H27.471zm9.046 6.957h5.66v-1.103h-5.455zm.45-2.445h5.211v-1.109H36.96zm-9.871-1.109h1.472v1.109h-1.403z"/><path fill="#FEFEFE" d="M24.14 20.54l-.095-.006-.095-.014-.09-.014-.088-.012-.081-.014-.089-.015-.088-.013-.095-.013-.096-.015-.108-.006-.124-.007-.129-.007h-.143l-.157.007-.176.013-.198.015-.137.02-.13.02-.114.041-.104.041-.094.048-.088.055-.069.068-.062.062-.04.075-.034.076-.014.082v.083l.02.088.028.089.055.09.068.088.136.13.163.103.191.088.205.076.218.068.224.076.225.082.218.09.204.115.19.145.17.17.144.212.11.261.067.307.028.37-.028.431-.047.323-.082.28-.109.261-.136.226-.157.198-.178.17-.19.152-.21.13-.22.103-.223.089-.232.068-.238.055-.232.041-.226.02-.224.014-.21.008h-.294l-.273-.008h-.238l-.225-.007-.204-.007-.184-.013-.163-.014-.157-.021-.143-.013-.13-.028-.13-.02-.115-.035-.116-.026-.109-.042-.108-.04-.116-.042.306-1.513.06.014.077.02.094.026.117.03.122.025.137.028.15.035.163.027.17.028.177.027.184.02.191.022.198.006.197.007h.197l.198-.007.197-.041.157-.055.123-.075.095-.096.068-.096.054-.11.035-.109.027-.102.013-.2-.06-.17-.116-.137-.17-.117-.205-.103-.238-.102-.266-.096-.266-.11-.273-.123-.258-.144-.239-.179-.217-.21-.17-.26-.123-.309-.062-.369.007-.438.035-.268.047-.253.068-.233.082-.22.109-.204.122-.18.143-.17.17-.15.199-.13.217-.11.246-.102.272-.077.307-.061.334-.048.367-.026.402-.008h.251l.232.008.211.006.19.007.171.013.157.015.137.013.122.014.116.013.095.021.09.013.081.014.068.014.061.007.061.013.055.008z"/><path stroke="#FEFEFE" stroke-width=".03" d="M24.14 20.54l-.095-.006-.095-.014-.09-.014-.088-.012-.081-.014-.089-.015-.088-.013-.095-.013-.096-.015-.108-.006-.124-.007-.129-.007h-.143l-.157.007-.176.013-.198.015-.137.02-.13.02-.114.041-.104.041-.094.048-.088.055-.069.068-.062.062-.04.075-.034.076-.014.082v.083l.02.088.028.089.055.09.068.088.136.13.163.103.191.088.205.076.218.068.224.076.225.082.218.09.204.115.19.145.17.17.144.212.11.261.067.307.028.37-.028.431-.047.323-.082.28-.109.261-.136.226-.157.198-.178.17-.19.152-.21.13-.22.103-.223.089-.232.068-.238.055-.232.041-.226.02-.224.014-.21.008h-.294l-.273-.008h-.238l-.225-.007-.204-.007-.184-.013-.163-.014-.157-.021-.143-.013-.13-.028-.13-.02-.115-.035-.116-.026-.109-.042-.108-.04-.116-.042.306-1.513.06.014.077.02.094.026.117.03.122.025.137.028.15.035.163.027.17.028.177.027.184.02.191.022.198.006.197.007h.197l.198-.007.197-.041.157-.055.123-.075.095-.096.068-.096.054-.11.035-.109.027-.102.013-.2-.06-.17-.116-.137-.17-.117-.205-.103-.238-.102-.266-.096-.266-.11-.273-.123-.258-.144-.239-.179-.217-.21-.17-.26-.123-.309-.062-.369.007-.438.035-.268.047-.253.068-.233.082-.22.109-.204.122-.18.143-.17.17-.15.199-.13.217-.11.246-.102.272-.077.307-.061.334-.048.367-.026.402-.008h.251l.232.008.211.006.19.007.171.013.157.015.137.013.122.014.116.013.095.021.09.013.081.014.068.014.061.007.061.013.055.008-.348 1.546"/><path fill="#FEFEFE" d="M25.755 17.303h1.887l-.279 1.656H28.5l-.244 1.548-1.199-.035-.654 3.82-.007.138.034.116.068.089.088.075.123.048.137.042.15.026.163.015.15-.008.136-.014.123-.019.109-.029.088-.026.062-.022.04-.013.014-.007-.238 1.273-.048.035-.048.027-.048.028-.047.027-.048.02-.054.022-.06.019-.063.022-.068.02-.068.013-.082.015-.08.012-.09.015-.102.013-.11.014-.115.013h-.517l-.273-.02-.239-.027-.218-.04-.183-.05-.157-.061-.13-.068-.116-.083-.088-.088-.068-.096-.047-.118-.035-.116-.02-.13-.007-.143V25.1l.02-.157.02-.172z"/><path stroke="#FEFEFE" stroke-width=".03" d="M25.755 17.303h1.887l-.279 1.656H28.5l-.244 1.548-1.199-.035-.654 3.82-.007.138.034.116.068.089.088.075.123.048.137.042.15.026.163.015.15-.008.136-.014.123-.019.109-.029.088-.026.062-.022.04-.013.014-.007-.238 1.273-.048.035-.048.027-.048.028-.047.027-.048.02-.054.022-.06.019-.063.022-.068.02-.068.013-.082.015-.08.012-.09.015-.102.013-.11.014-.115.013h-.517l-.273-.02-.239-.027-.218-.04-.183-.05-.157-.061-.13-.068-.116-.083-.088-.088-.068-.096-.047-.118-.035-.116-.02-.13-.007-.143V25.1l.02-.157.02-.172 1.302-7.468"/><path fill="#FEFEFE" d="M30.005 23.087l-.02.118-.007.122.013.13.028.13.048.13.054.124.075.13.082.116.095.117.102.102.11.102.122.083.123.076.136.06.135.049.138.027.176.028.17.02.178.02.177.015.177.006h.183l.178-.006.185-.015.183-.026.185-.035.19-.041.183-.061.192-.076.197-.082.19-.11.198-.116-.272 1.684-.11.055-.109.055-.109.04-.101.042-.103.035-.109.033-.11.028-.115.02-.122.02-.136.014-.144.014-.156.014-.177.007h-.184l-.211.007h-.225l-.333-.007-.341-.035-.341-.047-.34-.082-.334-.103-.32-.131-.307-.17-.286-.2-.266-.232-.231-.28-.198-.315-.163-.363-.116-.404-.075-.458-.02-.507.034-.562.027-.218.04-.255.055-.266.075-.289.102-.293.123-.294.157-.301.19-.29.218-.272.266-.26.3-.233.34-.206.395-.17.442-.124.491-.083.553-.027.264.008.28.026.28.048.28.069.271.103.266.123.245.165.225.191.204.234.17.272.136.315.096.363.055.411.006.466-.048.52-.101.575-.034.418h-4.967l.314-1.35h2.983l.014-.17-.006-.164-.015-.151-.026-.137-.048-.13-.048-.117-.068-.102-.068-.096-.082-.082-.088-.069-.103-.06-.102-.055-.109-.042-.109-.028-.115-.02-.123-.013-.13.006-.122.021-.116.026-.116.043-.116.054-.102.061-.102.076-.088.082-.09.096-.081.102-.075.11-.06.117-.062.123-.048.136-.041.138-.027.143z"/><path stroke="#FEFEFE" stroke-width=".03" d="M30.005 23.087l-.02.118-.007.122.013.13.028.13.048.13.054.124.075.13.082.116.095.117.102.102.11.102.122.083.123.076.136.06.135.049.138.027.176.028.17.02.178.02.177.015.177.006h.183l.178-.006.185-.015.183-.026.185-.035.19-.041.183-.061.192-.076.197-.082.19-.11.198-.116-.272 1.684-.11.055-.109.055-.109.04-.101.042-.103.035-.109.033-.11.028-.115.02-.122.02-.136.014-.144.014-.156.014-.177.007h-.184l-.211.007h-.225l-.333-.007-.341-.035-.341-.047-.34-.082-.334-.103-.32-.131-.307-.17-.286-.2-.266-.232-.231-.28-.198-.315-.163-.363-.116-.404-.075-.458-.02-.507.034-.562.027-.218.04-.255.055-.266.075-.289.102-.293.123-.294.157-.301.19-.29.218-.272.266-.26.3-.233.34-.206.395-.17.442-.124.491-.083.553-.027.264.008.28.026.28.048.28.069.271.103.266.123.245.165.225.191.204.234.17.272.136.315.096.363.055.411.006.466-.048.52-.101.575-.034.418h-4.967l.314-1.35h2.983l.014-.17-.006-.164-.015-.151-.026-.137-.048-.13-.048-.117-.068-.102-.068-.096-.082-.082-.088-.069-.103-.06-.102-.055-.109-.042-.109-.028-.115-.02-.123-.013-.13.006-.122.021-.116.026-.116.043-.116.054-.102.061-.102.076-.088.082-.09.096-.081.102-.075.11-.06.117-.062.123-.048.136-.041.138-.027.143-.273 1.417"/><path fill="#FEFEFE" d="M46.251 19.37l-.089-.048-.088-.04-.094-.05-.103-.047-.102-.04-.116-.042-.116-.041-.123-.041-.129-.035-.13-.028-.143-.026-.143-.021-.156-.014-.157-.013h-.504l-.177.013-.184.022-.191.033-.19.055-.19.075-.191.096-.192.123-.184.151-.176.178-.171.219-.163.253-.15.302-.143.342-.13.384-.11.437-.04.247-.027.239-.014.24.007.233.02.233.049.22.06.204.075.205.103.186.123.178.143.157.164.144.182.123.211.103.233.089.259.061.088.021.102.02.123.014.136.014.15.014h.327l.17-.014.177-.02.177-.036.17-.047.17-.055.17-.074.158-.09.143-.11.137-.123-.307 1.828-.041.034-.041.04-.055.049-.06.042-.076.054-.095.049-.11.048-.12.041-.159.048-.177.033-.203.028-.24.027-.265.014-.307.007-.346-.007-.383-.021-.313-.033-.313-.07-.312-.102-.315-.137-.3-.165-.286-.205-.272-.24-.252-.273-.224-.308-.192-.342-.163-.384-.122-.418-.083-.458-.026-.487.013-.534.075-.568.054-.28.062-.274.069-.268.067-.252.075-.24.088-.24.089-.226.096-.212.102-.212.102-.199.116-.192.122-.178.123-.17.135-.165.137-.15.143-.145.157-.135.157-.13.163-.117.17-.11.184-.103.184-.089.192-.083.196-.075.212-.068.21-.054.219-.049.232-.04.23-.035.246-.027.245-.013.26-.007.217.007.211.013.205.02.204.028.19.027.184.041.178.035.164.041.156.04.136.041.13.041.11.042.094.035.082.027.06.026.042.014z"/><path stroke="#FEFEFE" stroke-width=".03" d="M46.251 19.37l-.089-.048-.088-.04-.094-.05-.103-.047-.102-.04-.116-.042-.116-.041-.123-.041-.129-.035-.13-.028-.143-.026-.143-.021-.156-.014-.157-.013h-.504l-.177.013-.184.022-.191.033-.19.055-.19.075-.191.096-.192.123-.184.151-.176.178-.171.219-.163.253-.15.302-.143.342-.13.384-.11.437-.04.247-.027.239-.014.24.007.233.02.233.049.22.06.204.075.205.103.186.123.178.143.157.164.144.182.123.211.103.233.089.259.061.088.021.102.02.123.014.136.014.15.014h.327l.17-.014.177-.02.177-.036.17-.047.17-.055.17-.074.158-.09.143-.11.137-.123-.307 1.828-.041.034-.041.04-.055.049-.06.042-.076.054-.095.049-.11.048-.12.041-.159.048-.177.033-.203.028-.24.027-.265.014-.307.007-.346-.007-.383-.021-.313-.033-.313-.07-.312-.102-.315-.137-.3-.165-.286-.205-.272-.24-.252-.273-.224-.308-.192-.342-.163-.384-.122-.418-.083-.458-.026-.487.013-.534.075-.568.054-.28.062-.274.069-.268.067-.252.075-.24.088-.24.089-.226.096-.212.102-.212.102-.199.116-.192.122-.178.123-.17.135-.165.137-.15.143-.145.157-.135.157-.13.163-.117.17-.11.184-.103.184-.089.192-.083.196-.075.212-.068.21-.054.219-.049.232-.04.23-.035.246-.027.245-.013.26-.007.217.007.211.013.205.02.204.028.19.027.184.041.178.035.164.041.156.04.136.041.13.041.11.042.094.035.082.027.06.026.042.014-.34 1.897"/><path fill="#FEFEFE" d="M63.022 26.291h-1.888l.138-.759v-.07l-.11.138-.116.124-.115.109-.123.096-.123.09-.122.074-.123.061-.13.063-.129.047-.129.035-.13.034-.136.02-.136.02-.13.014-.136.008h-.136l-.354-.028-.327-.076-.3-.115-.272-.158-.245-.198-.219-.233-.19-.253-.164-.288-.136-.308-.109-.322-.075-.336-.054-.349-.02-.35.006-.356.034-.349.062-.348.102-.405.123-.383.143-.35.17-.328.177-.308.204-.273.211-.247.225-.226.24-.198.251-.172.258-.15.259-.117.273-.096.273-.061.272-.04.279-.015.198.007.19.021.178.034.163.048.157.054.135.063.137.075.122.076.109.08.103.09.088.088.082.09.068.088.062.09.054.082.04.082.477-2.69h1.854z"/><path stroke="#FEFEFE" stroke-width=".03" d="M63.022 26.291h-1.888l.138-.759v-.07l-.11.138-.116.124-.115.109-.123.096-.123.09-.122.074-.123.061-.13.063-.129.047-.129.035-.13.034-.136.02-.136.02-.13.014-.136.008h-.136l-.354-.028-.327-.076-.3-.115-.272-.158-.245-.198-.219-.233-.19-.253-.164-.288-.136-.308-.109-.322-.075-.336-.054-.349-.02-.35.006-.356.034-.349.062-.348.102-.405.123-.383.143-.35.17-.328.177-.308.204-.273.211-.247.225-.226.24-.198.251-.172.258-.15.259-.117.273-.096.273-.061.272-.04.279-.015.198.007.19.021.178.034.163.048.157.054.135.063.137.075.122.076.109.08.103.09.088.088.082.09.068.088.062.09.054.082.04.082.477-2.69h1.854l-1.54 8.954"/><path fill="#F9B030" d="M59.936 24.635l.192-.014.176-.04.163-.048.157-.076.143-.083.137-.102.129-.116.116-.124.102-.136.095-.151.088-.157.076-.166.067-.17.055-.178.048-.185.034-.185.034-.192.022-.199v-.183l-.008-.193-.02-.177-.028-.172-.048-.164-.053-.158-.07-.136-.081-.13-.089-.11-.102-.096-.116-.083-.122-.054-.13-.034-.142-.014-.185.014-.17.027-.157.055-.157.068-.135.09-.136.109-.116.116-.116.13-.102.15-.096.159-.088.164-.075.177-.068.185-.055.186-.054.199-.04.197-.035.303.013.327.048.336.088.321.137.282.177.225.225.151z"/><path fill="#FEFEFE" d="M18.105 24.771l-.273 1.52h-1.716l.048-.28.034-.254.027-.192.028-.102-.095.11-.11.11-.13.102-.142.096-.163.096-.171.081-.178.083-.183.068-.197.063-.198.047-.198.041-.204.027-.197.014-.198.007-.19-.021-.186-.027-.237-.06-.218-.07-.19-.09-.17-.101-.15-.11-.137-.124-.109-.13-.096-.136-.082-.145-.068-.15-.054-.15-.04-.15-.028-.159-.02-.157-.014-.15v-.15l.02-.268.042-.253.067-.24.089-.234.11-.218.121-.199.144-.192.163-.17.17-.158.191-.143.198-.13.204-.11.217-.096.225-.075.232-.062.239-.041h.013l.034-.008.047-.006.076-.006.081-.014.096-.007.102-.014.116-.014.116-.013.116-.014.123-.006.109-.015.108-.007.103-.006.095-.007h.231l.164.007.15.006h.15l.122.007.095.007.069.008h.02l.014-.05.04-.123.034-.143.014-.13-.027-.15-.061-.138-.082-.122-.11-.104-.129-.088-.143-.062-.163-.04-.177-.015-.191-.007-.204-.006h-.212l-.217.006-.225.015-.218.019-.218.021-.211.027-.204.028-.198.034-.177.034-.163.034-.15.041-.123.041-.096.048-.074.042.483-1.65.15-.062.15-.055.163-.047.163-.034.164-.035.178-.028.176-.027.185-.014.19-.013.198-.007.205-.007h.653l.239.007.237.007.192.013.203.035.212.048.218.061.21.083.206.095.204.118.19.128.17.152.151.165.136.184.102.205.068.218.041.234v.26l-.04.273z"/><path stroke="#FEFEFE" stroke-width=".03" d="M18.105 24.771l-.273 1.52h-1.716l.048-.28.034-.254.027-.192.028-.102-.095.11-.11.11-.13.102-.142.096-.163.096-.171.081-.178.083-.183.068-.197.063-.198.047-.198.041-.204.027-.197.014-.198.007-.19-.021-.186-.027-.237-.06-.218-.07-.19-.09-.17-.101-.15-.11-.137-.124-.109-.13-.096-.136-.082-.145-.068-.15-.054-.15-.04-.15-.028-.159-.02-.157-.014-.15v-.15l.02-.268.042-.253.067-.24.089-.234.11-.218.121-.199.144-.192.163-.17.17-.158.191-.143.198-.13.204-.11.217-.096.225-.075.232-.062.239-.041h.013l.034-.008.047-.006.076-.006.081-.014.096-.007.102-.014.116-.014.116-.013.116-.014.123-.006.109-.015.108-.007.103-.006.095-.007h.231l.164.007.15.006h.15l.122.007.095.007.069.008h.02l.014-.05.04-.123.034-.143.014-.13-.027-.15-.061-.138-.082-.122-.11-.104-.129-.088-.143-.062-.163-.04-.177-.015-.191-.007-.204-.006h-.212l-.217.006-.225.015-.218.019-.218.021-.211.027-.204.028-.198.034-.177.034-.163.034-.15.041-.123.041-.096.048-.074.042.483-1.65.15-.062.15-.055.163-.047.163-.034.164-.035.178-.028.176-.027.185-.014.19-.013.198-.007.205-.007h.653l.239.007.237.007.192.013.203.035.212.048.218.061.21.083.206.095.204.118.19.128.17.152.151.165.136.184.102.205.068.218.041.234v.26l-.04.273-.689 3.615"/><path fill="#EA2230" d="M16.464 22.985l-.007-.034-.027-.035-.041-.02-.068-.013-.076-.014-.088-.008h-.204l-.11.008-.115.014-.108.013-.11.014-.102.014-.096.02-.081.02-.076.02-.047.015-.054.02-.075.028-.075.034-.089.04-.088.049-.096.048-.088.054-.096.069-.088.069-.082.08-.075.083-.068.09-.047.095-.041.11-.02.11-.007.233.033.185.068.137.088.102.103.069.116.04.109.021.108.006.205-.006.184-.02.177-.03.157-.039.136-.048.13-.061.115-.063.103-.075.089-.068.08-.081.069-.076.055-.083.047-.082.041-.082.034-.075.02-.076.055-.198.048-.227.041-.218z"/><path fill="#FEFEFE" d="M3.774 26.291H1.92l1.546-8.988H6.69l.306 5.332 2.228-5.332h3.365l-1.58 8.988H9.154l1.172-6.716h-.074L7.479 26.29h-2.09l-.015-.28-.048-.746-.06-1.061-.069-1.22-.069-1.224-.06-1.076-.048-.78-.013-.33h-.103z"/><path stroke="#FEFEFE" stroke-width=".03" d="M3.774 26.291H1.92l1.546-8.988H6.69l.306 5.332 2.228-5.332h3.365l-1.58 8.988H9.154l1.172-6.716h-.074L7.479 26.29h-2.09l-.015-.28-.048-.746-.06-1.061-.069-1.22-.069-1.224-.06-1.076-.048-.78-.013-.33h-.103l-1.13 6.717"/><path fill="#FEFEFE" d="M51.912 24.771l-.279 1.52h-1.71l.013-.28.008-.246v-.185l.013-.083-.088.103-.103.102-.123.096-.135.096-.144.09-.164.082-.17.082-.17.068-.184.056-.19.055-.191.033-.19.027-.198.014-.19.007-.185-.021-.184-.027-.245-.06-.218-.07-.191-.09-.177-.101-.15-.11-.13-.124-.109-.13-.095-.136-.08-.145-.062-.15-.055-.15-.034-.15-.027-.159-.02-.157-.014-.15v-.15l.013-.268.041-.253.062-.24.088-.234.102-.218.13-.199.143-.192.156-.17.177-.158.184-.143.198-.13.211-.11.21-.096.226-.075.225-.062.231-.041h.014l.034-.008.048-.006.068-.006.088-.014.096-.007.102-.014.109-.014.116-.013.123-.014.115-.006.116-.015.11-.007.094-.006.096-.007h.238l.164.007.156.006h.15l.13.007.109.007.061.008h.027l.013-.05.02-.123.022-.143.013-.13-.027-.15-.055-.138-.089-.122-.101-.104-.123-.088-.143-.062-.15-.04-.163-.015-.191-.007-.205-.006h-.21l-.219.006-.224.015-.218.019-.218.021-.211.027-.204.028-.198.034-.178.034-.163.034-.15.041-.122.041-.096.048-.075.042.477-1.65.15-.062.157-.055.156-.047.164-.034.17-.035.171-.028.176-.027.184-.014.19-.013.199-.007.197-.007h.641l.23.007.233.007.19.013.205.035.21.048.219.061.211.083.211.095.205.118.19.128.17.152.157.165.136.184.103.205.074.218.048.234v.26l-.034.273z"/><path fill="#FEFEFE" d="M47.341 26.401l.19.027.185.02.191-.006.197-.014.198-.027.19-.034.191-.056.19-.054.171-.068.177-.083.164-.081.143-.096.143-.096.122-.097.11-.108.088-.103-.068-.055-.089.103-.095.097-.123.095-.13.095-.142.082-.164.083-.163.081-.17.07-.178.055-.19.054-.191.034-.184.027-.197.014-.191.007-.184-.02-.177-.028zm-1.648-2.074l.007.15.013.15.021.166.027.156.034.151.055.157.06.158.09.144.095.144.109.13.136.13.156.11.178.109.197.09.225.068.245.061.014-.082-.246-.063-.21-.066-.184-.09-.177-.097-.144-.11-.122-.115-.11-.13-.095-.13-.075-.144-.061-.144-.054-.144-.034-.15-.027-.158-.02-.15-.014-.15.006-.151z"/><path fill="#FEFEFE" d="M48.138 21.697l-.238.042-.232.062-.225.075-.217.096-.212.109-.204.137-.184.145-.178.163-.163.17-.142.193-.137.205-.101.226-.09.233-.061.246-.041.26-.02.268h.095l.007-.267.04-.247.062-.233.089-.232.102-.212.123-.192.143-.192.15-.171.176-.15.184-.144.192-.124.21-.11.205-.095.225-.075.218-.061.224-.042zm1.582-1.183v.006l.155.008.143.04.137.062.116.08.095.097.081.117.055.123.028.144h.082l-.028-.157-.054-.151-.096-.13-.11-.11-.128-.096-.15-.06-.157-.043-.17-.02v.008zm-2.435-1.357l-.027.035-.461 1.65.079.014.462-1.65-.027.034-.026-.083-.02.007-.007.028zm5.383 2.007l.034-.28v-.26l-.048-.24-.075-.227-.108-.212-.137-.192-.163-.171-.17-.15-.198-.13-.205-.124-.218-.096-.21-.081-.225-.062-.212-.048-.211-.035-.19-.014v.083l.19.014.198.035.211.047.212.061.21.082.205.098.204.108.184.13.17.15.15.158.137.178.094.198.075.213.049.226v.26l-.035.267z"/><path fill="#FEFEFE" d="M51.953 24.778l.715-3.615-.082-.013-.715 3.615z"/><path fill="#F9B030" d="M50.264 22.985l-.015-.041-.027-.034-.047-.021-.068-.02-.075-.008-.088-.006h-.104l-.102.006-.108.015-.11.013-.107.013-.103.014-.103.022-.088.013-.089.02-.067.014-.048.007-.054.02-.069.021-.075.027-.088.04-.082.042-.095.049-.09.062-.088.06-.088.076-.075.076-.075.088-.061.096-.048.103-.04.11-.021.115-.007.234.033.185.055.137.082.102.103.069.115.04.115.021.117.006.204-.006.19-.02.178-.035.156-.049.151-.053.128-.063.124-.067.109-.082.095-.077.081-.089.076-.081.061-.09.047-.082.034-.081.028-.083.02-.074.028-.193.033-.198.027-.192z"/><path fill="#FEFEFE" d="M64.296 25.353l.014-.157.054-.184.095-.164.116-.144.143-.116.163-.084.177-.053.19-.022.192.022.177.053.163.084.144.116.115.144.096.164.054.184.014.157h-.204l-.008-.123-.04-.15-.068-.137-.089-.117-.108-.095-.13-.07-.15-.047-.157-.014-.156.014-.15.047-.13.07-.108.095-.089.117-.068.136-.04.15-.015.124zm0 0l-.007.042.02.199.055.184.095.164.116.138.143.116.163.09.177.053.19.022.192-.022.177-.054.163-.089.144-.116.115-.138.096-.164.054-.184.021-.199-.007-.042h-.204l.007.042-.015.165-.04.15-.068.13-.089.116-.108.097-.13.075-.15.047-.157.015-.156-.015-.15-.047-.13-.075-.108-.097-.089-.116-.068-.13-.04-.15-.015-.165v-.042z"/><path stroke="#FEFEFE" stroke-width=".03" d="M64.289 25.395l.02-.199.055-.185.095-.164.116-.144.142-.116.164-.083.178-.054.19-.02.191.02.177.054.164.083.143.116.115.144.096.164.054.185.02.199-.02.199-.054.184-.096.164-.115.138-.143.116-.164.09-.177.054-.191.02-.19-.02-.178-.054-.164-.09-.142-.116-.116-.138-.095-.164-.055-.184-.02-.2"/><path stroke="#FEFEFE" stroke-width=".03" d="M65.079 25.771h-.17v-.828h.374l.082.006.075.014.054.021.049.028.033.041.028.041.013.047.006.048-.006.062-.013.048-.02.04-.028.036-.034.027-.041.013-.047.015h-.049l.206.341h-.137l-.204-.341h-.171v.341"/><path stroke="#FEFEFE" stroke-width=".03" d="M65.25 26.19l.155-.015.15-.047.13-.076.11-.096.087-.116.069-.13.04-.15.014-.165-.013-.165-.041-.15-.069-.137-.088-.117-.109-.095-.13-.07-.15-.047-.156-.013-.156.013-.15.047-.13.07-.108.095-.09.117-.067.136-.041.151-.013.165.013.164.04.152.069.129.089.116.108.096.13.076.15.047.156.015"/><path fill="#FEFEFE" d="M52.423 26.291h1.92l.689-3.895.027-.15.04-.151.042-.152.054-.15.068-.15.083-.144.088-.138.109-.13.123-.116.135-.11.157-.102.177-.083.198-.068.218-.054.238-.04.266-.014h.17l.306-1.76-.19.013-.184.021-.17.034-.164.049-.15.053-.142.07-.137.075-.13.082-.122.096-.115.096-.11.11-.109.11-.101.115-.103.13-.102.123-.096.137.205-1.24h-1.914z"/><path stroke="#FEFEFE" stroke-width=".03" d="M52.423 26.291h1.92l.689-3.895.027-.15.04-.151.042-.152.054-.15.068-.15.083-.144.088-.138.109-.13.123-.116.135-.11.157-.102.177-.083.198-.068.218-.054.238-.04.266-.014h.17l.306-1.76-.19.013-.184.021-.17.034-.164.049-.15.053-.142.07-.137.075-.13.082-.122.096-.115.096-.11.11-.109.11-.101.115-.103.13-.102.123-.096.137.205-1.24h-1.914l-1.274 7.333"/><path fill="#FEFEFE" d="M34.385 26.291h1.955l.654-3.895.028-.15.033-.145.034-.143.048-.137.055-.137.067-.13.083-.123.095-.117.109-.103.123-.101.15-.083.163-.075.19-.062.211-.055.233-.035.265-.02h.02l.028.007.034.007h.034l.035.006.027.007.02.008h.007l.006-.028.021-.083.027-.122.034-.15.047-.179.048-.192.061-.19.062-.193.054-.13.069-.13.067-.13.069-.117.06-.102.049-.082.034-.049.013-.02H39.8l-.028-.007-.034-.007-.048-.007h-.047l-.054-.006-.048-.008h-.048l-.21.014-.192.021-.176.034-.165.042-.156.054-.143.069-.13.069-.122.08-.116.09-.109.104-.102.102-.102.116-.102.116-.096.13-.102.137-.102.137.245-1.24H35.66z"/><path stroke="#FEFEFE" stroke-width=".03" d="M34.385 26.291h1.955l.654-3.895.028-.15.033-.145.034-.143.048-.137.055-.137.067-.13.083-.123.095-.117.109-.103.123-.101.15-.083.163-.075.19-.062.211-.055.233-.035.265-.02h.02l.028.007.034.007h.034l.035.006.027.007.02.008h.007l.006-.028.021-.083.027-.122.034-.15.047-.179.048-.192.061-.19.062-.193.054-.13.069-.13.067-.13.069-.117.06-.102.049-.082.034-.049.013-.02H39.8l-.028-.007-.034-.007-.048-.007h-.047l-.054-.006-.048-.008h-.048l-.21.014-.192.021-.176.034-.165.042-.156.054-.143.069-.13.069-.122.08-.116.09-.109.104-.102.102-.102.116-.102.116-.096.13-.102.137-.102.137.245-1.24H35.66l-1.274 7.333"/><path fill="#F9B030" d="M64.31 33.494v-.028l.054-.178.095-.157.116-.137.143-.11.163-.082.178-.047.19-.02.191.02.177.047.163.083.143.109.116.137.096.157.054.178v.028h-.197l-.041-.144-.069-.13-.088-.117-.109-.095-.13-.075-.15-.048-.156-.015-.157.015-.15.048-.129.075-.108.095-.09.118-.067.13-.041.143zm-.021.15v.02l.02.2.055.184.095.164.116.144.142.117.164.082.178.054.19.022.191-.022.177-.054.164-.082.143-.117.115-.144.096-.164.054-.184.02-.2v-.02h-.203v.02l-.015.166-.04.15-.069.13-.088.117-.109.095-.13.076-.149.048-.157.014-.156-.014-.15-.048-.13-.076-.109-.095-.088-.117-.068-.13-.041-.15-.013-.166v-.02z"/></g></svg>