<svg width="207" height="166" viewBox="0 0 207 166" xmlns="http://www.w3.org/2000/svg" xmlns:xlink="http://www.w3.org/1999/xlink"><title>Page 1</title><desc>Created using Figma</desc><g opacity=".5" fill="#FFF"><use xlink:href="#a" transform="translate(78.11)"/><use xlink:href="#b" transform="translate(0 45.72)"/><use xlink:href="#c" transform="translate(81.3 59.98)"/><use xlink:href="#d" transform="translate(147.18 60.55)"/><use xlink:href="#e" transform="translate(162.41 62.31)"/><use xlink:href="#f" transform="translate(41.19 89.39)"/></g><defs><path id="a" fill-rule="evenodd" d="M55.912 63.2c-1.093-6.553 4.386-8.375 6.585-12.243C73.77 31.138 59.51 7.276 37.037 6.797c-19.383-.41-33.276 15.759-29.41 35.416.35 1.788 5.844 11.31.877 12.68C3.244 56.341.53 43.511.164 39.59-1.847 18.11 15.038 2.103 31.768.24c30.223-3.368 51.796 29.413 35.996 55.09-1.94 3.151-5.79 10.583-11.853 7.87z"/><path id="b" fill-rule="evenodd" d="M58.525 11.357C45.249 8.369 24.26 8.454 16.823 16.604c1.46 3.822 3.933 6.103 7.023 9.18 2.008 2 7.474 5.091 7.902 7.871.58 3.767-3.943 9.014-5.268 13.992-.872 3.277-.214 5.918-2.195 8.744C13.871 57.974 7.134 58.56 7.166 70.819c.018 7.346 2.319 18.628 8.779 21.423 5.536 2.395 11.432.532 18.436 1.312 5.445 6.236 12.44 10.928 18.876 16.177-1.105 7.789-3.246 14.547-4.829 21.861H77.4c2.915-3.364 2.952-9.594 6.146-12.679 8.183 1.611 19.522-1.521 26.777-.438 1.982 4.001-1.102 8.6-1.756 12.68 4.852.805 9.162.437 13.608.437 4.192 0 10.138 1.275 14.047 0 2.713-.884 7.731-9.583 10.096-13.117 9.104-13.596 18.448-29.787 22.827-46.783 1.277-4.956-.064-13.335 4.389-13.552 7.757-.38.711 19.611-.439 23.172-7.283 22.562-20.343 40.853-33.361 57.275-12.368-.798-27.99 1.645-38.19-1.311-1.99-3.272 1.072-7.569 1.316-11.367-3.918-.599-10.106 1.33-14.924 0-2.681 3.305-2.921 9.041-5.707 12.242-6.261.779-13.183.436-21.51.436-5.243 0-17.799 1.605-19.753-1.749-1.56-2.676 1.465-8.655 2.195-11.804 1.087-4.691 1.33-8.205 2.634-11.806-4.386-4.666-10.188-7.924-14.486-12.678-7.37-.671-15.463.086-20.632-3.498C1.69 90.82-2.821 69.986 1.898 59.45c2.517-5.617 10.117-7.7 17.12-8.744 1.055-5.507 2.577-10.549 4.828-14.865-4.463-7.346-14.485-11.632-13.608-20.55.865-8.788 21.436-12.679 34.24-12.679 3.913 0 9.617 1.521 12.73 1.312 3.474-.233 17.229-8.108 17.559-.874.273 6-13.982 4.68-16.242 8.307z"/><path id="c" fill-rule="evenodd" d="M50.533 14.149c-4.408 3.146-8.31-1.827-12.292-3.498-6.824-2.865-16.433-4.165-27.216-3.497C7.06 7.399.738 9.319.052 5.404-.993-.555 14.079-.17 20.682.158 33.218.78 52.39 5.718 50.533 14.15z"/><path id="d" fill-rule="evenodd" d="M19.768 21.01c-4.415 2.345-7.741-4.422-10.975-7.87C5.858 10.01.213 6.866.013 3.96-.12 2.007.724.29 3.088.024c3.977-.449 7.922 5.45 10.974 8.744 3.498 3.775 8.253 7.544 5.707 12.242z"/><path id="e" fill-rule="evenodd" d="M16.832 10.073c-.557 3.451 2.758 6.907 6.146 8.307 1.965-6.72-4.995-15.443-6.146-8.307zM42.292.455c4.51 11.578.648 23.074-8.779 25.358-1.359.329-3.522-.277-5.268.436-2.469 1.01-4.222 4.096-7.462 5.685-2.064 1.012-18.952 6.81-20.632.874-2.087-7.372 18.124-3.152 19.315-8.308C8.105 21.488 6.451-2.328 21.661.455c5.651 1.033 8.177 10.377 8.34 18.8 7.412-.397 7.809-9.433 6.584-17.051.768-1.75 3.372-2.881 5.707-1.75z"/><path id="f" fill-rule="evenodd" d="M4.608.476c11.883-3.516 10.92 13.601 1.756 13.117C1.033 13.31-3.93 3.003 4.608.476z"/></defs></svg>