<svg width="49" height="48" viewBox="0 0 49 48" xmlns="http://www.w3.org/2000/svg" xmlns:xlink="http://www.w3.org/1999/xlink"><title>Vector</title><desc>Created using Figma</desc><use xlink:href="#a" fill="#22A84A"/><defs><path id="a" d="M14.907 14.392L36.819 1.439A30.308 30.308 0 0 0 33.97 0L14.906 11.175 6.435 6.18c-.57.677-1.14 1.439-1.71 2.201l10.182 6.01zM41.38 4.995c-.652-.678-1.385-1.27-2.118-1.863L14.907 17.524 3.258 10.667a66.398 66.398 0 0 0-1.222 2.455l12.79 7.534L41.38 4.995zM14.907 23.788L1.14 15.661c-.244.932-.488 1.778-.651 2.794l14.418 8.466L44.883 9.312a21.592 21.592 0 0 0-1.629-2.2L14.907 23.787zm33.968-.762C48.875 36.826 37.96 48 24.437 48 10.998 48 0 36.825 0 23.026c0-.592 0-1.1.081-1.693l14.744 8.72 31.28-18.455a24.852 24.852 0 0 1 2.77 11.428z"/></defs></svg>