<svg width="161" height="47" viewBox="0 0 161 47" xmlns="http://www.w3.org/2000/svg" xmlns:xlink="http://www.w3.org/1999/xlink"><title>Логотип моб. кассир</title><desc>Created using Figma</desc><use xlink:href="#a" transform="translate(1.12 .92)" fill="#22A84A"/><use xlink:href="#b" transform="translate(42.95 .92)" fill="#22A84A"/><use xlink:href="#c" transform="translate(83.12 6.13)" fill="#22A84A"/><use xlink:href="#d" transform="translate(.96 29.37)" fill="#787D80"/><use xlink:href="#e" transform="translate(17.14 33.12)" fill="#787D80"/><use xlink:href="#f" transform="translate(27.27 29.06)" fill="#787D80"/><use xlink:href="#g" transform="translate(37.95 33.35)" fill="#787D80"/><use xlink:href="#h" transform="translate(47.09 33.35)" fill="#787D80"/><use xlink:href="#i" transform="translate(59 33.35)" fill="#787D80"/><use xlink:href="#j" transform="translate(68.72 33.35)" fill="#787D80"/><use xlink:href="#k" transform="translate(79.21 33.35)" fill="#787D80"/><use xlink:href="#l" transform="translate(92.83 29.37)" fill="#787D80"/><use xlink:href="#m" transform="translate(107.37 33.23)" fill="#787D80"/><use xlink:href="#n" transform="translate(116.29 33.12)" fill="#787D80"/><use xlink:href="#o" transform="translate(125.81 33.12)" fill="#787D80"/><use xlink:href="#p" transform="translate(134.31 33.12)" fill="#787D80"/><use xlink:href="#q" transform="translate(142.63 33.35)" fill="#787D80"/><use xlink:href="#r" transform="translate(152.79 33.12)" fill="#787D80"/><defs><path id="a" d="M0 9.909c0-5.296 2.97-8.713 8.415-8.713 2.392 0 3.877.512 4.867.94L12.539 4.1c-1.32-.427-2.227-.769-4.124-.769-3.3 0-5.858 1.794-5.858 6.322 0 4.612 2.723 6.577 6.353 6.577 1.567 0 2.722-.256 3.794-.598l.578 1.965c-1.238.512-2.558.854-4.785.854C2.887 18.536 0 15.119 0 9.909zm24.254 1.964c0-2.05-.825-3.673-3.135-3.673-1.485 0-2.64.513-3.795 1.11l-.082 1.453c0 3.844 1.154 5.638 3.464 5.638 2.723 0 3.548-2.307 3.548-4.528zm-9.322-.854c0-2.648.495-6.833 1.98-8.2C18.149 1.623 21.614.769 25.574 0l.412 2.22c-3.547.599-6.682 1.197-7.425 1.966-.66.683-.99 2.22-1.154 3.331 1.072-.598 2.557-1.196 4.29-1.196 3.052 0 4.95 1.538 4.95 5.467 0 4.613-2.64 6.663-6.106 6.663-3.464 0-5.61-2.221-5.61-7.432zm22.026-.427c0-2.306-.825-3.758-2.64-3.758-1.65 0-2.887 1.28-3.052 3.758h5.692zm-8.25 1.367c0-5.125 2.558-7.005 5.775-7.005 3.548 0 5.032 2.307 5.032 6.492v.854h-8.332c0 3.417 1.898 4.1 4.125 4.1 1.238 0 2.227-.17 3.465-.597l.412 1.879c-1.154.427-2.64.683-4.29.683-3.794.171-6.187-1.366-6.187-6.406z"/><path id="b" d="M8.745 11.532c0-2.307-.825-4.442-3.218-4.442-1.32 0-2.31.598-2.97.94v8.2c.33.085 1.32.256 2.145.256 2.888 0 4.043-2.05 4.043-4.954zM.082 5.296h2.393v1.025c1.072-.769 2.062-1.367 3.63-1.367 2.97 0 5.032 2.136 5.032 6.407 0 5.296-3.052 7.09-6.517 7.09-.825 0-1.65-.086-2.228-.171v5.125H0V5.296h.082zm22.522 6.577c0-2.05-.825-3.673-3.135-3.673-1.485 0-2.64.513-3.795 1.11l-.082 1.453c0 3.844 1.155 5.638 3.464 5.638 2.805 0 3.548-2.307 3.548-4.528zm-9.322-.854c0-2.648.495-6.833 1.98-8.2C16.499 1.623 19.964.769 23.924 0l.412 2.22c-3.547.599-6.682 1.197-7.424 1.966-.66.683-.99 2.22-1.155 3.331 1.072-.598 2.557-1.196 4.29-1.196 3.052 0 4.95 1.538 4.95 5.467 0 4.613-2.64 6.663-6.105 6.663-3.465 0-5.61-2.221-5.61-7.432zM34.4 15.29V12.3l-2.723.086c-1.732.085-2.722.769-2.722 2.136 0 1.28.907 1.879 2.145 1.879 1.155.085 2.392-.513 3.3-1.11zm-7.837-.598c0-3.246 2.805-3.929 5.032-3.929l2.805-.085V9.31c0-1.794-.908-2.221-2.723-2.221-1.32 0-2.475.256-3.547.598l-.495-1.88c1.155-.512 2.64-.854 4.455-.854 3.052 0 4.702 1.11 4.702 3.759v6.663c0 .768.66.94 1.32 1.025l-.165 1.879-.495.085c-1.32 0-2.557-.427-2.805-1.537-.825.598-2.062 1.623-4.125 1.623-2.392 0-3.96-1.367-3.96-3.759z"/><path id="c" d="M0 .085h2.475v5.467h5.94V.085h2.474v12.899H8.415V7.517h-5.94v5.467H0V.085zm19.964 10.678l-3.63-4.442L21.366 0h2.723l-5.197 6.15 2.557 2.82c1.155 1.28 2.145 2.05 3.135 2.305l-.413 1.88c-1.072 0-2.475-.256-4.207-2.392zM13.859.085h2.475V13.07H13.86V.085z"/><path id="d" d="M5.966 8.362c.51 1.537.765 2.351.984 3.338h.036c.256-1.006.584-2.067 1.04-3.376L10.871 0h2.06l1.02 13.652H12.33l-.493-8.058c-.073-1.156-.164-2.958-.164-3.698h-.036c-.128.588-.712 2.521-1.058 3.489l-2.9 8.267H6.2L3.337 5.366c-.346-1.006-.912-2.73-1.076-3.47h-.037c0 .74-.073 2.616-.146 3.774l-.51 7.982H0L1.093 0h2.08l2.793 8.362z"/><path id="e" d="M4.177 10.126C1.896 10.126 0 8.552 0 5.102 0 1.612 1.932 0 4.248 0c2.28 0 4.177 1.575 4.177 5.024.001 3.49-1.933 5.102-4.248 5.102zm.036-8.817c-1.458 0-2.644 1.081-2.644 3.774 0 2.692 1.186 3.774 2.644 3.774 1.458 0 2.644-1.082 2.644-3.774 0-2.693-1.184-3.774-2.644-3.774z"/><path id="f" d="M1.55 5.878c.855-.928 1.95-1.535 3.209-1.535 2.115 0 3.666 1.746 3.666 4.854 0 3.375-1.842 4.986-4.086 4.986C1.786 14.183 0 12.098 0 7.356 0 2.086 2.224.19 5.16.19 6.2.19 6.983.17 7.476 0v1.497c-.53.152-1.385.19-2.316.19-1.987.02-3.319 1.045-3.61 4.191zm.018 1.31v.17c0 4.059 1.112 5.537 2.79 5.537 1.386 0 2.516-1.023 2.516-3.564 0-2.427-1.022-3.584-2.535-3.584-1.021-.002-1.95.549-2.771 1.44z"/><path id="g" d="M7.731 9.671H6.273V2.465L1.387 9.67H0V0h1.458v7.206L6.345 0H7.73v9.671z"/><path id="h" d="M9.118 0v9.671h-1.55V1.328H4.14C3.994 7.946 3.3 9.785.602 9.785c-.274 0-.474-.019-.602-.038V8.458c.128.02.292.038.474.038 1.933 0 2.042-2.37 2.243-8.494h6.4V0z"/><path id="i" d="M0 9.671V0h1.568v3.679H4.01c2.17 0 3.465.987 3.465 2.996 0 2.01-1.33 2.996-3.555 2.996H0zm3.775-1.195c1.442 0 2.133-.55 2.133-1.782 0-1.233-.693-1.782-2.133-1.782H1.57v3.565h2.206v-.001z"/><path id="j" d="M6.127 5.233h-4.56v4.438H0V0h1.568v3.926h4.56V0h1.567v9.671H6.127V5.233z"/><path id="k" d="M0 9.671V0h1.568v3.679H4.01c2.17 0 3.465.987 3.465 2.996 0 2.01-1.33 2.996-3.555 2.996H0zm3.775-1.195c1.442 0 2.133-.55 2.133-1.782 0-1.233-.693-1.782-2.133-1.782H1.57v3.565h2.206v-.001zM9.647 0h1.533v9.671H9.647V0z"/><path id="l" d="M7.73 13.654H6.272V6.447l-4.887 7.207H0V3.983h1.458v7.206l4.887-7.206H7.73v9.67zM5.414 0H6.6c0 1.668-.838 2.73-2.736 2.73-1.897 0-2.735-1.062-2.735-2.73h1.185c0 1.006.42 1.745 1.55 1.745 1.132 0 1.551-.74 1.551-1.745z"/><path id="m" d="M6.107 9.785L4.522 6.979c-.637-1.12-1.077-1.592-2.37-1.592h-.584v4.398H0V.114h1.568v4.058h.583c.894 0 1.15-.246 1.458-.815l.785-1.48C5.069.588 5.562 0 7.257 0v1.31c-.912 0-1.15.263-1.458.832l-.785 1.48c-.254.493-.529.854-1.04 1.1.967.304 1.458.89 2.006 1.84l1.823 3.223H6.107z"/><path id="n" d="M.93 2.334l-.4-1.29C1.532.473 2.807 0 4.267 0c1.95 0 3.136.854 3.136 3.262V7.7c0 1.48.092 1.952.183 2.199H6.109c-.091-.171-.182-.475-.219-1.214-.803.89-1.878 1.441-3.082 1.441C1.186 10.127 0 9.122 0 7.188 0 5.12 1.35 3.945 4.357 3.945c.384 0 .858.019 1.515.113v-.664c0-1.497-.639-2.047-1.898-2.047-1.076 0-2.06.398-3.044.987zM5.872 7.51V5.197c-.748-.114-1.058-.131-1.423-.131-2.152 0-2.918.662-2.918 1.952 0 1.214.675 1.82 1.695 1.82 1.004 0 1.934-.607 2.646-1.328z"/><path id="o" d="M6.49 2.198c-.728-.55-1.366-.854-2.169-.854-1.568 0-2.753 1.176-2.753 3.736 0 2.54 1.167 3.717 2.79 3.717.839 0 1.532-.304 2.17-.816l.4 1.252c-.711.55-1.66.892-2.771.892C1.75 10.125 0 8.512 0 5.176 0 1.763 1.823 0 4.34 0c1.076 0 1.877.323 2.552.835l-.401 1.363z"/><path id="p" d="M6.49 2.198c-.728-.55-1.366-.854-2.169-.854-1.568 0-2.753 1.176-2.753 3.736 0 2.54 1.167 3.717 2.79 3.717.839 0 1.532-.304 2.17-.816l.4 1.252c-.711.55-1.66.892-2.771.892C1.75 10.125 0 8.512 0 5.176 0 1.763 1.823 0 4.34 0c1.076 0 1.877.323 2.552.835l-.401 1.363z"/><path id="q" d="M7.73 9.671H6.272V2.465L1.385 9.67H0V0h1.458v7.206L6.345 0H7.73v9.671z"/><path id="r" d="M1.568.228v1.366C2.37.607 3.39 0 4.613 0 6.69 0 8.206 1.726 8.206 4.97c0 3.392-1.66 5.156-3.812 5.156-1.111 0-2.024-.474-2.826-1.441v5.195H0V.228h1.568zm0 2.654v4.531c.748.892 1.622 1.366 2.57 1.366 1.497 0 2.5-1.176 2.5-3.698 0-2.483-.967-3.658-2.425-3.658-.987 0-1.86.549-2.645 1.46z"/></defs></svg>