<svg width="16" height="18" viewBox="0 0 16 18" xmlns="http://www.w3.org/2000/svg" xmlns:xlink="http://www.w3.org/1999/xlink"><title>Union</title><desc>Created using Figma</desc><use xlink:href="#a" fill="#B2ABA8"/><defs><path id="a" fill-rule="evenodd" d="M7.994 10.43h-.078c-.698-.014-1.315-.176-1.843-.482-.13-.076-.304-.02-.426.07l-.004.002-.013.01-.003.001c-.183.127-1.568 1.087-3.314 1.597-.149.043-.3.083-.435.16-.698.393-.796 1.271-.823 2.094l-.004.106-.001.019-.002.053c-.012.772.46 1.448 1.172 1.747 1.19.5 3.184 1.115 5.782 1.115 2.68 0 4.707-.648 5.88-1.153a1.74 1.74 0 0 0 1.07-1.591v-.06c0-.052-.005-.104-.005-.157v-.043c-.026-.832-.118-1.728-.825-2.127-.135-.076-.286-.116-.435-.159a12.079 12.079 0 0 1-3.332-1.61c-.126-.09-.307-.15-.442-.073-.528.305-1.144.467-1.841.481h-.078zm2.963-1.294c-.03-.022-.04-.067-.017-.097 1.246-1.626 1.138-4.15 1.094-4.736a14.34 14.34 0 0 1-.014-.207c-.124-2.065-1.087-3.062-1.883-3.53C9.54.212 8.844.02 8.067 0h-.092c-.433 0-1.282.072-2.096.55-.804.468-1.782 1.464-1.907 3.544l-.014.211c-.044.59-.151 3.117 1.1 4.74a.063.063 0 0 1-.016.087l-.001.001c-.03.022-1.477 1.056-3.233 1.515l-.039.012C.085 11.255.03 13.101.005 13.895a.151.151 0 0 1 0 .012.871.871 0 0 1-.004.11c-.004.211-.007 1.278.199 1.814.03.081.079.152.143.208.037.033.079.058.12.085C.91 16.406 3.64 18 8.006 18c4.686 0 7.486-1.84 7.603-1.916a.53.53 0 0 0 .203-.253c.191-.524.191-1.567.187-1.8v-.024l-.002-.047a.888.888 0 0 1-.002-.053v-.01c-.024-.797-.081-2.629-1.746-3.226a.861.861 0 0 0-.078-.024c-1.739-.462-3.182-1.487-3.212-1.51l-.002-.001zM5.01 4.279v.007c-.003.01-.003.02-.004.03-.02.216-.22 2.802.967 4.174.483.565 1.136.846 1.983.858h.078c.851-.012 1.5-.293 1.987-.858 1.172-1.358.99-3.872.965-4.161-.002-.02-.007-.036-.007-.056v-.008c-.121-2.688-1.875-3.146-2.93-3.178h-.077c-.849 0-2.828.307-2.96 3.173l-.002.018z"/></defs></svg>