<svg width="16" height="22" viewBox="0 0 16 22" xmlns="http://www.w3.org/2000/svg" xmlns:xlink="http://www.w3.org/1999/xlink"><title>Union</title><desc>Created using Figma</desc><use xlink:href="#a" fill="#B2ABA8"/><defs><path id="a" fill-rule="evenodd" d="M14.53 9.587h.314c.638 0 1.156.534 1.156 1.19v7.66C16 20.4 14.446 22 12.537 22H3.463C1.554 22 0 20.4 0 18.437v-7.66c0-.656.518-1.19 1.156-1.19h.31V6.95c-.008-.086 0-.156 0-.229C1.466 3.012 4.397 0 7.998 0c3.604 0 6.532 3.017 6.532 6.721v2.866zM2.667 6.481v3.106h10.667V6.721c0-3.03-2.396-5.49-5.336-5.49-2.867 0-5.209 2.335-5.331 5.25zM1.5 10.818v.011h1.167v-.011h12.137v7.619c0 1.285-1.014 2.333-2.267 2.333h-9.07c-1.248 0-2.267-1.044-2.267-2.333v-7.62h.3z"/></defs></svg>