<svg width="29" height="20" viewBox="0 0 29 20" xmlns="http://www.w3.org/2000/svg" xmlns:xlink="http://www.w3.org/1999/xlink"><title>Fill 1</title><desc>Created using Figma</desc><use xlink:href="#a" transform="translate(.71 .61)" fill="#B7B7B7"/><defs><path id="a" fill-rule="evenodd" d="M24.084 10.59c.082-.072.018.027.08-.117l.146-.508c.784-.025 1.326-.084 1.96-.335l1.306-.89c-.432-.006-.887.11-1.59.002l-1.425-.297c.117-.074.298-.077.465-.101a5.71 5.71 0 0 0 .487-.088c.329-.076.57-.15.845-.276l1.095-1.066c-.5.196-.952.277-1.626.285-.328.003-1.519-.015-1.628-.306-.131-.346-.13-.672-.402-1.319a6.789 6.789 0 0 0-.631-1.16 6.396 6.396 0 0 0-1.838-1.805l-3.002-.836c.189-.18.896-.321 1.151-.389 1.338-.355 1.222-.841.899-.931-.413-.116-1.423.262-1.873.4L19.31 0c-.841.078-1.39.496-2.02.882l.261-.64c-.793.265-2.224 2.145-2.62 2.898l-1.679 3.664c-.143-.058-1.137-1.07-1.896-1.522-.662-.394-1.547-.815-2.307-1.165-1.832-.844-3.14-1.357-5.016-2.04-.093 1.638.964 2.54 2.282 3.42l-1.606.21c.027.7.57 1.428.983 1.778.749.637 1.141.639 1.829.898l.142.072c-1.109.191-.778.069-1.74.69.012.436.965 1.363 1.685 1.523l1.602.206c-.111.1-.284.172-.415.256a1.227 1.227 0 0 0-.349.307c-.22.266-.336.569-.19.938l1.854.841c-.099.196-.704.68-.908.82-1.11.765-2.358 1.303-3.949 1.373a7.634 7.634 0 0 1-3.088-.51C1.169 14.504.76 14.172 0 13.588c.223.382.728.91 1.037 1.235 2.91 3.069 7.615 4.763 12.535 3.89 3.003-.535 4.94-1.566 6.698-2.845.29-.21.98-.827 1.23-1.082.763-.785 1.444-1.626 1.942-2.597.149-.292.665-1.3.642-1.597z"/></defs></svg>