<svg viewBox="0 0 71 23" xmlns="http://www.w3.org/2000/svg"><title>Group 25</title><g fill="none" fill-rule="evenodd"><path fill="#00599F" d="M25.045 21.771L28.623.672h5.722l-3.58 21.099zm26.472-20.58C50.384.764 48.607.306 46.39.306c-5.654 0-9.637 2.861-9.671 6.962-.03 3.032 2.843 4.723 5.014 5.733 2.228 1.034 2.975 1.693 2.965 2.617-.014 1.414-1.778 2.06-3.423 2.06-2.29 0-3.507-.32-5.386-1.106l-.737-.337-.803 4.723c1.337.59 3.808 1.1 6.374 1.125 6.014 0 9.919-2.828 9.963-7.207.022-2.4-1.502-4.227-4.803-5.733-2-.976-3.225-1.626-3.212-2.615 0-.877 1.036-1.815 3.276-1.815 1.872-.03 3.227.38 4.283.808l.512.243.776-4.573m7.617 13.1c.472-1.214 2.279-5.897 2.279-5.897-.034.055.47-1.222.759-2.013L62.56 8.2l1.324 6.091h-4.75zM66.19.692h-4.421c-1.37 0-2.396.377-2.997 1.75l-8.498 19.336h6.009s.982-2.6 1.205-3.171c.656 0 6.493.01 7.328.01.17.738.696 3.161.696 3.161h5.309L66.19.692zM20.246.687l-5.602 14.39-.597-2.926C13.004 8.78 9.755 5.129 6.123 3.3l5.122 18.452 6.054-.007L26.307.687h-6.061"/><path d="M9.447.675H.22l-.073.439C7.326 2.86 12.075 7.08 14.048 12.15L12.04 2.457C11.695 1.12 10.691.72 9.447.675" fill="#F8A51C"/></g></svg>