<svg width="18" height="21" viewBox="0 0 18 21" xmlns="http://www.w3.org/2000/svg" xmlns:xlink="http://www.w3.org/1999/xlink"><title>Fill 5</title><desc>Created using Figma</desc><use xlink:href="#a" transform="translate(.64 .47)" fill="#B7B7B7"/><defs><path id="a" fill-rule="evenodd" d="M5.626 15.43h2.846c.962 0 1.639-.182 2.03-.553.395-.371.592-.87.592-1.496 0-.58-.193-1.048-.584-1.4-.39-.354-1.071-.531-2.05-.531H5.626v3.98zm0-7.72h2.425c.87 0 1.475-.164 1.82-.489.34-.33.508-.8.508-1.414 0-.572-.167-1.02-.507-1.34-.346-.326-.938-.486-1.783-.486H5.626v3.73zM0 0h10.443c1.74 0 3.077.472 4.005 1.41.933.937 1.4 2.1 1.4 3.482 0 1.162-.332 2.16-.997 2.993-.445.553-1.093.993-1.946 1.313 1.295.338 2.25.924 2.862 1.748.61.829.916 1.867.916 3.117 0 1.02-.218 1.935-.65 2.75a5.058 5.058 0 0 1-1.787 1.931c-.466.293-1.172.508-2.118.64-1.257.18-2.088.27-2.5.27H0V0z"/></defs></svg>