<svg width="29" height="29" viewBox="0 0 29 29" xmlns="http://www.w3.org/2000/svg"><title>Page 1</title><g stroke-width="2" stroke="#FFF" fill="none" fill-rule="evenodd"><path d="M24.802 11.516c-.069 0-.138.004-.206.008a10.44 10.44 0 0 0-.849-2.049 2.988 2.988 0 1 0-4.214-4.214 10.45 10.45 0 0 0-2.05-.849 2.988 2.988 0 1 0-5.96 0c-.717.212-1.403.497-2.048.849a2.987 2.987 0 1 0-4.214 4.214 10.441 10.441 0 0 0-.85 2.05 2.988 2.988 0 1 0 0 5.96c.212.717.498 1.403.85 2.048a2.987 2.987 0 1 0 4.214 4.214c.645.352 1.33.638 2.049.85a2.988 2.988 0 1 0 5.96 0 10.452 10.452 0 0 0 2.049-.85 2.988 2.988 0 1 0 4.214-4.214c.352-.645.637-1.331.849-2.05a2.988 2.988 0 1 0 .206-5.968v.001z" stroke-linecap="round" stroke-linejoin="round"/><path d="M18.763 14.504a4.26 4.26 0 1 1-8.518 0 4.26 4.26 0 0 1 8.518 0z"/></g></svg>